<?xml version="1.0" encoding="UTF-8" standalone="no"?>
<svg
   xmlns:svg="http://www.w3.org/2000/svg"
   xmlns="http://www.w3.org/2000/svg"
   width="400.0"
   height="300.0"

>
    <g transform="scale(0.56249999971875, -0.56249999971875)   translate(8.888888993333333,-208.88888899333332)" stroke-width="0.5"  fill="none">
       <!-- hidden lines -->
       <g  stroke="rgb(160,160,160)" fill="none" stroke-dasharray="0.5,0.5" >
			<path d="M20.0,180.44765887180688 L20.0,72.29821609249025 " />
			<path d="M20.00000000000002,72.29821609249025 L0.0,72.29821609249025 " />
			<path d="M0.0,180.44765887180688 L0.0,72.29821609249025 " />
			<path d="M20.0,72.29821609249025 L20.0,61.23078681519983 " />
			<path d="M20.0,51.96152422706 L20.0,53.081168988093374 L20.0,54.18673356662372 L20.0,55.264314846612514 L20.0,56.30036161823665 L20.0,57.28184499221462 L20.0,58.196422245648726 L20.0,59.03259203892694 L20.0,59.779839051741774 L20.0,60.42876621934426 L20.0,60.971212906085476 L20.0,61.40035753014475 L20.0,61.710803348879026 L20.0,61.89864632599286 L20.0,61.96152422706 " />
			<path d="M20.0,61.96152422706 L20.0,61.95774990004849 L20.0,61.94642976812305 L20.0,61.92757237645964 L20.0,61.90119195985079 L20.0,61.867308431960296 L20.0,61.825947370291075 L20.0,61.77713999687757 L20.0,61.72092315471737 L20.0,61.65733927995963 L20.0,61.58643636987155 L20.0,61.50826794660688 L20.0,61.42289301680388 L20.0,61.33037602704331 L20.0,61.230786815199835 " />
			<path d="M20.0,42.69226163892018 L20.0,42.5926724270765 L20.0,42.50015543731574 L20.0,42.4147805075126 L20.0,42.33661208424782 L20.0,42.26570917415965 L20.0,42.202125299401864 L20.0,42.145908457241646 L20.0,42.09710108382816 L20.0,42.055740022158986 L20.0,42.02185649426857 L20.0,41.99547607765983 L20.0,41.97661868599656 L20.0,41.9652985540713 L20.0,41.96152422706 " />
			<path d="M20.0,41.96152422706 L20.0,42.02440212812801 L20.0,42.21224510524256 L20.0,42.52269092397741 L20.0,42.951835548037096 L20.0,43.49428223477858 L20.0,44.14320940238119 L20.0,44.890456415196 L20.0,45.726626208474066 L20.0,46.64120346190791 L20.0,47.62268683588551 L20.0,48.65873360750919 L20.0,49.736314887497464 L20.0,50.84187946602725 L20.0,51.96152422705992 " />
			<path d="M20.0,42.69226163892018 L20.0,0.0 " />
			<path d="M20.0,0.0 L20.0,1.1196447610333724 L20.0,2.2252093395637202 L20.0,3.302790619552508 L20.0,4.3388373911766465 L20.0,5.320320765154617 L20.0,6.234898018588721 L20.0,7.0710678118669374 L20.0,7.818314824681771 L20.0,8.467241992284256 L20.0,9.009688679025473 L20.0,9.438833303084749 L20.0,9.749279121819026 L20.0,9.937122098932855 L20.0,9.999999999999998 " />
			<path d="M20.0,10.0 L20.0,9.937122098931995 L20.0,9.749279121817446 L20.0,9.438833303082601 L20.0,9.009688679022908 L20.0,8.467241992281426 L20.0,7.818314824678826 L20.0,7.071067811864015 L20.0,6.2348980185859535 L20.0,5.320320765152122 L20.0,4.3388373911745255 L20.0,3.302790619550846 L20.0,2.2252093395625825 L20.0,1.1196447610328017 L20.0,4.570934516320399e-14 " />
			<path d="M0.0,0.0 L20.0,0.0 " />
			<path d="M0.0,72.29821609249025 L0.0,61.23078681519983 " />
			<path d="M0.0,61.23078681519983 L0.0,61.33037602704341 L0.0,61.422893016804075 L0.0,61.50826794660714 L0.0,61.58643636987187 L0.0,61.65733927995999 L0.0,61.72092315471776 L0.0,61.77713999687797 L0.0,61.82594737029146 L0.0,61.867308431960666 L0.0,61.90119195985112 L0.0,61.92757237645991 L0.0,61.94642976812325 L0.0,61.9577499000486 L0.0,61.96152422706 " />
			<path d="M0.0,61.96152422706 L0.0,61.89864632599243 L0.0,61.710803348878244 L0.0,61.40035753014368 L0.0,60.9712129060842 L0.0,60.42876621934285 L0.0,59.7798390517403 L0.0,59.03259203892548 L0.0,58.19642224564734 L0.0,57.28184499221337 L0.0,56.300361618235584 L0.0,55.264314846611676 L0.0,54.18673356662315 L0.0,53.08116898809308 L0.0,51.96152422706009 " />
			<path d="M0.0,51.96152422706 L0.0,50.841879466026924 L0.0,49.73631488749686 L0.0,48.65873360750833 L0.0,47.62268683588442 L0.0,46.64120346190664 L0.0,45.726626208472666 L0.0,44.89045641519453 L0.0,44.14320940237971 L0.0,43.49428223477716 L0.0,42.95183554803582 L0.0,42.52269092397633 L0.0,42.21224510524177 L0.0,42.024402128127576 L0.0,41.96152422706 " />
			<path d="M0.0,41.96152422706 L0.0,41.96529855407141 L0.0,41.976618685996755 L0.0,41.9954760776601 L0.0,42.021856494268896 L0.0,42.05574002215935 L0.0,42.09710108382855 L0.0,42.14590845724204 L0.0,42.202125299402255 L0.0,42.26570917416002 L0.0,42.336612084248145 L0.0,42.41478050751287 L0.0,42.50015543731594 L0.0,42.59267242707661 L0.0,42.69226163892017 " />
			<path d="M0.0,42.69226163892018 L0.0,-1.4210854715202004e-14 " />
			<path d="M0.0,-1.3947689259246353e-14 L0.0,1.1196447610330647 L0.0,2.2252093395631305 L0.0,3.302790619551657 L0.0,4.338837391175567 L0.0,5.320320765153352 L0.0,6.234898018587321 L0.0,7.071067811865463 L0.0,7.818314824680285 L0.0,8.46724199228283 L0.0,9.009688679024181 L0.0,9.438833303083666 L0.0,9.749279121818228 L0.0,9.937122098932418 L0.0,9.999999999999988 " />
			<path d="M0.0,9.999999999999993 L0.0,9.937122098932418 L0.0,9.749279121818232 L0.0,9.43883330308367 L0.0,9.009688679024187 L0.0,8.467241992282839 L0.0,7.818314824680295 L0.0,7.071067811865473 L0.0,6.234898018587334 L0.0,5.320320765153364 L0.0,4.33883739117558 L0.0,3.3027906195516703 L0.0,2.225209339563144 L0.0,1.1196447610330784 L0.0,8.862984952801966e-14 " />
			<path d="M20.00000000000002,72.29821609249025 L0.0,72.29821609249025 " />
			<path d="M20.0,61.23078681519983 L0.0,61.23078681519983 " />
			<path d="M20.0,42.69226163892018 L0.0,42.69226163892018 " />
			<path d="M0.0,2.95809457010973e-13 L20.000000000000007,2.95809457010973e-13 " />
			<path d="M20.0,2.9319096500270395e-13 L0.0,2.9319096500270395e-13 " />
			<path d="M20.0,199.99999999999997 L20.0,113.9230484541 " />
			<path d="M20.0,113.9230484541 L0.0,113.9230484541 " />
			<path d="M0.0,199.99999999999997 L0.0,113.9230484541 " />
			<path d="M20.0,103.9230484541 L20.0,105.04269321513267 L20.0,106.14825779366234 L20.0,107.2258390736505 L20.0,108.26188584527411 L20.0,109.24336921925163 L20.0,110.15794647268541 L20.0,110.99411626596346 L20.0,111.74136327877825 L20.0,112.39029044638089 L20.0,112.93273713312242 L20.0,113.36188175718219 L20.0,113.67232757591714 L20.0,113.86017055303182 L20.0,113.9230484541 " />
			<path d="M20.0,99.22847595905188 L20.0,99.53947228050895 L20.0,99.85580896001683 L20.0,100.17710061562563 L20.0,100.50295582891086 L20.0,100.83297762182471 L20.0,101.16676394032068 L20.0,101.503908144162 L20.0,101.84399950231719 L20.0,102.18662369333943 L20.0,102.53136331011989 L20.0,102.87779836840028 L20.0,103.22550681842505 L20.0,103.57406505910984 L20.0,103.92304845409991 " />
			<path d="M20.0,103.9230484541 L20.0,105.04269321513337 L20.0,106.14825779366372 L20.0,107.22583907365251 L20.0,108.26188584527665 L20.0,109.24336921925462 L20.0,110.15794647268872 L20.0,110.99411626596694 L20.0,111.74136327878176 L20.0,112.39029044638426 L20.0,112.93273713312547 L20.0,113.36188175718475 L20.0,113.67232757591903 L20.0,113.86017055303286 L20.0,113.9230484541 " />
			<path d="M20.0,113.9230484541 L20.0,113.81504378530919 L20.0,113.4933627806341 L20.0,112.96495405014791 L20.0,112.24123171583506 L20.0,111.33782885589821 L20.0,110.27425981567171 L20.0,109.07349867954059 L20.0,107.76148300926565 L20.0,106.36655356842999 L20.0,104.91884213548228 L20.0,103.44962062918634 L20.0,101.99062560597558 L20.0,100.57337272069967 L20.0,99.22847595905192 " />
			<path d="M20.0,99.22847595905188 L20.0,99.53947228050895 L20.0,99.85580896001683 L20.0,100.17710061562563 L20.0,100.50295582891086 L20.0,100.83297762182471 L20.0,101.16676394032068 L20.0,101.503908144162 L20.0,101.84399950231719 L20.0,102.18662369333943 L20.0,102.53136331011989 L20.0,102.87779836840028 L20.0,103.22550681842505 L20.0,103.57406505910984 L20.0,103.92304845409991 " />
			<path d="M20.0,180.44765887180688 L20.0,99.22847595905188 " />
			<path d="M20.00000000000002,99.22847595905188 L0.0,99.22847595905188 " />
			<path d="M0.0,180.44765887180688 L0.0,99.22847595905188 " />
			<path d="M0.0,113.9230484541 L0.0,113.86017055303184 L0.0,113.67232757591715 L0.0,113.36188175718219 L0.0,112.93273713312242 L0.0,112.39029044638089 L0.0,111.74136327877827 L0.0,110.99411626596346 L0.0,110.15794647268542 L0.0,109.24336921925165 L0.0,108.26188584527411 L0.0,107.22583907365052 L0.0,106.14825779366235 L0.0,105.04269321513267 L0.0,103.9230484541001 " />
			<path d="M0.0,103.92304845410001 L0.0,103.57406505910987 L0.0,103.22550681842506 L0.0,102.87779836840029 L0.0,102.5313633101199 L0.0,102.18662369333944 L0.0,101.8439995023172 L0.0,101.50390814416201 L0.0,101.16676394032069 L0.0,100.83297762182471 L0.0,100.50295582891087 L0.0,100.17710061562565 L0.0,99.85580896001683 L0.0,99.53947228050895 L0.0,99.22847595905188 " />
			<path d="M0.0,99.22847595905188 L0.0,100.57337272069996 L0.0,101.99062560597616 L0.0,103.44962062918724 L0.0,104.91884213548346 L0.0,106.36655356843144 L0.0,107.7614830092673 L0.0,109.07349867954237 L0.0,110.27425981567353 L0.0,111.33782885589999 L0.0,112.24123171583669 L0.0,112.9649540501493 L0.0,113.49336278063512 L0.0,113.81504378530975 L0.0,113.9230484541 " />
			<path d="M0.0,113.9230484541 L0.0,113.86017055303242 L0.0,113.67232757591823 L0.0,113.36188175718368 L0.0,112.93273713312419 L0.0,112.39029044638283 L0.0,111.7413632787803 L0.0,110.99411626596547 L0.0,110.15794647268734 L0.0,109.24336921925337 L0.0,108.26188584527559 L0.0,107.22583907365167 L0.0,106.14825779366315 L0.0,105.04269321513308 L0.0,103.92304845410008 " />
			<path d="M0.0,103.9230484541 L0.0,103.57406505910986 L0.0,103.22550681842506 L0.0,102.87779836840029 L0.0,102.53136331011989 L0.0,102.18662369333943 L0.0,101.84399950231719 L0.0,101.503908144162 L0.0,101.16676394032069 L0.0,100.83297762182471 L0.0,100.50295582891086 L0.0,100.17710061562565 L0.0,99.85580896001683 L0.0,99.53947228050895 L0.0,99.22847595905188 " />
			<path d="M20.0,99.22847595905188 L0.0,99.22847595905188 " />
			<path d="M20.0,99.22847595905188 L0.0,99.22847595905188 " />
			<path d="M20.0,99.22847595905188 L0.0,99.22847595905188 " />
			<path d="M20.0,99.22847595905188 L20.0,98.56069785411074 L20.0,97.92494068560343 L20.0,97.32500083713089 L20.0,96.76446081143958 L20.0,96.24666783773367 L20.0,95.77471388390818 L20.0,95.3514171930588 L20.0,94.97930545452206 L20.0,94.66060070993882 L20.0,94.39720608447352 L20.0,94.19069442242304 L20.0,94.04229889507673 L20.0,93.95290563691229 L20.0,93.9230484541 " />
			<path d="M20.0,93.9230484541 L20.0,93.95290563691289 L20.0,94.0422988950778 L20.0,94.19069442242453 L20.0,94.39720608447531 L20.0,94.66060070994082 L20.0,94.97930545452418 L20.0,95.35141719306094 L20.0,95.77471388391024 L20.0,96.24666783773557 L20.0,96.76446081144124 L20.0,97.32500083713224 L20.0,97.9249406856044 L20.0,98.56069785411127 L20.0,99.2284759590518 " />
			<path d="M20.0,93.9230484541 L20.0,93.952905636913 L20.0,94.04229889507802 L20.0,94.19069442242481 L20.0,94.39720608447566 L20.0,94.6606007099412 L20.0,94.97930545452458 L20.0,95.35141719306134 L20.0,95.77471388391062 L20.0,96.24666783773593 L20.0,96.76446081144154 L20.0,97.32500083713248 L20.0,97.92494068560455 L20.0,98.56069785411133 L20.0,99.2284759590518 " />
			<path d="M20.0,93.9230484541 L20.0,10.0 " />
			<path d="M20.0,0.0 L20.0,1.1196447610326734 L20.0,2.2252093395623493 L20.0,3.3027906195505166 L20.0,4.3388373911741125 L20.0,5.3203207651516395 L20.0,6.234898018585423 L20.0,7.071067811863458 L20.0,7.818314824678265 L20.0,8.46724199228089 L20.0,9.009688679022421 L20.0,9.438833303082193 L20.0,9.749279121817146 L20.0,9.937122098931832 L20.0,9.999999999999998 " />
			<path d="M20.0,0.0 L20.0,1.1196447610333724 L20.0,2.2252093395637202 L20.0,3.302790619552508 L20.0,4.3388373911766465 L20.0,5.320320765154617 L20.0,6.234898018588721 L20.0,7.0710678118669374 L20.0,7.818314824681771 L20.0,8.467241992284256 L20.0,9.009688679025473 L20.0,9.438833303084749 L20.0,9.749279121819026 L20.0,9.937122098932855 L20.0,9.999999999999998 " />
			<path d="M20.0,10.0 L20.0,9.937122098931995 L20.0,9.749279121817446 L20.0,9.438833303082601 L20.0,9.009688679022908 L20.0,8.467241992281426 L20.0,7.818314824678826 L20.0,7.071067811864015 L20.0,6.2348980185859535 L20.0,5.320320765152122 L20.0,4.3388373911745255 L20.0,3.302790619550846 L20.0,2.2252093395625825 L20.0,1.1196447610328017 L20.0,4.570934516320399e-14 " />
			<path d="M20.0,42.69226163892018 L20.0,0.0 " />
			<path d="M20.0,61.23078681519983 L20.0,60.46522761546976 L20.0,59.45608808689123 L20.0,58.23227405166873 L20.0,56.82884047486081 L20.0,55.28598734893447 L20.0,53.64790820400394 L20.0,51.96152422706002 L20.0,50.275140250116095 L20.0,48.637061105185566 L20.0,47.094207979259224 L20.0,45.6907744024513 L20.0,44.46696036722879 L20.0,43.45782083865026 L20.0,42.69226163892022 " />
			<path d="M20.0,99.22847595905188 L20.0,61.23078681519983 " />
			<path d="M20.0,51.96152422706 L20.0,53.081168988093374 L20.0,54.18673356662372 L20.0,55.264314846612514 L20.0,56.30036161823665 L20.0,57.28184499221462 L20.0,58.196422245648726 L20.0,59.03259203892694 L20.0,59.779839051741774 L20.0,60.42876621934426 L20.0,60.971212906085476 L20.0,61.40035753014475 L20.0,61.710803348879026 L20.0,61.89864632599286 L20.0,61.96152422706 " />
			<path d="M20.0,61.96152422706 L20.0,61.71080334887732 L20.0,60.9712129060824 L20.0,59.779839051737724 L20.0,58.1964222456441 L20.0,56.300361618231854 L20.0,54.18673356661911 L20.0,51.96152422705587 L20.0,49.736314887492824 L20.0,47.62268683588069 L20.0,45.72662620846943 L20.0,44.143209402377124 L20.0,42.95183554803402 L20.0,42.21224510524085 L20.0,41.96152422706001 " />
			<path d="M20.0,41.96152422706 L20.0,42.02440212812801 L20.0,42.21224510524256 L20.0,42.52269092397741 L20.0,42.951835548037096 L20.0,43.49428223477858 L20.0,44.14320940238119 L20.0,44.890456415196 L20.0,45.726626208474066 L20.0,46.64120346190791 L20.0,47.62268683588551 L20.0,48.65873360750919 L20.0,49.736314887497464 L20.0,50.84187946602725 L20.0,51.96152422705992 " />
			<path d="M20.00000000000002,99.22847595905188 L0.0,99.22847595905188 " />
			<path d="M20.0,99.22847595905188 L0.0,99.22847595905188 " />
			<path d="M20.0,99.22847595905188 L0.0,99.22847595905188 " />
			<path d="M0.0,99.22847595905188 L0.0,98.56069785411098 L0.0,97.9249406856039 L0.0,97.32500083713154 L0.0,96.76446081144039 L0.0,96.2466678377346 L0.0,95.7747138839092 L0.0,95.35141719305986 L0.0,94.97930545452311 L0.0,94.66060070993981 L0.0,94.39720608447442 L0.0,94.19069442242377 L0.0,94.04229889507727 L0.0,93.95290563691259 L0.0,93.9230484541 " />
			<path d="M0.0,93.9230484541 L0.0,93.95290563691259 L0.0,94.04229889507727 L0.0,94.19069442242377 L0.0,94.39720608447442 L0.0,94.66060070993981 L0.0,94.97930545452311 L0.0,95.35141719305986 L0.0,95.7747138839092 L0.0,96.2466678377346 L0.0,96.76446081144039 L0.0,97.32500083713155 L0.0,97.9249406856039 L0.0,98.56069785411098 L0.0,99.22847595905183 " />
			<path d="M20.0,99.22847595905188 L0.0,99.22847595905188 " />
			<path d="M20.0,93.9230484541 L0.0,93.9230484541 " />
			<path d="M0.0,99.22847595905188 L0.0,98.56069785411133 L0.0,97.92494068560455 L0.0,97.32500083713246 L0.0,96.76446081144154 L0.0,96.24666783773591 L0.0,95.77471388391062 L0.0,95.35141719306132 L0.0,94.97930545452458 L0.0,94.6606007099412 L0.0,94.39720608447566 L0.0,94.19069442242481 L0.0,94.04229889507802 L0.0,93.952905636913 L0.0,93.9230484541 " />
			<path d="M20.0,10.0 L0.0,10.0 " />
			<path d="M0.0,93.9230484541 L0.0,10.000000000000004 " />
			<path d="M0.0,10.000000000000004 L0.0,9.937122098931837 L0.0,9.749279121817152 L0.0,9.4388333030822 L0.0,9.00968867902243 L0.0,8.467241992280897 L0.0,7.818314824678273 L0.0,7.071067811863467 L0.0,6.234898018585433 L0.0,5.320320765151652 L0.0,4.338837391174125 L0.0,3.3027906195505308 L0.0,2.225209339562365 L0.0,1.11964476103269 L0.0,8.862984952798891e-14 " />
			<path d="M0.0,0.0 L20.0,0.0 " />
			<path d="M20.0,2.9319096500270395e-13 L0.0,2.9319096500270395e-13 " />
			<path d="M0.0,9.877978887873647e-15 L0.0,1.1196447610330882 L0.0,2.225209339563154 L0.0,3.30279061955168 L0.0,4.33883739117559 L0.0,5.320320765153374 L0.0,6.2348980185873435 L0.0,7.0710678118654835 L0.0,7.818314824680305 L0.0,8.467241992282847 L0.0,9.009688679024197 L0.0,9.43883330308368 L0.0,9.749279121818242 L0.0,9.937122098932429 L0.0,9.999999999999998 " />
			<path d="M0.0,10.000000000000004 L0.0,9.937122098932429 L0.0,9.749279121818239 L0.0,9.438833303083678 L0.0,9.009688679024192 L0.0,8.467241992282842 L0.0,7.818314824680299 L0.0,7.071067811865477 L0.0,6.234898018587336 L0.0,5.320320765153367 L0.0,4.3388373911755815 L0.0,3.302790619551671 L0.0,2.2252093395631443 L0.0,1.1196447610330784 L0.0,8.862984952801966e-14 " />
			<path d="M0.0,0.0 L20.0,0.0 " />
			<path d="M0.0,2.95809457010973e-13 L20.000000000000007,2.95809457010973e-13 " />
			<path d="M20.0,42.69226163892018 L0.0,42.69226163892018 " />
			<path d="M0.0,42.69226163892018 L0.0,-1.4210854715202004e-14 " />
			<path d="M20.0,61.23078681519983 L0.0,61.23078681519983 " />
			<path d="M0.0,42.69226163892018 L0.0,43.45782083865025 L0.0,44.46696036722878 L0.0,45.690774402451275 L0.0,47.094207979259195 L0.0,48.63706110518554 L0.0,50.27514025011607 L0.0,51.96152422705999 L0.0,53.64790820400391 L0.0,55.28598734893444 L0.0,56.82884047486078 L0.0,58.23227405166871 L0.0,59.456088086891214 L0.0,60.46522761546975 L0.0,61.230786815199785 " />
			<path d="M0.0,99.22847595905188 L0.0,61.23078681519983 " />
			<path d="M0.0,51.96152422706 L0.0,50.841879466026924 L0.0,49.73631488749686 L0.0,48.65873360750833 L0.0,47.62268683588442 L0.0,46.64120346190664 L0.0,45.726626208472666 L0.0,44.89045641519453 L0.0,44.1432094023797 L0.0,43.49428223477716 L0.0,42.95183554803581 L0.0,42.52269092397633 L0.0,42.21224510524176 L0.0,42.024402128127576 L0.0,41.96152422706 " />
			<path d="M0.0,41.96152422706 L0.0,42.21224510524176 L0.0,42.95183554803581 L0.0,44.1432094023797 L0.0,45.726626208472666 L0.0,47.62268683588442 L0.0,49.73631488749686 L0.0,51.96152422706 L0.0,54.18673356662315 L0.0,56.300361618235584 L0.0,58.19642224564734 L0.0,59.779839051740296 L0.0,60.97121290608419 L0.0,61.710803348878244 L0.0,61.961524227059996 " />
			<path d="M0.0,61.96152422706 L0.0,61.89864632599243 L0.0,61.710803348878244 L0.0,61.40035753014368 L0.0,60.9712129060842 L0.0,60.42876621934285 L0.0,59.7798390517403 L0.0,59.03259203892548 L0.0,58.19642224564734 L0.0,57.28184499221337 L0.0,56.300361618235584 L0.0,55.264314846611676 L0.0,54.18673356662315 L0.0,53.08116898809308 L0.0,51.96152422706009 " />
			<path d="M20.0,2.913225216616411e-13 L20.0,-42.692261638930276 " />
			<path d="M20.0,-51.961524227066 L20.0,-50.84187946603263 L20.0,-49.73631488750228 L20.0,-48.65873360751349 L20.0,-47.622686835889354 L20.0,-46.64120346191138 L20.0,-45.72662620847728 L20.0,-44.89045641519906 L20.0,-44.14320940238423 L20.0,-43.49428223478174 L20.0,-42.95183554804053 L20.0,-42.52269092398125 L20.0,-42.21224510524698 L20.0,-42.02440212813315 L20.0,-41.961524227066 " />
			<path d="M20.0,-41.961524227066 L20.0,-41.965298554077535 L20.0,-41.976618686003036 L20.0,-41.99547607766655 L20.0,-42.02185649427555 L20.0,-42.05574002216625 L20.0,-42.0971010838357 L20.0,-42.145908457249476 L20.0,-42.20212529941 L20.0,-42.265709174168094 L20.0,-42.33661208425657 L20.0,-42.414780507521684 L20.0,-42.500155437325155 L20.0,-42.59267242708625 L20.0,-42.69226163893027 " />
			<path d="M20.0,-61.230786815201725 L20.0,-61.33037602704596 L20.0,-61.42289301680723 L20.0,-61.50826794661084 L20.0,-61.58643636987607 L20.0,-61.65733927996463 L20.0,-61.720923154722776 L20.0,-61.77713999688332 L20.0,-61.82594737029707 L20.0,-61.867308431966485 L20.0,-61.901191959857094 L20.0,-61.92757237646598 L20.0,-61.946429768129356 L20.0,-61.95774990005468 L20.0,-61.961524227066 " />
			<path d="M20.0,-61.961524227066 L20.0,-61.898646325997994 L20.0,-61.710803348883445 L20.0,-61.4003575301486 L20.0,-60.97121290608891 L20.0,-60.42876621934742 L20.0,-59.779839051744815 L20.0,-59.032592038930005 L20.0,-58.19642224565194 L20.0,-57.2818449922181 L20.0,-56.300361618240494 L20.0,-55.26431484661681 L20.0,-54.18673356662854 L20.0,-53.08116898809875 L20.0,-51.961524227066086 " />
			<path d="M20.0,-61.230786815201725 L20.0,-72.29821609250311 " />
			<path d="M20.0,1.2246467991473533e-15 L20.0,-1.119644761033373 L20.0,-2.225209339563723 L20.0,-3.302790619552512 L20.0,-4.338837391176652 L20.0,-5.320320765154624 L20.0,-6.23489801858873 L20.0,-7.071067811866946 L20.0,-7.8183148246817815 L20.0,-8.467241992284263 L20.0,-9.009688679025478 L20.0,-9.43883330308475 L20.0,-9.749279121819027 L20.0,-9.937122098932855 L20.0,-9.999999999999995 " />
			<path d="M20.0,-10.0 L20.0,-9.937122098931995 L20.0,-9.749279121817446 L20.0,-9.4388333030826 L20.0,-9.009688679022904 L20.0,-8.46724199228142 L20.0,-7.818314824678815 L20.0,-7.071067811864001 L20.0,-6.234898018585935 L20.0,-5.320320765152097 L20.0,-4.338837391174495 L20.0,-3.3027906195508097 L20.0,-2.2252093395625403 L20.0,-1.1196447610327545 L20.0,-9.107234018216917e-14 " />
			<path d="M20.000000000000025,-72.29821609250311 L0.0,-72.29821609250311 " />
			<path d="M0.0,-2.4492935982950004e-15 L0.0,-1.119644761033081 L0.0,-2.2252093395631465 L0.0,-3.302790619551673 L0.0,-4.338837391175585 L0.0,-5.320320765153369 L0.0,-6.234898018587338 L0.0,-7.071067811865479 L0.0,-7.818314824680303 L0.0,-8.467241992282844 L0.0,-9.009688679024197 L0.0,-9.438833303083682 L0.0,-9.749279121818242 L0.0,-9.937122098932432 L0.0,-10.000000000000005 " />
			<path d="M0.0,-10.000000000000007 L0.0,-9.937122098932432 L0.0,-9.749279121818246 L0.0,-9.438833303083685 L0.0,-9.009688679024201 L0.0,-8.467241992282853 L0.0,-7.818314824680311 L0.0,-7.071067811865487 L0.0,-6.234898018587348 L0.0,-5.3203207651533795 L0.0,-4.338837391175595 L0.0,-3.3027906195516845 L0.0,-2.2252093395631576 L0.0,-1.1196447610330924 L0.0,-5.836588764394179e-14 " />
			<path d="M0.0,2.913225216616411e-13 L0.0,-42.692261638930276 " />
			<path d="M0.0,-42.692261638930276 L0.0,-42.59267242708614 L0.0,-42.50015543732496 L0.0,-42.41478050752142 L0.0,-42.33661208425625 L0.0,-42.26570917416773 L0.0,-42.20212529940961 L0.0,-42.14590845724908 L0.0,-42.09710108383531 L0.0,-42.05574002216588 L0.0,-42.02185649427523 L0.0,-41.99547607766628 L0.0,-41.97661868600284 L0.0,-41.96529855407743 L0.0,-41.961524227066 " />
			<path d="M0.0,-41.961524227066 L0.0,-42.02440212813357 L0.0,-42.21224510524776 L0.0,-42.522690923982324 L0.0,-42.95183554804181 L0.0,-43.49428223478316 L0.0,-44.1432094023857 L0.0,-44.890456415200525 L0.0,-45.72662620847866 L0.0,-46.64120346191263 L0.0,-47.62268683589042 L0.0,-48.65873360751433 L0.0,-49.73631488750286 L0.0,-50.84187946603292 L0.0,-51.961524227065915 " />
			<path d="M0.0,-51.961524227066 L0.0,-53.08116898809908 L0.0,-54.186733566629144 L0.0,-55.26431484661767 L0.0,-56.30036161824158 L0.0,-57.28184499221936 L0.0,-58.19642224565334 L0.0,-59.032592038931476 L0.0,-59.77983905174629 L0.0,-60.428766219348844 L0.0,-60.97121290609019 L0.0,-61.40035753014968 L0.0,-61.710803348884234 L0.0,-61.89864632599843 L0.0,-61.961524227066 " />
			<path d="M0.0,-61.961524227066 L0.0,-61.95774990005457 L0.0,-61.946429768129164 L0.0,-61.92757237646571 L0.0,-61.90119195985677 L0.0,-61.86730843196612 L0.0,-61.82594737029669 L0.0,-61.77713999688292 L0.0,-61.72092315472239 L0.0,-61.65733927996426 L0.0,-61.58643636987575 L0.0,-61.50826794661058 L0.0,-61.42289301680704 L0.0,-61.33037602704586 L0.0,-61.23078681520173 " />
			<path d="M0.0,-61.230786815201725 L0.0,-72.29821609250311 " />
			<path d="M20.0,2.9319096500270395e-13 L0.0,2.9319096500270395e-13 " />
			<path d="M0.0,2.95809457010973e-13 L20.000000000000007,2.95809457010973e-13 " />
			<path d="M20.0,-42.692261638930276 L0.0,-42.692261638930276 " />
			<path d="M20.0,-61.230786815201725 L0.0,-61.230786815201725 " />
			<path d="M20.000000000000025,-72.29821609250311 L0.0,-72.29821609250311 " />
			<path d="M20.0,-72.29821609250311 L20.0,-180.44765887181177 " />
			<path d="M0.0,-72.29821609250311 L0.0,-180.44765887181177 " />
			<path d="M20.000000000000025,-99.22847595905114 L0.0,-99.22847595905114 " />
			<path d="M0.0,-61.230786815201725 L0.0,-99.22847595905114 " />
			<path d="M20.0,-61.230786815201725 L0.0,-61.230786815201725 " />
			<path d="M20.0,-61.230786815201725 L20.0,-99.22847595905114 " />
			<path d="M20.0,-99.22847595905114 L0.0,-99.22847595905114 " />
			<path d="M0.0,-61.230786815201725 L0.0,-60.46522761547082 L0.0,-59.45608808689205 L0.0,-58.23227405166986 L0.0,-56.8288404748627 L0.0,-55.28598734893751 L0.0,-53.64790820400838 L0.0,-51.961524227066 L0.0,-50.27514025012361 L0.0,-48.63706110519448 L0.0,-47.09420797926929 L0.0,-45.69077440246214 L0.0,-44.46696036723994 L0.0,-43.45782083866117 L0.0,-42.69226163893032 " />
			<path d="M0.0,2.913225216616411e-13 L0.0,-42.692261638930276 " />
			<path d="M0.0,-2.4492935982949996e-15 L0.0,-1.119644761033081 L0.0,-2.225209339563146 L0.0,-3.302790619551672 L0.0,-4.338837391175583 L0.0,-5.320320765153366 L0.0,-6.2348980185873355 L0.0,-7.071067811865475 L0.0,-7.818314824680298 L0.0,-8.46724199228284 L0.0,-9.009688679024192 L0.0,-9.438833303083674 L0.0,-9.749279121818235 L0.0,-9.937122098932422 L0.0,-9.999999999999995 " />
			<path d="M0.0,-9.999999999999996 L0.0,-9.937122098932422 L0.0,-9.749279121818232 L0.0,-9.43883330308367 L0.0,-9.009688679024185 L0.0,-8.467241992282835 L0.0,-7.81831482468029 L0.0,-7.071067811865467 L0.0,-6.234898018587326 L0.0,-5.320320765153357 L0.0,-4.338837391175572 L0.0,-3.3027906195516614 L0.0,-2.225209339563134 L0.0,-1.1196447610330689 L0.0,-3.460711491696345e-14 " />
			<path d="M0.0,-2.449293598295e-15 L0.0,-1.1196447610326752 L0.0,-2.2252093395623502 L0.0,-3.302790619550517 L0.0,-4.338837391174112 L0.0,-5.320320765151638 L0.0,-6.234898018585421 L0.0,-7.071067811863454 L0.0,-7.818314824678261 L0.0,-8.467241992280886 L0.0,-9.009688679022418 L0.0,-9.43883330308219 L0.0,-9.749279121817144 L0.0,-9.937122098931827 L0.0,-9.999999999999995 " />
			<path d="M0.0,-9.999999999999996 L0.0,-93.92304845413 " />
			<path d="M0.0,-93.92304845413 L0.0,-93.9529056369428 L0.0,-94.04229889510725 L0.0,-94.19069442245309 L0.0,-94.39720608450261 L0.0,-94.6606007099665 L0.0,-94.97930545454788 L0.0,-95.35141719308234 L0.0,-95.77471388392907 L0.0,-96.24666783775156 L0.0,-96.76446081145414 L0.0,-97.32500083714189 L0.0,-97.92494068561065 L0.0,-98.56069785411401 L0.0,-99.22847595905107 " />
			<path d="M0.0,-99.22847595905114 L0.0,-98.5606978541137 L0.0,-97.92494068561003 L0.0,-97.32500083714099 L0.0,-96.76446081145303 L0.0,-96.24666783775027 L0.0,-95.77471388392766 L0.0,-95.35141719308089 L0.0,-94.97930545454645 L0.0,-94.66060070996514 L0.0,-94.39720608450139 L0.0,-94.19069442245205 L0.0,-94.0422988951065 L0.0,-93.9529056369424 L0.0,-93.92304845413 " />
			<path d="M0.0,-93.92304845413 L0.0,-93.9529056369424 L0.0,-94.0422988951065 L0.0,-94.19069442245205 L0.0,-94.39720608450139 L0.0,-94.66060070996514 L0.0,-94.97930545454645 L0.0,-95.35141719308089 L0.0,-95.77471388392766 L0.0,-96.24666783775027 L0.0,-96.76446081145303 L0.0,-97.32500083714099 L0.0,-97.92494068561003 L0.0,-98.5606978541137 L0.0,-99.22847595905107 " />
			<path d="M0.0,-51.961524227066 L0.0,-53.08116898809908 L0.0,-54.186733566629144 L0.0,-55.26431484661767 L0.0,-56.30036161824158 L0.0,-57.28184499221936 L0.0,-58.19642224565334 L0.0,-59.032592038931476 L0.0,-59.7798390517463 L0.0,-60.428766219348844 L0.0,-60.971212906090194 L0.0,-61.40035753014968 L0.0,-61.71080334888424 L0.0,-61.89864632599843 L0.0,-61.961524227066 " />
			<path d="M0.0,-61.961524227066 L0.0,-61.71080334888424 L0.0,-60.971212906090194 L0.0,-59.7798390517463 L0.0,-58.19642224565334 L0.0,-56.30036161824158 L0.0,-54.186733566629144 L0.0,-51.961524227066 L0.0,-49.73631488750286 L0.0,-47.62268683589042 L0.0,-45.72662620847866 L0.0,-44.14320940238571 L0.0,-42.951835548041814 L0.0,-42.21224510524776 L0.0,-41.96152422706601 " />
			<path d="M0.0,-41.961524227066 L0.0,-42.02440212813357 L0.0,-42.21224510524776 L0.0,-42.522690923982324 L0.0,-42.95183554804181 L0.0,-43.49428223478316 L0.0,-44.1432094023857 L0.0,-44.890456415200525 L0.0,-45.72662620847866 L0.0,-46.64120346191263 L0.0,-47.62268683589042 L0.0,-48.65873360751433 L0.0,-49.73631488750286 L0.0,-50.84187946603292 L0.0,-51.961524227065915 " />
			<path d="M20.0,-42.692261638930276 L20.0,-43.45782083866118 L20.0,-44.46696036723995 L20.0,-45.69077440246214 L20.0,-47.0942079792693 L20.0,-48.63706110519449 L20.0,-50.27514025012362 L20.0,-51.961524227066 L20.0,-53.64790820400839 L20.0,-55.28598734893752 L20.0,-56.82884047486271 L20.0,-58.23227405166986 L20.0,-59.45608808689206 L20.0,-60.46522761547083 L20.0,-61.23078681520168 " />
			<path d="M20.0,-42.692261638930276 L0.0,-42.692261638930276 " />
			<path d="M20.0,2.913225216616411e-13 L20.0,-42.692261638930276 " />
			<path d="M20.0,1.2246467991473533e-15 L20.0,-1.119644761033373 L20.0,-2.225209339563723 L20.0,-3.302790619552512 L20.0,-4.338837391176652 L20.0,-5.320320765154624 L20.0,-6.23489801858873 L20.0,-7.071067811866946 L20.0,-7.8183148246817815 L20.0,-8.467241992284263 L20.0,-9.009688679025478 L20.0,-9.43883330308475 L20.0,-9.749279121819027 L20.0,-9.937122098932855 L20.0,-9.999999999999995 " />
			<path d="M20.0,-10.0 L20.0,-9.937122098931995 L20.0,-9.749279121817446 L20.0,-9.4388333030826 L20.0,-9.009688679022904 L20.0,-8.46724199228142 L20.0,-7.818314824678815 L20.0,-7.071067811864001 L20.0,-6.234898018585935 L20.0,-5.320320765152097 L20.0,-4.338837391174495 L20.0,-3.3027906195508097 L20.0,-2.2252093395625403 L20.0,-1.1196447610327545 L20.0,-9.107234018216917e-14 " />
			<path d="M20.0,-10.0 L20.0,-9.937122098931832 L20.0,-9.749279121817146 L20.0,-9.438833303082195 L20.0,-9.009688679022423 L20.0,-8.46724199228089 L20.0,-7.818314824678268 L20.0,-7.071067811863461 L20.0,-6.234898018585428 L20.0,-5.320320765151645 L20.0,-4.338837391174119 L20.0,-3.3027906195505246 L20.0,-2.2252093395623582 L20.0,-1.1196447610326838 L20.0,-9.107234018216358e-14 " />
			<path d="M20.0,-10.0 L20.0,-93.92304845413 " />
			<path d="M20.0,-99.22847595905114 L20.0,-98.56069785411404 L20.0,-97.92494068561068 L20.0,-97.32500083714191 L20.0,-96.76446081145417 L20.0,-96.24666783775157 L20.0,-95.77471388392908 L20.0,-95.35141719308236 L20.0,-94.9793054545479 L20.0,-94.6606007099665 L20.0,-94.39720608450263 L20.0,-94.19069442245309 L20.0,-94.04229889510725 L20.0,-93.9529056369428 L20.0,-93.92304845413 " />
			<path d="M20.0,-99.22847595905114 L20.0,-98.56069785411344 L20.0,-97.92494068560956 L20.0,-97.32500083714032 L20.0,-96.76446081145221 L20.0,-96.24666783774931 L20.0,-95.77471388392664 L20.0,-95.35141719307983 L20.0,-94.97930545454538 L20.0,-94.66060070996413 L20.0,-94.39720608450048 L20.0,-94.19069442245132 L20.0,-94.04229889510596 L20.0,-93.9529056369421 L20.0,-93.92304845413 " />
			<path d="M20.0,-93.92304845413 L20.0,-93.95290563694269 L20.0,-94.04229889510705 L20.0,-94.19069442245281 L20.0,-94.39720608450229 L20.0,-94.66060070996613 L20.0,-94.9793054545475 L20.0,-95.35141719308196 L20.0,-95.7747138839287 L20.0,-96.24666783775122 L20.0,-96.76446081145386 L20.0,-97.32500083714166 L20.0,-97.9249406856105 L20.0,-98.56069785411394 L20.0,-99.2284759590511 " />
			<path d="M20.0,-51.961524227066 L20.0,-50.84187946603263 L20.0,-49.73631488750228 L20.0,-48.65873360751349 L20.0,-47.622686835889354 L20.0,-46.64120346191138 L20.0,-45.72662620847728 L20.0,-44.89045641519906 L20.0,-44.14320940238423 L20.0,-43.49428223478174 L20.0,-42.95183554804053 L20.0,-42.52269092398125 L20.0,-42.21224510524698 L20.0,-42.02440212813315 L20.0,-41.961524227066 " />
			<path d="M20.0,-41.961524227066 L20.0,-42.212245105248684 L20.0,-42.951835548043604 L20.0,-44.14320940238828 L20.0,-45.7266262084819 L20.0,-47.62268683589415 L20.0,-49.73631488750689 L20.0,-51.961524227070136 L20.0,-54.18673356663318 L20.0,-56.30036161824531 L20.0,-58.19642224565657 L20.0,-59.77983905174888 L20.0,-60.971212906091985 L20.0,-61.71080334888516 L20.0,-61.96152422706599 " />
			<path d="M20.0,-61.961524227066 L20.0,-61.898646325997994 L20.0,-61.710803348883445 L20.0,-61.4003575301486 L20.0,-60.97121290608891 L20.0,-60.42876621934742 L20.0,-59.779839051744815 L20.0,-59.032592038930005 L20.0,-58.19642224565194 L20.0,-57.2818449922181 L20.0,-56.300361618240494 L20.0,-55.26431484661681 L20.0,-54.18673356662854 L20.0,-53.08116898809875 L20.0,-51.961524227066086 " />
			<path d="M20.0,-99.22847595905114 L0.0,-99.22847595905114 " />
			<path d="M0.0,2.95809457010973e-13 L20.000000000000007,2.95809457010973e-13 " />
			<path d="M20.0,2.9319096500270395e-13 L0.0,2.9319096500270395e-13 " />
			<path d="M20.0,-10.0 L0.0,-10.0 " />
			<path d="M20.0,-93.92304845413 L0.0,-93.92304845413 " />
			<path d="M20.0,-99.22847595905114 L0.0,-99.22847595905114 " />
			<path d="M0.0,-99.22847595905114 L0.0,-180.44765887181177 " />
			<path d="M20.000000000000025,-99.22847595905114 L0.0,-99.22847595905114 " />
			<path d="M20.0,-99.22847595905114 L20.0,-180.44765887181177 " />
			<path d="M20.0,-103.92304845413 L20.0,-103.57406505913737 L20.0,-103.22550681845009 L20.0,-102.87779836842287 L20.0,-102.53136331014004 L20.0,-102.18662369335719 L20.0,-101.8439995023326 L20.0,-101.50390814417511 L20.0,-101.16676394033156 L20.0,-100.83297762183342 L20.0,-100.5029558289175 L20.0,-100.17710061563028 L20.0,-99.85580896001957 L20.0,-99.5394722805099 L20.0,-99.22847595905114 " />
			<path d="M20.0,-99.22847595905114 L20.0,-100.57337272069978 L20.0,-101.99062560597747 L20.0,-103.4496206291908 L20.0,-104.91884213548991 L20.0,-106.36655356844118 L20.0,-107.76148300928057 L20.0,-109.07349867955924 L20.0,-110.27425981569385 L20.0,-111.33782885592345 L20.0,-112.24123171586281 L20.0,-112.96495405017751 L20.0,-113.49336278066471 L20.0,-113.81504378533995 L20.0,-113.92304845413 " />
			<path d="M20.0,-113.92304845413 L20.0,-113.86017055306199 L20.0,-113.67232757594745 L20.0,-113.3618817572126 L20.0,-112.9327371331529 L20.0,-112.39029044641141 L20.0,-111.74136327880882 L20.0,-110.994116265994 L20.0,-110.15794647271593 L20.0,-109.2433692192821 L20.0,-108.26188584530449 L20.0,-107.2258390736808 L20.0,-106.14825779369254 L20.0,-105.04269321516276 L20.0,-103.92304845413008 " />
			<path d="M20.0,-103.92304845413 L20.0,-103.57406505913737 L20.0,-103.22550681845009 L20.0,-102.87779836842287 L20.0,-102.53136331014004 L20.0,-102.18662369335719 L20.0,-101.8439995023326 L20.0,-101.50390814417511 L20.0,-101.16676394033156 L20.0,-100.83297762183342 L20.0,-100.5029558289175 L20.0,-100.17710061563028 L20.0,-99.85580896001957 L20.0,-99.5394722805099 L20.0,-99.22847595905114 " />
			<path d="M20.0,-113.92304845413 L20.0,-113.86017055306183 L20.0,-113.67232757594715 L20.0,-113.3618817572122 L20.0,-112.93273713315243 L20.0,-112.3902904464109 L20.0,-111.74136327880828 L20.0,-110.99411626599347 L20.0,-110.15794647271544 L20.0,-109.24336921928166 L20.0,-108.26188584530414 L20.0,-107.22583907368053 L20.0,-106.14825779369237 L20.0,-105.0426932151627 L20.0,-103.92304845413008 " />
			<path d="M20.0,-113.92304845413 L20.0,-200.00000000000003 " />
			<path d="M0.0,-113.92304845413 L0.0,-200.00000000000003 " />
			<path d="M20.0,-113.92304845413 L0.0,-113.92304845413 " />
			<path d="M0.0,-99.22847595905114 L0.0,-99.53947228050988 L0.0,-99.85580896001956 L0.0,-100.17710061563028 L0.0,-100.5029558289175 L0.0,-100.83297762183342 L0.0,-101.16676394033155 L0.0,-101.5039081441751 L0.0,-101.8439995023326 L0.0,-102.18662369335718 L0.0,-102.53136331014002 L0.0,-102.87779836842286 L0.0,-103.22550681845009 L0.0,-103.57406505913735 L0.0,-103.92304845412991 " />
			<path d="M0.0,-103.92304845413 L0.0,-105.04269321516307 L0.0,-106.14825779369315 L0.0,-107.22583907368167 L0.0,-108.26188584530557 L0.0,-109.24336921928337 L0.0,-110.15794647271733 L0.0,-110.99411626599547 L0.0,-111.7413632788103 L0.0,-112.39029044641283 L0.0,-112.93273713315419 L0.0,-113.36188175721367 L0.0,-113.67232757594823 L0.0,-113.86017055306242 L0.0,-113.92304845413 " />
			<path d="M0.0,-113.92304845413 L0.0,-113.81504378533938 L0.0,-113.49336278066369 L0.0,-112.96495405017612 L0.0,-112.24123171586118 L0.0,-111.33782885592166 L0.0,-110.27425981569202 L0.0,-109.07349867955746 L0.0,-107.76148300927893 L0.0,-106.36655356843976 L0.0,-104.91884213548873 L0.0,-103.44962062918992 L0.0,-101.9906256059769 L0.0,-100.57337272069952 L0.0,-99.22847595905118 " />
			<path d="M0.0,-99.22847595905114 L0.0,-99.5394722805099 L0.0,-99.85580896001956 L0.0,-100.17710061563028 L0.0,-100.5029558289175 L0.0,-100.83297762183342 L0.0,-101.16676394033156 L0.0,-101.50390814417511 L0.0,-101.8439995023326 L0.0,-102.18662369335718 L0.0,-102.53136331014004 L0.0,-102.87779836842286 L0.0,-103.22550681845009 L0.0,-103.57406505913735 L0.0,-103.9230484541299 " />
			<path d="M0.0,-103.92304845412998 L0.0,-105.04269321516266 L0.0,-106.14825779369234 L0.0,-107.2258390736805 L0.0,-108.2618858453041 L0.0,-109.24336921928163 L0.0,-110.15794647271542 L0.0,-110.99411626599345 L0.0,-111.74136327880827 L0.0,-112.39029044641089 L0.0,-112.93273713315243 L0.0,-113.3618817572122 L0.0,-113.67232757594715 L0.0,-113.86017055306183 L0.0,-113.92304845413 " />
			<path d="M20.0,-99.22847595905114 L0.0,-99.22847595905114 " />
			<path d="M20.0,-99.22847595905114 L0.0,-99.22847595905114 " />
			<path d="M20.0,-99.22847595905114 L0.0,-99.22847595905114 " />
			<path d="M20.0,180.4476588718142 L20.0,183.10245673856667 L20.0,185.5715568115893 L20.0,187.8524549932079 L20.0,189.94283805525725 L20.0,191.8405859850975 L20.0,193.5437741356764 L20.0,195.0506751774566 L20.0,196.3597608502291 L20.0,197.46970351303494 L20.0,198.37937749062476 L20.0,199.08786021508953 L20.0,199.59443316150518 L20.0,199.89858257664199 L20.0,199.99999999999997 " />
			<path d="M0.0,180.4476588718142 L0.0,183.10245673856667 L0.0,185.5715568115893 L0.0,187.8524549932079 L0.0,189.94283805525725 L0.0,191.8405859850975 L0.0,193.5437741356764 L0.0,195.0506751774566 L0.0,196.3597608502291 L0.0,197.46970351303494 L0.0,198.37937749062476 L0.0,199.08786021508953 L0.0,199.59443316150518 L0.0,199.89858257664199 L0.0,199.99999999999997 " />
			<path d="M20.0,180.4476588718143 L0.0,180.4476588718143 " />
			<path d="M20.0,180.4476588718143 L20.0,99.2284759590533 " />
			<path d="M20.0,103.9230484541 L20.0,105.04269321513337 L20.0,106.14825779366372 L20.0,107.22583907365251 L20.0,108.26188584527665 L20.0,109.24336921925462 L20.0,110.15794647268872 L20.0,110.99411626596694 L20.0,111.74136327878176 L20.0,112.39029044638426 L20.0,112.93273713312547 L20.0,113.36188175718475 L20.0,113.67232757591903 L20.0,113.86017055303286 L20.0,113.9230484541 " />
			<path d="M20.0,113.9230484541 L20.0,113.81504378530921 L20.0,113.49336278063416 L20.0,112.96495405014807 L20.0,112.24123171583531 L20.0,111.3378288558986 L20.0,110.27425981567225 L20.0,109.07349867954129 L20.0,107.7614830092665 L20.0,106.366553568431 L20.0,104.91884213548343 L20.0,103.4496206291876 L20.0,101.99062560597693 L20.0,100.57337272070109 L20.0,99.22847595905334 " />
			<path d="M20.0,99.2284759590533 L20.0,99.5394722805103 L20.0,99.85580896001808 L20.0,100.17710061562681 L20.0,100.50295582891194 L20.0,100.83297762182568 L20.0,101.16676394032156 L20.0,101.50390814416276 L20.0,101.84399950231786 L20.0,102.18662369333998 L20.0,102.53136331012033 L20.0,102.87779836840062 L20.0,103.22550681842526 L20.0,103.57406505910994 L20.0,103.92304845409991 " />
			<path d="M20.0,113.9230484541 L20.0,113.81504378531055 L20.0,113.49336278063662 L20.0,112.96495405015136 L20.0,112.24123171583922 L20.0,111.33782885590286 L20.0,110.2742598156766 L20.0,109.07349867954552 L20.0,107.7614830092704 L20.0,106.36655356843444 L20.0,104.91884213548624 L20.0,103.44962062918974 L20.0,101.99062560597834 L20.0,100.57337272070177 L20.0,99.22847595905334 " />
			<path d="M20.0,199.99999999999997 L20.0,113.9230484541 " />
			<path d="M20.0,113.9230484541 L0.0,113.9230484541 " />
			<path d="M0.0,199.99999999999997 L0.0,113.9230484541 " />
			<path d="M0.0,180.4476588718143 L0.0,99.2284759590533 " />
			<path d="M0.0,99.2284759590533 L0.0,100.57337272070137 L0.0,101.99062560597751 L0.0,103.4496206291885 L0.0,104.9188421354846 L0.0,106.36655356843244 L0.0,107.76148300926813 L0.0,109.07349867954305 L0.0,110.27425981567407 L0.0,111.33782885590037 L0.0,112.24123171583695 L0.0,112.96495405014944 L0.0,113.49336278063518 L0.0,113.81504378530977 L0.0,113.9230484541 " />
			<path d="M0.0,113.9230484541 L0.0,113.86017055303242 L0.0,113.67232757591825 L0.0,113.36188175718368 L0.0,112.93273713312419 L0.0,112.39029044638285 L0.0,111.74136327878031 L0.0,110.99411626596549 L0.0,110.15794647268734 L0.0,109.24336921925338 L0.0,108.2618858452756 L0.0,107.22583907365168 L0.0,106.14825779366316 L0.0,105.0426932151331 L0.0,103.9230484541001 " />
			<path d="M0.0,103.92304845410001 L0.0,103.57406505910998 L0.0,103.22550681842529 L0.0,102.87779836840063 L0.0,102.53136331012035 L0.0,102.18662369334001 L0.0,101.84399950231787 L0.0,101.50390814416279 L0.0,101.16676394032157 L0.0,100.83297762182569 L0.0,100.50295582891195 L0.0,100.17710061562681 L0.0,99.8558089600181 L0.0,99.5394722805103 L0.0,99.2284759590533 " />
			<path d="M0.0,99.2284759590533 L0.0,100.57337272070176 L0.0,101.99062560597832 L0.0,103.44962062918972 L0.0,104.91884213548623 L0.0,106.36655356843441 L0.0,107.76148300927039 L0.0,109.07349867954551 L0.0,110.27425981567659 L0.0,111.33782885590284 L0.0,112.2412317158392 L0.0,112.96495405015136 L0.0,113.4933627806366 L0.0,113.81504378531055 L0.0,113.9230484541 " />
			<path d="M20.000000000000014,99.2284759590533 L0.0,99.2284759590533 " />
			<path d="M20.0,99.2284759590533 L0.0,99.2284759590533 " />
			<path d="M20.0,99.2284759590533 L0.0,99.2284759590533 " />
			<path d="M20.0,99.2284759590533 L0.0,99.2284759590533 " />
			<path d="M20.0,99.2284759590533 L20.0,61.230786815193575 " />
			<path d="M20.0,51.96152422706 L20.0,52.80775157949261 L20.0,53.64790820400158 L20.0,54.47596692329704 L20.0,55.28598734892997 L20.0,56.072158496887056 L20.0,56.82884047485456 L20.0,57.550604942091944 L20.0,58.232274051661314 L20.0,58.86895759564602 L20.0,59.45608808688335 L20.0,59.989453525539275 L20.0,60.46522761546224 L20.0,60.87999721354747 L20.0,61.23078681519357 " />
			<path d="M20.0,42.69226163892643 L20.0,43.04305124057253 L20.0,43.45782083865776 L20.0,43.93359492858073 L20.0,44.46696036723665 L20.0,45.05409085847397 L20.0,45.69077440245868 L20.0,46.37244351202804 L20.0,47.09420797926542 L20.0,47.85088995723292 L20.0,48.63706110519001 L20.0,49.44708153082293 L20.0,50.27514025011839 L20.0,51.115296874627354 L20.0,51.96152422705992 " />
			<path d="M20.0,42.69226163892643 L20.0,-2.842170943040401e-14 " />
			<path d="M20.0,0.0 L20.0,1.1196447610333724 L20.0,2.2252093395637202 L20.0,3.302790619552508 L20.0,4.3388373911766465 L20.0,5.320320765154617 L20.0,6.234898018588721 L20.0,7.0710678118669374 L20.0,7.818314824681771 L20.0,8.467241992284256 L20.0,9.009688679025473 L20.0,9.438833303084749 L20.0,9.749279121819026 L20.0,9.937122098932855 L20.0,9.999999999999998 " />
			<path d="M20.0,10.0 L20.0,9.937122098931995 L20.0,9.749279121817446 L20.0,9.438833303082601 L20.0,9.009688679022908 L20.0,8.467241992281426 L20.0,7.818314824678826 L20.0,7.071067811864015 L20.0,6.2348980185859535 L20.0,5.320320765152122 L20.0,4.3388373911745255 L20.0,3.302790619550846 L20.0,2.2252093395625825 L20.0,1.1196447610328017 L20.0,4.570934516320399e-14 " />
			<path d="M20.0,10.0 L20.0,9.937122098933019 L20.0,9.749279121819324 L20.0,9.438833303085156 L20.0,9.00968867902596 L20.0,8.467241992284793 L20.0,7.818314824682329 L20.0,7.071067811867488 L20.0,6.234898018589242 L20.0,5.320320765155086 L20.0,4.338837391177043 L20.0,3.302790619552816 L20.0,2.225209339563929 L20.0,1.1196447610334725 L20.0,4.5709345163230574e-14 " />
			<path d="M20.0,93.9230484541 L20.0,10.0 " />
			<path d="M20.0,99.2284759590533 L20.0,98.5606978541119 L20.0,97.92494068560435 L20.0,97.32500083713157 L20.0,96.76446081144005 L20.0,96.24666783773395 L20.0,95.7747138839083 L20.0,95.3514171930588 L20.0,94.97930545452196 L20.0,94.66060070993865 L20.0,94.39720608447331 L20.0,94.19069442242282 L20.0,94.04229889507654 L20.0,93.95290563691219 L20.0,93.9230484541 " />
			<path d="M20.0,99.2284759590533 L20.0,98.560697854112 L20.0,97.92494068560454 L20.0,97.32500083713184 L20.0,96.76446081144037 L20.0,96.24666783773434 L20.0,95.7747138839087 L20.0,95.3514171930592 L20.0,94.97930545452238 L20.0,94.66060070993903 L20.0,94.39720608447365 L20.0,94.1906944224231 L20.0,94.04229889507675 L20.0,93.9529056369123 L20.0,93.9230484541 " />
			<path d="M20.0,93.9230484541 L20.0,93.9529056369129 L20.0,94.04229889507785 L20.0,94.1906944224246 L20.0,94.39720608447546 L20.0,94.66060070994104 L20.0,94.97930545452449 L20.0,95.35141719306135 L20.0,95.77471388391078 L20.0,96.24666783773624 L20.0,96.76446081144205 L20.0,97.32500083713319 L20.0,97.92494068560552 L20.0,98.56069785411253 L20.0,99.22847595905323 " />
			<path d="M20.0,51.96152422706 L20.0,53.081168988093374 L20.0,54.18673356662372 L20.0,55.264314846612514 L20.0,56.30036161823665 L20.0,57.28184499221462 L20.0,58.196422245648726 L20.0,59.03259203892694 L20.0,59.779839051741774 L20.0,60.42876621934426 L20.0,60.971212906085476 L20.0,61.40035753014475 L20.0,61.710803348879026 L20.0,61.89864632599286 L20.0,61.96152422706 " />
			<path d="M20.0,61.96152422706 L20.0,61.71080334887732 L20.0,60.9712129060824 L20.0,59.779839051737724 L20.0,58.1964222456441 L20.0,56.300361618231854 L20.0,54.18673356661911 L20.0,51.96152422705587 L20.0,49.736314887492824 L20.0,47.62268683588069 L20.0,45.72662620846943 L20.0,44.143209402377124 L20.0,42.95183554803402 L20.0,42.21224510524085 L20.0,41.96152422706001 " />
			<path d="M20.0,41.96152422706 L20.0,42.02440212812801 L20.0,42.21224510524256 L20.0,42.52269092397741 L20.0,42.951835548037096 L20.0,43.49428223477858 L20.0,44.14320940238119 L20.0,44.890456415196 L20.0,45.726626208474066 L20.0,46.64120346190791 L20.0,47.62268683588551 L20.0,48.65873360750919 L20.0,49.736314887497464 L20.0,50.84187946602725 L20.0,51.96152422705992 " />
			<path d="M20.0,61.230786815193575 L0.0,61.230786815193575 " />
			<path d="M0.0,99.2284759590533 L0.0,61.230786815193575 " />
			<path d="M20.000000000000014,99.2284759590533 L0.0,99.2284759590533 " />
			<path d="M0.0,61.230786815193575 L0.0,60.879997213547476 L0.0,60.46522761546225 L0.0,59.989453525539275 L0.0,59.456088086883355 L0.0,58.86895759564604 L0.0,58.23227405166133 L0.0,57.550604942091965 L0.0,56.82884047485459 L0.0,56.072158496887084 L0.0,55.28598734893 L0.0,54.47596692329708 L0.0,53.64790820400162 L0.0,52.80775157949265 L0.0,51.96152422706009 " />
			<path d="M20.0,42.69226163892643 L0.0,42.69226163892643 " />
			<path d="M0.0,51.96152422706 L0.0,51.1152968746274 L0.0,50.275140250118426 L0.0,49.44708153082297 L0.0,48.637061105190035 L0.0,47.85088995723295 L0.0,47.09420797926545 L0.0,46.37244351202806 L0.0,45.69077440245869 L0.0,45.054090858473984 L0.0,44.46696036723666 L0.0,43.93359492858073 L0.0,43.45782083865777 L0.0,43.04305124057254 L0.0,42.69226163892644 " />
			<path d="M-1.7763568394002505e-14,3.11327894311428e-13 L20.0,3.11327894311428e-13 " />
			<path d="M0.0,42.69226163892643 L0.0,-2.842170943040401e-14 " />
			<path d="M20.0,3.1001698488841193e-13 L0.0,3.1001698488841193e-13 " />
			<path d="M0.0,6.296800734139466e-16 L0.0,1.1196447610330793 L0.0,2.2252093395631447 L0.0,3.302790619551671 L0.0,4.3388373911755815 L0.0,5.320320765153366 L0.0,6.2348980185873355 L0.0,7.071067811865476 L0.0,7.818314824680298 L0.0,8.467241992282842 L0.0,9.009688679024192 L0.0,9.438833303083674 L0.0,9.749279121818237 L0.0,9.937122098932425 L0.0,9.999999999999995 " />
			<path d="M0.0,10.0 L0.0,9.937122098932425 L0.0,9.749279121818237 L0.0,9.438833303083676 L0.0,9.00968867902419 L0.0,8.46724199228284 L0.0,7.818314824680297 L0.0,7.0710678118654755 L0.0,6.2348980185873355 L0.0,5.320320765153366 L0.0,4.3388373911755815 L0.0,3.3027906195516703 L0.0,2.225209339563144 L0.0,1.1196447610330784 L0.0,8.862984952801966e-14 " />
			<path d="M0.0,0.0 L20.0,0.0 " />
			<path d="M20.0,3.1001698488841193e-13 L0.0,3.1001698488841193e-13 " />
			<path d="M20.0,10.0 L0.0,10.0 " />
			<path d="M0.0,7.515198660539648e-15 L0.0,1.119644761033492 L0.0,2.2252093395639476 L0.0,3.302790619552835 L0.0,4.338837391177061 L0.0,5.3203207651551025 L0.0,6.234898018589259 L0.0,7.071067811867503 L0.0,7.818314824682343 L0.0,8.467241992284805 L0.0,9.009688679025968 L0.0,9.438833303085165 L0.0,9.749279121819331 L0.0,9.937122098933024 L0.0,9.999999999999998 " />
			<path d="M20.0,93.9230484541 L0.0,93.9230484541 " />
			<path d="M0.0,93.9230484541 L0.0,10.000000000000004 " />
			<path d="M20.0,99.2284759590533 L0.0,99.2284759590533 " />
			<path d="M0.0,93.9230484541 L0.0,93.95290563691219 L0.0,94.04229889507654 L0.0,94.19069442242282 L0.0,94.39720608447331 L0.0,94.66060070993865 L0.0,94.97930545452196 L0.0,95.3514171930588 L0.0,95.7747138839083 L0.0,96.24666783773397 L0.0,96.76446081144006 L0.0,97.32500083713158 L0.0,97.92494068560435 L0.0,98.56069785411191 L0.0,99.22847595905326 " />
			<path d="M20.0,99.2284759590533 L0.0,99.2284759590533 " />
			<path d="M20.0,99.2284759590533 L0.0,99.2284759590533 " />
			<path d="M0.0,99.2284759590533 L0.0,98.56069785411225 L0.0,97.92494068560501 L0.0,97.32500083713249 L0.0,96.7644608114412 L0.0,96.24666783773527 L0.0,95.77471388390974 L0.0,95.35141719306027 L0.0,94.97930545452343 L0.0,94.66060070994004 L0.0,94.39720608447456 L0.0,94.19069442242386 L0.0,94.0422988950773 L0.0,93.9529056369126 L0.0,93.9230484541 " />
			<path d="M0.0,93.9230484541 L0.0,93.95290563691259 L0.0,94.0422988950773 L0.0,94.19069442242386 L0.0,94.39720608447455 L0.0,94.66060070994003 L0.0,94.97930545452341 L0.0,95.35141719306027 L0.0,95.77471388390973 L0.0,96.24666783773527 L0.0,96.7644608114412 L0.0,97.32500083713249 L0.0,97.92494068560501 L0.0,98.56069785411223 L0.0,99.22847595905326 " />
			<path d="M0.0,51.96152422706 L0.0,50.841879466026924 L0.0,49.73631488749686 L0.0,48.65873360750833 L0.0,47.62268683588442 L0.0,46.64120346190664 L0.0,45.726626208472666 L0.0,44.89045641519453 L0.0,44.1432094023797 L0.0,43.49428223477716 L0.0,42.95183554803581 L0.0,42.52269092397633 L0.0,42.21224510524176 L0.0,42.024402128127576 L0.0,41.96152422706 " />
			<path d="M0.0,41.96152422706 L0.0,42.21224510524176 L0.0,42.95183554803581 L0.0,44.1432094023797 L0.0,45.726626208472666 L0.0,47.62268683588442 L0.0,49.73631488749686 L0.0,51.96152422706 L0.0,54.18673356662315 L0.0,56.300361618235584 L0.0,58.19642224564734 L0.0,59.779839051740296 L0.0,60.97121290608419 L0.0,61.710803348878244 L0.0,61.961524227059996 " />
			<path d="M0.0,61.96152422706 L0.0,61.89864632599243 L0.0,61.710803348878244 L0.0,61.40035753014368 L0.0,60.9712129060842 L0.0,60.42876621934285 L0.0,59.7798390517403 L0.0,59.03259203892548 L0.0,58.19642224564734 L0.0,57.28184499221337 L0.0,56.300361618235584 L0.0,55.264314846611676 L0.0,54.18673356662315 L0.0,53.08116898809308 L0.0,51.96152422706009 " />
			<path d="M20.0,72.29821609250472 L20.0,82.24542414842938 L20.0,91.95345512016925 L20.0,101.39407718127278 L20.0,110.53983615443053 L20.0,119.36413535068979 L20.0,127.84131291501623 L20.0,135.94671645327435 L20.0,143.6567747236048 L20.0,150.94906618371414 L20.0,157.8023841947344 L20.0,164.1967986920348 L20.0,170.11371414364055 L20.0,175.53592362771087 L20.0,180.44765887181342 " />
			<path d="M20.0,180.4476588718143 L0.0,180.4476588718143 " />
			<path d="M0.0,72.29821609250472 L0.0,82.24542414842938 L0.0,91.95345512016925 L0.0,101.39407718127278 L0.0,110.53983615443053 L0.0,119.36413535068979 L0.0,127.84131291501623 L0.0,135.94671645327435 L0.0,143.6567747236048 L0.0,150.94906618371414 L0.0,157.8023841947344 L0.0,164.1967986920348 L0.0,170.11371414364055 L0.0,175.53592362771087 L0.0,180.44765887181342 " />
			<path d="M20.0,72.29821609250476 L0.0,72.29821609250476 " />
			<path d="M20.0,180.4476588718143 L20.0,72.29821609250476 " />
			<path d="M20.000000000000014,72.29821609250476 L0.0,72.29821609250476 " />
			<path d="M0.0,180.4476588718143 L0.0,72.29821609250476 " />
			<path d="M20.0,-2.4492935982947064e-14 L20.0,5.283194310303864 L20.0,10.5627013454861 L20.0,15.834836403867737 L20.0,21.095919928859143 L20.0,26.34228007701576 L20.0,31.57025528071064 L20.0,36.77619680363521 L20.0,41.95647128734479 L20.0,47.10746328707147 L20.0,52.22557779503455 L20.0,57.30724274948757 L20.0,62.34891152775067 L20.0,67.34706542148832 L20.0,72.29821609250388 " />
			<path d="M20.0,72.29821609250476 L0.0,72.29821609250476 " />
			<path d="M0.0,-2.4492935982947064e-14 L0.0,5.283194310303864 L0.0,10.5627013454861 L0.0,15.834836403867737 L0.0,21.095919928859143 L0.0,26.34228007701576 L0.0,31.57025528071064 L0.0,36.77619680363521 L0.0,41.95647128734479 L0.0,47.10746328707147 L0.0,52.22557779503455 L0.0,57.30724274948757 L0.0,62.34891152775067 L0.0,67.34706542148832 L0.0,72.29821609250388 " />
			<path d="M20.0,3.1001698488841193e-13 L0.0,3.1001698488841193e-13 " />
			<path d="M20.0,0.0 L20.0,1.1196447610333724 L20.0,2.2252093395637202 L20.0,3.302790619552508 L20.0,4.3388373911766465 L20.0,5.320320765154617 L20.0,6.234898018588721 L20.0,7.0710678118669374 L20.0,7.818314824681771 L20.0,8.467241992284256 L20.0,9.009688679025473 L20.0,9.438833303084749 L20.0,9.749279121819026 L20.0,9.937122098932855 L20.0,9.999999999999998 " />
			<path d="M20.0,10.0 L20.0,9.937122098931995 L20.0,9.749279121817446 L20.0,9.438833303082601 L20.0,9.009688679022908 L20.0,8.467241992281426 L20.0,7.818314824678826 L20.0,7.071067811864015 L20.0,6.2348980185859535 L20.0,5.320320765152122 L20.0,4.3388373911745255 L20.0,3.302790619550846 L20.0,2.2252093395625825 L20.0,1.1196447610328017 L20.0,4.570934516320399e-14 " />
			<path d="M20.0,42.69226163892643 L20.0,-2.842170943040401e-14 " />
			<path d="M20.0,61.230786815193575 L20.0,61.3303760270381 L20.0,61.42289301679964 L20.0,61.5082679466035 L20.0,61.586436369868956 L20.0,61.657339279957725 L20.0,61.72092315471606 L20.0,61.77713999687677 L20.0,61.82594737029068 L20.0,61.86730843196021 L20.0,61.90119195985092 L20.0,61.927572376459885 L20.0,61.946429768123316 L20.0,61.95774990004867 L20.0,61.96152422706 " />
			<path d="M20.0,61.96152422706 L20.0,61.71080334887732 L20.0,60.9712129060824 L20.0,59.779839051737724 L20.0,58.1964222456441 L20.0,56.300361618231854 L20.0,54.18673356661911 L20.0,51.96152422705587 L20.0,49.736314887492824 L20.0,47.62268683588069 L20.0,45.72662620846943 L20.0,44.143209402377124 L20.0,42.95183554803402 L20.0,42.21224510524085 L20.0,41.96152422706001 " />
			<path d="M20.0,41.96152422706 L20.0,41.96529855407155 L20.0,41.97661868599708 L20.0,41.995476077660655 L20.0,42.02185649426974 L20.0,42.05574002216053 L20.0,42.097101083830104 L20.0,42.14590845724402 L20.0,42.20212529940471 L20.0,42.26570917416299 L20.0,42.33661208425168 L20.0,42.41478050751702 L20.0,42.500155437320736 L20.0,42.5926724270821 L20.0,42.6922616389264 " />
			<path d="M20.0,72.29821609250476 L20.0,61.230786815193575 " />
			<path d="M20.000000000000014,72.29821609250476 L0.0,72.29821609250476 " />
			<path d="M0.0,-1.3947689259246353e-14 L0.0,1.1196447610330647 L0.0,2.2252093395631305 L0.0,3.302790619551657 L0.0,4.338837391175567 L0.0,5.320320765153352 L0.0,6.234898018587321 L0.0,7.071067811865463 L0.0,7.818314824680285 L0.0,8.46724199228283 L0.0,9.009688679024181 L0.0,9.438833303083666 L0.0,9.749279121818228 L0.0,9.937122098932418 L0.0,9.999999999999988 " />
			<path d="M0.0,9.999999999999993 L0.0,9.937122098932418 L0.0,9.749279121818232 L0.0,9.43883330308367 L0.0,9.009688679024187 L0.0,8.467241992282839 L0.0,7.818314824680295 L0.0,7.071067811865473 L0.0,6.234898018587334 L0.0,5.320320765153364 L0.0,4.33883739117558 L0.0,3.3027906195516703 L0.0,2.225209339563144 L0.0,1.1196447610330784 L0.0,8.862984952801966e-14 " />
			<path d="M0.0,42.69226163892643 L0.0,-2.842170943040401e-14 " />
			<path d="M0.0,42.69226163892643 L0.0,42.59267242708201 L0.0,42.50015543732056 L0.0,42.41478050751677 L0.0,42.33661208425137 L0.0,42.265709174162645 L0.0,42.20212529940433 L0.0,42.145908457243635 L0.0,42.09710108382972 L0.0,42.055740022160165 L0.0,42.021856494269414 L0.0,41.99547607766039 L0.0,41.97661868599689 L0.0,41.965298554071445 L0.0,41.96152422706 " />
			<path d="M0.0,41.96152422706 L0.0,42.21224510524176 L0.0,42.95183554803581 L0.0,44.1432094023797 L0.0,45.726626208472666 L0.0,47.622686835884416 L0.0,49.73631488749685 L0.0,51.961524227059996 L0.0,54.18673356662314 L0.0,56.30036161823558 L0.0,58.196422245647334 L0.0,59.779839051740296 L0.0,60.97121290608419 L0.0,61.710803348878244 L0.0,61.961524227059996 " />
			<path d="M0.0,61.96152422706 L0.0,61.95774990004856 L0.0,61.946429768123124 L0.0,61.927572376459615 L0.0,61.90119195985059 L0.0,61.86730843195984 L0.0,61.82594737029029 L0.0,61.77713999687637 L0.0,61.72092315471567 L0.0,61.657339279957355 L0.0,61.58643636986863 L0.0,61.508267946603226 L0.0,61.422893016799435 L0.0,61.330376027037985 L0.0,61.23078681519361 " />
			<path d="M0.0,72.29821609250476 L0.0,61.230786815193575 " />
			<path d="M20.0,3.1001698488841193e-13 L0.0,3.1001698488841193e-13 " />
			<path d="M0.0,0.0 L20.0,0.0 " />
			<path d="M-1.7763568394002505e-14,3.11327894311428e-13 L20.0,3.11327894311428e-13 " />
			<path d="M20.0,42.69226163892643 L0.0,42.69226163892643 " />
			<path d="M20.0,61.230786815193575 L0.0,61.230786815193575 " />
			<path d="M20.0,1.2246467991473533e-15 L20.0,-1.1196447610334834 L20.0,-2.225209339563939 L20.0,-3.3027906195528267 L20.0,-4.338837391177052 L20.0,-5.3203207651550946 L20.0,-6.234898018589251 L20.0,-7.071067811867496 L20.0,-7.818314824682336 L20.0,-8.467241992284798 L20.0,-9.009688679025963 L20.0,-9.43883330308516 L20.0,-9.749279121819326 L20.0,-9.93712209893302 L20.0,-9.999999999999995 " />
			<path d="M20.0,1.2246467991473533e-15 L20.0,-1.119644761033373 L20.0,-2.225209339563723 L20.0,-3.302790619552512 L20.0,-4.338837391176652 L20.0,-5.320320765154624 L20.0,-6.23489801858873 L20.0,-7.071067811866946 L20.0,-7.8183148246817815 L20.0,-8.467241992284263 L20.0,-9.009688679025478 L20.0,-9.43883330308475 L20.0,-9.749279121819027 L20.0,-9.937122098932855 L20.0,-9.999999999999995 " />
			<path d="M20.0,-10.0 L20.0,-9.937122098931995 L20.0,-9.749279121817446 L20.0,-9.4388333030826 L20.0,-9.009688679022904 L20.0,-8.46724199228142 L20.0,-7.818314824678815 L20.0,-7.071067811864001 L20.0,-6.234898018585935 L20.0,-5.320320765152097 L20.0,-4.338837391174495 L20.0,-3.3027906195508097 L20.0,-2.2252093395625403 L20.0,-1.1196447610327545 L20.0,-9.107234018216917e-14 " />
			<path d="M20.0,3.055333763768431e-13 L20.0,-42.69226163893238 " />
			<path d="M20.0,-51.961524227066 L20.0,-51.11529687463338 L20.0,-50.27514025012441 L20.0,-49.44708153082894 L20.0,-48.637061105196 L20.0,-47.850889957238905 L20.0,-47.094207979271395 L20.0,-46.37244351203401 L20.0,-45.69077440246464 L20.0,-45.054090858479924 L20.0,-44.4669603672426 L20.0,-43.93359492858667 L20.0,-43.45782083866371 L20.0,-43.04305124057848 L20.0,-42.692261638932386 " />
			<path d="M20.0,-61.230786815199615 L20.0,-60.87999721355352 L20.0,-60.465227615468294 L20.0,-59.98945352554533 L20.0,-59.45608808688941 L20.0,-58.86895759565209 L20.0,-58.232274051667375 L20.0,-57.550604942098005 L20.0,-56.82884047486062 L20.0,-56.07215849689312 L20.0,-55.285987348936025 L20.0,-54.47596692330309 L20.0,-53.64790820400762 L20.0,-52.80775157949865 L20.0,-51.961524227066086 " />
			<path d="M20.0,-61.230786815199615 L20.0,-99.22847595905212 " />
			<path d="M20.0,-99.22847595905212 L20.0,-98.56069785411432 L20.0,-97.92494068561031 L20.0,-97.32500083714098 L20.0,-96.76446081145276 L20.0,-96.24666783774978 L20.0,-95.774713883927 L20.0,-95.35141719308011 L20.0,-94.9793054545456 L20.0,-94.66060070996427 L20.0,-94.39720608450058 L20.0,-94.19069442245137 L20.0,-94.04229889510597 L20.0,-93.9529056369421 L20.0,-93.92304845413 " />
			<path d="M20.0,-93.92304845413 L20.0,-93.9529056369427 L20.0,-94.04229889510707 L20.0,-94.19069442245286 L20.0,-94.39720608450239 L20.0,-94.66060070996627 L20.0,-94.97930545454771 L20.0,-95.35141719308224 L20.0,-95.77471388392905 L20.0,-96.24666783775166 L20.0,-96.7644608114544 L20.0,-97.32500083714231 L20.0,-97.92494068561125 L20.0,-98.5606978541148 L20.0,-99.22847595905208 " />
			<path d="M20.0,-93.92304845413 L20.0,-93.95290563694199 L20.0,-94.04229889510577 L20.0,-94.19069442245109 L20.0,-94.39720608450024 L20.0,-94.6606007099639 L20.0,-94.9793054545452 L20.0,-95.35141719307971 L20.0,-95.77471388392662 L20.0,-96.24666783774941 L20.0,-96.76446081145245 L20.0,-97.32500083714072 L20.0,-97.92494068561012 L20.0,-98.56069785411421 L20.0,-99.22847595905208 " />
			<path d="M20.0,-10.0 L20.0,-93.92304845413 " />
			<path d="M20.0,-51.961524227066 L20.0,-50.84187946603263 L20.0,-49.73631488750228 L20.0,-48.65873360751349 L20.0,-47.622686835889354 L20.0,-46.64120346191138 L20.0,-45.72662620847728 L20.0,-44.89045641519906 L20.0,-44.14320940238423 L20.0,-43.49428223478174 L20.0,-42.95183554804053 L20.0,-42.52269092398125 L20.0,-42.21224510524698 L20.0,-42.02440212813315 L20.0,-41.961524227066 " />
			<path d="M20.0,-41.961524227066 L20.0,-42.212245105248684 L20.0,-42.951835548043604 L20.0,-44.14320940238828 L20.0,-45.7266262084819 L20.0,-47.62268683589415 L20.0,-49.73631488750689 L20.0,-51.961524227070136 L20.0,-54.18673356663318 L20.0,-56.30036161824531 L20.0,-58.19642224565657 L20.0,-59.77983905174888 L20.0,-60.971212906091985 L20.0,-61.71080334888516 L20.0,-61.96152422706599 " />
			<path d="M20.0,-61.961524227066 L20.0,-61.898646325997994 L20.0,-61.710803348883445 L20.0,-61.4003575301486 L20.0,-60.97121290608891 L20.0,-60.42876621934742 L20.0,-59.779839051744815 L20.0,-59.032592038930005 L20.0,-58.19642224565194 L20.0,-57.2818449922181 L20.0,-56.300361618240494 L20.0,-55.26431484661681 L20.0,-54.18673356662854 L20.0,-53.08116898809875 L20.0,-51.961524227066086 " />
			<path d="M20.0,3.1001698488841193e-13 L0.0,3.1001698488841193e-13 " />
			<path d="M0.0,-9.999999999999996 L0.0,-9.937122098933017 L0.0,-9.74927912181932 L0.0,-9.438833303085154 L0.0,-9.009688679025958 L0.0,-8.467241992284789 L0.0,-7.818314824682327 L0.0,-7.071067811867488 L0.0,-6.234898018589241 L0.0,-5.320320765155084 L0.0,-4.338837391177042 L0.0,-3.302790619552816 L0.0,-2.225209339563929 L0.0,-1.1196447610334725 L0.0,-3.70496055711547e-14 " />
			<path d="M20.0,-10.0 L0.0,-10.0 " />
			<path d="M20.0,3.1001698488841193e-13 L0.0,3.1001698488841193e-13 " />
			<path d="M0.0,-2.4492935982947002e-15 L0.0,-1.119644761033081 L0.0,-2.2252093395631465 L0.0,-3.302790619551673 L0.0,-4.338837391175583 L0.0,-5.320320765153367 L0.0,-6.234898018587336 L0.0,-7.071067811865476 L0.0,-7.8183148246803 L0.0,-8.467241992282842 L0.0,-9.009688679024194 L0.0,-9.438833303083676 L0.0,-9.749279121818237 L0.0,-9.937122098932425 L0.0,-9.999999999999998 " />
			<path d="M0.0,-10.0 L0.0,-9.937122098932425 L0.0,-9.749279121818237 L0.0,-9.438833303083676 L0.0,-9.00968867902419 L0.0,-8.46724199228284 L0.0,-7.818314824680297 L0.0,-7.071067811865474 L0.0,-6.234898018587334 L0.0,-5.320320765153365 L0.0,-4.338837391175581 L0.0,-3.3027906195516703 L0.0,-2.2252093395631434 L0.0,-1.1196447610330778 L0.0,-4.371094371888973e-14 " />
			<path d="M-1.7763568394002505e-14,3.11327894311428e-13 L20.0,3.11327894311428e-13 " />
			<path d="M20.0,-42.69226163893238 L0.0,-42.69226163893238 " />
			<path d="M0.0,3.055333763768431e-13 L0.0,-42.692261638932386 " />
			<path d="M0.0,-42.692261638932386 L0.0,-43.04305124057848 L0.0,-43.45782083866371 L0.0,-43.93359492858667 L0.0,-44.46696036724259 L0.0,-45.05409085847991 L0.0,-45.690774402464626 L0.0,-46.372443512033996 L0.0,-47.09420797927138 L0.0,-47.850889957238884 L0.0,-48.637061105195976 L0.0,-49.44708153082891 L0.0,-50.27514025012438 L0.0,-51.11529687463335 L0.0,-51.961524227065915 " />
			<path d="M20.0,-61.23078681519962 L0.0,-61.23078681519962 " />
			<path d="M0.0,-51.961524227066 L0.0,-52.80775157949862 L0.0,-53.64790820400759 L0.0,-54.47596692330306 L0.0,-55.285987348936004 L0.0,-56.072158496893096 L0.0,-56.828840474860606 L0.0,-57.55060494209799 L0.0,-58.23227405166736 L0.0,-58.86895759565208 L0.0,-59.4560880868894 L0.0,-59.98945352554533 L0.0,-60.465227615468294 L0.0,-60.87999721355352 L0.0,-61.230786815199615 " />
			<path d="M20.00000000000003,-99.22847595905212 L0.0,-99.22847595905212 " />
			<path d="M0.0,-61.23078681519962 L0.0,-99.22847595905212 " />
			<path d="M20.0,-99.22847595905212 L0.0,-99.22847595905212 " />
			<path d="M20.0,-99.22847595905212 L0.0,-99.22847595905212 " />
			<path d="M0.0,-99.22847595905212 L0.0,-98.56069785411457 L0.0,-97.92494068561079 L0.0,-97.32500083714164 L0.0,-96.76446081145359 L0.0,-96.24666783775072 L0.0,-95.77471388392803 L0.0,-95.35141719308118 L0.0,-94.97930545454665 L0.0,-94.66060070996528 L0.0,-94.39720608450148 L0.0,-94.19069442245211 L0.0,-94.04229889510653 L0.0,-93.9529056369424 L0.0,-93.92304845413 " />
			<path d="M0.0,-93.92304845413 L0.0,-93.9529056369424 L0.0,-94.04229889510653 L0.0,-94.19069442245211 L0.0,-94.39720608450148 L0.0,-94.66060070996528 L0.0,-94.97930545454665 L0.0,-95.35141719308118 L0.0,-95.77471388392803 L0.0,-96.24666783775072 L0.0,-96.76446081145357 L0.0,-97.32500083714164 L0.0,-97.92494068561078 L0.0,-98.56069785411457 L0.0,-99.22847595905205 " />
			<path d="M20.0,-99.22847595905212 L0.0,-99.22847595905212 " />
			<path d="M20.0,-93.92304845413 L0.0,-93.92304845413 " />
			<path d="M0.0,-99.22847595905212 L0.0,-98.56069785411422 L0.0,-97.92494068561014 L0.0,-97.32500083714073 L0.0,-96.76446081145245 L0.0,-96.24666783774943 L0.0,-95.77471388392662 L0.0,-95.35141719307971 L0.0,-94.9793054545452 L0.0,-94.6606007099639 L0.0,-94.39720608450024 L0.0,-94.19069442245109 L0.0,-94.04229889510577 L0.0,-93.95290563694199 L0.0,-93.92304845413 " />
			<path d="M0.0,-9.999999999999996 L0.0,-93.92304845413 " />
			<path d="M0.0,-51.961524227066 L0.0,-53.08116898809908 L0.0,-54.186733566629144 L0.0,-55.26431484661767 L0.0,-56.30036161824158 L0.0,-57.28184499221936 L0.0,-58.19642224565334 L0.0,-59.032592038931476 L0.0,-59.7798390517463 L0.0,-60.428766219348844 L0.0,-60.971212906090194 L0.0,-61.40035753014968 L0.0,-61.71080334888424 L0.0,-61.89864632599843 L0.0,-61.961524227066 " />
			<path d="M0.0,-61.961524227066 L0.0,-61.71080334888424 L0.0,-60.971212906090194 L0.0,-59.7798390517463 L0.0,-58.19642224565334 L0.0,-56.30036161824158 L0.0,-54.186733566629144 L0.0,-51.961524227066 L0.0,-49.73631488750286 L0.0,-47.62268683589042 L0.0,-45.72662620847866 L0.0,-44.14320940238571 L0.0,-42.951835548041814 L0.0,-42.21224510524776 L0.0,-41.96152422706601 " />
			<path d="M0.0,-41.961524227066 L0.0,-42.02440212813357 L0.0,-42.21224510524776 L0.0,-42.522690923982324 L0.0,-42.95183554804181 L0.0,-43.49428223478316 L0.0,-44.1432094023857 L0.0,-44.890456415200525 L0.0,-45.72662620847866 L0.0,-46.64120346191263 L0.0,-47.62268683589042 L0.0,-48.65873360751433 L0.0,-49.73631488750286 L0.0,-50.84187946603292 L0.0,-51.961524227065915 " />
			<path d="M20.0,-200.0 L20.0,-199.89858257664196 L20.0,-199.59443316150512 L20.0,-199.08786021508948 L20.0,-198.3793774906247 L20.0,-197.4697035130349 L20.0,-196.35976085022904 L20.0,-195.05067517745655 L20.0,-193.54377413567633 L20.0,-191.84058598509745 L20.0,-189.9428380552572 L20.0,-187.85245499320786 L20.0,-185.5715568115893 L20.0,-183.10245673856667 L20.0,-180.4476588718146 " />
			<path d="M20.0,-180.44765887181424 L0.0,-180.44765887181424 " />
			<path d="M0.0,-200.0 L0.0,-199.89858257664196 L0.0,-199.59443316150512 L0.0,-199.08786021508948 L0.0,-198.3793774906247 L0.0,-197.4697035130349 L0.0,-196.35976085022904 L0.0,-195.05067517745655 L0.0,-193.54377413567633 L0.0,-191.84058598509745 L0.0,-189.9428380552572 L0.0,-187.85245499320786 L0.0,-185.5715568115893 L0.0,-183.10245673856667 L0.0,-180.4476588718146 " />
			<path d="M20.0,-103.92304845413 L20.0,-103.57406505913744 L20.0,-103.22550681845026 L20.0,-102.8777983684231 L20.0,-102.53136331014035 L20.0,-102.18662369335757 L20.0,-101.84399950233306 L20.0,-101.50390814417565 L20.0,-101.16676394033217 L20.0,-100.8329776218341 L20.0,-100.50295582891825 L20.0,-100.17710061563109 L20.0,-99.85580896002044 L20.0,-99.53947228051082 L20.0,-99.22847595905212 " />
			<path d="M20.0,-99.22847595905212 L20.0,-100.57337272070076 L20.0,-101.99062560597841 L20.0,-103.44962062919167 L20.0,-104.91884213549069 L20.0,-106.36655356844187 L20.0,-107.76148300928115 L20.0,-109.0734986795597 L20.0,-110.27425981569422 L20.0,-111.3378288559237 L20.0,-112.241231715863 L20.0,-112.96495405017761 L20.0,-113.49336278066475 L20.0,-113.81504378533997 L20.0,-113.92304845413 " />
			<path d="M20.0,-113.92304845413 L20.0,-113.86017055306199 L20.0,-113.67232757594745 L20.0,-113.3618817572126 L20.0,-112.9327371331529 L20.0,-112.39029044641141 L20.0,-111.74136327880882 L20.0,-110.994116265994 L20.0,-110.15794647271593 L20.0,-109.2433692192821 L20.0,-108.26188584530449 L20.0,-107.2258390736808 L20.0,-106.14825779369254 L20.0,-105.04269321516276 L20.0,-103.92304845413008 " />
			<path d="M20.0,-99.22847595905212 L20.0,-180.44765887181424 " />
			<path d="M20.0,-113.92304845413 L20.0,-200.00000000000003 " />
			<path d="M20.0,-99.22847595905212 L20.0,-100.57337272070086 L20.0,-101.99062560597862 L20.0,-103.44962062919201 L20.0,-104.91884213549113 L20.0,-106.36655356844241 L20.0,-107.76148300928176 L20.0,-109.07349867956037 L20.0,-110.2742598156949 L20.0,-111.33782885592439 L20.0,-112.2412317158636 L20.0,-112.96495405017814 L20.0,-113.49336278066514 L20.0,-113.81504378534018 L20.0,-113.92304845413 " />
			<path d="M0.0,-99.22847595905212 L0.0,-180.44765887181424 " />
			<path d="M20.00000000000003,-99.22847595905212 L0.0,-99.22847595905212 " />
			<path d="M0.0,-113.92304845413 L0.0,-113.81504378534018 L0.0,-113.49336278066514 L0.0,-112.96495405017812 L0.0,-112.2412317158636 L0.0,-111.33782885592437 L0.0,-110.27425981569489 L0.0,-109.07349867956036 L0.0,-107.76148300928176 L0.0,-106.3665535684424 L0.0,-104.91884213549112 L0.0,-103.449620629192 L0.0,-101.99062560597862 L0.0,-100.57337272070085 L0.0,-99.22847595905216 " />
			<path d="M0.0,-99.22847595905212 L0.0,-99.53947228051082 L0.0,-99.85580896002043 L0.0,-100.17710061563109 L0.0,-100.50295582891823 L0.0,-100.83297762183409 L0.0,-101.16676394033216 L0.0,-101.50390814417564 L0.0,-101.84399950233305 L0.0,-102.18662369335756 L0.0,-102.53136331014034 L0.0,-102.87779836842309 L0.0,-103.22550681845023 L0.0,-103.57406505913742 L0.0,-103.9230484541299 " />
			<path d="M0.0,-103.92304845412998 L0.0,-105.04269321516306 L0.0,-106.14825779369313 L0.0,-107.22583907368166 L0.0,-108.26188584530557 L0.0,-109.24336921928335 L0.0,-110.15794647271731 L0.0,-110.99411626599546 L0.0,-111.74136327881028 L0.0,-112.39029044641283 L0.0,-112.93273713315418 L0.0,-113.36188175721367 L0.0,-113.67232757594823 L0.0,-113.86017055306242 L0.0,-113.92304845413 " />
			<path d="M0.0,-113.92304845413 L0.0,-113.8150437853394 L0.0,-113.49336278066373 L0.0,-112.96495405017622 L0.0,-112.24123171586135 L0.0,-111.33782885592193 L0.0,-110.2742598156924 L0.0,-109.07349867955794 L0.0,-107.76148300927953 L0.0,-106.36655356844045 L0.0,-104.91884213548953 L0.0,-103.4496206291908 L0.0,-101.99062560597785 L0.0,-100.5733727207005 L0.0,-99.22847595905216 " />
			<path d="M0.0,-113.92304845413 L0.0,-200.00000000000003 " />
			<path d="M20.0,-113.92304845413 L0.0,-113.92304845413 " />
			<path d="M20.0,-99.22847595905212 L0.0,-99.22847595905212 " />
			<path d="M20.0,-99.22847595905212 L0.0,-99.22847595905212 " />
			<path d="M20.0,-99.22847595905212 L0.0,-99.22847595905212 " />
			<path d="M20.0,-72.29821609250435 L20.0,-67.34706542148763 L20.0,-62.34891152775004 L20.0,-57.30724274948703 L20.0,-52.225577795034084 L20.0,-47.10746328707109 L20.0,-41.9564712873445 L20.0,-36.776196803634996 L20.0,-31.570255280710512 L20.0,-26.342280077015722 L20.0,-21.095919928859193 L20.0,-15.834836403867875 L20.0,-10.562701345486328 L20.0,-5.283194310304179 L20.0,-9.129093243354634e-13 " />
			<path d="M20.0,3.1001698488841193e-13 L0.0,3.1001698488841193e-13 " />
			<path d="M0.0,-72.29821609250435 L0.0,-67.34706542148763 L0.0,-62.34891152775004 L0.0,-57.30724274948703 L0.0,-52.225577795034084 L0.0,-47.10746328707109 L0.0,-41.9564712873445 L0.0,-36.776196803634996 L0.0,-31.570255280710512 L0.0,-26.342280077015722 L0.0,-21.095919928859193 L0.0,-15.834836403867875 L0.0,-10.562701345486328 L0.0,-5.283194310304179 L0.0,-9.129093243354634e-13 " />
			<path d="M20.0,-72.29821609250432 L0.0,-72.29821609250432 " />
			<path d="M20.0,-42.69226163893238 L20.0,-42.59267242708786 L20.0,-42.50015543732633 L20.0,-42.41478050752247 L20.0,-42.33661208425703 L20.0,-42.26570917416826 L20.0,-42.20212529940992 L20.0,-42.14590845724922 L20.0,-42.09710108383532 L20.0,-42.05574002216579 L20.0,-42.021856494275085 L20.0,-41.99547607766612 L20.0,-41.97661868600269 L20.0,-41.965298554077336 L20.0,-41.961524227066 " />
			<path d="M20.0,-41.961524227066 L20.0,-42.212245105248684 L20.0,-42.951835548043604 L20.0,-44.14320940238828 L20.0,-45.7266262084819 L20.0,-47.62268683589415 L20.0,-49.73631488750689 L20.0,-51.961524227070136 L20.0,-54.18673356663318 L20.0,-56.30036161824531 L20.0,-58.19642224565657 L20.0,-59.77983905174888 L20.0,-60.971212906091985 L20.0,-61.71080334888516 L20.0,-61.96152422706599 " />
			<path d="M20.0,-61.961524227066 L20.0,-61.95774990005445 L20.0,-61.94642976812892 L20.0,-61.92757237646535 L20.0,-61.90119195985627 L20.0,-61.86730843196548 L20.0,-61.82594737029591 L20.0,-61.77713999688199 L20.0,-61.72092315472131 L20.0,-61.657339279963026 L20.0,-61.58643636987435 L20.0,-61.50826794660901 L20.0,-61.422893016805304 L20.0,-61.33037602704395 L20.0,-61.23078681519965 " />
			<path d="M20.0,3.055333763768431e-13 L20.0,-42.69226163893238 " />
			<path d="M20.0,1.2246467991473533e-15 L20.0,-1.119644761033373 L20.0,-2.225209339563723 L20.0,-3.302790619552512 L20.0,-4.338837391176652 L20.0,-5.320320765154624 L20.0,-6.23489801858873 L20.0,-7.071067811866946 L20.0,-7.8183148246817815 L20.0,-8.467241992284263 L20.0,-9.009688679025478 L20.0,-9.43883330308475 L20.0,-9.749279121819027 L20.0,-9.937122098932855 L20.0,-9.999999999999995 " />
			<path d="M20.0,-10.0 L20.0,-9.937122098931995 L20.0,-9.749279121817446 L20.0,-9.4388333030826 L20.0,-9.009688679022904 L20.0,-8.46724199228142 L20.0,-7.818314824678815 L20.0,-7.071067811864001 L20.0,-6.234898018585935 L20.0,-5.320320765152097 L20.0,-4.338837391174495 L20.0,-3.3027906195508097 L20.0,-2.2252093395625403 L20.0,-1.1196447610327545 L20.0,-9.107234018216917e-14 " />
			<path d="M20.0,-61.230786815199615 L20.0,-72.29821609250432 " />
			<path d="M20.0,3.1001698488841193e-13 L0.0,3.1001698488841193e-13 " />
			<path d="M0.0,-61.23078681519962 L0.0,-61.33037602704403 L0.0,-61.42289301680548 L0.0,-61.508267946609266 L0.0,-61.586436369874654 L0.0,-61.65733927996338 L0.0,-61.72092315472169 L0.0,-61.77713999688238 L0.0,-61.82594737029629 L0.0,-61.867308431965846 L0.0,-61.90119195985659 L0.0,-61.92757237646561 L0.0,-61.94642976812912 L0.0,-61.95774990005456 L0.0,-61.961524227066 " />
			<path d="M0.0,-61.961524227066 L0.0,-61.71080334888424 L0.0,-60.971212906090194 L0.0,-59.7798390517463 L0.0,-58.19642224565334 L0.0,-56.30036161824159 L0.0,-54.18673356662915 L0.0,-51.96152422706601 L0.0,-49.736314887502864 L0.0,-47.62268683589043 L0.0,-45.72662620847867 L0.0,-44.14320940238571 L0.0,-42.951835548041814 L0.0,-42.21224510524776 L0.0,-41.96152422706601 " />
			<path d="M0.0,-41.961524227066 L0.0,-41.96529855407744 L0.0,-41.97661868600288 L0.0,-41.99547607766639 L0.0,-42.02185649427541 L0.0,-42.055740022166155 L0.0,-42.09710108383571 L0.0,-42.14590845724962 L0.0,-42.20212529941031 L0.0,-42.26570917416863 L0.0,-42.336612084257354 L0.0,-42.41478050752274 L0.0,-42.500155437326534 L0.0,-42.59267242708798 L0.0,-42.69226163893235 " />
			<path d="M0.0,3.055333763768431e-13 L0.0,-42.692261638932386 " />
			<path d="M0.0,-2.4492935982950004e-15 L0.0,-1.119644761033081 L0.0,-2.2252093395631465 L0.0,-3.302790619551673 L0.0,-4.338837391175585 L0.0,-5.320320765153369 L0.0,-6.234898018587338 L0.0,-7.071067811865479 L0.0,-7.818314824680303 L0.0,-8.467241992282844 L0.0,-9.009688679024197 L0.0,-9.438833303083682 L0.0,-9.749279121818242 L0.0,-9.937122098932432 L0.0,-10.000000000000005 " />
			<path d="M0.0,-10.000000000000007 L0.0,-9.937122098932432 L0.0,-9.749279121818246 L0.0,-9.438833303083685 L0.0,-9.009688679024201 L0.0,-8.467241992282853 L0.0,-7.818314824680311 L0.0,-7.071067811865487 L0.0,-6.234898018587348 L0.0,-5.3203207651533795 L0.0,-4.338837391175595 L0.0,-3.3027906195516845 L0.0,-2.2252093395631576 L0.0,-1.1196447610330924 L0.0,-5.836588764394179e-14 " />
			<path d="M0.0,-61.23078681519962 L0.0,-72.29821609250432 " />
			<path d="M20.00000000000003,-72.29821609250432 L0.0,-72.29821609250432 " />
			<path d="M20.0,-61.23078681519962 L0.0,-61.23078681519962 " />
			<path d="M20.0,-42.69226163893238 L0.0,-42.69226163893238 " />
			<path d="M-1.7763568394002505e-14,3.11327894311428e-13 L20.0,3.11327894311428e-13 " />
			<path d="M20.0,-180.44765887181424 L20.0,-175.5359236277111 L20.0,-170.11371414364075 L20.0,-164.19679869203497 L20.0,-157.80238419473454 L20.0,-150.94906618371422 L20.0,-143.65677472360483 L20.0,-135.94671645327432 L20.0,-127.84131291501615 L20.0,-119.36413535068962 L20.0,-110.53983615443026 L20.0,-101.39407718127245 L20.0,-91.95345512016881 L20.0,-82.24542414842885 L20.0,-72.29821609250517 " />
			<path d="M20.0,-72.29821609250432 L0.0,-72.29821609250432 " />
			<path d="M0.0,-180.44765887181424 L0.0,-175.5359236277111 L0.0,-170.11371414364075 L0.0,-164.19679869203497 L0.0,-157.80238419473454 L0.0,-150.94906618371422 L0.0,-143.65677472360483 L0.0,-135.94671645327432 L0.0,-127.84131291501615 L0.0,-119.36413535068962 L0.0,-110.53983615443026 L0.0,-101.39407718127245 L0.0,-91.95345512016881 L0.0,-82.24542414842885 L0.0,-72.29821609250517 " />
			<path d="M20.0,-180.44765887181424 L0.0,-180.44765887181424 " />
			<path d="M20.0,-72.29821609250432 L20.0,-180.44765887181424 " />
			<path d="M20.00000000000003,-72.29821609250432 L0.0,-72.29821609250432 " />
			<path d="M0.0,-72.29821609250432 L0.0,-180.44765887181424 " />
			<path d="M20.0,61.96152422706 L0.0,61.96152422706 " />
			<path d="M20.0,41.96152422706 L0.0,41.96152422706 " />
			<path d="M20.0,10.0 L0.0,10.0 " />
			<path d="M20.0,113.9230484541 L0.0,113.9230484541 " />
			<path d="M20.0,93.9230484541 L0.0,93.9230484541 " />
			<path d="M20.0,10.0 L0.0,10.0 " />
			<path d="M20.0,61.96152422706 L0.0,61.96152422706 " />
			<path d="M20.0,41.96152422706 L0.0,41.96152422706 " />
			<path d="M20.0,-10.0 L0.0,-10.0 " />
			<path d="M20.0,-41.961524227066 L0.0,-41.961524227066 " />
			<path d="M20.0,-61.961524227066 L0.0,-61.961524227066 " />
			<path d="M20.0,-93.92304845413 L0.0,-93.92304845413 " />
			<path d="M20.0,-10.0 L0.0,-10.0 " />
			<path d="M20.0,-41.961524227066 L0.0,-41.961524227066 " />
			<path d="M20.0,-61.961524227066 L0.0,-61.961524227066 " />
			<path d="M20.0,-113.92304845413 L0.0,-113.92304845413 " />
			<path d="M20.0,113.9230484541 L0.0,113.9230484541 " />
			<path d="M20.0,10.0 L0.0,10.0 " />
			<path d="M20.0,93.9230484541 L0.0,93.9230484541 " />
			<path d="M20.0,61.96152422706 L0.0,61.96152422706 " />
			<path d="M20.0,41.96152422706 L0.0,41.96152422706 " />
			<path d="M20.0,10.0 L0.0,10.0 " />
			<path d="M20.0,61.96152422706 L0.0,61.96152422706 " />
			<path d="M20.0,41.96152422706 L0.0,41.96152422706 " />
			<path d="M20.0,-10.0 L0.0,-10.0 " />
			<path d="M20.0,-93.92304845413 L0.0,-93.92304845413 " />
			<path d="M20.0,-41.961524227066 L0.0,-41.961524227066 " />
			<path d="M20.0,-61.961524227066 L0.0,-61.961524227066 " />
			<path d="M20.0,-113.92304845413 L0.0,-113.92304845413 " />
			<path d="M20.0,-41.961524227066 L0.0,-41.961524227066 " />
			<path d="M20.0,-61.961524227066 L0.0,-61.961524227066 " />
			<path d="M20.0,-10.0 L0.0,-10.0 " />

       </g>

       <!-- solid lines -->
       <g  stroke="rgb(56,189,248)" fill="none">
			<path d="M20.0,180.44765887180688 L20.0,175.53592362770297 L20.0,170.1137141436319 L20.0,164.19679869202542 L20.0,157.8023841947243 L20.0,150.94906618370334 L20.0,143.65677472359334 L20.0,135.9467164532623 L20.0,127.8413129150036 L20.0,119.3641353506766 L20.0,110.53983615441683 L20.0,101.39407718125861 L20.0,91.95345512015464 L20.0,82.24542414841439 L20.0,72.29821609249193 " />
			<path d="M20.0,72.29821609249025 L0.0,72.29821609249025 " />
			<path d="M0.0,180.44765887180688 L0.0,175.53592362770297 L0.0,170.1137141436319 L0.0,164.19679869202542 L0.0,157.8023841947243 L0.0,150.94906618370334 L0.0,143.65677472359334 L0.0,135.9467164532623 L0.0,127.8413129150036 L0.0,119.3641353506766 L0.0,110.53983615441683 L0.0,101.39407718125861 L0.0,91.95345512015464 L0.0,82.24542414841439 L0.0,72.29821609249193 " />
			<path d="M20.0,180.4476588718069 L0.0,180.4476588718069 " />
			<path d="M20.0,72.29821609249029 L20.0,67.34706542147444 L20.0,62.34891152773774 L20.0,57.30724274947565 L20.0,52.225577795023646 L20.0,47.10746328706162 L20.0,41.95647128733601 L20.0,36.77619680362751 L20.0,31.570255280704046 L20.0,26.342280077010287 L20.0,21.0959199288548 L20.0,15.834836403864532 L20.0,10.562701345484045 L20.0,5.28319431030296 L20.0,1.824930470250809e-12 " />
			<path d="M0.0,0.0 L20.0,0.0 " />
			<path d="M0.0,72.29821609249029 L0.0,67.34706542147444 L0.0,62.34891152773774 L0.0,57.30724274947565 L0.0,52.225577795023646 L0.0,47.10746328706162 L0.0,41.95647128733601 L0.0,36.77619680362751 L0.0,31.570255280704046 L0.0,26.342280077010287 L0.0,21.0959199288548 L0.0,15.834836403864532 L0.0,10.562701345484045 L0.0,5.28319431030296 L0.0,1.824930470250809e-12 " />
			<path d="M20.0,72.29821609249025 L0.0,72.29821609249025 " />
			<path d="M20.0,200.0 L0.0,200.0 " />
			<path d="M20.0,200.0 L20.0,199.8985825766416 L20.0,199.59443316150436 L20.0,199.08786021508828 L20.0,198.37937749062306 L20.0,197.46970351303275 L20.0,196.35976085022642 L20.0,195.05067517745343 L20.0,193.54377413567266 L20.0,191.8405859850932 L20.0,189.9428380552524 L20.0,187.85245499320246 L20.0,185.57155681158324 L20.0,183.10245673856 L20.0,180.44765887180762 " />
			<path d="M20.0,180.4476588718069 L0.0,180.4476588718069 " />
			<path d="M0.0,200.0 L0.0,199.8985825766416 L0.0,199.59443316150436 L0.0,199.08786021508828 L0.0,198.37937749062306 L0.0,197.46970351303275 L0.0,196.35976085022642 L0.0,195.05067517745343 L0.0,193.54377413567266 L0.0,191.8405859850932 L0.0,189.9428380552524 L0.0,187.85245499320246 L0.0,185.57155681158324 L0.0,183.10245673856 L0.0,180.44765887180762 " />
			<path d="M20.0,0.0 L20.0,-5.283194310303733 L20.0,-10.562701345485817 L20.0,-15.834836403867298 L20.0,-21.09591992885855 L20.0,-26.34228007701502 L20.0,-31.57025528070974 L20.0,-36.776196803634164 L20.0,-41.956471287343604 L20.0,-47.10746328707013 L20.0,-52.225577795033075 L20.0,-57.307242749485965 L20.0,-62.34891152774892 L20.0,-67.34706542148645 L20.0,-72.29821609250303 " />
			<path d="M20.0,-72.29821609250311 L0.0,-72.29821609250311 " />
			<path d="M0.0,0.0 L0.0,-5.283194310303733 L0.0,-10.562701345485817 L0.0,-15.834836403867298 L0.0,-21.09591992885855 L0.0,-26.34228007701502 L0.0,-31.57025528070974 L0.0,-36.776196803634164 L0.0,-41.956471287343604 L0.0,-47.10746328707013 L0.0,-52.225577795033075 L0.0,-57.307242749485965 L0.0,-62.34891152774892 L0.0,-67.34706542148645 L0.0,-72.29821609250303 " />
			<path d="M20.0,-72.29821609250311 L0.0,-72.29821609250311 " />
			<path d="M20.0,-72.29821609250313 L20.0,-82.24542414842753 L20.0,-91.95345512016723 L20.0,-101.39407718127063 L20.0,-110.53983615442824 L20.0,-119.36413535068739 L20.0,-127.84131291501375 L20.0,-135.9467164532718 L20.0,-143.6567747236022 L20.0,-150.94906618371152 L20.0,-157.80238419473181 L20.0,-164.19679869203225 L20.0,-170.1137141436381 L20.0,-175.5359236277085 L20.0,-180.44765887181157 " />
			<path d="M20.0,-180.44765887181177 L0.0,-180.44765887181177 " />
			<path d="M0.0,-72.29821609250313 L0.0,-82.24542414842753 L0.0,-91.95345512016723 L0.0,-101.39407718127063 L0.0,-110.53983615442824 L0.0,-119.36413535068739 L0.0,-127.84131291501375 L0.0,-135.9467164532718 L0.0,-143.6567747236022 L0.0,-150.94906618371152 L0.0,-157.80238419473181 L0.0,-164.19679869203225 L0.0,-170.1137141436381 L0.0,-175.5359236277085 L0.0,-180.44765887181157 " />
			<path d="M20.0,-180.44765887181177 L0.0,-180.44765887181177 " />
			<path d="M20.0,-180.44765887181177 L20.0,-183.10245673856423 L20.0,-185.57155681158685 L20.0,-187.8524549932055 L20.0,-189.94283805525492 L20.0,-191.8405859850953 L20.0,-193.54377413567428 L20.0,-195.05067517745468 L20.0,-196.35976085022736 L20.0,-197.4697035130334 L20.0,-198.37937749062348 L20.0,-199.08786021508854 L20.0,-199.59443316150447 L20.0,-199.89858257664164 L20.0,-200.0 " />
			<path d="M20.0,-200.0 L0.0,-200.0 " />
			<path d="M0.0,-180.44765887181177 L0.0,-183.10245673856423 L0.0,-185.57155681158685 L0.0,-187.8524549932055 L0.0,-189.94283805525492 L0.0,-191.8405859850953 L0.0,-193.54377413567428 L0.0,-195.05067517745468 L0.0,-196.35976085022736 L0.0,-197.4697035130334 L0.0,-198.37937749062348 L0.0,-199.08786021508854 L0.0,-199.59443316150447 L0.0,-199.89858257664164 L0.0,-200.0 " />
			<path d="M20.0,200.0 L0.0,200.0 " />
			<path d="M20.0,-200.0 L0.0,-200.0 " />

       </g>
    </g>
    
</svg>
