<?xml version="1.0" encoding="UTF-8" standalone="no"?>
<svg
   xmlns:svg="http://www.w3.org/2000/svg"
   xmlns="http://www.w3.org/2000/svg"
   width="400.0"
   height="300.0"

>
    <g transform="scale(0.56249999971875, -0.56249999971875)   translate(8.888888993333333,-208.88888899333332)" stroke-width="0.5"  fill="none">
       <!-- hidden lines -->
       <g  stroke="rgb(160,160,160)" fill="none" stroke-dasharray="0.5,0.5" >
			<path d="M20.0,148.581882491061 L20.0,0.0 " />
			<path d="M-8.881784197001252e-15,3.0913953912397947e-13 L20.0,3.0913953912397947e-13 " />
			<path d="M0.0,148.581882491061 L0.0,-1.4210854715202004e-14 " />
			<path d="M20.0,180.44765887180537 L20.0,61.2307868152012 " />
			<path d="M20.0,51.96152422706 L20.0,53.081168988093374 L20.0,54.18673356662372 L20.0,55.264314846612514 L20.0,56.30036161823665 L20.0,57.28184499221462 L20.0,58.196422245648726 L20.0,59.03259203892694 L20.0,59.779839051741774 L20.0,60.42876621934426 L20.0,60.971212906085476 L20.0,61.40035753014475 L20.0,61.710803348879026 L20.0,61.89864632599286 L20.0,61.96152422706 " />
			<path d="M20.0,61.96152422706 L20.0,61.9577499000485 L20.0,61.94642976812308 L20.0,61.92757237645971 L20.0,61.901191959850905 L20.0,61.867308431960474 L20.0,61.82594737029133 L20.0,61.77713999687792 L20.0,61.72092315471782 L20.0,61.6573392799602 L20.0,61.58643636987225 L20.0,61.50826794660773 L20.0,61.42289301680489 L20.0,61.33037602704449 L20.0,61.230786815201206 " />
			<path d="M20.0,42.69226163891881 L20.0,42.592672427075314 L20.0,42.50015543731473 L20.0,42.41478050751175 L20.0,42.33661208424711 L20.0,42.26570917415908 L20.0,42.20212529940141 L20.0,42.14590845724129 L20.0,42.097101083827894 L20.0,42.0557400221588 L20.0,42.02185649426845 L20.0,41.99547607765976 L20.0,41.97661868599653 L20.0,41.965298554071296 L20.0,41.96152422706 " />
			<path d="M20.0,41.96152422706 L20.0,42.02440212812801 L20.0,42.21224510524256 L20.0,42.52269092397741 L20.0,42.951835548037096 L20.0,43.49428223477858 L20.0,44.14320940238119 L20.0,44.890456415196 L20.0,45.726626208474066 L20.0,46.64120346190791 L20.0,47.62268683588551 L20.0,48.65873360750919 L20.0,49.736314887497464 L20.0,50.84187946602725 L20.0,51.96152422705992 " />
			<path d="M20.0,42.69226163891881 L20.0,0.0 " />
			<path d="M20.0,0.0 L20.0,1.1196447610333724 L20.0,2.2252093395637202 L20.0,3.302790619552508 L20.0,4.3388373911766465 L20.0,5.320320765154617 L20.0,6.234898018588721 L20.0,7.0710678118669374 L20.0,7.818314824681771 L20.0,8.467241992284256 L20.0,9.009688679025473 L20.0,9.438833303084749 L20.0,9.749279121819026 L20.0,9.937122098932855 L20.0,9.999999999999998 " />
			<path d="M20.0,10.0 L20.0,9.937122098931995 L20.0,9.749279121817446 L20.0,9.438833303082601 L20.0,9.009688679022908 L20.0,8.467241992281426 L20.0,7.818314824678826 L20.0,7.071067811864015 L20.0,6.2348980185859535 L20.0,5.320320765152122 L20.0,4.3388373911745255 L20.0,3.302790619550846 L20.0,2.2252093395625825 L20.0,1.1196447610328017 L20.0,4.570934516320399e-14 " />
			<path d="M20.0,148.581882491061 L20.0,0.0 " />
			<path d="M-8.881784197001252e-15,3.0913953912397947e-13 L20.0,3.0913953912397947e-13 " />
			<path d="M0.0,148.581882491061 L0.0,-1.4210854715202004e-14 " />
			<path d="M0.0,180.44765887180537 L0.0,61.2307868152012 " />
			<path d="M0.0,61.2307868152012 L0.0,61.33037602704459 L0.0,61.422893016805084 L0.0,61.50826794660799 L0.0,61.58643636987257 L0.0,61.65733927996056 L0.0,61.72092315471821 L0.0,61.77713999687831 L0.0,61.825947370291715 L0.0,61.867308431960836 L0.0,61.901191959851225 L0.0,61.92757237645997 L0.0,61.94642976812328 L0.0,61.957749900048604 L0.0,61.96152422706 " />
			<path d="M0.0,61.96152422706 L0.0,61.89864632599243 L0.0,61.710803348878244 L0.0,61.40035753014368 L0.0,60.9712129060842 L0.0,60.42876621934285 L0.0,59.7798390517403 L0.0,59.03259203892548 L0.0,58.19642224564734 L0.0,57.28184499221337 L0.0,56.300361618235584 L0.0,55.264314846611676 L0.0,54.18673356662315 L0.0,53.08116898809308 L0.0,51.96152422706009 " />
			<path d="M0.0,51.96152422706 L0.0,50.841879466026924 L0.0,49.73631488749686 L0.0,48.65873360750833 L0.0,47.62268683588442 L0.0,46.64120346190664 L0.0,45.726626208472666 L0.0,44.89045641519453 L0.0,44.14320940237971 L0.0,43.49428223477716 L0.0,42.95183554803582 L0.0,42.52269092397633 L0.0,42.21224510524177 L0.0,42.024402128127576 L0.0,41.96152422706 " />
			<path d="M0.0,41.96152422706 L0.0,41.9652985540714 L0.0,41.976618685996726 L0.0,41.99547607766003 L0.0,42.021856494268775 L0.0,42.05574002215917 L0.0,42.09710108382829 L0.0,42.14590845724169 L0.0,42.2021252994018 L0.0,42.26570917415944 L0.0,42.336612084247434 L0.0,42.41478050751201 L0.0,42.500155437314916 L0.0,42.592672427075414 L0.0,42.6922616389188 " />
			<path d="M0.0,42.69226163891881 L0.0,-1.4210854715202004e-14 " />
			<path d="M0.0,-1.3947689259246353e-14 L0.0,1.1196447610330647 L0.0,2.2252093395631305 L0.0,3.302790619551657 L0.0,4.338837391175567 L0.0,5.320320765153352 L0.0,6.234898018587321 L0.0,7.071067811865463 L0.0,7.818314824680285 L0.0,8.46724199228283 L0.0,9.009688679024181 L0.0,9.438833303083666 L0.0,9.749279121818228 L0.0,9.937122098932418 L0.0,9.999999999999988 " />
			<path d="M0.0,9.999999999999993 L0.0,9.937122098932418 L0.0,9.749279121818232 L0.0,9.43883330308367 L0.0,9.009688679024187 L0.0,8.467241992282839 L0.0,7.818314824680295 L0.0,7.071067811865473 L0.0,6.234898018587334 L0.0,5.320320765153364 L0.0,4.33883739117558 L0.0,3.3027906195516703 L0.0,2.225209339563144 L0.0,1.1196447610330784 L0.0,8.862984952801966e-14 " />
			<path d="M20.0,61.2307868152012 L0.0,61.2307868152012 " />
			<path d="M20.0,42.69226163891881 L0.0,42.69226163891881 " />
			<path d="M-8.881784197001252e-15,3.0913953912397947e-13 L20.0,3.0913953912397947e-13 " />
			<path d="M20.0,3.056402745135148e-13 L0.0,3.056402745135148e-13 " />
			<path d="M0.0,0.0 L20.0,0.0 " />
			<path d="M20.0,195.43684922269082 L20.0,0.0 " />
			<path d="M20.0,0.0 L20.0,1.1196447610333724 L20.0,2.2252093395637202 L20.0,3.302790619552508 L20.0,4.3388373911766465 L20.0,5.320320765154617 L20.0,6.234898018588721 L20.0,7.0710678118669374 L20.0,7.818314824681771 L20.0,8.467241992284256 L20.0,9.009688679025473 L20.0,9.438833303084749 L20.0,9.749279121819026 L20.0,9.937122098932855 L20.0,9.999999999999998 " />
			<path d="M20.0,10.0 L20.0,9.937122098931995 L20.0,9.749279121817446 L20.0,9.438833303082601 L20.0,9.009688679022908 L20.0,8.467241992281426 L20.0,7.818314824678826 L20.0,7.071067811864015 L20.0,6.2348980185859535 L20.0,5.320320765152122 L20.0,4.3388373911745255 L20.0,3.302790619550846 L20.0,2.2252093395625825 L20.0,1.1196447610328017 L20.0,4.570934516320399e-14 " />
			<path d="M20.0,42.69226163891881 L20.0,0.0 " />
			<path d="M20.0,61.2307868152012 L20.0,60.465227615471406 L20.0,59.456088086892954 L20.0,58.23227405167035 L20.0,56.82884047486216 L20.0,55.28598734893544 L20.0,53.64790820400444 L20.0,51.96152422706 L20.0,50.27514025011556 L20.0,48.63706110518456 L20.0,47.09420797925784 L20.0,45.69077440244965 L20.0,44.466960367227045 L20.0,43.4578208386486 L20.0,42.69226163891885 " />
			<path d="M20.0,180.44765887180537 L20.0,61.2307868152012 " />
			<path d="M20.0,103.9230484541 L20.0,105.04269321513337 L20.0,106.14825779366372 L20.0,107.22583907365251 L20.0,108.26188584527665 L20.0,109.24336921925462 L20.0,110.15794647268872 L20.0,110.99411626596694 L20.0,111.74136327878176 L20.0,112.39029044638426 L20.0,112.93273713312547 L20.0,113.36188175718475 L20.0,113.67232757591903 L20.0,113.86017055303286 L20.0,113.9230484541 " />
			<path d="M20.0,113.9230484541 L20.0,113.67232757591731 L20.0,112.9327371331224 L20.0,111.74136327877771 L20.0,110.1579464726841 L20.0,108.26188584527185 L20.0,106.14825779365911 L20.0,103.92304845409586 L20.0,101.69783911453283 L20.0,99.58421106292069 L20.0,97.68815043550943 L20.0,96.10473362941713 L20.0,94.91335977507401 L20.0,94.17376933228084 L20.0,93.92304845410001 " />
			<path d="M20.0,93.9230484541 L20.0,93.985926355168 L20.0,94.17376933228255 L20.0,94.4842151510174 L20.0,94.9133597750771 L20.0,95.45580646181858 L20.0,96.10473362942119 L20.0,96.851980642236 L20.0,97.68815043551406 L20.0,98.60272768894791 L20.0,99.5842110629255 L20.0,100.6202578345492 L20.0,101.69783911453746 L20.0,102.80340369306724 L20.0,103.92304845409991 " />
			<path d="M20.0,61.2307868152012 L0.0,61.2307868152012 " />
			<path d="M0.0,180.44765887180537 L0.0,61.2307868152012 " />
			<path d="M0.0,195.43684922269082 L0.0,-1.4210854715202004e-14 " />
			<path d="M0.0,9.877978887873647e-15 L0.0,1.1196447610330882 L0.0,2.225209339563154 L0.0,3.30279061955168 L0.0,4.33883739117559 L0.0,5.320320765153374 L0.0,6.2348980185873435 L0.0,7.0710678118654835 L0.0,7.818314824680305 L0.0,8.467241992282847 L0.0,9.009688679024197 L0.0,9.43883330308368 L0.0,9.749279121818242 L0.0,9.937122098932429 L0.0,9.999999999999998 " />
			<path d="M0.0,10.000000000000004 L0.0,9.937122098932429 L0.0,9.749279121818239 L0.0,9.438833303083678 L0.0,9.009688679024192 L0.0,8.467241992282842 L0.0,7.818314824680299 L0.0,7.071067811865477 L0.0,6.234898018587336 L0.0,5.320320765153367 L0.0,4.3388373911755815 L0.0,3.302790619551671 L0.0,2.2252093395631443 L0.0,1.1196447610330784 L0.0,8.862984952801966e-14 " />
			<path d="M0.0,42.69226163891881 L0.0,-1.4210854715202004e-14 " />
			<path d="M0.0,42.69226163891881 L0.0,43.4578208386486 L0.0,44.46696036722705 L0.0,45.690774402449655 L0.0,47.094207979257845 L0.0,48.637061105184564 L0.0,50.27514025011557 L0.0,51.96152422706 L0.0,53.647908204004445 L0.0,55.28598734893545 L0.0,56.82884047486217 L0.0,58.23227405167036 L0.0,59.45608808689296 L0.0,60.465227615471406 L0.0,61.23078681520116 " />
			<path d="M0.0,103.9230484541 L0.0,102.80340369306693 L0.0,101.69783911453685 L0.0,100.62025783454833 L0.0,99.58421106292441 L0.0,98.60272768894663 L0.0,97.68815043551267 L0.0,96.85198064223452 L0.0,96.1047336294197 L0.0,95.45580646181716 L0.0,94.9133597750758 L0.0,94.48421515101631 L0.0,94.17376933228176 L0.0,93.98592635516758 L0.0,93.9230484541 " />
			<path d="M0.0,93.9230484541 L0.0,94.17376933228176 L0.0,94.9133597750758 L0.0,96.1047336294197 L0.0,97.68815043551267 L0.0,99.58421106292441 L0.0,101.69783911453685 L0.0,103.9230484541 L0.0,106.14825779366313 L0.0,108.26188584527557 L0.0,110.15794647268733 L0.0,111.7413632787803 L0.0,112.93273713312419 L0.0,113.67232757591823 L0.0,113.92304845409998 " />
			<path d="M0.0,113.9230484541 L0.0,113.86017055303242 L0.0,113.67232757591823 L0.0,113.36188175718368 L0.0,112.93273713312419 L0.0,112.39029044638283 L0.0,111.7413632787803 L0.0,110.99411626596547 L0.0,110.15794647268734 L0.0,109.24336921925337 L0.0,108.26188584527559 L0.0,107.22583907365167 L0.0,106.14825779366315 L0.0,105.04269321513308 L0.0,103.92304845410008 " />
			<path d="M-8.881784197001252e-15,3.0913953912397947e-13 L20.0,3.0913953912397947e-13 " />
			<path d="M20.0,3.056402745135148e-13 L0.0,3.056402745135148e-13 " />
			<path d="M0.0,0.0 L20.0,0.0 " />
			<path d="M-8.881784197001252e-15,3.0913953912397947e-13 L20.0,3.0913953912397947e-13 " />
			<path d="M20.0,42.69226163891881 L0.0,42.69226163891881 " />
			<path d="M20.0,199.99999999999997 L20.0,113.92304845409998 " />
			<path d="M20.0,103.9230484541 L20.0,105.04269321513218 L20.0,106.14825779366139 L20.0,107.22583907364913 L20.0,108.26188584527233 L20.0,109.24336921924956 L20.0,110.15794647268311 L20.0,110.99411626596101 L20.0,111.74136327877581 L20.0,112.39029044637853 L20.0,112.93273713312028 L20.0,113.3618817571804 L20.0,113.67232757591583 L20.0,113.86017055303111 L20.0,113.9230484541 " />
			<path d="M20.0,93.9230484541 L20.0,93.98592635516889 L20.0,94.17376933228417 L20.0,94.4842151510196 L20.0,94.91335977507971 L20.0,95.45580646182148 L20.0,96.1047336294242 L20.0,96.851980642239 L20.0,97.6881504355169 L20.0,98.60272768895047 L20.0,99.5842110629277 L20.0,100.62025783455091 L20.0,101.69783911453864 L20.0,102.80340369306785 L20.0,103.92304845409991 " />
			<path d="M20.0,93.9230484541 L20.0,10.0 " />
			<path d="M20.0,0.0 L20.0,1.119644761032185 L20.0,2.2252093395613906 L20.0,3.302790619549124 L20.0,4.33883739117234 L20.0,5.3203207651495585 L20.0,6.234898018583117 L20.0,7.071067811861024 L20.0,7.818314824675813 L20.0,8.467241992278536 L20.0,9.00968867902029 L20.0,9.438833303080408 L20.0,9.749279121815835 L20.0,9.937122098931116 L20.0,9.999999999999998 " />
			<path d="M20.0,195.43684922269082 L20.0,0.0 " />
			<path d="M20.0,51.96152422706 L20.0,53.081168988093374 L20.0,54.18673356662372 L20.0,55.264314846612514 L20.0,56.30036161823665 L20.0,57.28184499221462 L20.0,58.196422245648726 L20.0,59.03259203892694 L20.0,59.779839051741774 L20.0,60.42876621934426 L20.0,60.971212906085476 L20.0,61.40035753014475 L20.0,61.710803348879026 L20.0,61.89864632599286 L20.0,61.96152422706 " />
			<path d="M20.0,61.96152422706 L20.0,61.71080334887732 L20.0,60.9712129060824 L20.0,59.779839051737724 L20.0,58.1964222456441 L20.0,56.300361618231854 L20.0,54.18673356661911 L20.0,51.96152422705587 L20.0,49.736314887492824 L20.0,47.62268683588069 L20.0,45.72662620846943 L20.0,44.143209402377124 L20.0,42.95183554803402 L20.0,42.21224510524085 L20.0,41.96152422706001 " />
			<path d="M20.0,41.96152422706 L20.0,42.02440212812801 L20.0,42.21224510524256 L20.0,42.52269092397741 L20.0,42.951835548037096 L20.0,43.49428223477858 L20.0,44.14320940238119 L20.0,44.890456415196 L20.0,45.726626208474066 L20.0,46.64120346190791 L20.0,47.62268683588551 L20.0,48.65873360750919 L20.0,49.736314887497464 L20.0,50.84187946602725 L20.0,51.96152422705992 " />
			<path d="M-8.881784197001252e-15,3.0913953912397947e-13 L20.0,3.0913953912397947e-13 " />
			<path d="M0.0,195.43684922269082 L0.0,-1.4210854715202004e-14 " />
			<path d="M0.0,199.99999999999997 L0.0,113.92304845409998 " />
			<path d="M0.0,113.9230484541 L0.0,113.86017055303111 L0.0,113.67232757591583 L0.0,113.3618817571804 L0.0,112.93273713312028 L0.0,112.39029044637853 L0.0,111.7413632787758 L0.0,110.99411626596101 L0.0,110.1579464726831 L0.0,109.24336921924953 L0.0,108.26188584527232 L0.0,107.2258390736491 L0.0,106.14825779366136 L0.0,105.04269321513215 L0.0,103.9230484541001 " />
			<path d="M0.0,103.92304845410001 L0.0,102.80340369306782 L0.0,101.69783911453862 L0.0,100.62025783455088 L0.0,99.58421106292766 L0.0,98.60272768895045 L0.0,97.68815043551689 L0.0,96.85198064223898 L0.0,96.10473362942419 L0.0,95.45580646182147 L0.0,94.91335977507971 L0.0,94.4842151510196 L0.0,94.17376933228417 L0.0,93.98592635516889 L0.0,93.9230484541 " />
			<path d="M0.0,93.9230484541 L0.0,10.000000000000007 " />
			<path d="M0.0,10.000000000000004 L0.0,9.93712209893112 L0.0,9.749279121815837 L0.0,9.43883330308041 L0.0,9.00968867902029 L0.0,8.467241992278534 L0.0,7.8183148246758085 L0.0,7.071067811861019 L0.0,6.234898018583107 L0.0,5.320320765149547 L0.0,4.338837391172325 L0.0,3.3027906195491052 L0.0,2.225209339561369 L0.0,1.1196447610321607 L0.0,8.862984952794701e-14 " />
			<path d="M0.0,51.96152422706 L0.0,50.841879466026924 L0.0,49.73631488749686 L0.0,48.65873360750833 L0.0,47.62268683588442 L0.0,46.64120346190664 L0.0,45.726626208472666 L0.0,44.89045641519453 L0.0,44.1432094023797 L0.0,43.49428223477716 L0.0,42.95183554803581 L0.0,42.52269092397633 L0.0,42.21224510524176 L0.0,42.024402128127576 L0.0,41.96152422706 " />
			<path d="M0.0,41.96152422706 L0.0,42.21224510524176 L0.0,42.95183554803581 L0.0,44.1432094023797 L0.0,45.726626208472666 L0.0,47.62268683588442 L0.0,49.73631488749686 L0.0,51.96152422706 L0.0,54.18673356662315 L0.0,56.300361618235584 L0.0,58.19642224564734 L0.0,59.779839051740296 L0.0,60.97121290608419 L0.0,61.710803348878244 L0.0,61.961524227059996 " />
			<path d="M0.0,61.96152422706 L0.0,61.89864632599243 L0.0,61.710803348878244 L0.0,61.40035753014368 L0.0,60.9712129060842 L0.0,60.42876621934285 L0.0,59.7798390517403 L0.0,59.03259203892548 L0.0,58.19642224564734 L0.0,57.28184499221337 L0.0,56.300361618235584 L0.0,55.264314846611676 L0.0,54.18673356662315 L0.0,53.08116898809308 L0.0,51.96152422706009 " />
			<path d="M20.0,113.9230484541 L0.0,113.9230484541 " />
			<path d="M20.0,93.9230484541 L0.0,93.9230484541 " />
			<path d="M20.0,10.0 L0.0,10.0 " />
			<path d="M0.0,0.0 L20.0,0.0 " />
			<path d="M20.0,195.43684922269543 L20.0,196.06337557980765 L20.0,196.64408192728297 L20.0,197.1788325540516 L20.0,197.66750248889548 L20.0,198.10997752965392 L20.0,198.50615426991268 L20.0,198.85594012317003 L20.0,199.1592533444743 L20.0,199.41602304952758 L20.0,199.62618923125143 L20.0,199.78970277381046 L20.0,199.90652546409086 L20.0,199.97663000063062 L20.0,200.0 " />
			<path d="M0.0,195.43684922269543 L0.0,196.06337557980765 L0.0,196.64408192728297 L0.0,197.1788325540516 L0.0,197.66750248889548 L0.0,198.10997752965392 L0.0,198.50615426991268 L0.0,198.85594012317003 L0.0,199.1592533444743 L0.0,199.41602304952758 L0.0,199.62618923125143 L0.0,199.78970277381046 L0.0,199.90652546409086 L0.0,199.97663000063062 L0.0,200.0 " />
			<path d="M20.0,195.43684922269549 L0.0,195.43684922269549 " />
			<path d="M20.0,195.43684922269543 L20.0,-2.842170943040401e-14 " />
			<path d="M20.0,10.0 L20.0,9.937122098933735 L20.0,9.749279121820638 L20.0,9.438833303086943 L20.0,9.009688679028095 L20.0,8.467241992287146 L20.0,7.8183148246847844 L20.0,7.071067811869929 L20.0,6.234898018591558 L20.0,5.320320765157179 L20.0,4.3388373911788305 L20.0,3.302790619554229 L20.0,2.2252093395649117 L20.0,1.1196447610339888 L20.0,4.5487300558326016e-14 " />
			<path d="M20.0,93.9230484541 L20.0,10.0 " />
			<path d="M20.0,113.9230484541 L20.0,113.67232757592063 L20.0,112.9327371331281 L20.0,111.74136327878479 L20.0,110.15794647269156 L20.0,108.26188584527883 L20.0,106.14825779366491 L20.0,103.92304845410001 L20.0,101.69783911453511 L20.0,99.58421106292118 L20.0,97.68815043550845 L20.0,96.10473362941522 L20.0,94.91335977507191 L20.0,94.17376933227936 L20.0,93.92304845410001 " />
			<path d="M20.0,199.99999999999997 L20.0,113.92304845409998 " />
			<path d="M20.0,51.96152422706 L20.0,53.081168988093374 L20.0,54.18673356662372 L20.0,55.264314846612514 L20.0,56.30036161823665 L20.0,57.28184499221462 L20.0,58.196422245648726 L20.0,59.03259203892694 L20.0,59.779839051741774 L20.0,60.42876621934426 L20.0,60.971212906085476 L20.0,61.40035753014475 L20.0,61.710803348879026 L20.0,61.89864632599286 L20.0,61.96152422706 " />
			<path d="M20.0,61.96152422706 L20.0,61.71080334887732 L20.0,60.9712129060824 L20.0,59.779839051737724 L20.0,58.1964222456441 L20.0,56.300361618231854 L20.0,54.18673356661911 L20.0,51.96152422705587 L20.0,49.736314887492824 L20.0,47.62268683588069 L20.0,45.72662620846943 L20.0,44.143209402377124 L20.0,42.95183554803402 L20.0,42.21224510524085 L20.0,41.96152422706001 " />
			<path d="M20.0,41.96152422706 L20.0,42.02440212812801 L20.0,42.21224510524256 L20.0,42.52269092397741 L20.0,42.951835548037096 L20.0,43.49428223477858 L20.0,44.14320940238119 L20.0,44.890456415196 L20.0,45.726626208474066 L20.0,46.64120346190791 L20.0,47.62268683588551 L20.0,48.65873360750919 L20.0,49.736314887497464 L20.0,50.84187946602725 L20.0,51.96152422705992 " />
			<path d="M20.0,113.9230484541 L0.0,113.9230484541 " />
			<path d="M0.0,199.99999999999997 L0.0,113.92304845409998 " />
			<path d="M0.0,195.43684922269543 L0.0,-2.842170943040401e-14 " />
			<path d="M0.0,7.515198660539648e-15 L0.0,1.1196447610339775 L0.0,2.2252093395649006 L0.0,3.302790619554218 L0.0,4.338837391178822 L0.0,5.320320765157171 L0.0,6.234898018591551 L0.0,7.071067811869922 L0.0,7.818314824684779 L0.0,8.467241992287143 L0.0,9.009688679028088 L0.0,9.43883330308694 L0.0,9.749279121820637 L0.0,9.937122098933735 L0.0,9.999999999999998 " />
			<path d="M0.0,93.9230484541 L0.0,10.000000000000007 " />
			<path d="M0.0,93.9230484541 L0.0,94.17376933227936 L0.0,94.91335977507191 L0.0,96.10473362941521 L0.0,97.68815043550843 L0.0,99.58421106292117 L0.0,101.6978391145351 L0.0,103.9230484541 L0.0,106.1482577936649 L0.0,108.26188584527881 L0.0,110.15794647269155 L0.0,111.74136327878477 L0.0,112.93273713312809 L0.0,113.67232757592063 L0.0,113.92304845409998 " />
			<path d="M0.0,51.96152422706 L0.0,50.841879466026924 L0.0,49.73631488749686 L0.0,48.65873360750833 L0.0,47.62268683588442 L0.0,46.64120346190664 L0.0,45.726626208472666 L0.0,44.89045641519453 L0.0,44.1432094023797 L0.0,43.49428223477716 L0.0,42.95183554803581 L0.0,42.52269092397633 L0.0,42.21224510524176 L0.0,42.024402128127576 L0.0,41.96152422706 " />
			<path d="M0.0,41.96152422706 L0.0,42.21224510524176 L0.0,42.95183554803581 L0.0,44.1432094023797 L0.0,45.726626208472666 L0.0,47.62268683588442 L0.0,49.73631488749686 L0.0,51.96152422706 L0.0,54.18673356662315 L0.0,56.300361618235584 L0.0,58.19642224564734 L0.0,59.779839051740296 L0.0,60.97121290608419 L0.0,61.710803348878244 L0.0,61.961524227059996 " />
			<path d="M0.0,61.96152422706 L0.0,61.89864632599243 L0.0,61.710803348878244 L0.0,61.40035753014368 L0.0,60.9712129060842 L0.0,60.42876621934285 L0.0,59.7798390517403 L0.0,59.03259203892548 L0.0,58.19642224564734 L0.0,57.28184499221337 L0.0,56.300361618235584 L0.0,55.264314846611676 L0.0,54.18673356662315 L0.0,53.08116898809308 L0.0,51.96152422706009 " />
			<path d="M-8.881784197001252e-15,3.0913953912397947e-13 L20.0,3.0913953912397947e-13 " />
			<path d="M20.0,3.056402745135148e-13 L0.0,3.056402745135148e-13 " />
			<path d="M20.0,10.0 L0.0,10.0 " />
			<path d="M20.0,93.9230484541 L0.0,93.9230484541 " />
			<path d="M20.0,180.44765887181592 L20.0,181.85111558321586 L20.0,183.20470344725155 L20.0,184.508051270893 L20.0,185.76080163838574 L20.0,186.96261100926446 L20.0,188.11314981256183 L20.0,189.21210253718635 L20.0,190.25916781844467 L20.0,191.25405852068448 L20.0,192.1965018160355 L20.0,193.08623925922674 L20.0,193.92302685845974 L20.0,194.70663514231808 L20.0,195.43684922269503 " />
			<path d="M20.0,195.43684922269549 L0.0,195.43684922269549 " />
			<path d="M0.0,180.44765887181592 L0.0,181.85111558321586 L0.0,183.20470344725155 L0.0,184.508051270893 L0.0,185.76080163838574 L0.0,186.96261100926446 L0.0,188.11314981256183 L0.0,189.21210253718635 L0.0,190.25916781844467 L0.0,191.25405852068448 L0.0,192.1965018160355 L0.0,193.08623925922674 L0.0,193.92302685845974 L0.0,194.70663514231808 L0.0,195.43684922269503 " />
			<path d="M20.0,180.4476588718159 L0.0,180.4476588718159 " />
			<path d="M20.0,180.44765887181592 L20.0,61.23078681519223 " />
			<path d="M20.0,51.96152422706 L20.0,52.807751579492354 L20.0,53.64790820400107 L20.0,54.4759669232963 L20.0,55.285987348929005 L20.0,56.07215849688589 L20.0,56.828840474853216 L20.0,57.55060494209045 L20.0,58.232274051659715 L20.0,58.86895759564436 L20.0,59.45608808688165 L20.0,59.98945352553759 L20.0,60.46522761546063 L20.0,60.87999721354596 L20.0,61.230786815192225 " />
			<path d="M20.0,42.692261638927775 L20.0,43.043051240574044 L20.0,43.45782083865938 L20.0,43.93359492858241 L20.0,44.46696036723835 L20.0,45.05409085847564 L20.0,45.69077440246028 L20.0,46.372443512029534 L20.0,47.09420797926676 L20.0,47.85088995723409 L20.0,48.637061105190966 L20.0,49.44708153082367 L20.0,50.27514025011889 L20.0,51.115296874627596 L20.0,51.96152422705992 " />
			<path d="M20.0,42.692261638927775 L20.0,-2.842170943040401e-14 " />
			<path d="M20.0,0.0 L20.0,1.1196447610333724 L20.0,2.2252093395637202 L20.0,3.302790619552508 L20.0,4.3388373911766465 L20.0,5.320320765154617 L20.0,6.234898018588721 L20.0,7.0710678118669374 L20.0,7.818314824681771 L20.0,8.467241992284256 L20.0,9.009688679025473 L20.0,9.438833303084749 L20.0,9.749279121819026 L20.0,9.937122098932855 L20.0,9.999999999999998 " />
			<path d="M20.0,10.0 L20.0,9.937122098931995 L20.0,9.749279121817446 L20.0,9.438833303082601 L20.0,9.009688679022908 L20.0,8.467241992281426 L20.0,7.818314824678826 L20.0,7.071067811864015 L20.0,6.2348980185859535 L20.0,5.320320765152122 L20.0,4.3388373911745255 L20.0,3.302790619550846 L20.0,2.2252093395625825 L20.0,1.1196447610328017 L20.0,4.570934516320399e-14 " />
			<path d="M20.0,195.43684922269543 L20.0,-2.842170943040401e-14 " />
			<path d="M20.0,103.9230484541 L20.0,105.04269321513337 L20.0,106.14825779366372 L20.0,107.22583907365251 L20.0,108.26188584527665 L20.0,109.24336921925462 L20.0,110.15794647268872 L20.0,110.99411626596694 L20.0,111.74136327878176 L20.0,112.39029044638426 L20.0,112.93273713312547 L20.0,113.36188175718475 L20.0,113.67232757591903 L20.0,113.86017055303286 L20.0,113.9230484541 " />
			<path d="M20.0,113.9230484541 L20.0,113.67232757591731 L20.0,112.9327371331224 L20.0,111.74136327877771 L20.0,110.1579464726841 L20.0,108.26188584527185 L20.0,106.14825779365911 L20.0,103.92304845409586 L20.0,101.69783911453283 L20.0,99.58421106292069 L20.0,97.68815043550943 L20.0,96.10473362941713 L20.0,94.91335977507401 L20.0,94.17376933228084 L20.0,93.92304845410001 " />
			<path d="M20.0,93.9230484541 L20.0,93.985926355168 L20.0,94.17376933228255 L20.0,94.4842151510174 L20.0,94.9133597750771 L20.0,95.45580646181858 L20.0,96.10473362942119 L20.0,96.851980642236 L20.0,97.68815043551406 L20.0,98.60272768894791 L20.0,99.5842110629255 L20.0,100.6202578345492 L20.0,101.69783911453746 L20.0,102.80340369306724 L20.0,103.92304845409991 " />
			<path d="M-8.881784197001252e-15,3.0913953912397947e-13 L20.0,3.0913953912397947e-13 " />
			<path d="M0.0,195.43684922269543 L0.0,-2.842170943040401e-14 " />
			<path d="M0.0,180.44765887181592 L0.0,61.23078681519223 " />
			<path d="M0.0,61.23078681519223 L0.0,60.87999721354596 L0.0,60.46522761546063 L0.0,59.9894535255376 L0.0,59.45608808688166 L0.0,58.86895759564437 L0.0,58.23227405165973 L0.0,57.55060494209047 L0.0,56.828840474853244 L0.0,56.07215849688592 L0.0,55.28598734892904 L0.0,54.47596692329634 L0.0,53.64790820400112 L0.0,52.80775157949241 L0.0,51.96152422706009 " />
			<path d="M0.0,51.96152422706 L0.0,51.11529687462765 L0.0,50.27514025011894 L0.0,49.44708153082371 L0.0,48.637061105191 L0.0,47.850889957234116 L0.0,47.09420797926679 L0.0,46.372443512029555 L0.0,45.69077440246029 L0.0,45.05409085847565 L0.0,44.46696036723836 L0.0,43.933594928582416 L0.0,43.45782083865938 L0.0,43.043051240574044 L0.0,42.69226163892778 " />
			<path d="M0.0,42.692261638927775 L0.0,-2.842170943040401e-14 " />
			<path d="M0.0,6.296800734139466e-16 L0.0,1.1196447610330793 L0.0,2.2252093395631447 L0.0,3.302790619551671 L0.0,4.3388373911755815 L0.0,5.320320765153366 L0.0,6.2348980185873355 L0.0,7.071067811865476 L0.0,7.818314824680298 L0.0,8.467241992282842 L0.0,9.009688679024192 L0.0,9.438833303083674 L0.0,9.749279121818237 L0.0,9.937122098932425 L0.0,9.999999999999995 " />
			<path d="M0.0,10.0 L0.0,9.937122098932425 L0.0,9.749279121818237 L0.0,9.438833303083676 L0.0,9.00968867902419 L0.0,8.46724199228284 L0.0,7.818314824680297 L0.0,7.0710678118654755 L0.0,6.2348980185873355 L0.0,5.320320765153366 L0.0,4.3388373911755815 L0.0,3.3027906195516703 L0.0,2.225209339563144 L0.0,1.1196447610330784 L0.0,8.862984952801966e-14 " />
			<path d="M0.0,103.92304845410001 L0.0,102.80340369306694 L0.0,101.69783911453686 L0.0,100.62025783454834 L0.0,99.58421106292442 L0.0,98.60272768894664 L0.0,97.68815043551268 L0.0,96.85198064223454 L0.0,96.10473362941971 L0.0,95.45580646181716 L0.0,94.9133597750758 L0.0,94.48421515101633 L0.0,94.17376933228176 L0.0,93.98592635516758 L0.0,93.9230484541 " />
			<path d="M0.0,93.9230484541 L0.0,94.17376933228175 L0.0,94.9133597750758 L0.0,96.10473362941968 L0.0,97.68815043551265 L0.0,99.5842110629244 L0.0,101.69783911453683 L0.0,103.92304845409998 L0.0,106.14825779366313 L0.0,108.26188584527557 L0.0,110.15794647268731 L0.0,111.74136327878028 L0.0,112.93273713312418 L0.0,113.67232757591823 L0.0,113.92304845409998 " />
			<path d="M0.0,113.9230484541 L0.0,113.86017055303242 L0.0,113.67232757591825 L0.0,113.36188175718368 L0.0,112.93273713312419 L0.0,112.39029044638285 L0.0,111.74136327878031 L0.0,110.99411626596549 L0.0,110.15794647268734 L0.0,109.24336921925338 L0.0,108.2618858452756 L0.0,107.22583907365168 L0.0,106.14825779366316 L0.0,105.0426932151331 L0.0,103.9230484541001 " />
			<path d="M20.0,61.23078681519223 L0.0,61.23078681519223 " />
			<path d="M20.0,42.692261638927775 L0.0,42.692261638927775 " />
			<path d="M-8.881784197001252e-15,3.0913953912397947e-13 L20.0,3.0913953912397947e-13 " />
			<path d="M20.0,3.056402745135148e-13 L0.0,3.056402745135148e-13 " />
			<path d="M0.0,0.0 L20.0,0.0 " />
			<path d="M20.0,148.58188249107857 L20.0,151.29988983127865 L20.0,153.9540824615259 L20.0,156.54334090623414 L20.0,159.06657307751868 L20.0,161.5227147358131 L20.0,163.91072993874033 L20.0,166.22961147804853 L20.0,168.47838130442773 L20.0,170.6560909400279 L20.0,172.76182187850435 L20.0,174.79468597242206 L20.0,176.7538258078551 L20.0,178.63841506602364 L20.0,180.44765887181512 " />
			<path d="M20.0,180.4476588718159 L0.0,180.4476588718159 " />
			<path d="M0.0,148.58188249107857 L0.0,151.29988983127865 L0.0,153.9540824615259 L0.0,156.54334090623414 L0.0,159.06657307751868 L0.0,161.5227147358131 L0.0,163.91072993874033 L0.0,166.22961147804853 L0.0,168.47838130442773 L0.0,170.6560909400279 L0.0,172.76182187850435 L0.0,174.79468597242206 L0.0,176.7538258078551 L0.0,178.63841506602364 L0.0,180.44765887181512 " />
			<path d="M20.0,148.5818824910786 L0.0,148.5818824910786 " />
			<path d="M20.0,0.0 L20.0,1.1196447610333724 L20.0,2.2252093395637202 L20.0,3.302790619552508 L20.0,4.3388373911766465 L20.0,5.320320765154617 L20.0,6.234898018588721 L20.0,7.0710678118669374 L20.0,7.818314824681771 L20.0,8.467241992284256 L20.0,9.009688679025473 L20.0,9.438833303084749 L20.0,9.749279121819026 L20.0,9.937122098932855 L20.0,9.999999999999998 " />
			<path d="M20.0,10.0 L20.0,9.937122098931995 L20.0,9.749279121817446 L20.0,9.438833303082601 L20.0,9.009688679022908 L20.0,8.467241992281426 L20.0,7.818314824678826 L20.0,7.071067811864015 L20.0,6.2348980185859535 L20.0,5.320320765152122 L20.0,4.3388373911745255 L20.0,3.302790619550846 L20.0,2.2252093395625825 L20.0,1.1196447610328017 L20.0,4.570934516320399e-14 " />
			<path d="M20.0,42.692261638927775 L20.0,-2.842170943040401e-14 " />
			<path d="M20.0,61.23078681519223 L20.0,61.330376027036934 L20.0,61.422893016798646 L20.0,61.508267946602665 L20.0,61.58643636986826 L20.0,61.657339279957164 L20.0,61.72092315471562 L20.0,61.77713999687643 L20.0,61.82594737029042 L20.0,61.86730843196003 L20.0,61.901191959850806 L20.0,61.92757237645982 L20.0,61.94642976812329 L20.0,61.95774990004866 L20.0,61.96152422706 " />
			<path d="M20.0,61.96152422706 L20.0,61.71080334887732 L20.0,60.9712129060824 L20.0,59.779839051737724 L20.0,58.1964222456441 L20.0,56.300361618231854 L20.0,54.18673356661911 L20.0,51.96152422705587 L20.0,49.736314887492824 L20.0,47.62268683588069 L20.0,45.72662620846943 L20.0,44.143209402377124 L20.0,42.95183554803402 L20.0,42.21224510524085 L20.0,41.96152422706001 " />
			<path d="M20.0,41.96152422706 L20.0,41.96529855407156 L20.0,41.97661868599711 L20.0,41.995476077660726 L20.0,42.021856494269855 L20.0,42.0557400221607 L20.0,42.09710108383036 L20.0,42.14590845724437 L20.0,42.20212529940516 L20.0,42.26570917416356 L20.0,42.33661208425238 L20.0,42.41478050751786 L20.0,42.50015543732174 L20.0,42.59267242708327 L20.0,42.69226163892774 " />
			<path d="M20.0,180.44765887181592 L20.0,61.23078681519223 " />
			<path d="M20.0,148.58188249107857 L20.0,-2.842170943040401e-14 " />
			<path d="M20.0,61.23078681519223 L0.0,61.23078681519223 " />
			<path d="M0.0,180.44765887181592 L0.0,61.23078681519223 " />
			<path d="M0.0,-1.3947689259246353e-14 L0.0,1.1196447610330647 L0.0,2.2252093395631305 L0.0,3.302790619551657 L0.0,4.338837391175567 L0.0,5.320320765153352 L0.0,6.234898018587321 L0.0,7.071067811865463 L0.0,7.818314824680285 L0.0,8.46724199228283 L0.0,9.009688679024181 L0.0,9.438833303083666 L0.0,9.749279121818228 L0.0,9.937122098932418 L0.0,9.999999999999988 " />
			<path d="M0.0,9.999999999999993 L0.0,9.937122098932418 L0.0,9.749279121818232 L0.0,9.43883330308367 L0.0,9.009688679024187 L0.0,8.467241992282839 L0.0,7.818314824680295 L0.0,7.071067811865473 L0.0,6.234898018587334 L0.0,5.320320765153364 L0.0,4.33883739117558 L0.0,3.3027906195516703 L0.0,2.225209339563144 L0.0,1.1196447610330784 L0.0,8.862984952801966e-14 " />
			<path d="M0.0,42.692261638927775 L0.0,-2.842170943040401e-14 " />
			<path d="M0.0,42.692261638927775 L0.0,42.59267242708317 L0.0,42.50015543732155 L0.0,42.414780507517605 L0.0,42.33661208425207 L0.0,42.265709174163206 L0.0,42.20212529940478 L0.0,42.145908457243976 L0.0,42.09710108382997 L0.0,42.055740022160336 L0.0,42.02185649426953 L0.0,41.995476077660456 L0.0,41.97661868599691 L0.0,41.96529855407145 L0.0,41.96152422706 " />
			<path d="M0.0,41.96152422706 L0.0,42.21224510524176 L0.0,42.95183554803581 L0.0,44.1432094023797 L0.0,45.726626208472666 L0.0,47.62268683588442 L0.0,49.73631488749686 L0.0,51.96152422706 L0.0,54.18673356662315 L0.0,56.300361618235584 L0.0,58.19642224564734 L0.0,59.779839051740296 L0.0,60.97121290608419 L0.0,61.710803348878244 L0.0,61.961524227059996 " />
			<path d="M0.0,61.96152422706 L0.0,61.957749900048555 L0.0,61.946429768123096 L0.0,61.92757237645955 L0.0,61.90119195985048 L0.0,61.86730843195967 L0.0,61.82594737029004 L0.0,61.77713999687604 L0.0,61.72092315471524 L0.0,61.657339279956815 L0.0,61.586436369867954 L0.0,61.508267946602416 L0.0,61.42289301679847 L0.0,61.33037602703685 L0.0,61.23078681519227 " />
			<path d="M0.0,148.58188249107857 L0.0,-2.842170943040401e-14 " />
			<path d="M-8.881784197001252e-15,3.0913953912397947e-13 L20.0,3.0913953912397947e-13 " />
			<path d="M20.0,3.056402745135148e-13 L0.0,3.056402745135148e-13 " />
			<path d="M0.0,0.0 L20.0,0.0 " />
			<path d="M-8.881784197001252e-15,3.0913953912397947e-13 L20.0,3.0913953912397947e-13 " />
			<path d="M20.0,42.692261638927775 L0.0,42.692261638927775 " />
			<path d="M20.0,-2.4492935982947064e-14 L20.0,11.955814771615463 L20.0,23.868866750949227 L20.0,35.69654609693522 L20.0,47.396548323872636 L20.0,58.927025613399984 L20.0,70.24673649309065 L20.0,81.31519334630923 L20.0,92.09280722572463 L20.0,102.54102945252058 L20.0,112.62248949484015 L20.0,122.30112863230995 L20.0,131.54232892856078 L20.0,140.31303705044465 L20.0,148.58188249107795 " />
			<path d="M20.0,148.5818824910786 L0.0,148.5818824910786 " />
			<path d="M0.0,-2.4492935982947064e-14 L0.0,11.955814771615463 L0.0,23.868866750949227 L0.0,35.69654609693522 L0.0,47.396548323872636 L0.0,58.927025613399984 L0.0,70.24673649309065 L0.0,81.31519334630923 L0.0,92.09280722572463 L0.0,102.54102945252058 L0.0,112.62248949484015 L0.0,122.30112863230995 L0.0,131.54232892856078 L0.0,140.31303705044465 L0.0,148.58188249107795 " />
			<path d="M20.0,3.056402745135148e-13 L0.0,3.056402745135148e-13 " />
			<path d="M20.0,148.58188249107857 L20.0,-2.842170943040401e-14 " />
			<path d="M-8.881784197001252e-15,3.0913953912397947e-13 L20.0,3.0913953912397947e-13 " />
			<path d="M0.0,148.58188249107857 L0.0,-2.842170943040401e-14 " />
			<path d="M-8.881784197001252e-15,3.0913953912397947e-13 L20.0,3.0913953912397947e-13 " />
			<path d="M20.0,3.055333763768431e-13 L20.0,-148.58188249107585 " />
			<path d="M0.0,3.055333763768431e-13 L0.0,-148.58188249107585 " />
			<path d="M0.0,3.055333763768431e-13 L0.0,-148.58188249107585 " />
			<path d="M-8.881784197001252e-15,3.0913953912397947e-13 L20.0,3.0913953912397947e-13 " />
			<path d="M20.0,3.055333763768431e-13 L20.0,-148.58188249107585 " />
			<path d="M20.0,3.055333763768431e-13 L20.0,-42.6922616389315 " />
			<path d="M20.0,-51.961524227066 L20.0,-50.84187946603263 L20.0,-49.73631488750228 L20.0,-48.65873360751349 L20.0,-47.622686835889354 L20.0,-46.64120346191138 L20.0,-45.72662620847728 L20.0,-44.89045641519906 L20.0,-44.14320940238423 L20.0,-43.49428223478174 L20.0,-42.95183554804053 L20.0,-42.52269092398125 L20.0,-42.21224510524698 L20.0,-42.02440212813315 L20.0,-41.961524227066 " />
			<path d="M20.0,-41.961524227066 L20.0,-41.96529855407754 L20.0,-41.97661868600306 L20.0,-41.99547607766661 L20.0,-42.02185649427566 L20.0,-42.055740022166404 L20.0,-42.09710108383593 L20.0,-42.14590845724979 L20.0,-42.202125299410405 L20.0,-42.26570917416861 L20.0,-42.33661208425721 L20.0,-42.41478050752245 L20.0,-42.50015543732606 L20.0,-42.59267242708731 L20.0,-42.69226163893149 " />
			<path d="M20.0,-61.2307868152005 L20.0,-61.3303760270449 L20.0,-61.42289301680633 L20.0,-61.508267946610076 L20.0,-61.586436369875436 L20.0,-61.65733927996411 L20.0,-61.72092315472237 L20.0,-61.77713999688301 L20.0,-61.825947370296845 L20.0,-61.86730843196633 L20.0,-61.90119195985699 L20.0,-61.927572376465925 L20.0,-61.946429768129335 L20.0,-61.95774990005467 L20.0,-61.961524227066 " />
			<path d="M20.0,-61.961524227066 L20.0,-61.898646325997994 L20.0,-61.710803348883445 L20.0,-61.4003575301486 L20.0,-60.97121290608891 L20.0,-60.42876621934742 L20.0,-59.779839051744815 L20.0,-59.032592038930005 L20.0,-58.19642224565194 L20.0,-57.2818449922181 L20.0,-56.300361618240494 L20.0,-55.26431484661681 L20.0,-54.18673356662854 L20.0,-53.08116898809875 L20.0,-51.961524227066086 " />
			<path d="M20.0,-61.2307868152005 L20.0,-180.4476588718132 " />
			<path d="M20.0,1.2246467991473533e-15 L20.0,-1.119644761033373 L20.0,-2.225209339563723 L20.0,-3.302790619552512 L20.0,-4.338837391176652 L20.0,-5.320320765154624 L20.0,-6.23489801858873 L20.0,-7.071067811866946 L20.0,-7.8183148246817815 L20.0,-8.467241992284263 L20.0,-9.009688679025478 L20.0,-9.43883330308475 L20.0,-9.749279121819027 L20.0,-9.937122098932855 L20.0,-9.999999999999995 " />
			<path d="M20.0,-10.0 L20.0,-9.937122098931995 L20.0,-9.749279121817446 L20.0,-9.4388333030826 L20.0,-9.009688679022904 L20.0,-8.46724199228142 L20.0,-7.818314824678815 L20.0,-7.071067811864001 L20.0,-6.234898018585935 L20.0,-5.320320765152097 L20.0,-4.338837391174495 L20.0,-3.3027906195508097 L20.0,-2.2252093395625403 L20.0,-1.1196447610327545 L20.0,-9.107234018216917e-14 " />
			<path d="M0.0,-61.2307868152005 L0.0,-180.4476588718132 " />
			<path d="M20.0,-61.2307868152005 L0.0,-61.2307868152005 " />
			<path d="M0.0,-2.4492935982950004e-15 L0.0,-1.119644761033081 L0.0,-2.2252093395631465 L0.0,-3.302790619551673 L0.0,-4.338837391175585 L0.0,-5.320320765153369 L0.0,-6.234898018587338 L0.0,-7.071067811865479 L0.0,-7.818314824680303 L0.0,-8.467241992282844 L0.0,-9.009688679024197 L0.0,-9.438833303083682 L0.0,-9.749279121818242 L0.0,-9.937122098932432 L0.0,-10.000000000000005 " />
			<path d="M0.0,-10.000000000000007 L0.0,-9.937122098932432 L0.0,-9.749279121818246 L0.0,-9.438833303083685 L0.0,-9.009688679024201 L0.0,-8.467241992282853 L0.0,-7.818314824680311 L0.0,-7.071067811865487 L0.0,-6.234898018587348 L0.0,-5.3203207651533795 L0.0,-4.338837391175595 L0.0,-3.3027906195516845 L0.0,-2.2252093395631576 L0.0,-1.1196447610330924 L0.0,-5.836588764394179e-14 " />
			<path d="M0.0,3.055333763768431e-13 L0.0,-42.6922616389315 " />
			<path d="M0.0,-42.6922616389315 L0.0,-42.5926724270872 L0.0,-42.500155437325866 L0.0,-42.41478050752218 L0.0,-42.336612084256885 L0.0,-42.26570917416825 L0.0,-42.202125299410014 L0.0,-42.14590845724939 L0.0,-42.09710108383554 L0.0,-42.055740022166034 L0.0,-42.02185649427533 L0.0,-41.99547607766634 L0.0,-41.976618686002865 L0.0,-41.965298554077435 L0.0,-41.961524227066 " />
			<path d="M0.0,-41.961524227066 L0.0,-42.02440212813357 L0.0,-42.21224510524776 L0.0,-42.522690923982324 L0.0,-42.95183554804181 L0.0,-43.49428223478316 L0.0,-44.1432094023857 L0.0,-44.890456415200525 L0.0,-45.72662620847866 L0.0,-46.64120346191263 L0.0,-47.62268683589042 L0.0,-48.65873360751433 L0.0,-49.73631488750286 L0.0,-50.84187946603292 L0.0,-51.961524227065915 " />
			<path d="M0.0,-51.961524227066 L0.0,-53.08116898809908 L0.0,-54.186733566629144 L0.0,-55.26431484661767 L0.0,-56.30036161824158 L0.0,-57.28184499221936 L0.0,-58.19642224565334 L0.0,-59.032592038931476 L0.0,-59.77983905174629 L0.0,-60.428766219348844 L0.0,-60.97121290609019 L0.0,-61.40035753014968 L0.0,-61.710803348884234 L0.0,-61.89864632599843 L0.0,-61.961524227066 " />
			<path d="M0.0,-61.961524227066 L0.0,-61.957749900054566 L0.0,-61.946429768129136 L0.0,-61.927572376465655 L0.0,-61.90119195985667 L0.0,-61.86730843196597 L0.0,-61.82594737029646 L0.0,-61.77713999688261 L0.0,-61.72092315472199 L0.0,-61.65733927996375 L0.0,-61.586436369875116 L0.0,-61.50826794660982 L0.0,-61.422893016806135 L0.0,-61.3303760270448 L0.0,-61.23078681520051 " />
			<path d="M20.0,-42.6922616389315 L0.0,-42.6922616389315 " />
			<path d="M-8.881784197001252e-15,3.0913953912397947e-13 L20.0,3.0913953912397947e-13 " />
			<path d="M20.0,3.056402745135148e-13 L0.0,3.056402745135148e-13 " />
			<path d="M20.0,1.2246467991473533e-15 L20.0,-1.119644761033373 L20.0,-2.225209339563723 L20.0,-3.302790619552512 L20.0,-4.338837391176652 L20.0,-5.320320765154624 L20.0,-6.23489801858873 L20.0,-7.071067811866946 L20.0,-7.8183148246817815 L20.0,-8.467241992284263 L20.0,-9.009688679025478 L20.0,-9.43883330308475 L20.0,-9.749279121819027 L20.0,-9.937122098932855 L20.0,-9.999999999999995 " />
			<path d="M20.0,-10.0 L20.0,-9.937122098931995 L20.0,-9.749279121817446 L20.0,-9.4388333030826 L20.0,-9.009688679022904 L20.0,-8.46724199228142 L20.0,-7.818314824678815 L20.0,-7.071067811864001 L20.0,-6.234898018585935 L20.0,-5.320320765152097 L20.0,-4.338837391174495 L20.0,-3.3027906195508097 L20.0,-2.2252093395625403 L20.0,-1.1196447610327545 L20.0,-9.107234018216917e-14 " />
			<path d="M20.0,3.055333763768431e-13 L20.0,-195.43684922269375 " />
			<path d="M20.0,-61.2307868152005 L20.0,-180.4476588718132 " />
			<path d="M20.0,-42.6922616389315 L20.0,-43.45782083866264 L20.0,-44.466960367241484 L20.0,-45.69077440246359 L20.0,-47.094207979270514 L20.0,-48.63706110519536 L20.0,-50.275140250124075 L20.0,-51.96152422706599 L20.0,-53.64790820400792 L20.0,-55.28598734893663 L20.0,-56.82884047486148 L20.0,-58.232274051668405 L20.0,-59.45608808689051 L20.0,-60.46522761546936 L20.0,-61.23078681520046 " />
			<path d="M20.0,3.055333763768431e-13 L20.0,-42.6922616389315 " />
			<path d="M20.0,-103.92304845413 L20.0,-102.80340369309663 L20.0,-101.69783911456628 L20.0,-100.62025783457749 L20.0,-99.58421106295336 L20.0,-98.60272768897538 L20.0,-97.68815043554127 L20.0,-96.85198064226306 L20.0,-96.10473362944822 L20.0,-95.45580646184574 L20.0,-94.91335977510452 L20.0,-94.48421515104525 L20.0,-94.17376933231097 L20.0,-93.98592635519714 L20.0,-93.92304845413 " />
			<path d="M20.0,-93.92304845413 L20.0,-94.17376933231269 L20.0,-94.91335977510761 L20.0,-96.10473362945228 L20.0,-97.6881504355459 L20.0,-99.58421106295815 L20.0,-101.69783911457088 L20.0,-103.92304845413413 L20.0,-106.14825779369717 L20.0,-108.26188584530931 L20.0,-110.15794647272057 L20.0,-111.74136327881287 L20.0,-112.93273713315598 L20.0,-113.67232757594915 L20.0,-113.92304845412998 " />
			<path d="M20.0,-113.92304845413 L20.0,-113.86017055306199 L20.0,-113.67232757594745 L20.0,-113.3618817572126 L20.0,-112.9327371331529 L20.0,-112.39029044641141 L20.0,-111.74136327880882 L20.0,-110.994116265994 L20.0,-110.15794647271593 L20.0,-109.2433692192821 L20.0,-108.26188584530449 L20.0,-107.2258390736808 L20.0,-106.14825779369254 L20.0,-105.04269321516276 L20.0,-103.92304845413008 " />
			<path d="M0.0,3.055333763768431e-13 L0.0,-195.43684922269375 " />
			<path d="M-8.881784197001252e-15,3.0913953912397947e-13 L20.0,3.0913953912397947e-13 " />
			<path d="M0.0,-2.4492935982949996e-15 L0.0,-1.119644761033081 L0.0,-2.225209339563146 L0.0,-3.302790619551672 L0.0,-4.338837391175583 L0.0,-5.320320765153366 L0.0,-6.2348980185873355 L0.0,-7.071067811865475 L0.0,-7.818314824680298 L0.0,-8.46724199228284 L0.0,-9.009688679024192 L0.0,-9.438833303083674 L0.0,-9.749279121818235 L0.0,-9.937122098932422 L0.0,-9.999999999999995 " />
			<path d="M0.0,-9.999999999999996 L0.0,-9.937122098932422 L0.0,-9.749279121818232 L0.0,-9.43883330308367 L0.0,-9.009688679024185 L0.0,-8.467241992282835 L0.0,-7.81831482468029 L0.0,-7.071067811865467 L0.0,-6.234898018587326 L0.0,-5.320320765153357 L0.0,-4.338837391175572 L0.0,-3.3027906195516614 L0.0,-2.225209339563134 L0.0,-1.1196447610330689 L0.0,-3.460711491696345e-14 " />
			<path d="M0.0,-61.2307868152005 L0.0,-180.4476588718132 " />
			<path d="M0.0,-61.2307868152005 L0.0,-60.46522761546936 L0.0,-59.45608808689052 L0.0,-58.23227405166841 L0.0,-56.82884047486149 L0.0,-55.285987348936644 L0.0,-53.647908204007926 L0.0,-51.96152422706601 L0.0,-50.27514025012408 L0.0,-48.63706110519537 L0.0,-47.09420797927052 L0.0,-45.690774402463596 L0.0,-44.46696036724149 L0.0,-43.45782083866264 L0.0,-42.69226163893154 " />
			<path d="M0.0,3.055333763768431e-13 L0.0,-42.6922616389315 " />
			<path d="M0.0,-103.92304845413 L0.0,-105.04269321516307 L0.0,-106.14825779369315 L0.0,-107.22583907368167 L0.0,-108.26188584530559 L0.0,-109.24336921928337 L0.0,-110.15794647271733 L0.0,-110.99411626599547 L0.0,-111.7413632788103 L0.0,-112.39029044641283 L0.0,-112.93273713315419 L0.0,-113.36188175721367 L0.0,-113.67232757594823 L0.0,-113.86017055306242 L0.0,-113.92304845413 " />
			<path d="M0.0,-113.92304845413 L0.0,-113.67232757594823 L0.0,-112.93273713315419 L0.0,-111.7413632788103 L0.0,-110.15794647271733 L0.0,-108.26188584530559 L0.0,-106.14825779369315 L0.0,-103.92304845413 L0.0,-101.69783911456686 L0.0,-99.58421106295442 L0.0,-97.68815043554267 L0.0,-96.1047336294497 L0.0,-94.9133597751058 L0.0,-94.17376933231176 L0.0,-93.92304845413001 " />
			<path d="M0.0,-93.92304845413 L0.0,-93.98592635519758 L0.0,-94.17376933231176 L0.0,-94.48421515104633 L0.0,-94.9133597751058 L0.0,-95.45580646184716 L0.0,-96.1047336294497 L0.0,-96.85198064226452 L0.0,-97.68815043554267 L0.0,-98.60272768897663 L0.0,-99.58421106295441 L0.0,-100.62025783457833 L0.0,-101.69783911456685 L0.0,-102.80340369309691 L0.0,-103.92304845412991 " />
			<path d="M20.0,-61.2307868152005 L0.0,-61.2307868152005 " />
			<path d="M20.0,3.056402745135148e-13 L0.0,3.056402745135148e-13 " />
			<path d="M20.0,-42.6922616389315 L0.0,-42.6922616389315 " />
			<path d="M-8.881784197001252e-15,3.0913953912397947e-13 L20.0,3.0913953912397947e-13 " />
			<path d="M20.0,-10.0 L20.0,-9.937122098932473 L20.0,-9.749279121818324 L20.0,-9.438833303083793 L20.0,-9.00968867902433 L20.0,-8.467241992282995 L20.0,-7.818314824680455 L20.0,-7.0710678118656265 L20.0,-6.234898018587476 L20.0,-5.320320765153488 L20.0,-4.338837391175679 L20.0,-3.3027906195517396 L20.0,-2.225209339563181 L20.0,-1.1196447610330809 L20.0,-9.1072340182195e-14 " />
			<path d="M20.0,-10.0 L20.0,-93.92304845413 " />
			<path d="M20.0,-103.92304845413 L20.0,-102.80340369309688 L20.0,-101.69783911456679 L20.0,-100.62025783457823 L20.0,-99.5842110629543 L20.0,-98.60272768897649 L20.0,-97.6881504355425 L20.0,-96.85198064226435 L20.0,-96.10473362944953 L20.0,-95.45580646184699 L20.0,-94.91335977510566 L20.0,-94.4842151510462 L20.0,-94.17376933231166 L20.0,-93.98592635519752 L20.0,-93.92304845413 " />
			<path d="M20.0,-113.92304845413 L20.0,-113.86017055306247 L20.0,-113.67232757594833 L20.0,-113.3618817572138 L20.0,-112.93273713315433 L20.0,-112.390290446413 L20.0,-111.74136327881047 L20.0,-110.99411626599564 L20.0,-110.15794647271748 L20.0,-109.2433692192835 L20.0,-108.2618858453057 L20.0,-107.22583907368175 L20.0,-106.14825779369319 L20.0,-105.0426932151631 L20.0,-103.92304845413008 " />
			<path d="M20.0,-113.92304845413 L20.0,-200.0 " />
			<path d="M20.0,3.055333763768431e-13 L20.0,-195.43684922269375 " />
			<path d="M20.0,-51.961524227066 L20.0,-50.84187946603263 L20.0,-49.73631488750228 L20.0,-48.65873360751349 L20.0,-47.622686835889354 L20.0,-46.64120346191138 L20.0,-45.72662620847728 L20.0,-44.89045641519906 L20.0,-44.14320940238423 L20.0,-43.49428223478174 L20.0,-42.95183554804053 L20.0,-42.52269092398125 L20.0,-42.21224510524698 L20.0,-42.02440212813315 L20.0,-41.961524227066 " />
			<path d="M20.0,-41.961524227066 L20.0,-42.212245105248684 L20.0,-42.951835548043604 L20.0,-44.14320940238828 L20.0,-45.7266262084819 L20.0,-47.62268683589415 L20.0,-49.73631488750689 L20.0,-51.961524227070136 L20.0,-54.18673356663318 L20.0,-56.30036161824531 L20.0,-58.19642224565657 L20.0,-59.77983905174888 L20.0,-60.971212906091985 L20.0,-61.71080334888516 L20.0,-61.96152422706599 " />
			<path d="M20.0,-61.961524227066 L20.0,-61.898646325997994 L20.0,-61.710803348883445 L20.0,-61.4003575301486 L20.0,-60.97121290608891 L20.0,-60.42876621934742 L20.0,-59.779839051744815 L20.0,-59.032592038930005 L20.0,-58.19642224565194 L20.0,-57.2818449922181 L20.0,-56.300361618240494 L20.0,-55.26431484661681 L20.0,-54.18673356662854 L20.0,-53.08116898809875 L20.0,-51.961524227066086 " />
			<path d="M0.0,-113.92304845413 L0.0,-200.0 " />
			<path d="M20.0,-113.92304845413 L0.0,-113.92304845413 " />
			<path d="M0.0,-2.449293598295e-15 L0.0,-1.1196447610331133 L0.0,-2.2252093395632095 L0.0,-3.3027906195517653 L0.0,-4.3388373911757006 L0.0,-5.320320765153505 L0.0,-6.234898018587489 L0.0,-7.071067811865635 L0.0,-7.81831482468046 L0.0,-8.467241992282998 L0.0,-9.00968867902433 L0.0,-9.438833303083793 L0.0,-9.749279121818322 L0.0,-9.93712209893247 L0.0,-9.999999999999995 " />
			<path d="M0.0,-10.0 L0.0,-93.92304845413 " />
			<path d="M0.0,-93.92304845413 L0.0,-93.98592635519752 L0.0,-94.17376933231166 L0.0,-94.4842151510462 L0.0,-94.91335977510566 L0.0,-95.45580646184699 L0.0,-96.10473362944953 L0.0,-96.85198064226435 L0.0,-97.6881504355425 L0.0,-98.60272768897649 L0.0,-99.5842110629543 L0.0,-100.62025783457824 L0.0,-101.69783911456679 L0.0,-102.8034036930969 L0.0,-103.9230484541299 " />
			<path d="M0.0,-103.92304845412998 L0.0,-105.0426932151631 L0.0,-106.1482577936932 L0.0,-107.22583907368175 L0.0,-108.2618858453057 L0.0,-109.2433692192835 L0.0,-110.15794647271748 L0.0,-110.99411626599564 L0.0,-111.74136327881047 L0.0,-112.390290446413 L0.0,-112.93273713315433 L0.0,-113.3618817572138 L0.0,-113.67232757594833 L0.0,-113.86017055306247 L0.0,-113.92304845413 " />
			<path d="M0.0,3.055333763768431e-13 L0.0,-195.43684922269375 " />
			<path d="M0.0,-51.961524227066 L0.0,-53.08116898809908 L0.0,-54.186733566629144 L0.0,-55.26431484661767 L0.0,-56.30036161824158 L0.0,-57.28184499221936 L0.0,-58.19642224565334 L0.0,-59.032592038931476 L0.0,-59.7798390517463 L0.0,-60.428766219348844 L0.0,-60.971212906090194 L0.0,-61.40035753014968 L0.0,-61.71080334888424 L0.0,-61.89864632599843 L0.0,-61.961524227066 " />
			<path d="M0.0,-61.961524227066 L0.0,-61.71080334888424 L0.0,-60.971212906090194 L0.0,-59.7798390517463 L0.0,-58.19642224565334 L0.0,-56.30036161824158 L0.0,-54.186733566629144 L0.0,-51.961524227066 L0.0,-49.73631488750286 L0.0,-47.62268683589042 L0.0,-45.72662620847866 L0.0,-44.14320940238571 L0.0,-42.951835548041814 L0.0,-42.21224510524776 L0.0,-41.96152422706601 " />
			<path d="M0.0,-41.961524227066 L0.0,-42.02440212813357 L0.0,-42.21224510524776 L0.0,-42.522690923982324 L0.0,-42.95183554804181 L0.0,-43.49428223478316 L0.0,-44.1432094023857 L0.0,-44.890456415200525 L0.0,-45.72662620847866 L0.0,-46.64120346191263 L0.0,-47.62268683589042 L0.0,-48.65873360751433 L0.0,-49.73631488750286 L0.0,-50.84187946603292 L0.0,-51.961524227065915 " />
			<path d="M-8.881784197001252e-15,3.0913953912397947e-13 L20.0,3.0913953912397947e-13 " />
			<path d="M20.0,-10.0 L0.0,-10.0 " />
			<path d="M20.0,-93.92304845413 L0.0,-93.92304845413 " />
			<path d="M20.0,-200.0 L20.0,-199.97663000063045 L20.0,-199.90652546409052 L20.0,-199.78970277380995 L20.0,-199.62618923125075 L20.0,-199.41602304952676 L20.0,-199.15925334447334 L20.0,-198.85594012316892 L20.0,-198.5061542699114 L20.0,-198.10997752965253 L20.0,-197.66750248889394 L20.0,-197.17883255404996 L20.0,-196.6440819272812 L20.0,-196.0633755798058 L20.0,-195.4368492226936 " />
			<path d="M20.0,-195.43684922269352 L0.0,-195.43684922269352 " />
			<path d="M0.0,-200.0 L0.0,-199.97663000063045 L0.0,-199.90652546409052 L0.0,-199.78970277380995 L0.0,-199.62618923125075 L0.0,-199.41602304952676 L0.0,-199.15925334447334 L0.0,-198.85594012316892 L0.0,-198.5061542699114 L0.0,-198.10997752965253 L0.0,-197.66750248889394 L0.0,-197.17883255404996 L0.0,-196.6440819272812 L0.0,-196.0633755798058 L0.0,-195.4368492226936 " />
			<path d="M20.0,-10.0 L20.0,-93.92304845413 " />
			<path d="M20.0,1.2246467991473533e-15 L20.0,-1.1196447610330464 L20.0,-2.225209339563082 L20.0,-3.3027906195515815 L20.0,-4.338837391175468 L20.0,-5.320320765153232 L20.0,-6.234898018587188 L20.0,-7.07106781186532 L20.0,-7.818314824680142 L20.0,-8.46724199228269 L20.0,-9.009688679024052 L20.0,-9.438833303083559 L20.0,-9.749279121818148 L20.0,-9.937122098932377 L20.0,-9.999999999999995 " />
			<path d="M20.0,3.055333763768431e-13 L20.0,-195.43684922269352 " />
			<path d="M20.0,-113.92304845413 L20.0,-200.0 " />
			<path d="M20.0,-93.92304845413 L20.0,-94.17376933231185 L20.0,-94.91335977510596 L20.0,-96.10473362944987 L20.0,-97.68815043554282 L20.0,-99.58421106295454 L20.0,-101.69783911456693 L20.0,-103.92304845413001 L20.0,-106.14825779369309 L20.0,-108.26188584530547 L20.0,-110.15794647271719 L20.0,-111.74136327881013 L20.0,-112.93273713315405 L20.0,-113.67232757594815 L20.0,-113.92304845412998 " />
			<path d="M20.0,-51.961524227066 L20.0,-50.84187946603263 L20.0,-49.73631488750228 L20.0,-48.65873360751349 L20.0,-47.622686835889354 L20.0,-46.64120346191138 L20.0,-45.72662620847728 L20.0,-44.89045641519906 L20.0,-44.14320940238423 L20.0,-43.49428223478174 L20.0,-42.95183554804053 L20.0,-42.52269092398125 L20.0,-42.21224510524698 L20.0,-42.02440212813315 L20.0,-41.961524227066 " />
			<path d="M20.0,-41.961524227066 L20.0,-42.212245105248684 L20.0,-42.951835548043604 L20.0,-44.14320940238828 L20.0,-45.7266262084819 L20.0,-47.62268683589415 L20.0,-49.73631488750689 L20.0,-51.961524227070136 L20.0,-54.18673356663318 L20.0,-56.30036161824531 L20.0,-58.19642224565657 L20.0,-59.77983905174888 L20.0,-60.971212906091985 L20.0,-61.71080334888516 L20.0,-61.96152422706599 " />
			<path d="M20.0,-61.961524227066 L20.0,-61.898646325997994 L20.0,-61.710803348883445 L20.0,-61.4003575301486 L20.0,-60.97121290608891 L20.0,-60.42876621934742 L20.0,-59.779839051744815 L20.0,-59.032592038930005 L20.0,-58.19642224565194 L20.0,-57.2818449922181 L20.0,-56.300361618240494 L20.0,-55.26431484661681 L20.0,-54.18673356662854 L20.0,-53.08116898809875 L20.0,-51.961524227066086 " />
			<path d="M0.0,3.055333763768431e-13 L0.0,-195.43684922269352 " />
			<path d="M-8.881784197001252e-15,3.0913953912397947e-13 L20.0,3.0913953912397947e-13 " />
			<path d="M0.0,-113.92304845413 L0.0,-113.67232757594815 L0.0,-112.93273713315403 L0.0,-111.74136327881013 L0.0,-110.15794647271717 L0.0,-108.26188584530546 L0.0,-106.14825779369308 L0.0,-103.92304845413 L0.0,-101.69783911456693 L0.0,-99.58421106295455 L0.0,-97.68815043554284 L0.0,-96.10473362944988 L0.0,-94.91335977510596 L0.0,-94.17376933231186 L0.0,-93.92304845413001 " />
			<path d="M0.0,-10.0 L0.0,-93.92304845413 " />
			<path d="M0.0,-9.999999999999996 L0.0,-9.937122098932374 L0.0,-9.749279121818144 L0.0,-9.438833303083554 L0.0,-9.009688679024045 L0.0,-8.467241992282679 L0.0,-7.818314824680128 L0.0,-7.071067811865305 L0.0,-6.234898018587171 L0.0,-5.320320765153215 L0.0,-4.338837391175449 L0.0,-3.3027906195515624 L0.0,-2.225209339563063 L0.0,-1.1196447610330271 L0.0,-3.6827560966212024e-14 " />
			<path d="M0.0,-113.92304845413 L0.0,-200.0 " />
			<path d="M0.0,-51.961524227066 L0.0,-53.08116898809908 L0.0,-54.186733566629144 L0.0,-55.26431484661767 L0.0,-56.30036161824158 L0.0,-57.28184499221936 L0.0,-58.19642224565334 L0.0,-59.032592038931476 L0.0,-59.7798390517463 L0.0,-60.428766219348844 L0.0,-60.971212906090194 L0.0,-61.40035753014968 L0.0,-61.71080334888424 L0.0,-61.89864632599843 L0.0,-61.961524227066 " />
			<path d="M0.0,-61.961524227066 L0.0,-61.71080334888424 L0.0,-60.971212906090194 L0.0,-59.7798390517463 L0.0,-58.19642224565334 L0.0,-56.30036161824158 L0.0,-54.186733566629144 L0.0,-51.961524227066 L0.0,-49.73631488750286 L0.0,-47.62268683589042 L0.0,-45.72662620847866 L0.0,-44.14320940238571 L0.0,-42.951835548041814 L0.0,-42.21224510524776 L0.0,-41.96152422706601 " />
			<path d="M0.0,-41.961524227066 L0.0,-42.02440212813357 L0.0,-42.21224510524776 L0.0,-42.522690923982324 L0.0,-42.95183554804181 L0.0,-43.49428223478316 L0.0,-44.1432094023857 L0.0,-44.890456415200525 L0.0,-45.72662620847866 L0.0,-46.64120346191263 L0.0,-47.62268683589042 L0.0,-48.65873360751433 L0.0,-49.73631488750286 L0.0,-50.84187946603292 L0.0,-51.961524227065915 " />
			<path d="M20.0,-113.92304845413 L0.0,-113.92304845413 " />
			<path d="M20.0,-93.92304845413 L0.0,-93.92304845413 " />
			<path d="M20.0,-10.0 L0.0,-10.0 " />
			<path d="M20.0,3.056402745135148e-13 L0.0,3.056402745135148e-13 " />
			<path d="M20.0,-195.43684922269352 L20.0,-194.70663514231626 L20.0,-193.9230268584578 L20.0,-193.0862392592247 L20.0,-192.19650181603333 L20.0,-191.2540585206822 L20.0,-190.2591678184423 L20.0,-189.21210253718388 L20.0,-188.11314981255924 L20.0,-186.96261100926176 L20.0,-185.76080163838293 L20.0,-184.5080512708901 L20.0,-183.20470344724856 L20.0,-181.8511155832128 L20.0,-180.4476588718132 " />
			<path d="M20.0,-180.44765887181282 L0.0,-180.44765887181282 " />
			<path d="M0.0,-195.43684922269352 L0.0,-194.70663514231626 L0.0,-193.9230268584578 L0.0,-193.0862392592247 L0.0,-192.19650181603333 L0.0,-191.2540585206822 L0.0,-190.2591678184423 L0.0,-189.21210253718388 L0.0,-188.11314981255924 L0.0,-186.96261100926176 L0.0,-185.76080163838293 L0.0,-184.5080512708901 L0.0,-183.20470344724856 L0.0,-181.8511155832128 L0.0,-180.4476588718132 " />
			<path d="M20.0,-195.43684922269352 L0.0,-195.43684922269352 " />
			<path d="M20.0,3.055333763768431e-13 L20.0,-195.43684922269352 " />
			<path d="M20.0,1.2246467991473533e-15 L20.0,-1.119644761033373 L20.0,-2.225209339563723 L20.0,-3.302790619552512 L20.0,-4.338837391176652 L20.0,-5.320320765154624 L20.0,-6.23489801858873 L20.0,-7.071067811866946 L20.0,-7.8183148246817815 L20.0,-8.467241992284263 L20.0,-9.009688679025478 L20.0,-9.43883330308475 L20.0,-9.749279121819027 L20.0,-9.937122098932855 L20.0,-9.999999999999995 " />
			<path d="M20.0,-10.0 L20.0,-9.937122098931995 L20.0,-9.749279121817446 L20.0,-9.4388333030826 L20.0,-9.009688679022904 L20.0,-8.46724199228142 L20.0,-7.818314824678815 L20.0,-7.071067811864001 L20.0,-6.234898018585935 L20.0,-5.320320765152097 L20.0,-4.338837391174495 L20.0,-3.3027906195508097 L20.0,-2.2252093395625403 L20.0,-1.1196447610327545 L20.0,-9.107234018216917e-14 " />
			<path d="M20.0,3.055333763768431e-13 L20.0,-42.69226163893117 " />
			<path d="M20.0,-51.961524227066 L20.0,-51.11529687463315 L20.0,-50.275140250123954 L20.0,-49.44708153082827 L20.0,-48.63706110519513 L20.0,-47.850889957237854 L20.0,-47.094207979270195 L20.0,-46.372443512032675 L20.0,-45.690774402463205 L20.0,-45.054090858478425 L20.0,-44.46696036724108 L20.0,-43.933594928585165 L20.0,-43.45782083866226 L20.0,-43.04305124057713 L20.0,-42.69226163893118 " />
			<path d="M20.0,-61.23078681520083 L20.0,-60.87999721355487 L20.0,-60.46522761546975 L20.0,-59.989453525546836 L20.0,-59.45608808689093 L20.0,-58.86895759565358 L20.0,-58.23227405166881 L20.0,-57.55060494209934 L20.0,-56.82884047486182 L20.0,-56.07215849689416 L20.0,-55.285987348936885 L20.0,-54.47596692330375 L20.0,-53.64790820400807 L20.0,-52.80775157949888 L20.0,-51.961524227066086 " />
			<path d="M20.0,-61.23078681520083 L20.0,-180.44765887181282 " />
			<path d="M20.0,-103.92304845413 L20.0,-102.80340369309663 L20.0,-101.69783911456628 L20.0,-100.62025783457749 L20.0,-99.58421106295336 L20.0,-98.60272768897538 L20.0,-97.68815043554127 L20.0,-96.85198064226306 L20.0,-96.10473362944822 L20.0,-95.45580646184574 L20.0,-94.91335977510452 L20.0,-94.48421515104525 L20.0,-94.17376933231097 L20.0,-93.98592635519714 L20.0,-93.92304845413 " />
			<path d="M20.0,-93.92304845413 L20.0,-94.17376933231269 L20.0,-94.91335977510761 L20.0,-96.10473362945228 L20.0,-97.6881504355459 L20.0,-99.58421106295815 L20.0,-101.69783911457088 L20.0,-103.92304845413413 L20.0,-106.14825779369717 L20.0,-108.26188584530931 L20.0,-110.15794647272057 L20.0,-111.74136327881287 L20.0,-112.93273713315598 L20.0,-113.67232757594915 L20.0,-113.92304845412998 " />
			<path d="M20.0,-113.92304845413 L20.0,-113.86017055306199 L20.0,-113.67232757594745 L20.0,-113.3618817572126 L20.0,-112.9327371331529 L20.0,-112.39029044641141 L20.0,-111.74136327880882 L20.0,-110.994116265994 L20.0,-110.15794647271593 L20.0,-109.2433692192821 L20.0,-108.26188584530449 L20.0,-107.2258390736808 L20.0,-106.14825779369254 L20.0,-105.04269321516276 L20.0,-103.92304845413008 " />
			<path d="M0.0,-61.23078681520083 L0.0,-180.44765887181282 " />
			<path d="M20.0,-61.23078681520083 L0.0,-61.23078681520083 " />
			<path d="M0.0,3.055333763768431e-13 L0.0,-195.43684922269352 " />
			<path d="M0.0,-2.4492935982947002e-15 L0.0,-1.119644761033081 L0.0,-2.2252093395631465 L0.0,-3.302790619551673 L0.0,-4.338837391175583 L0.0,-5.320320765153367 L0.0,-6.234898018587336 L0.0,-7.071067811865476 L0.0,-7.8183148246803 L0.0,-8.467241992282842 L0.0,-9.009688679024194 L0.0,-9.438833303083676 L0.0,-9.749279121818237 L0.0,-9.937122098932425 L0.0,-9.999999999999998 " />
			<path d="M0.0,-10.0 L0.0,-9.937122098932425 L0.0,-9.749279121818237 L0.0,-9.438833303083676 L0.0,-9.00968867902419 L0.0,-8.46724199228284 L0.0,-7.818314824680297 L0.0,-7.071067811865474 L0.0,-6.234898018587334 L0.0,-5.320320765153365 L0.0,-4.338837391175581 L0.0,-3.3027906195516703 L0.0,-2.2252093395631434 L0.0,-1.1196447610330778 L0.0,-4.371094371888973e-14 " />
			<path d="M0.0,3.055333763768431e-13 L0.0,-42.69226163893117 " />
			<path d="M0.0,-42.69226163893117 L0.0,-43.04305124057713 L0.0,-43.45782083866225 L0.0,-43.933594928585165 L0.0,-44.46696036724107 L0.0,-45.05409085847842 L0.0,-45.69077440246319 L0.0,-46.37244351203266 L0.0,-47.09420797927018 L0.0,-47.85088995723784 L0.0,-48.637061105195116 L0.0,-49.44708153082825 L0.0,-50.27514025012393 L0.0,-51.115296874633124 L0.0,-51.961524227065915 " />
			<path d="M0.0,-51.961524227066 L0.0,-52.80775157949885 L0.0,-53.64790820400805 L0.0,-54.47596692330373 L0.0,-55.28598734893687 L0.0,-56.07215849689415 L0.0,-56.828840474861806 L0.0,-57.550604942099326 L0.0,-58.232274051668796 L0.0,-58.868957595653576 L0.0,-59.45608808689092 L0.0,-59.989453525546836 L0.0,-60.46522761546974 L0.0,-60.87999721355487 L0.0,-61.23078681520082 " />
			<path d="M0.0,-103.92304845412998 L0.0,-105.04269321516306 L0.0,-106.14825779369313 L0.0,-107.22583907368166 L0.0,-108.26188584530557 L0.0,-109.24336921928335 L0.0,-110.15794647271733 L0.0,-110.99411626599546 L0.0,-111.74136327881028 L0.0,-112.39029044641283 L0.0,-112.93273713315418 L0.0,-113.36188175721367 L0.0,-113.67232757594823 L0.0,-113.86017055306242 L0.0,-113.92304845413 " />
			<path d="M0.0,-113.92304845413 L0.0,-113.67232757594823 L0.0,-112.93273713315419 L0.0,-111.74136327881031 L0.0,-110.15794647271734 L0.0,-108.26188584530559 L0.0,-106.14825779369316 L0.0,-103.92304845413001 L0.0,-101.69783911456688 L0.0,-99.58421106295442 L0.0,-97.68815043554268 L0.0,-96.10473362944971 L0.0,-94.91335977510582 L0.0,-94.17376933231176 L0.0,-93.92304845413001 " />
			<path d="M0.0,-93.92304845413 L0.0,-93.98592635519756 L0.0,-94.17376933231176 L0.0,-94.48421515104631 L0.0,-94.9133597751058 L0.0,-95.45580646184715 L0.0,-96.10473362944968 L0.0,-96.85198064226451 L0.0,-97.68815043554265 L0.0,-98.60272768897661 L0.0,-99.5842110629544 L0.0,-100.62025783457831 L0.0,-101.69783911456683 L0.0,-102.8034036930969 L0.0,-103.9230484541299 " />
			<path d="M-8.881784197001252e-15,3.0913953912397947e-13 L20.0,3.0913953912397947e-13 " />
			<path d="M20.0,3.056402745135148e-13 L0.0,3.056402745135148e-13 " />
			<path d="M-8.881784197001252e-15,3.0913953912397947e-13 L20.0,3.0913953912397947e-13 " />
			<path d="M20.0,-42.69226163893117 L0.0,-42.69226163893117 " />
			<path d="M20.0,-180.44765887181282 L20.0,-178.6384150660208 L20.0,-176.75382580785214 L20.0,-174.79468597241905 L20.0,-172.76182187850128 L20.0,-170.6560909400248 L20.0,-168.47838130442457 L20.0,-166.22961147804529 L20.0,-163.91072993873706 L20.0,-161.52271473580979 L20.0,-159.06657307751533 L20.0,-156.54334090623075 L20.0,-153.95408246152246 L20.0,-151.29988983127524 L20.0,-148.581882491076 " />
			<path d="M20.0,-148.5818824910754 L0.0,-148.5818824910754 " />
			<path d="M0.0,-180.44765887181282 L0.0,-178.6384150660208 L0.0,-176.75382580785214 L0.0,-174.79468597241905 L0.0,-172.76182187850128 L0.0,-170.6560909400248 L0.0,-168.47838130442457 L0.0,-166.22961147804529 L0.0,-163.91072993873706 L0.0,-161.52271473580979 L0.0,-159.06657307751533 L0.0,-156.54334090623075 L0.0,-153.95408246152246 L0.0,-151.29988983127524 L0.0,-148.581882491076 " />
			<path d="M20.0,-180.44765887181282 L0.0,-180.44765887181282 " />
			<path d="M20.0,-42.69226163893117 L20.0,-42.592672427086825 L20.0,-42.50015543732544 L20.0,-42.41478050752172 L20.0,-42.3366120842564 L20.0,-42.26570917416775 L20.0,-42.20212529940952 L20.0,-42.145908457248915 L20.0,-42.09710108383509 L20.0,-42.05574002216564 L20.0,-42.021856494274985 L20.0,-41.99547607766606 L20.0,-41.976618686002666 L20.0,-41.96529855407733 L20.0,-41.961524227066 " />
			<path d="M20.0,-41.961524227066 L20.0,-42.212245105248684 L20.0,-42.951835548043604 L20.0,-44.14320940238828 L20.0,-45.7266262084819 L20.0,-47.62268683589415 L20.0,-49.73631488750689 L20.0,-51.961524227070136 L20.0,-54.18673356663318 L20.0,-56.30036161824531 L20.0,-58.19642224565657 L20.0,-59.77983905174888 L20.0,-60.971212906091985 L20.0,-61.71080334888516 L20.0,-61.96152422706599 " />
			<path d="M20.0,-61.961524227066 L20.0,-61.95774990005446 L20.0,-61.94642976812895 L20.0,-61.927572376465406 L20.0,-61.90119195985636 L20.0,-61.86730843196564 L20.0,-61.82594737029613 L20.0,-61.77713999688229 L20.0,-61.720923154721696 L20.0,-61.657339279963516 L20.0,-61.586436369874946 L20.0,-61.50826794660974 L20.0,-61.422893016806164 L20.0,-61.330376027044956 L20.0,-61.230786815200865 " />
			<path d="M20.0,3.055333763768431e-13 L20.0,-42.69226163893117 " />
			<path d="M20.0,1.2246467991473533e-15 L20.0,-1.119644761033373 L20.0,-2.225209339563723 L20.0,-3.302790619552512 L20.0,-4.338837391176652 L20.0,-5.320320765154624 L20.0,-6.23489801858873 L20.0,-7.071067811866946 L20.0,-7.8183148246817815 L20.0,-8.467241992284263 L20.0,-9.009688679025478 L20.0,-9.43883330308475 L20.0,-9.749279121819027 L20.0,-9.937122098932855 L20.0,-9.999999999999995 " />
			<path d="M20.0,-10.0 L20.0,-9.937122098931995 L20.0,-9.749279121817446 L20.0,-9.4388333030826 L20.0,-9.009688679022904 L20.0,-8.46724199228142 L20.0,-7.818314824678815 L20.0,-7.071067811864001 L20.0,-6.234898018585935 L20.0,-5.320320765152097 L20.0,-4.338837391174495 L20.0,-3.3027906195508097 L20.0,-2.2252093395625403 L20.0,-1.1196447610327545 L20.0,-9.107234018216917e-14 " />
			<path d="M20.0,3.055333763768431e-13 L20.0,-148.5818824910754 " />
			<path d="M20.0,-61.23078681520083 L20.0,-180.44765887181282 " />
			<path d="M0.0,3.055333763768431e-13 L0.0,-148.5818824910754 " />
			<path d="M-8.881784197001252e-15,3.0913953912397947e-13 L20.0,3.0913953912397947e-13 " />
			<path d="M0.0,-61.23078681520083 L0.0,-61.33037602704508 L0.0,-61.42289301680637 L0.0,-61.50826794661002 L0.0,-61.58643636987528 L0.0,-61.657339279963885 L0.0,-61.72092315472209 L0.0,-61.777139996882696 L0.0,-61.82594737029652 L0.0,-61.867308431966 L0.0,-61.90119195985669 L0.0,-61.92757237646567 L0.0,-61.94642976812914 L0.0,-61.957749900054566 L0.0,-61.961524227066 " />
			<path d="M0.0,-61.961524227066 L0.0,-61.71080334888424 L0.0,-60.971212906090194 L0.0,-59.7798390517463 L0.0,-58.19642224565334 L0.0,-56.30036161824159 L0.0,-54.18673356662915 L0.0,-51.96152422706601 L0.0,-49.736314887502864 L0.0,-47.62268683589043 L0.0,-45.72662620847867 L0.0,-44.14320940238571 L0.0,-42.951835548041814 L0.0,-42.21224510524776 L0.0,-41.96152422706601 " />
			<path d="M0.0,-41.961524227066 L0.0,-41.965298554077435 L0.0,-41.97661868600286 L0.0,-41.99547607766633 L0.0,-42.02185649427531 L0.0,-42.055740022166 L0.0,-42.09710108383548 L0.0,-42.14590845724931 L0.0,-42.202125299409914 L0.0,-42.265709174168116 L0.0,-42.33661208425673 L0.0,-42.41478050752199 L0.0,-42.50015543732563 L0.0,-42.59267242708693 L0.0,-42.692261638931136 " />
			<path d="M0.0,3.055333763768431e-13 L0.0,-42.69226163893117 " />
			<path d="M0.0,-2.4492935982950004e-15 L0.0,-1.119644761033081 L0.0,-2.2252093395631465 L0.0,-3.302790619551673 L0.0,-4.338837391175585 L0.0,-5.320320765153369 L0.0,-6.234898018587338 L0.0,-7.071067811865479 L0.0,-7.818314824680303 L0.0,-8.467241992282844 L0.0,-9.009688679024197 L0.0,-9.438833303083682 L0.0,-9.749279121818242 L0.0,-9.937122098932432 L0.0,-10.000000000000005 " />
			<path d="M0.0,-10.000000000000007 L0.0,-9.937122098932432 L0.0,-9.749279121818246 L0.0,-9.438833303083685 L0.0,-9.009688679024201 L0.0,-8.467241992282853 L0.0,-7.818314824680311 L0.0,-7.071067811865487 L0.0,-6.234898018587348 L0.0,-5.3203207651533795 L0.0,-4.338837391175595 L0.0,-3.3027906195516845 L0.0,-2.2252093395631576 L0.0,-1.1196447610330924 L0.0,-5.836588764394179e-14 " />
			<path d="M0.0,-61.23078681520083 L0.0,-180.44765887181282 " />
			<path d="M20.0,-61.23078681520083 L0.0,-61.23078681520083 " />
			<path d="M20.0,-42.69226163893117 L0.0,-42.69226163893117 " />
			<path d="M-8.881784197001252e-15,3.0913953912397947e-13 L20.0,3.0913953912397947e-13 " />
			<path d="M20.0,3.056402745135148e-13 L0.0,3.056402745135148e-13 " />
			<path d="M20.0,-148.5818824910754 L20.0,-140.31303705044112 L20.0,-131.54232892855734 L20.0,-122.30112863230661 L20.0,-112.62248949483696 L20.0,-102.54102945251755 L20.0,-92.09280722572183 L20.0,-81.31519334630669 L20.0,-70.24673649308838 L20.0,-58.927025613398 L20.0,-47.39654832387096 L20.0,-35.69654609693387 L20.0,-23.86886675094822 L20.0,-11.955814771614804 L20.0,-9.128742297870626e-13 " />
			<path d="M20.0,3.056402745135148e-13 L0.0,3.056402745135148e-13 " />
			<path d="M0.0,-148.5818824910754 L0.0,-140.31303705044112 L0.0,-131.54232892855734 L0.0,-122.30112863230661 L0.0,-112.62248949483696 L0.0,-102.54102945251755 L0.0,-92.09280722572183 L0.0,-81.31519334630669 L0.0,-70.24673649308838 L0.0,-58.927025613398 L0.0,-47.39654832387096 L0.0,-35.69654609693387 L0.0,-23.86886675094822 L0.0,-11.955814771614804 L0.0,-9.128742297870626e-13 " />
			<path d="M20.0,-148.5818824910754 L0.0,-148.5818824910754 " />
			<path d="M20.0,3.055333763768431e-13 L20.0,-148.5818824910754 " />
			<path d="M-8.881784197001252e-15,3.0913953912397947e-13 L20.0,3.0913953912397947e-13 " />
			<path d="M0.0,3.055333763768431e-13 L0.0,-148.5818824910754 " />
			<path d="M20.0,61.96152422706 L0.0,61.96152422706 " />
			<path d="M20.0,41.96152422706 L0.0,41.96152422706 " />
			<path d="M20.0,10.0 L0.0,10.0 " />
			<path d="M20.0,10.0 L0.0,10.0 " />
			<path d="M20.0,113.9230484541 L0.0,113.9230484541 " />
			<path d="M20.0,93.9230484541 L0.0,93.9230484541 " />
			<path d="M20.0,61.96152422706 L0.0,61.96152422706 " />
			<path d="M20.0,41.96152422706 L0.0,41.96152422706 " />
			<path d="M20.0,61.96152422706 L0.0,61.96152422706 " />
			<path d="M20.0,41.96152422706 L0.0,41.96152422706 " />
			<path d="M20.0,10.0 L0.0,10.0 " />
			<path d="M20.0,113.9230484541 L0.0,113.9230484541 " />
			<path d="M20.0,93.9230484541 L0.0,93.9230484541 " />
			<path d="M20.0,10.0 L0.0,10.0 " />
			<path d="M20.0,61.96152422706 L0.0,61.96152422706 " />
			<path d="M20.0,41.96152422706 L0.0,41.96152422706 " />
			<path d="M20.0,-41.961524227066 L0.0,-41.961524227066 " />
			<path d="M20.0,-61.961524227066 L0.0,-61.961524227066 " />
			<path d="M20.0,-10.0 L0.0,-10.0 " />
			<path d="M20.0,-10.0 L0.0,-10.0 " />
			<path d="M20.0,-93.92304845413 L0.0,-93.92304845413 " />
			<path d="M20.0,-113.92304845413 L0.0,-113.92304845413 " />
			<path d="M20.0,-41.961524227066 L0.0,-41.961524227066 " />
			<path d="M20.0,-61.961524227066 L0.0,-61.961524227066 " />
			<path d="M20.0,-41.961524227066 L0.0,-41.961524227066 " />
			<path d="M20.0,-61.961524227066 L0.0,-61.961524227066 " />
			<path d="M20.0,-10.0 L0.0,-10.0 " />
			<path d="M20.0,-93.92304845413 L0.0,-93.92304845413 " />
			<path d="M20.0,-113.92304845413 L0.0,-113.92304845413 " />
			<path d="M20.0,-41.961524227066 L0.0,-41.961524227066 " />
			<path d="M20.0,-61.961524227066 L0.0,-61.961524227066 " />
			<path d="M20.0,-10.0 L0.0,-10.0 " />

       </g>

       <!-- solid lines -->
       <g  stroke="rgb(56,189,248)" fill="none">
			<path d="M20.0,148.5818824910609 L20.0,140.31303705042686 L20.0,131.54232892854344 L20.0,122.30112863229327 L20.0,112.62248949482436 L20.0,102.54102945250582 L20.0,92.09280722571113 L20.0,81.31519334629712 L20.0,70.24673649308009 L20.0,58.92702561339106 L20.0,47.39654832386546 L20.0,35.69654609692988 L20.0,23.868866750945774 L20.0,11.955814771613941 L20.0,1.8244210974902333e-12 " />
			<path d="M0.0,0.0 L20.0,0.0 " />
			<path d="M0.0,148.5818824910609 L0.0,140.31303705042686 L0.0,131.54232892854344 L0.0,122.30112863229327 L0.0,112.62248949482436 L0.0,102.54102945250582 L0.0,92.09280722571113 L0.0,81.31519334629712 L0.0,70.24673649308009 L0.0,58.92702561339106 L0.0,47.39654832386546 L0.0,35.69654609692988 L0.0,23.868866750945774 L0.0,11.955814771613941 L0.0,1.8244210974902333e-12 " />
			<path d="M20.0,148.58188249106104 L0.0,148.58188249106104 " />
			<path d="M20.0,180.44765887180543 L20.0,178.63841506601295 L20.0,176.7538258078439 L20.0,174.79468597241035 L20.0,172.76182187849213 L20.0,170.65609094001516 L20.0,168.47838130441448 L20.0,166.22961147803474 L20.0,163.91072993872604 L20.0,161.5227147357983 L20.0,159.0665730775033 L20.0,156.54334090621828 L20.0,153.95408246150953 L20.0,151.2998898312618 L20.0,148.58188249106206 " />
			<path d="M20.0,148.58188249106104 L0.0,148.58188249106104 " />
			<path d="M0.0,180.44765887180543 L0.0,178.63841506601295 L0.0,176.7538258078439 L0.0,174.79468597241035 L0.0,172.76182187849213 L0.0,170.65609094001516 L0.0,168.47838130441448 L0.0,166.22961147803474 L0.0,163.91072993872604 L0.0,161.5227147357983 L0.0,159.0665730775033 L0.0,156.54334090621828 L0.0,153.95408246150953 L0.0,151.2998898312618 L0.0,148.58188249106206 " />
			<path d="M20.0,180.44765887180532 L0.0,180.44765887180532 " />
			<path d="M20.0,195.43684922269085 L20.0,194.70663514231333 L20.0,193.92302685845462 L20.0,193.08623925922126 L20.0,192.19650181602964 L20.0,191.2540585206782 L20.0,190.25916781843802 L20.0,189.2121025371793 L20.0,188.11314981255438 L20.0,186.9626110092566 L20.0,185.76080163837744 L20.0,184.5080512708843 L20.0,183.20470344724245 L20.0,181.85111558320637 L20.0,180.44765887180617 " />
			<path d="M20.0,180.44765887180532 L0.0,180.44765887180532 " />
			<path d="M0.0,195.43684922269085 L0.0,194.70663514231333 L0.0,193.92302685845462 L0.0,193.08623925922126 L0.0,192.19650181602964 L0.0,191.2540585206782 L0.0,190.25916781843802 L0.0,189.2121025371793 L0.0,188.11314981255438 L0.0,186.9626110092566 L0.0,185.76080163837744 L0.0,184.5080512708843 L0.0,183.20470344724245 L0.0,181.85111558320637 L0.0,180.44765887180617 " />
			<path d="M20.0,195.43684922269082 L0.0,195.43684922269082 " />
			<path d="M20.0,200.0 L20.0,199.97663000063025 L20.0,199.90652546409015 L20.0,199.7897027738094 L20.0,199.62618923125 L20.0,199.41602304952585 L20.0,199.15925334447223 L20.0,198.8559401231676 L20.0,198.50615426990993 L20.0,198.10997752965085 L20.0,197.6675024888921 L20.0,197.17883255404791 L20.0,196.644081927279 L20.0,196.0633755798034 L20.0,195.43684922269122 " />
			<path d="M20.0,195.43684922269082 L0.0,195.43684922269082 " />
			<path d="M0.0,200.0 L0.0,199.97663000063025 L0.0,199.90652546409015 L0.0,199.7897027738094 L0.0,199.62618923125 L0.0,199.41602304952585 L0.0,199.15925334447223 L0.0,198.8559401231676 L0.0,198.50615426990993 L0.0,198.10997752965085 L0.0,197.6675024888921 L0.0,197.17883255404791 L0.0,196.644081927279 L0.0,196.0633755798034 L0.0,195.43684922269122 " />
			<path d="M20.0,200.0 L0.0,200.0 " />
			<path d="M20.0,200.0 L0.0,200.0 " />
			<path d="M20.0,0.0 L20.0,-11.955814771615158 L20.0,-23.868866750948595 L20.0,-35.69654609693427 L20.0,-47.39654832387137 L20.0,-58.927025613398435 L20.0,-70.24673649308882 L20.0,-81.31519334630714 L20.0,-92.0928072257223 L20.0,-102.54102945251805 L20.0,-112.62248949483744 L20.0,-122.30112863230708 L20.0,-131.54232892855782 L20.0,-140.3130370504416 L20.0,-148.5818824910757 " />
			<path d="M20.0,-148.58188249107585 L0.0,-148.58188249107585 " />
			<path d="M0.0,0.0 L0.0,-11.955814771615158 L0.0,-23.868866750948595 L0.0,-35.69654609693427 L0.0,-47.39654832387137 L0.0,-58.927025613398435 L0.0,-70.24673649308882 L0.0,-81.31519334630714 L0.0,-92.0928072257223 L0.0,-102.54102945251805 L0.0,-112.62248949483744 L0.0,-122.30112863230708 L0.0,-131.54232892855782 L0.0,-140.3130370504416 L0.0,-148.5818824910757 " />
			<path d="M20.0,-148.58188249107585 L0.0,-148.58188249107585 " />
			<path d="M20.0,-148.58188249107585 L20.0,-151.29988983127583 L20.0,-153.95408246152306 L20.0,-156.54334090623132 L20.0,-159.06657307751587 L20.0,-161.52271473581035 L20.0,-163.91072993873757 L20.0,-166.22961147804583 L20.0,-168.47838130442506 L20.0,-170.65609094002525 L20.0,-172.76182187850176 L20.0,-174.7946859724195 L20.0,-176.75382580785256 L20.0,-178.6384150660212 L20.0,-180.447658871813 " />
			<path d="M20.0,-180.4476588718132 L0.0,-180.4476588718132 " />
			<path d="M0.0,-148.58188249107585 L0.0,-151.29988983127583 L0.0,-153.95408246152306 L0.0,-156.54334090623132 L0.0,-159.06657307751587 L0.0,-161.52271473581035 L0.0,-163.91072993873757 L0.0,-166.22961147804583 L0.0,-168.47838130442506 L0.0,-170.65609094002525 L0.0,-172.76182187850176 L0.0,-174.7946859724195 L0.0,-176.75382580785256 L0.0,-178.6384150660212 L0.0,-180.447658871813 " />
			<path d="M20.0,-180.4476588718132 L20.0,-181.85111558321324 L20.0,-183.204703447249 L20.0,-184.50805127089052 L20.0,-185.76080163838333 L20.0,-186.96261100926216 L20.0,-188.1131498125596 L20.0,-189.21210253718422 L20.0,-190.25916781844262 L20.0,-191.25405852068255 L20.0,-192.19650181603362 L20.0,-193.08623925922495 L20.0,-193.92302685845806 L20.0,-194.7066351423165 L20.0,-195.43684922269367 " />
			<path d="M20.0,-195.43684922269375 L0.0,-195.43684922269375 " />
			<path d="M0.0,-180.4476588718132 L0.0,-181.85111558321324 L0.0,-183.204703447249 L0.0,-184.50805127089052 L0.0,-185.76080163838333 L0.0,-186.96261100926216 L0.0,-188.1131498125596 L0.0,-189.21210253718422 L0.0,-190.25916781844262 L0.0,-191.25405852068255 L0.0,-192.19650181603362 L0.0,-193.08623925922495 L0.0,-193.92302685845806 L0.0,-194.7066351423165 L0.0,-195.43684922269367 " />
			<path d="M20.0,-180.4476588718132 L0.0,-180.4476588718132 " />
			<path d="M20.0,-195.43684922269375 L20.0,-196.06337557980603 L20.0,-196.64408192728143 L20.0,-197.17883255405016 L20.0,-197.66750248889414 L20.0,-198.10997752965267 L20.0,-198.50615426991155 L20.0,-198.855940123169 L20.0,-199.15925334447343 L20.0,-199.41602304952684 L20.0,-199.6261892312508 L20.0,-199.78970277381 L20.0,-199.90652546409055 L20.0,-199.97663000063045 L20.0,-200.0 " />
			<path d="M20.0,-200.0 L0.0,-200.0 " />
			<path d="M0.0,-195.43684922269375 L0.0,-196.06337557980603 L0.0,-196.64408192728143 L0.0,-197.17883255405016 L0.0,-197.66750248889414 L0.0,-198.10997752965267 L0.0,-198.50615426991155 L0.0,-198.855940123169 L0.0,-199.15925334447343 L0.0,-199.41602304952684 L0.0,-199.6261892312508 L0.0,-199.78970277381 L0.0,-199.90652546409055 L0.0,-199.97663000063045 L0.0,-200.0 " />
			<path d="M20.0,-195.43684922269375 L0.0,-195.43684922269375 " />
			<path d="M20.0,-200.0 L0.0,-200.0 " />

       </g>
    </g>
    
</svg>
