<?xml version="1.0" encoding="UTF-8" standalone="no"?>
<svg
   xmlns:svg="http://www.w3.org/2000/svg"
   xmlns="http://www.w3.org/2000/svg"
   width="400.0"
   height="300.0"

>
    <g transform="scale(3.75, -3.75)   translate(31.333333333333332,-31.333333333333332)" stroke-width="0.5"  fill="none">
       <!-- hidden lines -->
       <g  stroke="rgb(160,160,160)" fill="none" stroke-dasharray="0.5,0.5" >
			<path d="M-30.0,-30.0 L-30.0,30.0 " />
			<path d="M-30.0,-30.0 L30.0,-30.0 " />
			<path d="M0.0,10.0 L0.857864376269,10.0 " />
			<path d="M0.0,15.0 L0.0,10.0 " />
			<path d="M-30.0,30.0 L15.0,30.0 " />
			<path d="M30.0,-30.0 L30.0,15.0 " />
			<path d="M15.0,30.0 L14.655221416408644,29.996037067448746 L14.310625010720205,29.984150363772898 L13.966392864576438,29.964346169799786 L13.62270686714763,29.9366349498874 L13.279748619023994,29.901031346395126 L12.93769933625956,29.857554171946866 L12.596739754619234,29.806226399490598 L12.25705003407965,29.747075150159695 L11.918809663634253,29.680131678942338 L11.582197366452936,29.605431358166687 L11.247391005446321,29.52301365881045 L10.91456748928459,29.432922129644766 L10.583902678920552,29.335204374223444 L10.255571294666273,29.229912025729654 L9.92974682387246,29.117100719693426 L9.606601429259285,28.99683006459434 L9.28630585794716,28.869163610364943 L8.969029351235497,28.73416881481151 L8.65493955517712,28.591917007969997 L8.344202431995608,28.442483354415835 L8.036982172392337,28.285946813547685 L7.733441108789599,28.122390097865978 L7.433739629555606,27.95189962926839 L7.13803609425672,27.77456549338528 L6.846486749981684,27.590481391979253 L6.559245648782062,27.399744593433986 L6.276464566272516,27.202455881358517 L5.998292921433952,26.998719501334044 L5.7248776976618565,26.788643105831543 L5.456363365101604,26.572337697329147 L5.192891804311721,26.34991756965943 L4.934602231295489,26.121500247617597 L4.681631123940452,25.887206424862423 L4.434112149904717,25.647159900142803 L4.192176095988195,25.401487511883623 L3.9559507990259934,25.15031907116547 L3.7255610783406254,24.893787293133613 L3.5011286697885584,24.632027726872536 L3.2827721614361174,24.365178683783004 L3.0706069308986006,24.09338116449957 L2.8647450843757873,23.816778784387093 L2.665295397416026,23.535517697655703 L2.472363257440227,23.249746520134202 L2.2860506080560796,22.959616250742798 L2.1064558951919796,22.66528019170665 L1.9336740150790792,22.366893867552346 L1.7677962641089735,22.064614942930124 L1.6089102905935118,21.75860313930531 L1.4571000484522045,21.44902015056293 L1.312445752851751,21.1360295575701 L1.1750238378210422,20.81979674174138 L1.044906915864125,20.500488797652725 L0.9221637395923992,20.178274444750194 L0.8068591653963555,19.85332393820014 L0.6990541191760435,19.52580897892789 L0.5988055641483818,19.195902622892525 L0.5061664707482922,18.863779189645676 L0.42118578863961,18.52961417022262 L0.3439084208505143,18.193584134414426 L0.27437520004717975,17.85586663747004 L0.21262286695815114,17.516640126277697 L0.15868405096088622,17.17608384507519 L0.11258725284067594,16.83437774073883 L0.07435682973109259,16.491702367701127 L0.04401298224389549,16.148238792547456 L0.021571743795206544,15.804168498342104 L0.0070449721336043325,15.459673288734251 L0.00044034307459561717,15.11493519189455 L0.00176134644477699,14.77013636433308 L0.01100728423784858,14.425458994649496 L0.028173270983430143,14.081085207266197 L0.0532502363285019,13.737196966195425 L0.08622492983009877,13.393975978891119 L0.12707992795671785,13.051603600236325 L0.17579364329476732,12.710260736716915 L0.23234033595515236,12.370127750832218 L0.29669012717400456,12.031384365793105 L0.3688090151003518,11.694209570557852 L0.44865889276239557,11.358781525255996 L0.5361975682028746,11.025277467050111 L0.6313787867729417,10.6938736164853 L0.7341522555726829,10.364745084375826 L0.8444636700254442,10.038065779278154 L0.9622547425718775,9.714008315599212 L1.0874632334685632,9.39274392238851 L1.220022983674932,9.074442352862231 L1.3598639498111087,8.759271794707177 L1.506912241168198,8.447398781211895 L1.6610901587514757,8.13898810327199 L1.822316236335844,7.834202722316095 L1.9905052835118333,7.533203684198526 L2.165568430699471,7.236150034104086 L2.347413176106155,6.943198732510037 L2.5359434346037713,6.654504572249579 L2.7310595884992157,6.370220096720718 L2.932658540171479,6.090495519283708 L3.140633766547513,5.815478643889657 L3.3548753753880547,5.5453147869822494 L3.575270163353702,5.280146700713848 L3.801701675820544,5.020114497516536 L4.034050268413729,4.7653555760679716 L4.272193170226476,4.516004548691155 L4.516004548691129,4.272193170226503 L4.765355576067945,4.034050268413752 L5.020114497516509,3.801701675820567 L5.280146700713821,3.5752701633537267 L5.545314786982223,3.354875375388076 L5.815478643889628,3.140633766547534 L6.09049551928368,2.9326585401715004 L6.370220096720688,2.7310595884992352 L6.654504572249548,2.5359434346037926 L6.943198732510007,2.3474131761061745 L7.236150034104057,2.1655684306994907 L7.533203684198494,1.990505283511851 L7.834202722316064,1.82231623633586 L8.138988103271956,1.6610901587514935 L8.447398781211863,1.5069122411682123 L8.759271794707148,1.3598639498111211 L9.074442352862203,1.2200229836749443 L9.392743922388487,1.087463233468572 L9.714008315599193,0.9622547425718864 L10.038065779278137,0.8444636700254513 L10.364745084375812,0.7341522555726883 L10.693873616485288,0.631378786772947 L11.025277467050103,0.5361975682028763 L11.358781525255988,0.44865889276239557 L11.694209570557849,0.3688090151003536 L12.031384365793105,0.29669012717400456 L12.370127750832221,0.23234033595515058 L12.710260736716922,0.17579364329476554 L13.051603600236335,0.12707992795671608 L13.393975978891133,0.086224929830097 L13.737196966195443,0.05325023632850012 L14.081085207266216,0.028173270983430143 L14.425458994649519,0.01100728423784858 L14.770136364333107,0.00176134644477699 L15.11493519189458,0.00044034307459561717 L15.459673288734285,0.0070449721336043325 L15.804168498342142,0.021571743795206544 L16.148238792547495,0.044012982243899046 L16.49170236770117,0.07435682973109792 L16.834377740738876,0.11258725284068127 L17.17608384507524,0.15868405096089333 L17.51664012627775,0.21262286695816002 L17.855866637470097,0.2743752000471886 L18.193584134414486,0.34390842085052675 L18.529614170222683,0.4211857886396242 L18.86377918964574,0.5061664707483082 L19.195902622892596,0.5988055641484014 L19.525808978927962,0.6990541191760666 L19.853323938200216,0.8068591653963804 L20.178274444750272,0.9221637395924276 L20.500488797652803,1.044906915864157 L20.819796741741463,1.1750238378210778 L21.136029557570183,1.3124457528517866 L21.449020150563015,1.4571000484522454 L21.7586031393054,1.6089102905935544 L22.064614942930213,1.7677962641090215 L22.366893867552434,1.9336740150791307 L22.665280191706742,2.1064558951920347 L22.95961625074289,2.2860506080561365 L23.249746520134295,2.472363257440289 L23.5355176976558,2.6652953974160916 L23.81677878438719,2.864745084375853 L24.09338116449966,3.0706069308986716 L24.3651786837831,3.282772161436192 L24.63202772687263,3.501128669788635 L24.893787293133705,3.7255610783407036 L25.150319071165562,3.9559507990260787 L25.401487511883715,4.19217609598828 L25.647159900142892,4.434112149904809 L25.887206424862512,4.681631123940544 L26.121500247617686,4.934602231295589 L26.349917569659517,5.192891804311822 L26.572337697329232,5.456363365101707 L26.78864310583162,5.7248776976619595 L26.998719501334122,5.99829292143405 L27.202455881358585,6.276464566272612 L27.399744593434054,6.559245648782156 L27.59048139197931,6.846486749981777 L27.77456549338533,7.13803609425681 L27.95189962926844,7.43373962955569 L28.122390097866024,7.733441108789681 L28.285946813547724,8.036982172392417 L28.442483354415874,8.344202431995683 L28.591917007970032,8.654939555177194 L28.734168814811543,8.969029351235566 L28.869163610364968,9.286305857947227 L28.996830064594363,9.606601429259348 L29.117100719693447,9.92974682387252 L29.229912025729668,10.25557129466633 L29.33520437422346,10.583902678920605 L29.43292212964478,10.91456748928464 L29.52301365881046,11.247391005446365 L29.605431358166697,11.582197366452977 L29.680131678942345,11.91880966363429 L29.747075150159702,12.257050034079683 L29.806226399490605,12.596739754619263 L29.857554171946873,12.937699336259584 L29.90103134639513,13.279748619024014 L29.9366349498874,13.622706867147645 L29.964346169799786,13.966392864576449 L29.984150363772898,14.31062501072021 L29.996037067448746,14.655221416408645 L30.0,14.999999999999996 " />
			<path d="M0.8578643762690454,10.000000000000012 L0.7482244147341319,10.32165705968238 L0.6458993629380814,10.645715339909597 L0.5509417405485983,10.97200851354187 L0.46340028580412884,11.300369106351216 L0.3833199304983328,11.630628582979792 L0.31074177691825255,11.962617433442862 L0.24570307674801484,12.296165260132003 L0.18823721194894283,12.631100865273917 L0.13837367762580577,12.967252338799899 L0.09613806688808424,13.304447146580943 L0.0615520577139641,13.642512218983125 L0.03463340182384833,13.981274039697846 L0.015395915569030194,14.320558734801354 L0.003849472840295576,14.660192161997788 L0.0,14.999999999999998 " />
			<path d="M0.857864376269,10.0 L20.0,10.0 " />
			<path d="M0.0,15.0 L20.0,15.0 " />
			<path d="M15.0,30.0 L30.0,30.0 " />
			<path d="M14.999999999999998,30.0 L15.341447967841583,29.996113272620235 L15.68271898699445,29.984455104700913 L16.023636200470058,29.96503153785809 L16.364022934632697,29.93785263797297 L16.703702790757117,29.90293248997547 L17.04249973644369,29.86028919054496 L17.38023819684376,29.809944838732044 L17.716743145647825,29.751925524506134 L18.051840195789495,29.686261315234844 L18.385355689818148,29.612986240102188 L18.717116789893485,29.5321382724736 L19.04695156735535,29.443759310216993 L19.374689091822358,29.347895153990024 L19.700159519773216,29.244595483504796 L20.023194182564772,29.133913831782316 L20.34362567384123,29.015907557410074 L20.661287936289195,28.890637814817087 L20.9760163476936,28.758169522581802 L21.28764780624994,28.618571329789347 L21.596020815088565,28.471915580455452 L21.900975565967258,28.31827827603564 L22.20235402208871,28.157739036038926 L22.499999999999975,27.990381056766594 L22.793759250531476,27.816291068197344 L23.083479538733606,27.63555928904119 L23.369010722769474,27.448279379985394 L23.650204831722977,27.25454839515665 L23.92691614228182,27.054466731824697 L24.199001254255716,26.848138078373402 L24.466319164890763,26.63566936056632 L24.72873134194131,26.417170686134497 L24.98610179546158,26.19275528771531 L25.23829714827978,25.96253946417189 L25.485186705118203,25.726642520323523 L25.72664252032346,25.485186705118263 L25.962539464171833,25.238297148279845 L26.19275528771525,24.986101795461646 L26.41717068613444,24.728731341941376 L26.635669360566265,24.466319164890834 L26.848138078373346,24.199001254255784 L27.05446673182464,23.92691614228189 L27.2545483951566,23.65020483172305 L27.448279379985344,23.369010722769545 L27.635559289041144,23.083479538733677 L27.816291068197298,22.793759250531554 L27.99038105676655,22.50000000000005 L28.157739036038883,22.202354022088787 L28.3182782760356,21.900975565967336 L28.471915580455413,21.596020815088643 L28.618571329789308,21.28764780625002 L28.758169522581767,20.97601634769368 L28.890637814817055,20.661287936289277 L29.015907557410042,20.343625673841316 L29.133913831782284,20.023194182564858 L29.244595483504767,19.7001595197733 L29.34789515399,19.374689091822443 L29.44375931021697,19.046951567355435 L29.532138272473578,18.71711678989357 L29.612986240102167,18.385355689818233 L29.686261315234827,18.05184019578958 L29.751925524506117,17.716743145647914 L29.809944838732033,17.380238196843848 L29.86028919054495,17.04249973644378 L29.90293248997546,16.703702790757205 L29.93785263797296,16.364022934632786 L29.96503153785808,16.02363620047015 L29.98445510470091,15.68271898699454 L29.996113272620235,15.341447967841672 L30.0,15.000000000000089 " />
			<path d="M30.0,15.0 L30.0,30.0 " />

       </g>

       <!-- solid lines -->
       <g  stroke="rgb(148,163,184)" fill="none">
			<path d="M-30.0,-30.0 L-30.0,30.0 " />
			<path d="M-30.0,-30.0 L30.0,-30.0 " />
			<path d="M-30.0,30.0 L14.999999999998998,30.0 " />
			<path d="M30.0,-30.0 L30.0,15.0 " />
			<path d="M30.0,15.0 L29.996044666963684,14.65555211362233 L29.984180753809326,14.311285881391896 L29.964414517300614,13.967382861655585 L29.936756381710648,13.624024421210093 L29.901220933324417,13.28139163965313 L29.85782691274632,12.939665213886054 L29.80659720501677,12.599025362818363 L29.747558827543173,12.259651732324247 L29.68074291585149,11.92172330050135 L29.60618470716611,11.585418283281713 L29.523923521826497,11.250914040444654 L29.434002742550508,10.91838698208117 L29.33646979155533,10.588012475559186 L29.23137610554807,10.259964753038698 L29.118777108599136,9.934416819585625 L28.998732182912867,9.611540361932779 L28.87130463751065,9.291505657936103 L28.736561674843163,8.974481486773936 L28.594574355349287,8.660635039936606 L28.445417559980427,8.350131833053384 L28.28916995070996,8.043135618603209 L28.125913929048664,7.739808299555291 L27.95573559258798,7.440309843985072 L27.778724689594075,7.144798200710641 L27.59497457167661,6.85342921599403 L27.404582144557153,6.566356551351372 L27.207647816963288,6.2837316025152425 L27.00427544767527,6.005703419591908 L26.794572290753223,5.73241862845563 L26.578648938973735,5.46402135342143 L26.356619265505678,5.200653141237154 L26.128600363856066,4.94245288643485 L25.8947124861175,4.68955675808089 L25.655078979549934,4.442098127963439 L25.409826221530054,4.200207500255143 L25.159083552902665,3.964012442688123 L24.90298320976921,3.733637519277613 L24.641660253749397,3.5092042246296486 L24.375252500752705,3.2908309198675347 L24.103900448297345,3.0786327702108167 L23.827747201414986,2.8727216842397034 L23.54693839718036,2.6732062548769804 L23.261622127905504,2.4801917021185123 L22.971948863039174,2.293779817542573 L22.6780713698126,2.114068910627216 L22.380144632673467,1.9411537569040576 L22.07832577155055,1.7751255479757635 L21.772773958992158,1.616071843423633 L21.463650336222102,1.4640765246306184 L21.151117928157372,1.3192197505441605 L20.835341557432443,1.1815779154021389 L20.51648775747547,1.0512236084442428 L20.19472468468229,0.9282255756300408 L19.870222029734457,0.8126486833838786 L19.54315092810817,0.7045538843857724 L19.213683869821228,0.6039981854263292 L18.881994608465632,0.5110346173426237 L18.548258069573816,0.42571220705093005 L18.212650258366804,0.3480759516909959 L17.875348166932987,0.2781667948955793 L17.536529680886424,0.21602160519766578 L17.19637348555394,0.16167315658683812 L16.855058971740462,0.11515011122499708 L16.51276614112228,0.07647700433057913 L16.169675511318207,0.04567423123922687 L15.825968020688574,0.02275803664774223 L15.481824932912385,0.007740506046996387 L15.13742774139288,0.000629559348311659 L14.792958073541959,0.0014289467066710415 L14.448597594993918,0.010138246542982898 L14.104527913799055,0.026752865766393796 L13.760930484647613,0.05126404219659797 L13.417986513174618,0.08365884918481115 L13.075876860396068,0.12392020243099466 L12.734781947326855,0.17202686899373631 L12.394881659830734,0.22795347848803615 L12.05635525375253,0.2916705364650731 L11.719381260382596,0.36314443996692525 L11.384137392303375,0.44233749524803123 L11.050800449667754,0.5292079376540144 L10.719546226958593,0.6237099536474435 L10.390549420278623,0.7257937049688721 L10.063983535219617,0.8354053549204252 L9.740020795359403,0.9524870967580714 L9.418832051434983,1.0769771841776201 L9.100586691239654,1.2088099638783412 L8.78545255029166,1.3479159101870604 L8.47359582332148,1.4942216617244473 L8.165180976624416,1.6476500600941684 L7.8603706613247395,1.8081201905745274 L7.559325627597104,1.9755474247910598 L7.262204639890486,2.149843465347681 L6.969164393199346,2.330916392392748 L6.680359430426183,2.518670712095549 L6.395942060879031,2.7130074070076287 L6.116062279946943,2.9138239882823775 L5.840867689995749,3.121014549725377 L5.570503422525853,3.3344698236469608 L5.305112061633119,3.554077238487567 L5.044833568813187,3.7797209781854697 L4.789805209148893,4.011282043255594 L4.540161478919728,4.248638313547195 L4.296034034671491,4.491664612647305 L4.0575516237835565,4.740232773895983 L3.8248400165703718,4.994211707978572 L3.5980219399529965,5.253467472059269 L3.3772170127356542,5.517863340419604 L3.1625416825214394,5.787259876564539 L2.9541091643004442,6.061515006758167 L2.7520293807426857,6.340484094950249 L2.556408904227352,6.624020019054031 L2.3673509006388844,6.9119732485351655 L2.184955074959605,7.2041919232707885 L2.0093176186875077,7.5005219336371685 L1.840531159107023,7.800807001783682 L1.6786847104394393,8.104888764050283 L1.523863626898784,8.41260685448497 L1.376149557677918,8.723798989417208 L1.235620403888566,9.038301053042744 L1.1023502774779992,9.355947183974607 L0.9764094621440496,9.676569862714729 L0.8578643762690543,9.999999999999988 " />
			<path d="M0.0,14.999999999999998 L0.003886727379763144,15.34144796784157 L0.015544895299084871,15.682718986994423 L0.03496846214190974,16.02363620047002 L0.06214736202702653,16.364022934632644 L0.09706751002452307,16.70370279075705 L0.13971080945502656,17.04249973644361 L0.19005516126793864,17.380238196843667 L0.24807447549384598,17.71674314564772 L0.3137386847651289,18.051840195789374 L0.38701375989777986,18.385355689818017 L0.4678617275263637,18.717116789893343 L0.5562406897829639,19.046951567355194 L0.652104846009923,19.37468909182219 L0.7554045164951457,19.700159519773038 L0.8660861682176186,20.023194182564584 L0.9840924425898496,20.343625673841032 L1.1093621851828281,20.661287936288986 L1.2418304774181,20.97601634769338 L1.381428670210548,21.28764780624971 L1.5280844195444274,21.596020815088323 L1.6817217239642304,21.90097556596701 L1.842260963960932,22.20235402208845 L2.009618943233251,22.49999999999971 L2.1837089318024887,22.793759250531203 L2.364440710958627,23.08347953873332 L2.551720620014409,23.369010722769183 L2.745451604843142,23.650204831722682 L2.945533268175083,23.926916142281517 L3.1518619216263595,24.199001254255407 L3.3643306394334243,24.46631916489045 L3.5828293138652345,24.728731341940993 L3.8072447122844046,24.98610179546126 L4.037460535827808,25.238297148279457 L4.273357479676161,25.485186705117876 L4.514813294881401,25.726642520323132 L4.761702851719804,25.962539464171503 L5.013898204537986,26.192755287714924 L5.271268658058238,26.41717068613411 L5.53368083510877,26.63566936056594 L5.800998745743803,26.848138078373026 L6.073083857717689,27.054466731824327 L6.349795168276513,27.25454839515629 L6.630989277230006,27.448279379985046 L6.9165204612658595,27.63555928904085 L7.206240749467973,27.81629106819701 L7.4999999999994635,27.99038105676627 L7.797645977910716,28.157739036038613 L8.099024434032154,28.318278276035336 L8.403979184910835,28.47191558045516 L8.712352193749446,28.618571329789063 L9.023983652305773,28.758169522581532 L9.338712063710165,28.890637814816827 L9.656374326158117,29.015907557409825 L9.976805817434563,29.13391383178208 L10.29984048022611,29.244595483504575 L10.625310908176957,29.347895153989818 L10.953048432643955,29.443759310216798 L11.282883210105808,29.532138272473418 L11.614644310181136,29.612986240102025 L11.948159804209778,29.686261315234695 L12.283256854351437,29.751925524506 L12.619761803155493,29.809944838731926 L12.957500263555554,29.860289190544858 L13.29629720924212,29.90293248997538 L13.635977065366529,29.9378526379729 L13.976363799529159,29.965031537858035 L14.317281013004761,29.984455104700878 L14.65855203215762,29.99611327262022 L14.999999999999197,30.0 " />
			<path d="M5.169492188881e-16,15.0 L5.169492188881e-16,10.0 " />
			<path d="M20.0,10.0 L-3.552713678800501e-15,10.0 " />
			<path d="M20.0,15.0 L20.0,10.0 " />
			<path d="M20.0,15.0 L-3.552713678800501e-15,15.0 " />
			<path d="M14.999999999998998,30.0 L30.0,30.0 " />
			<path d="M30.0,15.0 L30.0,30.0 " />
			<path d="M30.0,15.0 L29.996113272620235,15.3414479678416 L29.984455104700913,15.682718986994482 L29.965031537858085,16.023636200470108 L29.937852637972966,16.36402293463276 L29.90293248997546,16.703702790757195 L29.86028919054495,17.042499736443784 L29.80994483873203,17.38023819684387 L29.75192552450611,17.71674314564795 L29.686261315234816,18.051840195789634 L29.612986240102153,18.3853556898183 L29.532138272473556,18.71711678989365 L29.44375931021694,19.04695156735553 L29.347895153989967,19.374689091822553 L29.244595483504725,19.700159519773425 L29.133913831782234,20.023194182564996 L29.01590755740998,20.34362567384147 L28.890637814816984,20.661287936289444 L28.75816952258169,20.97601634769386 L28.61857132978922,21.287647806250213 L28.471915580455313,21.59602081508885 L28.31827827603549,21.900975565967553 L28.157739036038762,22.202354022089015 L27.990381056766417,22.500000000000288 L27.81629106819715,22.7937592505318 L27.63555928904098,23.083479538733933 L27.44827937998517,23.369010722769808 L27.254548395156405,23.65020483172332 L27.054466731824434,23.926916142282167 L26.848138078373125,24.19900125425607 L26.635669360566027,24.466319164891125 L26.417170686134185,24.728731341941675 L26.19275528771498,24.98610179546195 L25.96253946417154,25.238297148280154 L25.726642520323153,25.485186705118576 L25.485186705117876,25.72664252032384 L25.238297148279436,25.96253946417221 L24.986101795461217,26.19275528771563 L24.72873134194093,26.417170686134817 L24.466319164890365,26.635669360566645 L24.199001254255297,26.848138078373726 L23.926916142281378,27.054466731825016 L23.650204831722522,27.254548395156974 L23.369010722768998,27.448279379985713 L23.08347953873311,27.63555928904151 L22.79375925053096,27.816291068197657 L22.499999999999435,27.990381056766907 L22.20235402208815,28.15773903603923 L21.900975565966675,28.31827827603594 L21.59602081508796,28.47191558045575 L21.287647806249314,28.61857132978963 L20.976016347692955,28.758169522582087 L20.661287936288527,28.89063781481736 L20.343625673840542,29.015907557410337 L20.023194182564062,29.133913831782568 L19.700159519772484,29.244595483505037 L19.374689091821605,29.347895153990258 L19.046951567354576,29.44375931021721 L18.71711678989269,29.5321382724738 L18.38535568981733,29.61298624010238 L18.051840195788657,29.686261315235022 L17.71674314564697,29.75192552450629 L17.380238196842882,29.809944838732186 L17.042499736442796,29.860289190545085 L16.7037027907562,29.902932489975573 L16.364022934631766,29.93785263797305 L16.02363620046911,29.965031537858152 L15.68271898699348,29.984455104700956 L15.341447967840596,29.99611327262026 L14.999999999998995,30.0 " />

       </g>
    </g>
    
</svg>
