<?xml version="1.0" encoding="UTF-8" standalone="no"?>
<svg
   xmlns:svg="http://www.w3.org/2000/svg"
   xmlns="http://www.w3.org/2000/svg"
   width="400.0"
   height="300.0"

>
    <g transform="scale(2.9007115375063943, -2.9007115375063943)   translate(30.007986251642656,-38.46606114592843)" stroke-width="0.5"  fill="none">
       <!-- hidden lines -->
       <g  stroke="rgb(160,160,160)" fill="none" stroke-dasharray="0.5,0.5" >
			<path d="M-21.213203435596427,-12.24744871391589 L-28.284271247461902,-16.32993161855452 " />
			<path d="M-21.213203435596427,-12.24744871391589 L-21.213203435596427,36.742346141747674 " />
			<path d="M-21.213203435596427,-12.24744871391589 L21.213203435596427,-36.74234614174768 " />
			<path d="M-2.8284271247461916,-4.0824829046386295 L-2.983119425568515,-3.856624110396194 L-3.135614879283441,-3.6287776803274014 L-3.285862093497575,-3.3990204008090363 L-3.433810433495257,-3.1674297021920084 L-3.579410039302923,-2.934083632706599 L-3.722611842492391,-2.699060832159486 L-3.8633675827173706,-2.4624405054313843 L-4.00162982397766,-2.224302395784267 L-4.137351970605514,-1.9847267579871386 L-4.270488282968821,-1.7437943312694282 L-4.400993892885796,-1.5015863121111104 L-4.52882481874596,-1.2581843268787454 L-4.653937980332369,-1.013670404316612 L-4.776291213340043,-0.7681269479022643 L-4.895843283585732,-0.5216367080757967 L-5.012553900904221,-0.27428275435215355 L-5.126383732726493,-0.02614844732594168 L-5.237294417335175,0.2226825894218769 L-5.345248576792786,0.47212649750591207 L-5.45020982953846,0.7220992119973968 L-5.5521428026488735,0.972516489754871 L-5.651013143759249,1.2232939378148961 L-5.746787532640409,1.4743470418332683 L-5.839433692428033,1.7255911945671576 L-5.928920400500239,1.9769417243885243 L-6.015217498999908,2.2283139238192615 L-6.098295904998164,2.4796230780784017 L-6.1781276202955855,2.7307844936317798 L-6.254685740857875,2.9817135267345654 L-6.327944465882755,3.2323256119569868 L-6.397879106495093,3.4825362906836608 L-6.46446609406725,3.732261239576894 " />
			<path d="M-7.0710678118654755,4.08248290463863 L-6.464466094067298,3.732261239576963 " />
			<path d="M-7.0710678118654755,8.16496580927726 L-7.0710678118654755,4.08248290463863 " />
			<path d="M10.606601717798217,18.371173070873834 L10.34630268119037,18.51776808715735 L10.086160438988975,18.656897394940945 L9.82633169115338,18.788477187931996 L9.566972948805661,18.91242820738328 L9.308240439954162,19.02867578983552 L9.050290015387578,19.137149912091818 L8.793277054796281,19.23778523339704 L8.537356373177397,19.330521134796623 L8.282682127580047,19.415301755651186 L8.02940772424689,19.492076027284874 L7.777685726207959,19.560797703747234 L7.527667761382377,19.621425389670037 L7.279504431243381,19.67392256520229 L7.033345220101621,19.718257608008457 L6.789338405061406,19.754403812316536 L6.547630966704111,19.782339405004652 L6.3083685005525805,19.802047558716346 L6.189699230327218,19.808812442320527 L6.071695129369824,19.81351640199676 L5.9543739686639485,19.81615872934603 L5.837753416344852,19.816739026443553 L5.721851035038753,19.815257205898718 L5.6066842792179505,19.81171349086825 L5.492270492572255,19.8061084150226 L5.378626905397089,19.798442822465574 L5.2657706319986675,19.78871786760721 L5.153718668116647,19.77693501498994 L5.042487888364626,19.76309603906803 L4.932095043688898,19.74720302394035 L4.822556758845813,19.729258363036518 L4.713889529898148,19.70926475875646 L4.606109721730881,19.687225222063432 L4.499233565586685,19.663143072030607 L4.3932771566215445,19.63702193534119 L4.288256451480914,19.608865745742282 L4.184187265896687,19.578678743452475 L4.081085272305419,19.546465474523277 L3.978965997488105,19.512230790154497 L3.8778448202319087,19.47597984596368 L3.777736969014171,19.437718101209676 L3.678657519709061,19.397451317970507 L3.580621393317199,19.35518556027562 L3.483643353718617,19.31092719319265 L3.387738005449364,19.264682881868893 L3.292919791502122,19.216459590527528 L3.199202991151142,19.166264581418858 L3.106601717801907,19.114105413726655 " />
			<path d="M3.106601717801839,19.11410541372662 L2.992438028099884,19.046155101595517 L2.880066054311163,18.975163966368612 L2.769512239084116,18.901148713222202 L2.6608025972298384,18.82412675894849 L2.5539627096004303,18.744116227857226 L2.449017717069486,18.66113594751078 L2.3459923146160957,18.575205444293772 L2.2449107455137955,18.486344938818252 L2.145796795625781,18.394575341165513 L2.0486737878077843,18.299918245965664 L1.953564576419879,18.20239592731612 L1.8604915419485497,18.10203133354021 L1.7694765857402555,17.99884808178712 L1.6805411248477444,17.892870452474458 L1.5937060869903323,17.78412338357475 L1.5089919056293297,17.672632464747196 L1.4264185151597673,17.558423931316057 L1.3460053462195667,17.44152465809716 L1.2677713211172392,17.321962153073855 L1.1917348493792232,17.199764550924044 L1.1179138234178634,17.0749606063997 L1.046325614321086,16.947579687560463 L0.9769870677647496,16.81765176886298 L0.9099145000486235,16.685207424107467 L0.8451236942569462,16.550277819243306 L0.7826298965444511,16.412894705035256 L0.7224478125487366,16.273090409592086 L0.6645916039298321,16.13089783075933 L0.6090748850377672,15.986350428377964 L0.5559107197089368,15.839482216410858 L0.5051116181919859,15.69032775493884 L0.4566895342040027,15.538922142028236 " />
			<path d="M2.700907567377266,2.5231131935570676 L2.812630447777088,2.316629931728191 L2.926265500949942,2.1110807023780174 L3.0417848476738945,1.9065159349508258 L3.159160146434477,1.702985817363028 L3.278362600377972,1.5005402836900572 L3.399362964376448,1.2992290019155543 L3.522131552202749,1.0991013617458112 L3.6466382438137117,0.9002064624925188 L3.7728524927398315,0.7025931010267294 L3.900743333579518,0.5063097598070332 L4.030279389596147,0.3114045949848858 L4.161428880416036,0.11792542458996191 L4.294159629825435,-0.07408028320150795 L4.428439073664641,-0.26456542171258235 L4.564234267817286,-0.45348325732276074 L4.701511896292844,-0.6407874409336101 L4.840238279400388,-0.8264320193400447 L4.980379382011545,-1.0103714465044957 L5.121900821910688,-1.1925605947311686 L5.264767878230265,-1.3729547657376706 L5.408945499969215,-1.5515097016212893 L5.5543983145923805,-1.7281815957172242 L5.701090636708803,-1.9029271033461175 L5.848986476826779,-2.0757033524482242 L5.998049550183518,-2.246467954101661 L6.148243285647252,-2.4151790129220885 L6.299530834689586,-2.5817951373413273 L6.451875080425921,-2.746275449762372 L6.605238646721718,-2.908579596588295 L6.759583907362341,-3.0686677581225936 L6.9148729952842825,-3.2265006583385567 L7.071067811865431,-3.382039574515211 " />
			<path d="M13.685446089526948,-7.37395633275097 L13.840778238576778,-7.407724384368432 L13.995349342057509,-7.438308302701289 L14.149123027293536,-7.465700890939036 L14.30206310925259,-7.489895703234408 L14.454133599060539,-7.51088704622015 L14.605298712470075,-7.528669980348756 L14.755522878281228,-7.543240321054807 L14.90477074671175,-7.554594639739657 L15.053007197715395,-7.562730264578235 L15.200197349246157,-7.567645281147751 L15.346306565466458,-7.56933853287819 L15.491300464897465,-7.56780962132447 L15.635144928509497,-7.5630589062602045 L15.777806107750695,-7.555087505593031 L15.919250432512058,-7.543897295101569 L16.059444619026934,-7.529490907994013 L16.198355677703134,-7.511871734288501 L16.335950920885857,-7.491043920015404 L16.47219797054951,-7.467012366241706 L16.607064765916707,-7.439782727917716 L16.740519571002608,-7.409361412546387 L16.87253098208283,-7.375755578675529 L17.003067935083152,-7.338973134213326 L17.132099712889325,-7.299022734567481 L17.259595952575225,-7.255913780608493 L17.38552665254766,-7.209656416457493 L17.509862179606152,-7.1602615270992125 L17.632573275916023,-7.107740735820576 L17.75363106589317,-7.0521064014756 L17.873007062998887,-6.993371615577191 L17.99067317644311,-6.931550199216515 L18.106601717794554,-6.866656699810747 " />
			<path d="M18.106601717794586,-6.8666566998107275 L18.19807351873117,-6.812541228513652 L18.28840207193816,-6.756477603202724 L18.3775737742677,-6.698474266853701 L18.46557519678941,-6.638539954555684 L18.552393086812764,-6.576683692195646 L18.638014369882857,-6.512914795099174 L18.722426151749403,-6.447242866627617 L18.80561572030855,-6.37967779673183 L18.887570547517257,-6.310229760462825 L18.96827829128,-6.2389092164394135 L19.04772679730744,-6.165726905273186 L19.125904100946805,-6.090693847951018 L19.20279842898372,-6.01382134417535 L19.278398201415225,-5.93512097066249 L19.35269203319367,-5.85460457939921 L19.425668735941265,-5.772284295857867 L19.49731731963501,-5.6881725171703685 L19.56762699426173,-5.602281910261192 L19.636587171443054,-5.514625409939814 L19.704187466029957,-5.425216216952752 L19.770417697666726,-5.334067795995599 L19.83526789232409,-5.2411938736852814 L19.89872828380127,-5.1466084364928815 L19.960789315196735,-5.050325728637329 L20.021441640347433,-4.952360249940268 L20.0806761252363,-4.8527267536424485 L20.138483849367795,-4.751440244181932 L20.194856107111285,-4.6485159749344795 L20.249784409012115,-4.543969445916455 L20.30326048307006,-4.437816401450579 L20.405823954370057,-4.220754950735248 L20.50248474061125,-3.9974623724899523 L20.593184616950396,-3.768073169814377 L20.677868949173472,-3.5327255181868047 L20.7564867266053,-3.2915611822323534 L20.828990592836455,-3.0447254303292883 L20.895336874249026,-2.7923669471047763 L20.955485606323926,-2.5346377438728194 L21.009400557714066,-2.2716930670683233 L21.057049252068737,-2.0036913047324685 L21.098402987596156,-1.73079389110565 L21.13343685435236,-1.4531652093855465 L21.162129749246017,-1.1709724927088159 L21.184464388750136,-0.8843857234161261 L21.20042731931303,-0.5935775306611344 L21.210008925462212,-0.29872308642512824 L21.213203435596427,-5.861977570020827e-14 " />
			<path d="M-6.464466094067266,3.732261239576956 L-6.537298943071184,4.020469857938228 L-6.605587811920412,4.30778562175386 L-6.669301894657034,4.594078919309995 L-6.72841244906604,4.879220600140028 L-6.7828928096412895,5.163082033285974 L-6.832718399614659,5.445535165325503 L-6.877866742042928,5.726452578138423 L-6.918317469947402,6.005707546386582 L-6.954052335501716,6.283174094681247 L-6.985055218263653,6.558727054412161 L-7.011312132447275,6.832242120212667 L-7.032811233232085,7.103595906035398 L-7.049542822106382,7.3726660008132665 L-7.061499351242357,7.639331023680606 L-7.068675426901045,7.903470678729601 L-7.071067811865477,8.164965809277206 " />
			<path d="M-21.213203435596427,-4.082482904638631 L-7.071067811865475,4.082482904638631 " />
			<path d="M-6.464466094067298,3.732261239576963 L7.071067811865475,-4.082482904638632 " />
			<path d="M10.606601717798217,18.371173070873834 L10.866900754406222,18.21720064944657 L11.127042996607775,18.055943570104926 L11.386871744443528,17.887498968083694 L11.646230486791405,17.71196830811258 L11.904962995643062,17.52945732329765 L12.162913420209804,17.340075951431615 L12.419926380801254,17.14393826877147 L12.675847062420287,16.94116242132319 L12.930521308017788,16.731870553675 L13.183795711351092,16.51618873542204 L13.435517709390169,16.29424688522677 L13.685535674215894,16.066178692560804 L13.933699004355026,15.83212153717538 L14.17985821549692,15.592216406348948 L14.423865030537273,15.346607809961675 L14.665572468894695,15.095443693448146 L14.904834935046347,14.838875348680512 L15.14150830622923,14.577057322835936 L15.375450019254313,14.310147325303207 L15.60651915638132,14.038306132684417 L15.834576530202282,13.761697491949203 L16.05948476748282,13.480488021799683 L16.28110839191066,13.194847112305572 L16.499313905701484,12.904946822869952 L16.713969870013017,12.610961778587104 L16.92494698411886,12.3130690650549 L17.132118163294418,12.011448121705044 L17.335358615367987,11.706280633715476 L17.534545915890888,11.397750422570013 L17.729560081881374,11.086043335331162 L17.92028364409791,10.771347132692787 L18.10660171779822,10.453851375880129 L18.288402071941594,10.13374731246515 L18.465575196792653,9.811227761166178 L18.63801436988591,9.486486995701156 L18.805615720311405,9.15972062776435 L18.96827829128267,8.831125489197222 L19.125904100949292,8.500899513424281 L19.278398201417538,8.169241616225392 L19.42566873594341,7.836351575916336 L19.567626994263705,7.502429913009834 L19.704187466031776,7.167677769429489 L19.835267892325756,6.832296787349404 L19.96078931519825,6.49648898773248 L20.08067612523768,6.1604566486405465 L20.19485610711252,5.82440218338961 L20.30326048307117,5.488528018623655 L20.405823954371037,5.153036472380391 L20.50248474061212,4.8181296322224405 L20.593184616951156,4.484009233507338 L20.677868949174126,4.1508765378697055 L20.756486726605857,3.8189322119887597 L20.82899059283693,3.488376206714213 L20.895336874249416,3.15940763662336 L20.95548560632425,2.8322246600818826 L21.009400557714322,2.5070243598807154 L21.057049252068932,2.184002624520662 L21.0984029875963,1.8633540302165343 L21.133436854352464,1.5452717236917408 L21.162129749246084,1.2299473058338553 L21.184464388750175,0.9175707162814541 L21.200427319313043,0.6083301190115762 L21.21000892546222,0.30241178899676235 L21.213203435596427,1.0125233984581428e-13 " />
			<path d="M11.035533905932738,-10.949139604447268 L18.106601717798213,-6.866656699808638 " />
			<path d="M-3.964466094067261,15.031622509085897 L3.1066017177982137,19.114105413724527 " />

       </g>

       <!-- solid lines -->
       <g  stroke="rgb(148,163,184)" fill="none">
			<path d="M-21.213203435596427,36.742346141747674 L-28.284271247461902,32.65986323710904 " />
			<path d="M-28.284271247461902,-16.32993161855452 L-28.284271247461902,32.65986323710905 " />
			<path d="M-28.284271247461902,-16.32993161855452 L14.142135623730953,-40.82482904638631 " />
			<path d="M21.213203435596427,-36.742346141747674 L14.142135623730951,-40.824829046386306 " />
			<path d="M-28.284271247461902,32.65986323710904 L3.5355339059320294,14.288690166235611 " />
			<path d="M14.142135623730951,-40.824829046386306 L14.142135623730951,-4.082482904638631 " />
			<path d="M14.142135623730951,-4.082482904638628 L14.138941113596744,-4.381205991063487 L14.129359507447576,-4.67606043529924 L14.113396576884714,-4.966868628053989 L14.091061937380633,-5.253455397346439 L14.06236904248703,-5.535648114022939 L14.027335175730885,-5.813276795742823 L13.985981440203538,-6.086174209369432 L13.938332745848951,-6.354175971705088 L13.884417794458903,-6.61712064850939 L13.824269062384108,-6.874849851741171 L13.757922780971652,-7.127208334965514 L13.685418914740621,-7.374044086868411 L13.606801137308935,-7.6152084228227075 L13.522116805086004,-7.850556074450147 L13.431416928747014,-8.079945277125598 L13.334756142505983,-8.303237855370782 L13.232192671206164,-8.52029930608601 L13.17871659714831,-8.626452350551844 L13.123788295247572,-8.730998879569826 L13.067416037504175,-8.833923148817242 L13.009608313372784,-8.935209658277726 L12.95037382848402,-9.034843154575508 L12.889721503333421,-9.13280863327254 L12.82766047193806,-9.229091341128072 L12.76420008046099,-9.323676778320444 L12.699349885803736,-9.416550700630745 L12.633119654167078,-9.507699121587885 L12.565519359580286,-9.597108314574935 L12.496559182399075,-9.684764814896312 L12.426249507772466,-9.770655421805483 L12.354600924078845,-9.854767200492985 L12.281624221331372,-9.937087484034333 L12.207330389553047,-10.017603875297622 L12.131730617121663,-10.096304248810494 L12.054836289084871,-10.173176752586178 L11.976658985445637,-10.248209809908365 L11.897210479418325,-10.321392121074618 L11.816502735655709,-10.392712665098054 L11.734547908447137,-10.462160701367091 L11.65135833988813,-10.529725771262909 L11.566946558021717,-10.595397699734507 L11.48132527495176,-10.659166596831021 L11.394507384928545,-10.721022859191104 L11.30650596240697,-10.780957171489172 L11.217334260077575,-10.83896050783825 L11.127005706870733,-10.895024133149231 L11.035533905934358,-10.949139604446332 " />
			<path d="M11.03553390593429,-10.949139604446371 L10.866229480487064,-11.042570820235476 L10.693271039194403,-11.129480355117714 L10.516744793914196,-11.209824888672218 L10.336738734891133,-11.283564372830458 L10.153342586897615,-11.350662051838388 L9.966647764510057,-11.411084480577491 L9.776747326542907,-11.464801541235648 L9.5837359296631,-11.511786458319479 L9.387709781208034,-11.552015812000707 L9.188766591230642,-11.585469549789863 L8.987005523795384,-11.612130996531533 L8.78252714754952,-11.63198686271617 L8.575433385594241,-11.645027251104295 L8.365827464680677,-11.65124566165981 L8.153813863756088,-11.650638994789995 L7.939498261885898,-11.64320755289048 L7.72298748557752,-11.628955040194539 L7.504389455532246,-11.607888560926689 L7.283813132851714,-11.580018615761565 L7.061368464725787,-11.545359096589802 L6.837166329628931,-11.503927279593585 L6.6113184820523685,-11.455743816635243 L6.383937496799581,-11.400832724963257 L6.155136712872933,-11.339221375240754 L5.925030176979373,-11.270940477902487 L5.693732586683375,-11.196024067847093 L5.461359233235456,-11.114509487472255 L5.22802594410477,-11.026437368061222 L4.9938490252444305,-10.931851609529987 L4.758945203118306,-10.830799358545178 L4.523431566518245,-10.723330985023615 L4.287425508200661,-10.60950005702521 L4.051044666371638,-10.489363314051744 L3.814406866049659,-10.362980638764821 L3.577630060335251,-10.23041502713712 L3.3408322716167542,-10.09173255705177 L3.1041315327415746,-9.947002355365562 L2.8676458281822206,-9.796296563452383 L2.631493035226446,-9.639690301244038 L2.395790865220824,-9.47726162978641 L2.1606568048970387,-9.309091512329607 L1.9262080578101215,-9.135263773971486 L1.692561485917865,-8.95586505987469 L1.4598335513304792,-8.770984792078 L1.2281402582595686,-8.58071512492355 L0.9975970951953577,-8.385150899122102 L0.7683189773409542,-8.184389594479306 L0.5404201893323934,-7.978531281306477 L0.31401432827299347,-7.767678570540134 L0.08921424711039139,-7.551936562595154 L-0.13386800161547985,-7.331412794977021 L-0.3551212216254451,-7.1062171886793095 L-0.5744351283273295,-6.876461993393114 L-0.7917004037877824,-6.642261731555717 L-1.0068087512222617,-6.40373314126639 L-1.2196529489760177,-6.160995118097816 L-1.4301269039691622,-5.9141686558320945 L-1.638125704579215,-5.663376786150874 L-1.843545672934754,-5.4087445173096995 L-2.046284416594065,-5.150398771827128 L-2.2462408795830884,-4.888468323219669 L-2.4433153927671887,-4.62308373181409 L-2.6374097235316656,-4.3543772796690625 L-2.828427124746174,-4.082482904638658 " />
			<path d="M-7.0710678118654755,8.164965809277259 L-7.067873301731268,8.463688895702125 L-7.058291695582101,8.758543339937875 L-7.0423287650192385,9.049351532692619 L-7.019994125515158,9.335938301985069 L-6.991301230621554,9.618131018661567 L-6.956267363865411,9.895759700381452 L-6.914913628338061,10.16865711400806 L-6.867264933983476,10.436658876343712 L-6.813349982593431,10.69960355314801 L-6.753201250518634,10.95733275637979 L-6.686854969106179,11.209691239604135 L-6.614351102875146,11.45652699150704 L-6.535733325443456,11.697691327461344 L-6.451048993220526,11.93303897908878 L-6.3603491168815385,12.162428181764227 L-6.263688330640507,12.38572076000941 L-6.161124859340687,12.602782210724639 L-6.107648785282834,12.708935255190474 L-6.052720483382098,12.813481784208452 L-5.9963482256387035,12.916406053455862 L-5.938540501507312,13.017692562916347 L-5.8793060166185445,13.117326059214138 L-5.818653691467945,13.21529153791117 L-5.7565926600725845,13.3115742457667 L-5.693132268595509,13.40615968295908 L-5.628282073938255,13.49903360526938 L-5.562051842301596,13.59018202622652 L-5.494451547714805,13.679591219213572 L-5.425491370533592,13.767247719534947 L-5.355181695906985,13.853138326444117 L-5.283533112213368,13.937250105131616 L-5.2105564094658945,14.01957038867296 L-5.136262577687571,14.100086779936252 L-5.060662805256186,14.178787153449122 L-4.983768477219396,14.255659657224806 L-4.905591173580159,14.330692714546993 L-4.826142667552848,14.403875025713246 L-4.745434923790233,14.475195569736684 L-4.663480096581662,14.54464360600572 L-4.580290528022653,14.612208675901536 L-4.495878746156242,14.677880604373136 L-4.410257463086283,14.741649501469649 L-4.323439573063072,14.80350576382973 L-4.2354381505415,14.863440076127796 L-4.146266448212104,14.921443412476874 L-4.055937895005256,14.97750703778786 L-3.9644660940688476,15.031622509084979 " />
			<path d="M-3.964466094068815,15.031622509084999 L-3.8718648207195017,15.083781676777388 L-3.7781480203685085,15.133976685886207 L-3.6833298064212494,15.182199977227715 L-3.587424458151979,15.228444288551618 L-3.4904464185533746,15.272702655634724 L-3.3924102921614905,15.314968413329751 L-3.2933308428563537,15.355235196569053 L-3.1932229916385877,15.39349694132319 L-3.092101814382361,15.429747885514137 L-2.9899825395650144,15.463982569883042 L-2.8868805459737104,15.496195838812362 L-2.7828113603894478,15.526382841102288 L-2.6777906552487742,15.55453903070131 L-2.5718342462835926,15.580660167390842 L-2.464958090139352,15.604742317423781 L-2.357178281972047,15.626781854116912 L-2.248511053024341,15.646775458397073 L-2.1389727681812065,15.664720119301009 L-2.0285799235054256,15.68061313442879 L-1.9173491437533494,15.694452110350792 L-1.8052971798712711,15.706234962968153 L-1.6924409064727914,15.715959917826606 L-1.578797319297565,15.723625510383718 L-1.4643835326518078,15.72923058622945 L-1.349216776830941,15.732774301259996 L-1.2333143955247756,15.734256121804906 L-1.1166938432056126,15.733675824707458 L-0.9993726824996676,15.731033497358258 L-0.8813685815422012,15.726329537682087 L-0.7626993113167666,15.719564654077972 L-0.5234368451650804,15.699856500366389 L-0.28172940680762437,15.671920907678373 L-0.037722591767245905,15.63577470337038 L0.20843661937468072,15.59143966056429 L0.4565999495138513,15.538942485032097 L0.7066179143396107,15.478314799109347 L0.9583399123787273,15.409593122647019 L1.211614315712069,15.33281885101335 L1.466288561309609,15.248038230158796 L1.7222092429286844,15.155302328759207 L1.9792222035201783,15.05466700745397 L2.2371726280869613,14.946192885197641 L2.4959051369386653,14.829945302745356 L2.755263879286586,14.705994283294013 L3.0150926271223852,14.574414490302894 L3.275234869323985,14.43528518251922 L3.535533905931984,14.288690166235641 " />
			<path d="M-21.213203435596427,36.742346141747674 L10.606601717798213,18.371173070873834 " />
			<path d="M3.535533905932739,14.288690166235208 L10.606601717798213,18.371173070873837 " />
			<path d="M21.213203435596427,-36.742346141747674 L21.213203435596427,0.0 " />
			<path d="M0.45668953420400094,15.53892214202823 L0.4087182088213748,15.378604870753826 L0.36335872578125716,15.21591727540389 L0.3206227023783885,15.050901022893889 L0.28052108399720943,14.883598376545931 L0.2430641413085688,14.714052185264432 L0.20826146763924136,14.542305872561828 L0.17612197651492956,14.36840342543712 L0.14665389937735185,14.192389383110083 L0.11986478347604823,14.014308825614062 L0.09576148993540734,13.834207362250247 L0.07435019199741255,13.652131119906393 L0.05563637344059025,13.468126731242979 L0.03962482717551197,13.282241322749844 L0.026319654017258998,13.094522502676318 L0.015724261635140735,12.905018348837991 L0.007841363679929714,12.713777396303211 L0.002672979088851335,12.520848624962461 L0.00022043156850948264,12.326281446983826 L0.00048434925585283395,12.13012569415774 L0.00346466455730976,11.93243160513427 L0.009160614166091818,11.733249812556167 L0.017570739257694257,11.532631330091048 L0.0286928858635207,11.330627539365969 L0.042524205422552086,11.12729017680775 L0.05906115551090885,10.922671320392467 L0.07829950074911807,10.716823376307422 L0.10023431388686888,10.50979906552908 L0.12485997706495766,10.301651410320382 L0.15217018325411402,10.09243372065088 L0.18215793787032908,9.882199580543194 L0.2148155605662847,9.671002834349295 L0.2501346871984129,9.458897572960083 L0.28810627196908456,9.245938119951848 L0.32872058974339424,9.032179017673121 L0.3719672385399111,8.81767501327549 L0.4178351421948019,8.602481044691995 L0.46631255319861076,8.386652226566625 L0.5173870557049955,8.170243836138559 L0.5710455687106091,7.953311299084795 L0.6272743494053703,7.735910175324728 L0.6860589966922159,7.518096144790358 L0.7473844548754425,7.299924993165766 L0.8112350175167311,7.08145259759951 L0.8775943314578036,6.8627349123935595 L0.9464454010087433,6.643827954672528 L1.017770592300847,6.42478779003677 L1.091551637802965,6.205670518203067 L1.1677696410000955,5.986532258636611 L1.246405081233089,5.767429136177884 L1.3274378186982076,5.548417266668186 L1.4108470996052471,5.329552742577473 L1.4966115614929283,5.1108916186381546 L1.584709238700155,4.892489897488593 L1.6751175679917818,4.674403515329908 L1.7678133943374164,4.456688327599824 L1.8627729768418053,4.239400094667188 L1.9599719948252492,4.022594467550838 L2.059385554052529,3.8063269736664935 L2.160988193108718,3.590653002605267 L2.2647538899202573,3.375627791947518 L2.370656068419633,3.161306413115605 L2.4786676053519354,2.9477437572692153 L2.5887608372215585,2.7349945212468465 L2.700907567377251,2.5231131935570974 " />
			<path d="M7.071067811865475,-3.382039574515254 L7.269984611489349,-3.5755393436190417 L7.470212564075208,-3.7652277019660936 L7.67167298829261,-3.951030109851981 L7.874286718500569,-4.1328735545905975 L8.077974135856397,-4.310686579205132 L8.282655199602626,-4.484399310507721 L8.48824947851971,-4.653943486556724 L8.69467618253221,-4.819252483480861 L8.901854194455918,-4.980261341659636 L9.10970210187361,-5.136906791249794 L9.318138229126745,-5.289127277047765 L9.527080669410642,-5.436862982678326 L9.736447316960467,-5.58005585409995 L9.946155899315423,-5.718649622417674 L10.15612400964843,-5.852589825994439 L10.366269139148615,-5.9818238318522745 L10.576508709443871,-6.106300856354894 L10.786760105050742,-6.225971985163554 L10.996940705838929,-6.340790192458394 L11.206967919497568,-6.450710359417629 L11.416759213990611,-6.555689291947388 L11.626232149988516,-6.655685737655217 L11.835304413263508,-6.750660402060573 L12.043893847035674,-6.8405759640359225 L12.251918484257189,-6.925397090472412 L12.459296579821986,-7.00509045016433 L12.665946642688212,-7.079624726906882 L12.871787467900855,-7.148970631802181 L13.076738168501933,-7.213100914768569 L13.280718207315742,-7.271990375248782 L13.483647428596637,-7.325615872112721 L13.685446089526904,-7.373956332750959 " />
			<path d="M14.142135623730951,-4.082482904638631 L21.213203435596427,-8.332337677794643e-16 " />
			<path d="M-21.213203435596427,-1.1102230246251565e-16 L-21.213203435596427,-4.08248290463863 " />
			<path d="M-21.213203435596427,-1.1102230246251564e-16 L-7.071067811865475,8.164965809277263 " />
			<path d="M7.0710678118654755,-4.082482904638632 L-21.213203435596434,-4.082482904638631 " />
			<path d="M-7.0710678118654755,8.16496580927726 L7.071067811865475,-1.812986607347358e-15 " />
			<path d="M7.0710678118654755,-1.2212453270876722e-15 L7.0710678118654755,-4.082482904638631 " />
			<path d="M7.0710678118654755,-1.2212453270876722e-15 L-21.213203435596434,-2.397597912811977e-16 " />
			<path d="M10.606601717798213,18.371173070873834 L21.213203435596427,12.247448713915885 " />
			<path d="M3.535533905932739,14.288690166235208 L10.606601717798213,18.371173070873837 " />
			<path d="M3.5355339059320294,14.288690166235611 L14.142135623730953,8.164965809277254 " />
			<path d="M21.213203435596427,12.24744871391589 L14.142135623730951,8.164965809277259 " />
			<path d="M21.213203435596427,0.0 L21.213203435596427,12.247448713915894 " />
			<path d="M14.142135623730951,-4.082482904638631 L14.142135623730951,8.164965809277263 " />
			<path d="M14.142135623730951,-4.082482904638631 L21.213203435596427,-8.332337677794643e-16 " />
			<path d="M14.142135623730951,-4.082482904638638 L14.13894111359674,-3.78007111564185 L14.12935950744757,-3.4741527856270262 L14.113396576884696,-3.1649121883571243 L14.091061937380603,-2.8525355988047134 L14.06236904248698,-2.5372111809468145 L14.027335175730817,-2.2191288744220086 L13.985981440203444,-1.8984802801178802 L13.938332745848827,-1.5754585447578027 L13.884417794458749,-1.2502582445566093 L13.824269062383914,-0.9230752680151326 L13.757922780971422,-0.5941066979242673 L13.685418914740346,-0.2635506926497082 L13.60680113730861,0.06839363323124936 L13.52211680508563,0.40152632886889594 L13.431416928746586,0.7356467275840108 L13.334756142505496,1.070553567741986 L13.232192671205615,1.4060451139852743 L13.12378829524696,1.7419192787512419 L13.009608313372107,2.0779737440021893 L12.889721503332673,2.414006083094136 L12.764200080460165,2.749813882711071 L12.633119654166178,3.085194864791169 L12.496559182398098,3.4199470083715253 L12.354600924077785,3.75386867127805 L12.207330389551897,4.0867587115871284 L12.054836289083639,4.41841660878603 L11.897210479417005,4.74864258455898 L11.734547908445728,5.077237723126117 L11.566946558020218,5.404004091062934 L11.394507384926952,5.728744856527964 L11.217334260075887,6.051264407826933 L11.035533905932493,6.371368471241931 L10.849215832232165,6.688864228054609 L10.658492270015621,7.00356043069298 L10.463478104025121,7.315267517931838 L10.26429080350221,7.623797729077307 L10.061050351428628,7.928965217066882 L9.853879172253048,8.230586160416754 L9.642902058147184,8.528478873948973 L9.428246093835638,8.822463918231824 L9.210040580044797,9.112364207667447 L8.988416955616945,9.39800511716156 L8.763508718336393,9.679214587311083 L8.535451344515408,9.955823228046308 L8.304382207388379,10.227664420665109 L8.07044049436328,10.494574418197837 L7.833767123180393,10.7563924440424 L7.594504657028727,11.012960788810036 L7.352797218671293,11.264124905323563 L7.108790403630934,11.509733501710823 L6.862631192489028,11.749638632537252 L6.614467862349871,11.983695787922679 L6.364449897524125,12.21176398058865 L6.112727899485035,12.433705830783916 L5.859453496151719,12.649387649036868 L5.604779250554207,12.858679516685049 L5.34885856893516,13.061455364133321 L5.091845608343698,13.257593046793456 L4.833895183776946,13.44697441865948 L4.5751626749252665,13.62948540347441 L4.315803932577371,13.805016063445514 L4.055975184741609,13.973460665466733 L3.7958329425400437,14.134717744808368 L3.535533905932129,14.288690166235556 " />

       </g>
    </g>
    
</svg>
