<?xml version="1.0" encoding="UTF-8" standalone="no"?>
<svg
   xmlns:svg="http://www.w3.org/2000/svg"
   xmlns="http://www.w3.org/2000/svg"
   width="400.0"
   height="300.0"

>
    <g transform="scale(3.7499999937500004, -3.7499999937500004)   translate(1.3333334355555555,-31.333333335555555)" stroke-width="0.5"  fill="none">
       <!-- hidden lines -->
       <g  stroke="rgb(160,160,160)" fill="none" stroke-dasharray="0.5,0.5" >
			<path d="M0.0,30.0 L10.0,30.0 " />
			<path d="M0.0,30.0 L0.0,-30.0 " />
			<path d="M0.0,-30.0 L10.0,-30.0 " />
			<path d="M10.0,30.0 L10.0,-30.0 " />
			<path d="M10.0,-15.0 L10.0,-13.320532858450603 L10.0,-11.662185990655717 L10.0,-10.045814070673122 L10.0,-8.491743913237428 L10.0,-7.019518852270891 L10.0,-5.647652972120037 L10.0,-4.3933982822028845 L10.0,-3.2725277629806584 L10.0,-2.299137011576798 L10.0,-1.4854669814646755 L10.0,-0.8417500453752922 L10.0,-0.376081317273238 L10.0,-0.09431685160168435 L10.0,-1.863886776598524e-15 " />
			<path d="M10.0,0.0 L10.0,-0.05794458448906781 L10.0,-0.23133066130726654 L10.0,-0.5188186592309343 L10.0,-0.9181874619153554 L10.0,-1.4263515681165888 L10.0,-2.0393849301031377 L10.0,-2.7525512860832144 L10.0,-3.560340752300945 L10.0,-4.456512392093018 L10.0,-5.434142433019581 L10.0,-6.48567775954653 L10.0,-7.6029942679976665 L10.0,-8.777459632929624 L10.0,-9.99999999999995 " />
			<path d="M10.0,-15.0 L10.0,-10.0 " />
			<path d="M10.0,-14.999999999999998 L10.0,-16.679467141549544 L10.0,-18.337814009344573 L10.0,-19.954185929327295 L10.0,-21.508256086763105 L10.0,-22.980481147729737 L10.0,-24.352347027880658 L10.0,-25.60660171779785 L10.0,-26.72747223702008 L10.0,-27.700862988423914 L10.0,-28.514533018535975 L10.0,-29.15824995462525 L10.0,-29.623918682727165 L10.0,-29.905683148398538 L10.0,-29.999999999999993 " />
			<path d="M10.0,-30.0 L0.0,-30.0 " />
			<path d="M0.0,-30.0 L0.0,-29.62391868272747 L0.0,-28.51453301853674 L0.0,-26.727472237021416 L0.0,-24.352347027882622 L0.0,-21.508256086765705 L0.0,-18.337814009347742 L0.0,-15.000000000003622 L0.0,-11.662185990659317 L0.0,-8.491743913240825 L0.0,-5.647652972123044 L0.0,-3.2725277629831044 L0.0,-1.485466981466411 L0.0,-0.37608131727414396 L0.0,-7.432107648730215e-15 " />
			<path d="M0.0,0.0 L0.0,-0.09431685160060788 L0.0,-0.3760813172712627 L0.0,-0.8417500453726081 L0.0,-1.4854669814614692 L0.0,-2.2991370115732632 L0.0,-3.272527762976976 L0.0,-4.393398282199234 L0.0,-5.647652972116578 L0.0,-7.019518852267773 L0.0,-8.491743913234778 L0.0,-10.045814070671046 L0.0,-11.662185990654294 L0.0,-13.320532858449889 L0.0,-14.999999999999863 " />
			<path d="M10.0,-10.000000000000012 L10.0,-10.344726410530441 L10.0,-10.692195714300517 L10.0,-11.042203181945585 L10.0,-11.394542588611527 L10.0,-11.749006335462742 L10.0,-12.105385571999626 L10.0,-12.463470319113572 L10.0,-12.823049592806923 L10.0,-13.183911528505028 L10.0,-13.545843505887115 L10.0,-13.90863227416246 L10.0,-14.272064077718042 L10.0,-14.635924782063608 L10.0,-14.999999999999932 " />
			<path d="M30.0,-10.0 L10.0,-10.0 " />
			<path d="M30.0,-15.0 L10.0,-15.0 " />
			<path d="M10.0,-15.0 L10.0,-10.0 " />
			<path d="M10.0,-30.0 L0.0,-30.0 " />
			<path d="M0.0,-30.0 L0.0,-29.905683148398637 L0.0,-29.623918682727354 L0.0,-29.158249954625514 L0.0,-28.514533018536287 L0.0,-27.700862988424262 L0.0,-26.72747223702045 L0.0,-25.606601717798213 L0.0,-24.352347027881002 L0.0,-22.98048114773005 L0.0,-21.508256086763375 L0.0,-19.954185929327508 L0.0,-18.33781400934472 L0.0,-16.67946714154962 L0.0,-15.000000000000068 " />
			<path d="M10.0,-15.0 L10.0,-16.67946714154969 L10.0,-18.337814009344854 L10.0,-19.954185929327707 L10.0,-21.50825608676363 L10.0,-22.98048114773035 L10.0,-24.352347027881336 L10.0,-25.606601717798565 L10.0,-26.727472237020805 L10.0,-27.700862988424603 L10.0,-28.514533018536596 L10.0,-29.158249954625774 L10.0,-29.623918682727542 L10.0,-29.905683148398744 L10.0,-29.999999999999996 " />
			<path d="M10.0,0.0 L0.0,0.0 " />

       </g>

       <!-- solid lines -->
       <g  stroke="rgb(148,163,184)" fill="none">
			<path d="M0.0,30.0 L10.0,30.0 " />
			<path d="M10.0,30.0 L10.0,-15.0 " />
			<path d="M0.0,30.0 L0.0,-15.0 " />
			<path d="M10.0,-15.0 L0.0,-15.0 " />
			<path d="M30.0,-15.0 L30.0,-10.0 " />
			<path d="M10.0,-10.0 L30.000000000000004,-10.0 " />
			<path d="M10.0,-15.0 L30.000000000000004,-15.0 " />
			<path d="M0.0,-30.0 L10.0,-30.0 " />
			<path d="M0.0,-15.0 L0.0,-30.0 " />
			<path d="M10.0,-15.0 L10.0,-30.0 " />
			<path d="M10.0,-15.0 L0.0,-15.0 " />

       </g>
    </g>
    
</svg>
