<?xml version="1.0" encoding="UTF-8" standalone="no"?>
<svg
   xmlns:svg="http://www.w3.org/2000/svg"
   xmlns="http://www.w3.org/2000/svg"
   width="400.0"
   height="300.0"

>
    <g transform="scale(1.807000629922016, -1.807000629922016)   translate(41.65788915618185,-64.0042597605012)" stroke-width="0.5"  fill="none">
       <!-- hidden lines -->
       <g  stroke="rgb(160,160,160)" fill="none" stroke-dasharray="0.5,0.5" >
			<path d="M-14.142135623730951,-28.577380332470415 L-8.353470841006462,-25.235293161915926 " />
			<path d="M-14.14213562373095,-8.16496580927726 L-8.353470841006462,-4.822878638722772 " />
			<path d="M-8.353470841006462,-4.82287863872277 L-8.353470841006462,-25.235293161915923 " />
			<path d="M-8.353470841006462,-25.235293161915923 L9.324198688657226,-35.4415004235125 " />
			<path d="M9.324198688657228,-15.02908590031935 L-8.353470841006462,-4.822878638722771 " />
			<path d="M1.811390270448945e-16,-40.824829046386306 L35.35533905932738,-61.23724356957946 " />
			<path d="M-3.535533905932739,-42.866070498705625 L-5.548581791050146e-16,-40.824829046386306 " />
			<path d="M-5.548581791050149e-16,-40.82482904638631 L-7.611056799353565e-31,0.0 " />
			<path d="M-1.3373506282379492e-15,-4.898764197839482e-16 L35.35533905932738,-20.412414523193156 " />
			<path d="M26.870057685088806,-44.09081537009722 L26.868620245730963,-43.99982654904183 L26.864309875719556,-43.90730122684092 L26.857132416600887,-43.81336479666308 L26.847097595488783,-43.71814456405391 L26.834219011882123,-43.62176957440764 L26.818514119234372,-43.52437043808084 L26.80000420130012,-43.42607915338522 L26.778714343290694,-43.327028927699466 L26.754673397877887,-43.227353996942476 L26.727913946091945,-43.127189443652725 L26.698472253166745,-43.026671013920236 L26.666388219392026,-42.92593493341929 L26.6317053260393,-42.825117722791205 L26.594470576434674,-42.72435601262733 L26.554734432258513,-42.6237863583031 L26.512550745158205,-42.523545054913946 L26.467976683766747,-42.42376795256398 L26.421072656226055,-42.324590272257765 L26.371902228319993,-42.226146422644646 L26.32053203732805,-42.128569817863976 L26.267031701716462,-42.031992696738186 L26.2114737267891,-41.936545943558656 L26.153933406426077,-41.842358910707276 L26.09448872104312,-41.74955924335412 L26.033220231910146,-41.65827270646878 L25.970210971972126,-41.568623014379796 L25.90554633332028,-41.48073166311318 L25.839313951466085,-41.394717765737276 L25.771603586574933,-41.31069789093704 L25.702507001820383,-41.228785905036574 L25.632117839023877,-41.14909281768396 L25.56053149174846,-41.071726631407586 L25.487844976018494,-40.99679219524778 L25.41415679884053,-40.92439106266214 L25.339566824703592,-40.8546213538972 L25.26417614023974,-40.78757762301281 L25.18808691722835,-40.723350729739565 L25.111402274129773,-40.66202771634292 L25.034226136336006,-40.603691689660806 L24.956663095327805,-40.5484217084747 L24.8788182669291,-40.49629267636669 L24.800797148850766,-40.4473752402079 L24.722705477716897,-40.40173569441559 L24.644649085767256,-40.359435891108994 L24.566733757430164,-40.320533156285364 L24.489065085960195,-40.28508021213004 L24.41174833033493,-40.25312510556573 L24.33488827260475,-40.2247111431378 L24.25858907588897,-40.19987683232395 L24.182954143210775,-40.178655829347676 L24.108085977362244,-40.16107689356631 L24.034086041989422,-40.14716384849545 L23.96105462408565,-40.13693554952264 L23.88909069807954,-40.13040585835391 L23.818291791701775,-40.127583624228 L23.748753853812545,-40.12847267192359 L23.680571124368658,-40.13307179657583 L23.613836006706677,-40.14137476530924 L23.54863894231505,-40.15337032568467 L23.485068288265037,-40.169042220948945 L23.423210197466453,-40.188369212066554 L23.36314850191063,-40.21132510650341 L23.30496459905868,-40.23787879372379 L23.24873734152918,-40.2679942873523 " />
			<path d="M23.248737341529164,-40.26799428735231 L23.17694264573028,-40.31361763640335 L23.108934541026528,-40.36539006796814 L23.04487686489895,-40.42318685772432 L22.984923937900128,-40.486868768142955 L22.929220191882454,-40.55628238392397 L22.87789982204916,-40.63126048158705 L22.831086463666303,-40.7116224323276 L22.788892894214598,-40.79717463716742 L22.751420761698576,-40.88771099335156 L22.718760339767634,-40.983013390867924 L22.690990310238924,-41.0828522378934 L22.668177573545943,-41.186987013900634 L22.650377087569545,-41.29516684909311 L22.63763173523959,-41.40713112877241 L22.629972221226197,-41.522610121181884 L22.627416997969522,-41.64132562731403 L22.629972221226197,-41.76299165111635 L22.63763173523959,-41.88731508848081 L22.650377087569545,-42.01399643335735 L22.668177573545943,-42.14273049929018 L22.690990310238924,-42.273207154638705 L22.718760339767634,-42.405112069711784 L22.751420761698576,-42.5381274740155 L22.788892894214598,-42.671932921790116 L22.831086463666303,-42.80620606399196 L22.87789982204916,-42.94062342486053 L22.92922019188245,-43.074861181199935 L22.984923937900124,-43.208595942497304 L23.04487686489895,-43.3415055299989 L23.108934541026528,-43.47326975286691 L23.17694264573028,-43.603571179547274 L23.248737341529164,-43.732095902490066 L23.324145668712532,-43.85853429438027 L23.402985962015208,-43.98258175405713 L23.485068288265033,-44.103939440325014 L23.57019490394851,-44.22231499188803 L23.658160731592243,-44.337423231673974 L23.748753853812545,-44.44898685385092 L23.84175602384296,-44.556737091881224 L23.93694319130987,-44.660414366003664 L24.034086041989422,-44.75976890858382 L24.132950550245628,-44.85456136582619 L24.233298542818588,-44.94456337439844 L24.33488827260475,-45.02955811157867 L24.437475001046845,-45.109340817600355 L24.540811587730527,-45.18371928893655 L24.644649085767252,-45.25251434133502 L24.748737341529164,-45.315560241488804 L24.852825597291073,-45.372705106302256 L24.9566630953278,-45.42381126879075 L25.05999968201148,-45.468755609732476 L25.162586410453578,-45.50742985427345 L25.264176140239737,-45.5397408327711 L25.364524132812697,-45.565610705248126 L25.463388641068907,-45.5849771489158 L25.56053149174846,-45.597793508315014 L25.655718659215363,-45.604028907713406 L25.748720829245784,-45.60366832548766 L25.839313951466085,-45.596712630311956 L25.927279779109817,-45.583178579065205 L26.01240639479329,-45.563098776462304 L26.094488721043117,-45.53652159650652 L26.173329014345793,-45.50351106595223 L26.248737341529157,-45.46414671005895 " />
			<path d="M26.248737341529164,-45.46414671005894 L26.32053203732805,-45.4185233610079 L26.3885401420318,-45.36675092944311 L26.452597818159376,-45.30895413968693 L26.5125507451582,-45.245272229268295 L26.568254491175875,-45.17585861348728 L26.61957486100917,-45.1008805158242 L26.666388219392026,-45.02051856508365 L26.70858178884373,-44.934966360243834 L26.746053921359753,-44.84443000405969 L26.778714343290694,-44.749127606543325 L26.806484372819405,-44.64928875951786 L26.829297109512385,-44.545153983510616 L26.847097595488783,-44.43697414831814 L26.859842947818738,-44.32500986863884 L26.86750246183213,-44.20953087622937 L26.870057685088806,-44.090815370097225 " />
			<path d="M-3.535533905932738,-34.70110468942836 L-3.535533905932738,-22.45365597551247 " />
			<path d="M-3.5355339059327378,-22.45365597551247 L14.142135623730951,-32.65986323710905 " />
			<path d="M-8.353470841006462,-25.235293161915926 L-3.535533905932738,-22.45365597551247 " />
			<path d="M-8.353470841006462,-4.82287863872277 L-8.353470841006462,-25.235293161915923 " />
			<path d="M-8.353470841006462,-4.822878638722772 L-1.5754927246468484e-30,3.662713109228363e-30 " />
			<path d="M9.324198688657228,-15.02908590031935 L-8.353470841006462,-4.822878638722771 " />
			<path d="M-8.353470841006462,-25.235293161915923 L9.324198688657226,-35.4415004235125 " />
			<path d="M-8.353470841006462,15.589535884470383 L-8.353470841006462,-4.822878638722772 " />
			<path d="M-14.14213562373095,-8.16496580927726 L-8.353470841006462,-4.822878638722772 " />
			<path d="M9.324198688657228,-15.02908590031935 L-8.353470841006462,-4.822878638722771 " />
			<path d="M-7.611056799353565e-31,0.0 L5.548581791050132e-16,40.8248290463863 " />
			<path d="M-1.3373506282379492e-15,-4.898764197839482e-16 L35.35533905932738,-20.412414523193156 " />
			<path d="M26.870057685088806,13.063945294843615 L26.868620245730963,13.154934115899001 L26.864309875719556,13.24745943809991 L26.857132416600887,13.341395868277754 L26.847097595488783,13.436616100886924 L26.834219011882123,13.532991090533192 L26.818514119234372,13.630390226859992 L26.80000420130012,13.728681511555612 L26.778714343290694,13.827731737241368 L26.754673397877887,13.927406667998357 L26.727913946091945,14.027571221288104 L26.698472253166745,14.128089651020591 L26.666388219392026,14.228825731521537 L26.6317053260393,14.329642942149627 L26.594470576434674,14.430404652313499 L26.554734432258513,14.530974306637729 L26.512550745158205,14.631215610026885 L26.467976683766747,14.730992712376851 L26.421072656226055,14.830170392683062 L26.371902228319993,14.928614242296184 L26.32053203732805,15.026190847076856 L26.267031701716462,15.122767968202647 L26.2114737267891,15.218214721382175 L26.153933406426077,15.312401754233555 L26.09448872104312,15.40520142158671 L26.033220231910146,15.496487958472052 L25.970210971972126,15.586137650561037 L25.90554633332028,15.67402900182765 L25.839313951466085,15.760042899203553 L25.771603586574933,15.844062774003788 L25.702507001820383,15.92597475990426 L25.632117839023877,16.005667847256873 L25.56053149174846,16.083034033533245 L25.487844976018494,16.157968469693053 L25.41415679884053,16.230369602278692 L25.339566824703592,16.30013931104363 L25.26417614023974,16.367183041928026 L25.18808691722835,16.43140993520127 L25.111402274129773,16.49273294859791 L25.034226136336006,16.55106897528002 L24.956663095327805,16.606338956466132 L24.8788182669291,16.658467988574138 L24.800797148850766,16.707385424732934 L24.722705477716897,16.75302497052524 L24.644649085767256,16.795324773831837 L24.566733757430164,16.83422750865547 L24.489065085960195,16.86968045281079 L24.41174833033493,16.9016355593751 L24.33488827260475,16.930049521803028 L24.25858907588897,16.954883832616876 L24.182954143210775,16.97610483559315 L24.108085977362244,16.993683771374524 L24.034086041989422,17.00759681644538 L23.96105462408565,17.01782511541819 L23.88909069807954,17.02435480658692 L23.818291791701775,17.027177040712832 L23.748753853812545,17.026287993017245 L23.680571124368658,17.021688868365004 L23.613836006706677,17.01338589963159 L23.54863894231505,17.001390339256165 L23.485068288265037,16.985718443991885 L23.423210197466453,16.966391452874277 L23.36314850191063,16.943435558437425 L23.30496459905868,16.91688187121704 L23.24873734152918,16.88676637758853 " />
			<path d="M23.248737341529164,16.886766377588522 L23.17694264573028,16.84114302853748 L23.108934541026528,16.789370596972688 L23.04487686489895,16.731573807216513 L22.984923937900128,16.667891896797876 L22.929220191882454,16.598478281016856 L22.87789982204916,16.523500183353782 L22.831086463666303,16.44313823261323 L22.788892894214598,16.35758602777341 L22.751420761698576,16.26704967158927 L22.718760339767634,16.171747274072906 L22.690990310238924,16.071908427047436 L22.668177573545943,15.967773651040197 L22.650377087569545,15.85959381584772 L22.63763173523959,15.747629536168418 L22.629972221226197,15.63215054375895 L22.627416997969522,15.513435037626795 L22.629972221226197,15.391769013824478 L22.63763173523959,15.267445576460021 L22.650377087569545,15.140764231583486 L22.668177573545943,15.012030165650652 L22.690990310238924,14.881553510302124 L22.718760339767634,14.749648595229043 L22.751420761698576,14.616633190925327 L22.788892894214598,14.482827743150716 L22.831086463666303,14.348554600948873 L22.87789982204916,14.214137240080298 L22.92922019188245,14.079899483740896 L22.984923937900124,13.946164722443527 L23.04487686489895,13.813255134941937 L23.108934541026528,13.681490912073922 L23.17694264573028,13.551189485393556 L23.248737341529164,13.422664762450768 L23.324145668712532,13.296226370560563 L23.402985962015208,13.1721789108837 L23.485068288265033,13.050821224615815 L23.57019490394851,12.932445673052804 L23.658160731592243,12.817337433266857 L23.748753853812545,12.70577381108991 L23.84175602384296,12.598023573059606 L23.93694319130987,12.494346298937167 L24.034086041989422,12.394991756357008 L24.132950550245628,12.300199299114636 L24.233298542818588,12.210197290542386 L24.33488827260475,12.125202553362158 L24.437475001046845,12.045419847340472 L24.540811587730527,11.97104137600428 L24.644649085767252,11.90224632360581 L24.748737341529164,11.839200423452027 L24.852825597291073,11.782055558638573 L24.9566630953278,11.73094939615008 L25.05999968201148,11.686005055208355 L25.162586410453578,11.647330810667384 L25.264176140239737,11.61501983216973 L25.364524132812697,11.589149959692705 L25.463388641068907,11.569783516025035 L25.56053149174846,11.556967156625817 L25.655718659215363,11.550731757227426 L25.748720829245784,11.551092339453167 L25.839313951466085,11.558048034628875 L25.927279779109817,11.571582085875628 L26.01240639479329,11.591661888478525 L26.094488721043117,11.618239068434315 L26.173329014345793,11.6512495989886 L26.248737341529157,11.690613954881886 " />
			<path d="M26.248737341529164,11.69061395488189 L26.32053203732805,11.73623730393293 L26.3885401420318,11.788009735497722 L26.452597818159376,11.845806525253899 L26.5125507451582,11.909488435672532 L26.568254491175875,11.978902051453554 L26.61957486100917,12.05388014911663 L26.666388219392026,12.13424209985718 L26.70858178884373,12.219794304697 L26.746053921359753,12.31033066088114 L26.778714343290694,12.405633058397505 L26.806484372819405,12.505471905422976 L26.829297109512385,12.609606681430213 L26.847097595488783,12.71778651662269 L26.859842947818738,12.829750796301992 L26.86750246183213,12.94522978871146 L26.870057685088806,13.063945294843604 " />
			<path d="M-8.353470841006462,15.589535884470383 L-8.353470841006462,-4.822878638722772 " />
			<path d="M-8.353470841006462,-4.822878638722772 L-1.5754927246468484e-30,3.662713109228363e-30 " />
			<path d="M9.324198688657228,-15.02908590031935 L-8.353470841006462,-4.822878638722771 " />
			<path d="M-31.81980515339464,2.0412414523193165 L-26.031140370670148,5.383328622873809 " />
			<path d="M-14.14213562373095,-8.16496580927726 L-8.353470841006459,-4.822878638722769 " />
			<path d="M-8.353470841006459,-4.822878638722768 L-26.031140370670148,5.38332862287381 " />
			<path d="M-26.031140370670148,-15.029085900319343 L-31.81980515339464,-18.371173070873837 " />
			<path d="M-26.031140370670148,5.38332862287381 L-26.031140370670148,-15.029085900319343 " />
			<path d="M-14.142135623730951,-28.577380332470415 L-8.353470841006457,-25.235293161915923 " />
			<path d="M-8.353470841006457,-4.822878638722767 L-8.353470841006457,-25.23529316191592 " />
			<path d="M-26.031140370670148,-15.029085900319341 L-8.353470841006459,-25.23529316191592 " />
			<path d="M-35.35533905932738,-20.41241452319315 L-38.890872965260115,-22.453655975512465 " />
			<path d="M-38.890872965260115,18.37117307087384 L-35.35533905932738,20.412414523193156 " />
			<path d="M-35.35533905932738,-20.41241452319315 L-35.35533905932738,20.412414523193156 " />
			<path d="M-35.35533905932738,-20.41241452319315 L1.811390270448945e-16,-40.824829046386306 " />
			<path d="M-3.535533905932739,-42.866070498705625 L-5.548581791050146e-16,-40.824829046386306 " />
			<path d="M-31.81980515339464,14.28869016623521 L-21.213203435596427,8.164965809277263 " />
			<path d="M-21.213203435596427,-12.24744871391589 L-21.213203435596427,8.164965809277263 " />
			<path d="M-21.213203435596427,-12.24744871391589 L-3.5355339059327378,-22.45365597551247 " />
			<path d="M-3.535533905932738,-34.70110468942836 L-3.535533905932738,-22.45365597551247 " />
			<path d="M-26.16295090390226,-17.55467648994611 L-26.165506127158938,-17.673391996078326 L-26.17316564117234,-17.788870988487854 L-26.185910993502308,-17.90083526816721 L-26.203711479478724,-18.009015103359737 L-26.22652421617173,-18.113149879367022 L-26.254294245700468,-18.212988726392528 L-26.28695466763144,-18.30829112390893 L-26.324426800147506,-18.398827480093097 L-26.366620369599254,-18.48437968493294 L-26.413433727982152,-18.564741635673506 L-26.4647540978155,-18.63971973333659 L-26.52045784383323,-18.709133349117614 L-26.580410770832113,-18.772815259536245 L-26.644468446959753,-18.83061204929241 L-26.71247655166357,-18.882384480857183 L-26.78427124746251,-18.92800782990819 " />
			<path d="M-26.784271247462524,-18.928007829908196 L-26.859679574645924,-18.967372185801434 L-26.938519867948628,-19.000382716355663 L-27.020602194198478,-19.0269598963114 L-27.10572880988198,-19.04703969891424 L-27.193694637525734,-19.060573750160938 L-27.284287759746057,-19.067529445336593 L-27.377289929776495,-19.067890027562278 L-27.47247709724342,-19.06165462816383 L-27.569619947922988,-19.048838268764555 L-27.668484456179208,-19.029471825096834 L-27.76883244875218,-19.003601952619753 L-27.870422178538348,-18.971290974122045 L-27.973008906980454,-18.93261672958102 L-28.07634549366414,-18.887672388639242 L-28.180182991700867,-18.836566226150698 L-28.28427124746278,-18.779421361337192 L-28.38835950322469,-18.71637546118336 L-28.492197001261413,-18.647580408784847 L-28.595533587945088,-18.573201937448605 L-28.69812031638718,-18.493419231426877 L-28.79971004617333,-18.408424494246603 L-28.900058038746277,-18.318422485674315 L-28.998922547002472,-18.223630028431902 L-29.096065397682008,-18.124275485851705 L-29.191252565148897,-18.02059821172923 L-29.284254735179296,-17.91284797369889 L-29.374847857399576,-17.801284351521915 L-29.462813685043287,-17.68617611173594 L-29.547940300726736,-17.567800560172902 L-29.630022626976537,-17.446442873904992 L-29.708862920279184,-17.322395414228108 L-29.784271247462524,-17.195957022337886 L-29.856065943261378,-17.06743229939508 L-29.924074047965096,-16.9371308727147 L-29.98813172409264,-16.805366649846675 L-30.04808465109143,-16.672457062345078 L-30.103788397109067,-16.538722301047702 L-30.155108766942323,-16.404484544708296 L-30.20192212532514,-16.27006718383972 L-30.244115694776802,-16.13579404163788 L-30.281587827292785,-16.001988593863274 L-30.314248249223688,-15.868973189559567 L-30.342018278752356,-15.737068274486498 L-30.364831015445294,-15.606591619137985 L-30.38263150142165,-15.477857553205167 L-30.39537685375156,-15.351176208328647 L-30.403036367764912,-15.226852770964213 L-30.405591591021544,-15.10518674716192 L-30.403036367764827,-14.986471241029792 L-30.39537685375139,-14.87099224862035 L-30.38263150142139,-14.759027968941078 L-30.364831015444953,-14.650848133748635 L-30.34201827875193,-14.546713357741432 L-30.314248249223176,-14.446874510716 L-30.281587827292196,-14.351572113199675 L-30.24411569477613,-14.261035757015573 L-30.201922125324387,-14.175483552175796 L-30.155108766941495,-14.09512160143529 L-30.10378839710816,-14.020143503772262 L-30.048084651090452,-13.95072988799129 L-29.988131724091595,-13.887047977572703 L-29.92407404796398,-13.829251187816578 L-29.856065943260198,-13.777478756251835 L-29.784271247461287,-13.73185540720085 " />
			<path d="M-29.78427124746128,-13.731855407200847 L-29.728043989931756,-13.701739913572373 L-29.66986008707979,-13.675186226352034 L-29.60979839152396,-13.652230331915224 L-29.54794030072537,-13.632903340797657 L-29.484369646675347,-13.617231445533418 L-29.419172582283718,-13.605235885158033 L-29.352437464621733,-13.596932916424661 L-29.284254735177843,-13.592333791772456 L-29.21471679728861,-13.591444744076906 L-29.14391789091085,-13.594266978202853 L-29.07195396490474,-13.600796669371617 L-28.998922547000973,-13.61102496834446 L-28.924922611628155,-13.624938013415345 L-28.850054445779634,-13.642516949196747 L-28.774419513101442,-13.66373795217305 L-28.69812031638567,-13.688572262986924 L-28.6212602586555,-13.716986225414875 L-28.543943503030246,-13.74894133197921 L-28.466274831560288,-13.784394276134552 L-28.38835950322321,-13.823297010958203 L-28.31030311127358,-13.865596814264821 L-28.232211440139725,-13.911236360057144 L-28.15419032206141,-13.960153796215954 L-28.076345493662718,-14.012282828323972 L-27.99878245265453,-14.067552809510095 L-27.921606314860778,-14.125888836192216 L-27.84492167176222,-14.187211849588868 L-27.768832448750846,-14.251438742862117 L-27.693441764287016,-14.318482473746515 L-27.618851790150096,-14.38825218251146 L-27.545163612972146,-14.4606533150971 L-27.4724770972422,-14.535587751256909 L-27.400890749966806,-14.61295393753328 L-27.330501587170314,-14.692647024885893 L-27.26140500241578,-14.774559010786362 L-27.19369463752465,-14.858578885586592 L-27.127462255670476,-14.944592782962488 L-27.06279761701865,-15.032484134229094 L-26.999788357080647,-15.122133826318072 L-26.938519867947694,-15.213420363203404 L-26.87907518256475,-15.30622003055655 L-26.821534862201744,-15.400407063407918 L-26.7659768872744,-15.495853816587438 L-26.71247655166283,-15.592430937713212 L-26.661106360670907,-15.690007542493868 L-26.61193593276486,-15.788451392106976 L-26.565031905224185,-15.887629072413173 L-26.52045784383274,-15.987406174763123 L-26.478274156732446,-16.087647478152263 L-26.4385380125563,-16.188217132476474 L-26.401303262951686,-16.288978842640326 L-26.36662036959897,-16.3897960532684 L-26.33453633582426,-16.490532133769328 L-26.30509464289907,-16.5910505635018 L-26.27833519111314,-16.69121511679153 L-26.25429424570034,-16.790890047548498 L-26.233004387690922,-16.889940273234235 L-26.214494469756676,-16.988231557929836 L-26.198789577108933,-17.08563069425662 L-26.185910993502276,-17.18200568390287 L-26.175876172390176,-17.277225916512023 L-26.168698713271507,-17.37116234668985 L-26.164388343260104,-17.46368766889074 L-26.16295090390226,-17.55467648994609 " />
			<path d="M-26.031140370670148,5.383328622873809 L-21.213203435596427,8.164965809277263 " />
			<path d="M-8.353470841006459,-4.822878638722768 L-26.031140370670148,5.38332862287381 " />
			<path d="M-8.353470841006459,-4.822878638722769 L-1.5754927246468484e-30,3.662713109228363e-30 " />
			<path d="M-35.35533905932738,20.412414523193156 L-1.3373506282379492e-15,-4.898764197839482e-16 " />
			<path d="M-5.548581791050149e-16,-40.82482904638631 L-7.611056799353565e-31,0.0 " />
			<path d="M-22.627416997969522,-15.513435037626797 L-22.628854437327366,-15.42244621657141 L-22.633164807338773,-15.329920894370503 L-22.64034226645744,-15.235984464192658 L-22.650377087569545,-15.140764231583487 L-22.663255671176206,-15.04438924193722 L-22.678960563823956,-14.94699010561042 L-22.69747048175821,-14.8486988209148 L-22.718760339767634,-14.749648595229043 L-22.74280128518044,-14.649973664472055 L-22.769560736966383,-14.549809111182308 L-22.799002429891583,-14.44929068144982 L-22.831086463666303,-14.348554600948875 L-22.86576935701903,-14.247737390320784 L-22.903004106623655,-14.146975680156913 L-22.942740250799815,-14.046406025832683 L-22.984923937900124,-13.946164722443527 L-23.029497999291582,-13.84638762009356 L-23.076402026832273,-13.74720993978735 L-23.125572454738336,-13.648766090174227 L-23.17694264573028,-13.551189485393556 L-23.230442981341866,-13.454612364267765 L-23.286000956269227,-13.359165611088237 L-23.34354127663225,-13.264978578236857 L-23.402985962015208,-13.172178910883702 L-23.464254451148182,-13.08089237399836 L-23.527263711086203,-12.991242681909375 L-23.591928349738048,-12.903351330642762 L-23.658160731592243,-12.817337433266859 L-23.725871096483395,-12.733317558466624 L-23.794967681237946,-12.651405572566151 L-23.86535684403445,-12.571712485213538 L-23.93694319130987,-12.494346298937167 L-24.009629707039835,-12.419411862777357 L-24.0833178842178,-12.347010730191721 L-24.157907858354736,-12.27724102142678 L-24.233298542818588,-12.210197290542386 L-24.309387765829978,-12.145970397269144 L-24.386072408928555,-12.0846473838725 L-24.463248546722323,-12.02631135719039 L-24.540811587730524,-11.97104137600428 L-24.61865641612923,-11.918912343896274 L-24.696677534207563,-11.86999490773748 L-24.774769205341432,-11.824355361945173 L-24.852825597291073,-11.782055558638573 L-24.930740925628164,-11.743152823814942 L-25.008409597098133,-11.707699879659621 L-25.0857263527234,-11.67574477309531 L-25.162586410453578,-11.647330810667384 L-25.238885607169358,-11.622496499853536 L-25.314520539847553,-11.60127549687726 L-25.389388705696085,-11.58369656109589 L-25.463388641068907,-11.569783516025034 L-25.536420058972677,-11.559555217052223 L-25.60838398497879,-11.553025525883491 L-25.679182891356554,-11.550203291757581 L-25.748720829245784,-11.551092339453167 L-25.81690355868967,-11.55569146410541 L-25.88363867635165,-11.56399443283882 L-25.948835740743277,-11.575989993214247 L-26.01240639479329,-11.591661888478525 L-26.074264485591875,-11.610988879596134 L-26.1343261811477,-11.633944774032988 L-26.19251008399965,-11.660498461253372 L-26.24873734152915,-11.690613954881883 " />
			<path d="M-26.248737341529164,-11.69061395488189 L-26.32053203732805,-11.736237303932931 L-26.3885401420318,-11.788009735497724 L-26.45259781815938,-11.845806525253899 L-26.5125507451582,-11.909488435672536 L-26.568254491175875,-11.978902051453556 L-26.61957486100917,-12.05388014911663 L-26.666388219392026,-12.13424209985718 L-26.70858178884373,-12.219794304697 L-26.746053921359753,-12.310330660881142 L-26.778714343290694,-12.405633058397507 L-26.806484372819405,-12.505471905422976 L-26.829297109512385,-12.609606681430215 L-26.847097595488783,-12.717786516622692 L-26.859842947818738,-12.829750796301994 L-26.86750246183213,-12.945229788711462 L-26.870057685088806,-13.063945294843617 L-26.86750246183213,-13.185611318645934 L-26.859842947818738,-13.30993475601039 L-26.847097595488783,-13.436616100886926 L-26.829297109512385,-13.56535016681976 L-26.806484372819405,-13.695826822168288 L-26.778714343290694,-13.827731737241368 L-26.746053921359753,-13.960747141545085 L-26.70858178884373,-14.094552589319695 L-26.666388219392026,-14.228825731521539 L-26.61957486100917,-14.363243092390114 L-26.56825449117588,-14.497480848729516 L-26.512550745158205,-14.631215610026885 L-26.45259781815938,-14.764125197528475 L-26.3885401420318,-14.89588942039649 L-26.32053203732805,-15.026190847076856 L-26.248737341529164,-15.154715570019643 L-26.173329014345796,-15.28115396190985 L-26.09448872104312,-15.405201421586712 L-26.012406394793295,-15.526559107854597 L-25.927279779109817,-15.644934659417608 L-25.839313951466085,-15.760042899203555 L-25.748720829245784,-15.871606521380501 L-25.655718659215367,-15.979356759410805 L-25.56053149174846,-16.083034033533245 L-25.463388641068907,-16.182388576113404 L-25.3645241328127,-16.277181033355777 L-25.26417614023974,-16.367183041928026 L-25.162586410453578,-16.452177779108254 L-25.059999682011483,-16.53196048512994 L-24.9566630953278,-16.606338956466132 L-24.852825597291076,-16.675134008864603 L-24.748737341529164,-16.738179909018385 L-24.644649085767256,-16.795324773831837 L-24.540811587730527,-16.84643093632033 L-24.43747500104685,-16.891375277262057 L-24.33488827260475,-16.930049521803028 L-24.23329854281859,-16.962360500300683 L-24.13295055024563,-16.988230372777707 L-24.034086041989422,-17.00759681644538 L-23.93694319130987,-17.020413175844595 L-23.841756023842965,-17.026648575242987 L-23.748753853812545,-17.026287993017245 L-23.658160731592243,-17.019332297841537 L-23.57019490394851,-17.005798246594786 L-23.485068288265037,-16.985718443991885 L-23.40298596201521,-16.9591412640361 L-23.324145668712536,-16.926130733481813 L-23.24873734152917,-16.886766377588526 " />
			<path d="M-23.248737341529164,-16.886766377588522 L-23.17694264573028,-16.84114302853748 L-23.108934541026528,-16.789370596972688 L-23.044876864898953,-16.731573807216513 L-22.984923937900128,-16.66789189679788 L-22.929220191882454,-16.59847828101686 L-22.87789982204916,-16.523500183353782 L-22.831086463666303,-16.44313823261323 L-22.788892894214598,-16.35758602777341 L-22.751420761698576,-16.267049671589273 L-22.718760339767634,-16.171747274072906 L-22.690990310238924,-16.071908427047436 L-22.668177573545943,-15.967773651040199 L-22.650377087569545,-15.859593815847722 L-22.63763173523959,-15.74762953616842 L-22.629972221226197,-15.632150543758952 L-22.627416997969522,-15.513435037626808 " />
			<path d="M-8.353470841006457,-25.235293161915923 L-3.535533905932738,-22.45365597551247 " />
			<path d="M-8.353470841006457,-4.822878638722767 L-8.353470841006457,-25.23529316191592 " />
			<path d="M-21.213203435596427,-12.24744871391589 L-26.031140370670148,-15.029085900319343 " />
			<path d="M-26.031140370670148,5.38332862287381 L-26.031140370670148,-15.029085900319343 " />
			<path d="M-26.031140370670148,-15.029085900319341 L-8.353470841006459,-25.23529316191592 " />
			<path d="M-31.81980515339464,2.0412414523193165 L-26.031140370670148,5.383328622873809 " />
			<path d="M-14.14213562373095,-8.16496580927726 L-8.353470841006459,-4.822878638722769 " />
			<path d="M-8.353470841006459,-4.822878638722768 L-26.031140370670148,5.38332862287381 " />
			<path d="M-26.031140370670148,25.795743146066968 L-26.031140370670148,5.38332862287381 " />
			<path d="M-8.353470841006457,15.589535884470385 L-8.353470841006457,-4.822878638722769 " />
			<path d="M-38.890872965260115,18.37117307087384 L-35.35533905932738,20.412414523193156 " />
			<path d="M-35.35533905932738,20.412414523193156 L-35.35533905932738,61.23724356957946 " />
			<path d="M-31.81980515339464,14.28869016623521 L-21.213203435596427,8.164965809277263 " />
			<path d="M-26.031140370670148,5.383328622873809 L-21.213203435596427,8.164965809277263 " />
			<path d="M-8.353470841006459,-4.822878638722768 L-26.031140370670148,5.38332862287381 " />
			<path d="M-8.353470841006459,-4.822878638722769 L-1.5754927246468484e-30,3.662713109228363e-30 " />
			<path d="M-35.35533905932738,20.412414523193156 L-1.3373506282379492e-15,-4.898764197839482e-16 " />
			<path d="M-21.213203435596427,8.164965809277263 L-21.213203435596427,28.577380332470415 " />
			<path d="M-7.611056799353565e-31,0.0 L5.548581791050132e-16,40.8248290463863 " />
			<path d="M-22.627416997969522,41.64132562731403 L-22.628854437327366,41.73231444836942 L-22.633164807338773,41.82483977057033 L-22.64034226645744,41.91877620074817 L-22.650377087569545,42.01399643335734 L-22.663255671176206,42.11037142300361 L-22.678960563823956,42.20777055933041 L-22.69747048175821,42.30606184402603 L-22.718760339767634,42.405112069711784 L-22.74280128518044,42.504787000468774 L-22.769560736966383,42.604951553758525 L-22.799002429891583,42.705469983491014 L-22.831086463666303,42.80620606399196 L-22.86576935701903,42.907023274620045 L-22.903004106623655,43.00778498478392 L-22.942740250799815,43.10835463910815 L-22.984923937900124,43.208595942497304 L-23.029497999291582,43.30837304484727 L-23.076402026832273,43.407550725153484 L-23.125572454738336,43.5059945747666 L-23.17694264573028,43.603571179547274 L-23.230442981341866,43.700148300673064 L-23.286000956269227,43.795595053852594 L-23.34354127663225,43.889782086703974 L-23.402985962015208,43.98258175405713 L-23.464254451148182,44.07386829094247 L-23.527263711086203,44.163517983031454 L-23.591928349738048,44.25140933429807 L-23.658160731592243,44.337423231673974 L-23.725871096483395,44.42144310647421 L-23.794967681237946,44.503355092374676 L-23.86535684403445,44.58304817972729 L-23.93694319130987,44.660414366003664 L-24.009629707039835,44.73534880216347 L-24.0833178842178,44.80774993474911 L-24.157907858354736,44.87751964351405 L-24.233298542818588,44.94456337439844 L-24.309387765829978,45.008790267671685 L-24.386072408928555,45.07011328106833 L-24.463248546722323,45.128449307750444 L-24.540811587730524,45.18371928893655 L-24.61865641612923,45.23584832104456 L-24.696677534207563,45.28476575720335 L-24.774769205341432,45.33040530299566 L-24.852825597291073,45.372705106302256 L-24.930740925628164,45.411607841125885 L-25.008409597098133,45.44706078528121 L-25.0857263527234,45.47901589184552 L-25.162586410453578,45.50742985427345 L-25.238885607169358,45.5322641650873 L-25.314520539847553,45.553485168063574 L-25.389388705696085,45.57106410384494 L-25.463388641068907,45.5849771489158 L-25.536420058972677,45.59520544788861 L-25.60838398497879,45.60173513905734 L-25.679182891356554,45.60455737318325 L-25.748720829245784,45.60366832548766 L-25.81690355868967,45.59906920083542 L-25.88363867635165,45.59076623210201 L-25.948835740743277,45.57877067172658 L-26.01240639479329,45.563098776462304 L-26.074264485591875,45.543771785344696 L-26.1343261811477,45.52081589090784 L-26.19251008399965,45.49426220368746 L-26.24873734152915,45.46414671005895 " />
			<path d="M-26.248737341529164,45.46414671005894 L-26.32053203732805,45.4185233610079 L-26.3885401420318,45.36675092944311 L-26.45259781815938,45.30895413968693 L-26.5125507451582,45.245272229268295 L-26.568254491175875,45.17585861348728 L-26.61957486100917,45.1008805158242 L-26.666388219392026,45.02051856508365 L-26.70858178884373,44.93496636024383 L-26.746053921359753,44.84443000405969 L-26.778714343290694,44.749127606543325 L-26.806484372819405,44.64928875951785 L-26.829297109512385,44.545153983510616 L-26.847097595488783,44.43697414831814 L-26.859842947818738,44.32500986863884 L-26.86750246183213,44.209530876229366 L-26.870057685088806,44.09081537009722 L-26.86750246183213,43.9691493462949 L-26.859842947818738,43.84482590893044 L-26.847097595488783,43.7181445640539 L-26.829297109512385,43.58941049812107 L-26.806484372819405,43.458933842772545 L-26.778714343290694,43.327028927699466 L-26.746053921359753,43.194013523395746 L-26.70858178884373,43.060208075621134 L-26.666388219392026,42.92593493341929 L-26.61957486100917,42.79151757255072 L-26.56825449117588,42.657279816211314 L-26.512550745158205,42.523545054913946 L-26.45259781815938,42.39063546741235 L-26.3885401420318,42.25887124454434 L-26.32053203732805,42.128569817863976 L-26.248737341529164,42.000045094921184 L-26.173329014345796,41.87360670303098 L-26.09448872104312,41.74955924335412 L-26.012406394793295,41.628201557086236 L-25.927279779109817,41.50982600552322 L-25.839313951466085,41.394717765737276 L-25.748720829245784,41.28315414356033 L-25.655718659215367,41.175403905530025 L-25.56053149174846,41.071726631407586 L-25.463388641068907,40.97237208882743 L-25.3645241328127,40.87757963158506 L-25.26417614023974,40.78757762301281 L-25.162586410453578,40.70258288583258 L-25.059999682011483,40.622800179810895 L-24.9566630953278,40.5484217084747 L-24.852825597291076,40.47962665607623 L-24.748737341529164,40.416580755922446 L-24.644649085767256,40.359435891108994 L-24.540811587730527,40.3083297286205 L-24.43747500104685,40.263385387678774 L-24.33488827260475,40.2247111431378 L-24.23329854281859,40.19240016464015 L-24.13295055024563,40.166530292163124 L-24.034086041989422,40.14716384849545 L-23.93694319130987,40.134347489096236 L-23.841756023842965,40.128112089697844 L-23.748753853812545,40.12847267192359 L-23.658160731592243,40.135428367099294 L-23.57019490394851,40.148962418346045 L-23.485068288265037,40.169042220948945 L-23.40298596201521,40.19561940090473 L-23.324145668712536,40.22862993145902 L-23.24873734152917,40.2679942873523 " />
			<path d="M-23.248737341529164,40.26799428735231 L-23.17694264573028,40.31361763640335 L-23.108934541026528,40.36539006796814 L-23.044876864898953,40.42318685772432 L-22.984923937900128,40.486868768142955 L-22.929220191882454,40.55628238392397 L-22.87789982204916,40.63126048158705 L-22.831086463666303,40.7116224323276 L-22.788892894214598,40.797174637167416 L-22.751420761698576,40.88771099335156 L-22.718760339767634,40.983013390867924 L-22.690990310238924,41.08285223789339 L-22.668177573545943,41.186987013900634 L-22.650377087569545,41.29516684909311 L-22.63763173523959,41.40713112877241 L-22.629972221226197,41.52261012118188 L-22.627416997969522,41.641325627314025 " />
			<path d="M-26.031140370670148,25.795743146066968 L-26.031140370670148,5.38332862287381 " />
			<path d="M-8.353470841006457,15.589535884470385 L-8.353470841006457,-4.822878638722769 " />
			<path d="M22.713203435596434,-47.50538816237826 L26.248737341529168,-45.46414671005895 " />
			<path d="M19.71320343559642,-42.30923573967163 L23.248737341529154,-40.267994287352316 " />
			<path d="M22.713203435596434,9.64937250256257 L26.248737341529168,11.690613954881883 " />
			<path d="M19.71320343559642,14.84552492526921 L23.248737341529154,16.886766377588522 " />
			<path d="M-26.784271247461902,-18.928007829907845 L-23.248737341529168,-16.886766377588533 " />
			<path d="M-29.784271247461906,-13.731855407201206 L-26.24873734152917,-11.690613954881893 " />
			<path d="M-26.784271247461902,38.226752835033 L-23.248737341529168,40.26799428735231 " />
			<path d="M-29.784271247461906,43.42290525773963 L-26.24873734152917,45.46414671005894 " />

       </g>

       <!-- solid lines -->
       <g  stroke="rgb(56,189,248)" fill="none">
			<path d="M-14.142135623730951,-28.577380332470415 L-14.142135623730951,-8.164965809277263 " />
			<path d="M9.324198688657226,-35.4415004235125 L3.5355339059327378,-38.78358759406699 " />
			<path d="M-14.142135623730951,-28.577380332470415 L3.5355339059327378,-38.783587594066994 " />
			<path d="M-14.142135623730953,-8.164965809277263 L3.535533905932738,-18.37117307087384 " />
			<path d="M3.5355339059327373,-38.783587594066994 L3.5355339059327378,-18.37117307087384 " />
			<path d="M3.535533905932739,-18.37117307087384 L9.324198688657226,-15.02908590031935 " />
			<path d="M9.324198688657226,-15.029085900319348 L9.324198688657226,-35.4415004235125 " />
			<path d="M35.35533905932738,-61.23724356957946 L31.81980515339464,-63.27848502189878 " />
			<path d="M-3.5355339059327378,-42.866070498705625 L31.81980515339464,-63.27848502189878 " />
			<path d="M35.35533905932738,-61.23724356957946 L35.35533905932738,-20.412414523193156 " />
			<path d="M31.81980515339464,-63.278485021898774 L31.81980515339464,-22.45365597551247 " />
			<path d="M31.819805153394643,-22.453655975512472 L35.35533905932738,-20.412414523193156 " />
			<path d="M-3.5355339059327386,-42.866070498705625 L-3.535533905932738,-34.70110468942836 " />
			<path d="M14.142135623730951,-32.65986323710904 L14.142135623730951,-12.24744871391589 " />
			<path d="M14.142135623730953,-12.247448713915897 L31.81980515339464,-22.453655975512472 " />
			<path d="M23.33452377915607,-46.13205682241652 L23.33196855589939,-46.25077232854874 L23.32430904188599,-46.36625132095827 L23.31156368955602,-46.478215600637625 L23.293763203579605,-46.58639543583015 L23.2709504668866,-46.690530211837434 L23.24318043735786,-46.79036905886294 L23.210520015426887,-46.88567145637934 L23.173047882910822,-46.976207812563516 L23.130854313459075,-47.06176001740336 L23.084040955076176,-47.142121968143925 L23.032720585242828,-47.21710006580701 L22.977016839225097,-47.286513681588026 L22.917063912226215,-47.350195592006656 L22.853006236098576,-47.407992381762824 L22.784998131394758,-47.459764813327595 L22.71320343559582,-47.5053881623786 " />
			<path d="M22.713203435595805,-47.50538816237861 L22.637795108412405,-47.54475251827185 L22.5589548151097,-47.57776304882608 L22.47687248885985,-47.604340228781815 L22.391745873176347,-47.62442003138466 L22.303780045532594,-47.63795408263135 L22.21318692331227,-47.64490977780701 L22.120184753281833,-47.64527036003269 L22.02499758581491,-47.63903496063425 L21.92785473513534,-47.626218601234974 L21.82899022687912,-47.606852157567246 L21.72864223430615,-47.580982285090165 L21.62705250451998,-47.54867130659246 L21.524465776077875,-47.50999706205144 L21.42112918939419,-47.46505272110966 L21.31729169135746,-47.41394655862111 L21.21320343559555,-47.35680169380761 L21.109115179833637,-47.29375579365378 L21.005277681796915,-47.22496074125526 L20.90194109511324,-47.15058226991902 L20.79935436667115,-47.07079956389729 L20.697764636884997,-46.985804826717015 L20.59741664431205,-46.89580281814473 L20.498552136055856,-46.80101036090232 L20.40140928537632,-46.70165581832212 L20.30622211790943,-46.59797854419965 L20.213219947879033,-46.49022830616931 L20.122626825658752,-46.37866468399233 L20.034660998015042,-46.26355644420636 L19.949534382331592,-46.14518089264332 L19.86745205608179,-46.02382320637541 L19.788611762779144,-45.89977574669852 L19.713203435595805,-45.7733373548083 L19.64140873979695,-45.6448126318655 L19.573400635093233,-45.514511205185116 L19.50934295896569,-45.382746982317094 L19.4493900319669,-45.24983739481549 L19.39368628594926,-45.11610263351812 L19.342365916116005,-44.981864877178715 L19.29555255773319,-44.84744751631014 L19.253358988281526,-44.7131743741083 L19.215886855765543,-44.57936892633369 L19.18322643383464,-44.44635352202998 L19.155456404305973,-44.314448606956915 L19.132643667613035,-44.1839719516084 L19.11484318163668,-44.05523788567558 L19.102097829306768,-43.928556540799065 L19.094438315293417,-43.804233103434626 L19.091883092036785,-43.682567079632335 L19.0944383152935,-43.56385157350021 L19.10209782930694,-43.448372581090766 L19.11484318163694,-43.336408301411495 L19.132643667613376,-43.22822846621905 L19.1554564043064,-43.12409369021184 L19.183226433835152,-43.02425484318641 L19.215886855766133,-42.92895244567009 L19.253358988282198,-42.83841608948599 L19.29555255773394,-42.75286388464621 L19.342365916116833,-42.67250193390571 L19.393686285950167,-42.59752383624268 L19.449390031967877,-42.528110220461706 L19.509342958966734,-42.46442831004312 L19.573400635094348,-42.40663152028699 L19.64140873979813,-42.35485908872225 L19.71320343559704,-42.309235739671266 " />
			<path d="M19.71320343559705,-42.309235739671266 L19.769430693126573,-42.27912024604279 L19.827614595978538,-42.25256655882245 L19.88767629153437,-42.22961066438564 L19.94953438233296,-42.21028367326807 L20.01310503638298,-42.19461177800383 L20.07830210077461,-42.18261621762845 L20.145037218436595,-42.174313248895075 L20.213219947880486,-42.16971412424287 L20.28275788576972,-42.16882507654732 L20.35355679214748,-42.171647310673265 L20.42552071815359,-42.17817700184203 L20.498552136057356,-42.18840530081488 L20.572552071430174,-42.20231834588576 L20.647420237278695,-42.21989728166716 L20.723055169956886,-42.24111828464346 L20.79935436667266,-42.265952595457335 L20.87621442440283,-42.29436655788529 L20.953531180028083,-42.32632166444962 L21.03119985149804,-42.36177460860497 L21.10911517983512,-42.40067734342862 L21.18717157178475,-42.44297714673524 L21.265263242918603,-42.48861669252756 L21.34328436099692,-42.53753412868637 L21.42112918939561,-42.58966316079439 L21.498692230403798,-42.64493314198051 L21.57586836819755,-42.70326916866263 L21.65255301129611,-42.76459218205928 L21.728642234307483,-42.82881907533253 L21.804032918771313,-42.89586280621693 L21.878622892908233,-42.96563251498188 L21.952311070086182,-43.03803364756752 L22.024997585816127,-43.112968083727324 L22.096583933091523,-43.190334270003696 L22.166973095888014,-43.27002735735631 L22.236069680642547,-43.351939343256774 L22.303780045533678,-43.43595921805701 L22.370012427387852,-43.52197311543291 L22.43467706603968,-43.60986446669951 L22.497686325977682,-43.69951415878849 L22.558954815110635,-43.790800695673816 L22.618399500493577,-43.883600363026964 L22.675939820856584,-43.97778739587834 L22.731497795783927,-44.07323414905785 L22.784998131395497,-44.16981127018363 L22.836368322387422,-44.267387874964285 L22.885538750293467,-44.36583172457739 L22.932442777834144,-44.46500940488359 L22.977016839225588,-44.56478650723354 L23.019200526325882,-44.66502781062268 L23.058936670502028,-44.76559746494689 L23.096171420106643,-44.866359175110745 L23.13085431345936,-44.96717638573882 L23.162938347234068,-45.06791246623975 L23.192380040159257,-45.168430895972215 L23.21913949194519,-45.268595449261944 L23.24318043735799,-45.36827038001891 L23.264470295367406,-45.46732060570465 L23.282980213301652,-45.56561189040025 L23.298685105949396,-45.663011026727034 L23.311563689556053,-45.759386016373284 L23.321598510668153,-45.854606248982435 L23.32877596978682,-45.94854267916026 L23.333086339798225,-46.041068001361154 L23.33452377915607,-46.1320568224165 " />
			<path d="M9.324198688657226,-15.02908590031935 L14.142135623730951,-12.247448713915894 " />
			<path d="M14.142135623730951,-32.65986323710904 L9.324198688657226,-35.4415004235125 " />
			<path d="M9.324198688657226,-15.029085900319348 L9.324198688657226,-35.4415004235125 " />
			<path d="M-14.142135623730951,-8.164965809277263 L-14.142135623730951,12.24744871391589 " />
			<path d="M-14.142135623730951,12.24744871391589 L-8.353470841006462,15.589535884470381 " />
			<path d="M-14.142135623730951,12.24744871391589 L3.5355339059327378,2.041241452319311 " />
			<path d="M3.5355339059327378,-18.37117307087384 L3.5355339059327378,2.041241452319312 " />
			<path d="M-14.142135623730953,-8.164965809277263 L3.535533905932738,-18.37117307087384 " />
			<path d="M-8.353470841006462,15.589535884470381 L9.324198688657226,5.383328622873803 " />
			<path d="M9.324198688657226,5.383328622873803 L3.5355339059327378,2.0412414523193125 " />
			<path d="M9.324198688657226,5.383328622873808 L9.324198688657226,-15.029085900319348 " />
			<path d="M3.535533905932739,-18.37117307087384 L9.324198688657226,-15.02908590031935 " />
			<path d="M1.811390270448945e-16,40.824829046386306 L35.35533905932738,20.412414523193146 " />
			<path d="M35.35533905932738,-20.412414523193156 L35.35533905932738,20.41241452319315 " />
			<path d="M-8.353470841006462,15.589535884470381 L-3.5355339059327378,18.371173070873837 " />
			<path d="M-3.5355339059327378,18.371173070873837 L-3.5355339059327373,38.78358759406699 " />
			<path d="M-3.5355339059327378,38.78358759406699 L5.548581791050136e-16,40.824829046386306 " />
			<path d="M35.35533905932738,20.41241452319315 L31.81980515339464,18.371173070873834 " />
			<path d="M-3.5355339059327378,38.783587594066994 L31.81980515339464,18.371173070873834 " />
			<path d="M31.819805153394643,-22.453655975512472 L35.35533905932738,-20.412414523193156 " />
			<path d="M31.81980515339464,-22.45365597551247 L31.81980515339464,18.371173070873837 " />
			<path d="M9.324198688657226,-15.02908590031935 L14.142135623730951,-12.247448713915894 " />
			<path d="M14.142135623730953,-12.247448713915897 L31.81980515339464,-22.453655975512472 " />
			<path d="M23.33452377915607,11.022703842524301 L23.33196855589939,10.903988336392086 L23.32430904188599,10.788509343982557 L23.31156368955602,10.676545064303202 L23.293763203579605,10.568365229110675 L23.2709504668866,10.46423045310339 L23.24318043735786,10.364391606077882 L23.210520015426887,10.269089208561484 L23.173047882910822,10.178552852377313 L23.130854313459075,10.093000647537473 L23.084040955076176,10.012638696796905 L23.032720585242828,9.937660599133821 L22.977016839225097,9.868246983352797 L22.917063912226215,9.804565072934167 L22.853006236098576,9.746768283178003 L22.784998131394758,9.694995851613228 L22.71320343559582,9.649372502562223 " />
			<path d="M22.713203435595805,9.649372502562215 L22.637795108412405,9.610008146668978 L22.5589548151097,9.576997616114749 L22.47687248885985,9.550420436159012 L22.391745873176347,9.53034063355617 L22.303780045532594,9.516806582309474 L22.21318692331227,9.50985088713382 L22.120184753281833,9.509490304908136 L22.02499758581491,9.515725704306583 L21.92785473513534,9.528542063705855 L21.82899022687912,9.54790850737358 L21.72864223430615,9.57377837985066 L21.62705250451998,9.606089358348367 L21.524465776077875,9.644763602889391 L21.42112918939419,9.68970794383117 L21.31729169135746,9.740814106319714 L21.21320343559555,9.79795897113322 L21.109115179833637,9.861004871287049 L21.005277681796915,9.929799923685566 L20.90194109511324,10.004178395021807 L20.79935436667115,10.083961101043535 L20.697764636884997,10.168955838223809 L20.59741664431205,10.258957846796099 L20.498552136055856,10.35375030403851 L20.40140928537632,10.453104846618706 L20.30622211790943,10.55678212074118 L20.213219947879033,10.664532358771519 L20.122626825658752,10.776095980948497 L20.034660998015042,10.891204220734473 L19.949534382331592,11.00957977229751 L19.86745205608179,11.130937458565418 L19.788611762779144,11.254984918242302 L19.713203435595805,11.381423310132528 L19.64140873979695,11.509948033075332 L19.573400635093233,11.640249459755712 L19.50934295896569,11.772013682623736 L19.4493900319669,11.904923270125334 L19.39368628594926,12.03865803142271 L19.342365916116005,12.172895787762114 L19.29555255773319,12.307313148630689 L19.253358988281526,12.44158629083253 L19.215886855765543,12.575391738607138 L19.18322643383464,12.708407142910845 L19.155456404305973,12.840312057983914 L19.132643667613035,12.970788713332427 L19.11484318163668,13.099522779265245 L19.102097829306768,13.226204124141764 L19.094438315293417,13.3505275615062 L19.091883092036785,13.472193585308492 L19.0944383152935,13.59090909144062 L19.10209782930694,13.706388083850062 L19.11484318163694,13.818352363529334 L19.132643667613376,13.926532198721777 L19.1554564043064,14.03066697472898 L19.183226433835152,14.130505821754411 L19.215886855766133,14.225808219270737 L19.253358988282198,14.316344575454838 L19.29555255773394,14.401896780294615 L19.342365916116833,14.482258731035122 L19.393686285950167,14.55723682869815 L19.449390031967877,14.626650444479122 L19.509342958966734,14.69033235489771 L19.573400635094348,14.748129144653834 L19.64140873979813,14.799901576218577 L19.71320343559704,14.845524925269562 " />
			<path d="M19.71320343559705,14.845524925269565 L19.769430693126573,14.875640418898039 L19.827614595978538,14.902194106118378 L19.88767629153437,14.925150000555188 L19.94953438233296,14.944476991672754 L20.01310503638298,14.960148886936993 L20.07830210077461,14.97214444731238 L20.145037218436595,14.98044741604575 L20.213219947880486,14.985046540697956 L20.28275788576972,14.985935588393506 L20.35355679214748,14.983113354267559 L20.42552071815359,14.976583663098795 L20.498552136057356,14.966355364125953 L20.572552071430174,14.952442319055066 L20.647420237278695,14.934863383273665 L20.723055169956886,14.913642380297361 L20.79935436667266,14.888808069483488 L20.87621442440283,14.860394107055537 L20.953531180028083,14.828439000491201 L21.03119985149804,14.79298605633586 L21.10911517983512,14.754083321512208 L21.18717157178475,14.711783518205591 L21.265263242918603,14.666143972413268 L21.34328436099692,14.617226536254458 L21.42112918939561,14.56509750414644 L21.498692230403798,14.509827522960316 L21.57586836819755,14.451491496278196 L21.65255301129611,14.390168482881544 L21.728642234307483,14.325941589608295 L21.804032918771313,14.258897858723897 L21.878622892908233,14.189128149958952 L21.952311070086182,14.116727017373313 L22.024997585816127,14.041792581213503 L22.096583933091523,13.964426394937131 L22.166973095888014,13.884733307584519 L22.236069680642547,13.80282132168405 L22.303780045533678,13.71880144688382 L22.370012427387852,13.632787549507924 L22.43467706603968,13.544896198241318 L22.497686325977682,13.45524650615234 L22.558954815110635,13.363959969267007 L22.618399500493577,13.271160301913861 L22.675939820856584,13.176973269062493 L22.731497795783927,13.081526515882974 L22.784998131395497,12.9849493947572 L22.836368322387422,12.887372789976544 L22.885538750293467,12.788928940363435 L22.932442777834144,12.689751260057239 L22.977016839225588,12.589974157707289 L23.019200526325882,12.489732854318147 L23.058936670502028,12.389163199993938 L23.096171420106643,12.288401489830084 L23.13085431345936,12.187584279202012 L23.162938347234068,12.086848198701082 L23.192380040159257,11.986329768968613 L23.21913949194519,11.886165215678883 L23.24318043735799,11.786490284921914 L23.264470295367406,11.687440059236177 L23.282980213301652,11.589148774540577 L23.298685105949396,11.491749638213793 L23.311563689556053,11.395374648567543 L23.321598510668153,11.300154415958389 L23.32877596978682,11.206217985780563 L23.333086339798225,11.113692663579673 L23.33452377915607,11.022703842524324 " />
			<path d="M-8.353470841006462,15.589535884470381 L9.324198688657226,5.383328622873803 " />
			<path d="M9.324198688657226,5.383328622873808 L9.324198688657226,-15.029085900319348 " />
			<path d="M-3.5355339059327378,18.371173070873837 L14.142135623730951,8.164965809277257 " />
			<path d="M14.142135623730951,8.164965809277259 L9.324198688657226,5.383328622873803 " />
			<path d="M14.142135623730951,-12.24744871391589 L14.142135623730951,8.164965809277263 " />
			<path d="M-31.819805153394643,2.041241452319318 L-14.142135623730953,-8.164965809277263 " />
			<path d="M-31.81980515339464,-18.371173070873837 L-31.81980515339464,2.0412414523193156 " />
			<path d="M-14.142135623730951,-28.577380332470415 L-14.142135623730951,-8.164965809277263 " />
			<path d="M-31.81980515339464,-18.371173070873837 L-14.142135623730951,-28.577380332470415 " />
			<path d="M-38.890872965260115,-22.453655975512465 L-38.890872965260115,18.37117307087384 " />
			<path d="M-38.890872965260115,-22.453655975512465 L-3.5355339059327378,-42.866070498705625 " />
			<path d="M-38.890872965260115,18.37117307087384 L-31.81980515339464,14.28869016623521 " />
			<path d="M-3.5355339059327386,-42.866070498705625 L-3.535533905932738,-34.70110468942836 " />
			<path d="M-31.819805153394643,2.041241452319318 L-14.142135623730953,-8.164965809277263 " />
			<path d="M-31.81980515339464,2.0412414523193156 L-31.81980515339464,22.45365597551247 " />
			<path d="M-26.031140370670148,25.79574314606696 L-31.81980515339464,22.45365597551247 " />
			<path d="M-31.81980515339464,22.45365597551247 L-14.142135623730951,12.24744871391589 " />
			<path d="M-14.142135623730951,-8.164965809277263 L-14.142135623730951,12.24744871391589 " />
			<path d="M-14.142135623730951,12.24744871391589 L-8.353470841006457,15.589535884470383 " />
			<path d="M-26.031140370670148,25.79574314606696 L-8.353470841006459,15.589535884470381 " />
			<path d="M-38.890872965260115,18.37117307087384 L-38.890872965260115,59.19600211726015 " />
			<path d="M-35.35533905932738,61.23724356957946 L-38.890872965260115,59.19600211726014 " />
			<path d="M-38.890872965260115,18.37117307087384 L-31.81980515339464,14.28869016623521 " />
			<path d="M-38.890872965260115,59.19600211726015 L-3.5355339059327378,38.783587594066994 " />
			<path d="M-3.5355339059327378,18.371173070873837 L-3.5355339059327373,38.78358759406699 " />
			<path d="M-21.213203435596427,28.577380332470415 L-3.5355339059327378,18.371173070873837 " />
			<path d="M-26.16295090390226,39.60008417499473 L-26.165506127158938,39.48136866886251 L-26.17316564117234,39.36588967645298 L-26.185910993502308,39.253925396773624 L-26.203711479478724,39.1457455615811 L-26.22652421617173,39.041610785573816 L-26.254294245700468,38.94177193854831 L-26.28695466763144,38.84646954103191 L-26.324426800147506,38.755933184847734 L-26.366620369599254,38.67038098000789 L-26.413433727982152,38.590019029267324 L-26.4647540978155,38.51504093160424 L-26.52045784383323,38.445627315823224 L-26.580410770832113,38.38194540540459 L-26.644468446959753,38.324148615648426 L-26.71247655166357,38.272376184083654 L-26.78427124746251,38.22675283503265 " />
			<path d="M-26.784271247462524,38.22675283503264 L-26.859679574645924,38.1873884791394 L-26.938519867948628,38.15437794858517 L-27.020602194198478,38.127800768629434 L-27.10572880988198,38.10772096602659 L-27.193694637525734,38.0941869147799 L-27.284287759746057,38.08723121960424 L-27.377289929776495,38.08687063737856 L-27.47247709724342,38.093106036777 L-27.569619947922988,38.105922396176275 L-27.668484456179208,38.125288839844 L-27.76883244875218,38.151158712321084 L-27.870422178538348,38.18346969081879 L-27.973008906980454,38.22214393535981 L-28.07634549366414,38.26708827630159 L-28.180182991700867,38.31819443879014 L-28.28427124746278,38.37533930360364 L-28.38835950322469,38.43838520375747 L-28.492197001261413,38.50718025615599 L-28.595533587945088,38.58155872749223 L-28.69812031638718,38.66134143351396 L-28.79971004617333,38.746336170694235 L-28.900058038746277,38.83633817926652 L-28.998922547002472,38.93113063650893 L-29.096065397682008,39.030485179089126 L-29.191252565148897,39.1341624532116 L-29.284254735179296,39.24191269124194 L-29.374847857399576,39.353476313418916 L-29.462813685043287,39.46858455320489 L-29.547940300726736,39.58696010476793 L-29.630022626976537,39.70831779103584 L-29.708862920279184,39.832365250712726 L-29.784271247462524,39.95880364260295 L-29.856065943261378,40.08732836554575 L-29.924074047965096,40.217629792226134 L-29.98813172409264,40.349394015094155 L-30.04808465109143,40.482303602595756 L-30.103788397109067,40.61603836389313 L-30.155108766942323,40.750276120232535 L-30.20192212532514,40.88469348110111 L-30.244115694776802,41.01896662330295 L-30.281587827292785,41.15277207107756 L-30.314248249223688,41.28578747538127 L-30.342018278752356,41.417692390454334 L-30.364831015445294,41.54816904580285 L-30.38263150142165,41.67690311173567 L-30.39537685375156,41.803584456612185 L-30.403036367764912,41.927907893976624 L-30.405591591021544,42.049573917778915 L-30.403036367764827,42.16828942391104 L-30.39537685375139,42.283768416320484 L-30.38263150142139,42.395732695999754 L-30.364831015444953,42.5039125311922 L-30.34201827875193,42.608047307199406 L-30.314248249223176,42.70788615422484 L-30.281587827292196,42.80318855174116 L-30.24411569477613,42.89372490792526 L-30.201922125324387,42.97927711276504 L-30.155108766941495,43.05963906350554 L-30.10378839710816,43.13461716116857 L-30.048084651090452,43.204030776949544 L-29.988131724091595,43.26771268736813 L-29.92407404796398,43.32550947712426 L-29.856065943260198,43.377281908689 L-29.784271247461287,43.422905257739984 " />
			<path d="M-29.78427124746128,43.422905257739984 L-29.728043989931756,43.45302075136846 L-29.66986008707979,43.4795744385888 L-29.60979839152396,43.50253033302561 L-29.54794030072537,43.52185732414318 L-29.484369646675347,43.53752921940742 L-29.419172582283718,43.5495247797828 L-29.352437464621733,43.557827748516175 L-29.284254735177843,43.56242687316838 L-29.21471679728861,43.56331592086393 L-29.14391789091085,43.560493686737985 L-29.07195396490474,43.55396399556922 L-28.998922547000973,43.54373569659637 L-28.924922611628155,43.52982265152549 L-28.850054445779634,43.51224371574409 L-28.774419513101442,43.49102271276779 L-28.69812031638567,43.466188401953914 L-28.6212602586555,43.43777443952596 L-28.543943503030246,43.40581933296163 L-28.466274831560288,43.37036638880628 L-28.38835950322321,43.33146365398263 L-28.31030311127358,43.28916385067601 L-28.232211440139725,43.24352430488369 L-28.15419032206141,43.19460686872488 L-28.076345493662718,43.14247783661686 L-27.99878245265453,43.08720785543074 L-27.921606314860778,43.02887182874862 L-27.84492167176222,42.96754881535197 L-27.768832448750846,42.90332192207872 L-27.693441764287016,42.83627819119432 L-27.618851790150096,42.76650848242937 L-27.545163612972146,42.69410734984373 L-27.4724770972422,42.619172913683926 L-27.400890749966806,42.541806727407554 L-27.330501587170314,42.46211364005494 L-27.26140500241578,42.380201654154476 L-27.19369463752465,42.29618177935424 L-27.127462255670476,42.21016788197834 L-27.06279761701865,42.12227653071174 L-26.999788357080647,42.03262683862276 L-26.938519867947694,41.94134030173743 L-26.87907518256475,41.848540634384285 L-26.821534862201744,41.75435360153291 L-26.7659768872744,41.658906848353396 L-26.71247655166283,41.56232972722762 L-26.661106360670907,41.464753122446965 L-26.61193593276486,41.36630927283386 L-26.565031905224185,41.26713159252766 L-26.52045784383274,41.16735449017771 L-26.478274156732446,41.06711318678857 L-26.4385380125563,40.96654353246436 L-26.401303262951686,40.865781822300505 L-26.36662036959897,40.76496461167243 L-26.33453633582426,40.6642285311715 L-26.30509464289907,40.563710101439035 L-26.27833519111314,40.463545548149305 L-26.25429424570034,40.36387061739234 L-26.233004387690922,40.2648203917066 L-26.214494469756676,40.166529107011 L-26.198789577108933,40.069129970684216 L-26.185910993502276,39.972754981037966 L-26.175876172390176,39.877534748428815 L-26.168698713271507,39.78359831825099 L-26.164388343260104,39.691072996050096 L-26.16295090390226,39.60008417499475 " />
			<path d="M-35.35533905932738,61.23724356957946 L1.811390270448945e-16,40.824829046386306 " />
			<path d="M-3.5355339059327378,38.78358759406699 L5.548581791050136e-16,40.824829046386306 " />
			<path d="M-21.213203435596427,28.577380332470415 L-26.031140370670148,25.79574314606696 " />
			<path d="M-26.031140370670148,25.79574314606696 L-8.353470841006459,15.589535884470381 " />
			<path d="M-8.353470841006457,15.589535884470383 L-3.5355339059327378,18.371173070873837 " />

       </g>
    </g>
    
</svg>
