<?xml version="1.0" encoding="UTF-8" standalone="no"?>
<svg
   xmlns:svg="http://www.w3.org/2000/svg"
   xmlns="http://www.w3.org/2000/svg"
   width="400.0"
   height="300.0"

>
    <g transform="scale(2.25, -2.25)   translate(52.22222222222222,-52.22222222222222)" stroke-width="0.5"  fill="none">
       <!-- hidden lines -->
       <g  stroke="rgb(160,160,160)" fill="none" stroke-dasharray="0.5,0.5" >
			<path d="M-2.7088590542428967e-30,8.368318453432565e-16 L-2.7088590542428967e-30,-25.0 " />
			<path d="M0.0,-25.0 L24.999999999999996,-25.0 " />
			<path d="M25.0,3.000166966725809e-30 L-7.55498151574979e-16,3.000166966725809e-30 " />
			<path d="M25.0,0.0 L25.0,-25.0 " />
			<path d="M0.0,-50.0 L50.0,-50.0 " />
			<path d="M-1.1311372438008733e-30,-50.0 L-1.1311372438008733e-30,0.0 " />
			<path d="M0.0,1.422445156283785e-30 L50.0,1.422445156283785e-30 " />
			<path d="M50.0,-50.0 L50.0,0.0 " />
			<path d="M38.0,-35.0 L37.99602226965449,-34.84556373568896 L37.984099626843765,-34.69153700858792 L37.964263688273235,-34.53832826988781 L37.936567055286076,-34.3863438016214 L37.90108317437396,-34.23598663927631 L37.85790614241015,-34.087655503017444 L37.80715045712148,-33.94174374035271 L37.748950713461014,-33.7986382830462 L37.683461246686385,-33.658718621044656 L37.61085572309047,-33.522355796138406 L37.53132667946956,-33.3899114180252 L37.445085012550436,-33.26173670538631 L37.352359419730135,-33.13817155451773 L37.25339579261156,-33.0195436379863 L37.14845656494318,-32.90616753570097 L37.03782001669188,-32.7983439007034 L36.921779536094526,-32.6963586618902 L36.80064284164511,-32.60048226578084 L36.6747311660806,-32.510968959342144 L36.544378404529496,-32.42805611577101 L36.40993022908196,-32.35196360502336 L36.27174317212958,-32.28289321075859 L36.13018368090555,-32.221028095245515 L35.98562714573251,-32.166532313649014 L35.83845690455483,-32.119550378985195 L35.68906322639538,-32.08020687889885 L35.53784227643221,-32.04860614527945 L35.38519506543965,-32.024831977591695 L35.23152638637994,-32.00894742065442 L35.07724374096497,-32.00099459745706 L34.92275625903503,-32.00099459745706 L34.76847361362006,-32.00894742065442 L34.61480493456035,-32.024831977591695 L34.46215772356779,-32.04860614527945 L34.31093677360461,-32.08020687889885 L34.16154309544517,-32.119550378985195 L34.01437285426749,-32.166532313649014 L33.86981631909444,-32.221028095245515 L33.72825682787042,-32.28289321075859 L33.590069770918035,-32.35196360502336 L33.455621595470504,-32.42805611577101 L33.3252688339194,-32.510968959342144 L33.19935715835489,-32.60048226578084 L33.078220463905474,-32.6963586618902 L32.96217998330812,-32.79834390070341 L32.85154343505682,-32.90616753570097 L32.74660420738844,-33.01954363798631 L32.647640580269865,-33.13817155451773 L32.554914987449564,-33.26173670538631 L32.46867332053044,-33.3899114180252 L32.38914427690953,-33.52235579613841 L32.31653875331361,-33.65871862104466 L32.251049286538986,-33.79863828304621 L32.19284954287852,-33.94174374035272 L32.14209385758985,-34.08765550301745 L32.098916825626034,-34.23598663927632 L32.063432944713924,-34.38634380162141 L32.035736311726765,-34.53832826988782 L32.015900373156235,-34.69153700858793 L32.00397773034551,-34.84556373568897 L32.0,-35.00000000000001 L32.00397773034551,-35.154436264311045 L32.015900373156235,-35.30846299141209 L32.03573631172677,-35.461671730112194 L32.06343294471393,-35.613656198378614 L32.09891682562604,-35.764013360723695 L32.142093857589856,-35.91234449698256 L32.19284954287852,-36.058256259647294 L32.251049286538986,-36.201361716953805 L32.316538753313615,-36.34128137895535 L32.38914427690954,-36.4776442038616 L32.46867332053045,-36.61008858197481 L32.55491498744957,-36.7382632946137 L32.64764058026987,-36.861828445482274 L32.746604207388444,-36.980456362013705 L32.851543435056826,-37.09383246429904 L32.96217998330813,-37.201656099296606 L33.07822046390548,-37.303641338109806 L33.1993571583549,-37.39951773421917 L33.32526883391941,-37.48903104065786 L33.45562159547051,-37.571943884229 L33.59006977091804,-37.64803639497664 L33.728256827870425,-37.71710678924141 L33.86981631909445,-37.778971904754485 L34.0143728542675,-37.833467686350986 L34.161543095445175,-37.880449621014805 L34.31093677360462,-37.91979312110115 L34.46215772356779,-37.95139385472055 L34.61480493456035,-37.975168022408305 L34.76847361362006,-37.99105257934558 L34.92275625903503,-37.99900540254294 L35.07724374096496,-37.99900540254294 L35.23152638637993,-37.99105257934558 L35.385195065439646,-37.975168022408305 L35.5378422764322,-37.95139385472055 L35.689063226395376,-37.91979312110115 L35.83845690455482,-37.880449621014805 L35.985627145732494,-37.833467686350986 L36.130183680905546,-37.77897190475449 L36.27174317212957,-37.71710678924142 L36.409930229081944,-37.64803639497665 L36.54437840452948,-37.57194388422901 L36.674731166080576,-37.48903104065786 L36.80064284164509,-37.39951773421917 L36.92177953609451,-37.30364133810981 L37.03782001669187,-37.20165609929661 L37.14845656494317,-37.09383246429905 L37.25339579261154,-36.98045636201371 L37.352359419730114,-36.86182844548229 L37.44508501255042,-36.73826329461371 L37.531326679469544,-36.61008858197482 L37.61085572309045,-36.477644203861615 L37.68346124668638,-36.341281378955365 L37.748950713461,-36.201361716953826 L37.80715045712147,-36.058256259647315 L37.85790614241014,-35.912344496982584 L37.90108317437395,-35.764013360723716 L37.93656705528607,-35.613656198378635 L37.96426368827323,-35.46167173011222 L37.984099626843765,-35.308462991412114 L37.99602226965449,-35.15443626431107 L38.0,-35.000000000000036 " />
			<path d="M0.0,-25.0 L25.0,-25.0 " />
			<path d="M25.0,-25.0 L25.0,0.0 " />
			<path d="M-2.7088590542428967e-30,8.368318453432565e-16 L-2.7088590542428967e-30,-25.0 " />
			<path d="M25.0,3.000166966725809e-30 L-7.55498151574979e-16,3.000166966725809e-30 " />
			<path d="M0.0,-25.0 L24.999999999999996,-25.0 " />
			<path d="M25.0,0.0 L25.0,-25.0 " />
			<path d="M-2.7088590542428967e-30,25.0 L-2.7088590542428967e-30,-9.39524994056994e-16 " />
			<path d="M0.0,25.0 L24.999999999999996,25.0 " />
			<path d="M25.0,25.000000000000004 L25.0,0.0 " />
			<path d="M25.0,3.000166966725809e-30 L-7.55498151574979e-16,3.000166966725809e-30 " />
			<path d="M-1.1311372438008733e-30,0.0 L-1.1311372438008733e-30,50.0 " />
			<path d="M0.0,50.0 L50.0,50.0 " />
			<path d="M50.0,0.0 L50.0,50.0 " />
			<path d="M0.0,1.422445156283785e-30 L50.0,1.422445156283785e-30 " />
			<path d="M38.0,35.0 L37.99602226965449,35.15443626431104 L37.984099626843765,35.30846299141208 L37.964263688273235,35.46167173011219 L37.936567055286076,35.6136561983786 L37.90108317437396,35.76401336072369 L37.85790614241015,35.912344496982556 L37.80715045712148,36.05825625964729 L37.748950713461014,36.2013617169538 L37.683461246686385,36.341281378955344 L37.61085572309047,36.477644203861594 L37.53132667946956,36.6100885819748 L37.445085012550436,36.73826329461369 L37.352359419730135,36.86182844548227 L37.25339579261156,36.9804563620137 L37.14845656494318,37.09383246429903 L37.03782001669188,37.2016560992966 L36.921779536094526,37.3036413381098 L36.80064284164511,37.39951773421916 L36.6747311660806,37.489031040657856 L36.544378404529496,37.57194388422899 L36.40993022908196,37.64803639497664 L36.27174317212958,37.71710678924141 L36.13018368090555,37.778971904754485 L35.98562714573251,37.833467686350986 L35.83845690455483,37.880449621014805 L35.68906322639538,37.91979312110115 L35.53784227643221,37.95139385472055 L35.38519506543965,37.975168022408305 L35.23152638637994,37.99105257934558 L35.07724374096497,37.99900540254294 L34.92275625903503,37.99900540254294 L34.76847361362006,37.99105257934558 L34.61480493456035,37.975168022408305 L34.46215772356779,37.95139385472055 L34.31093677360461,37.91979312110115 L34.16154309544517,37.880449621014805 L34.01437285426749,37.833467686350986 L33.86981631909444,37.778971904754485 L33.72825682787042,37.71710678924141 L33.590069770918035,37.64803639497664 L33.455621595470504,37.57194388422899 L33.3252688339194,37.489031040657856 L33.19935715835489,37.39951773421916 L33.078220463905474,37.3036413381098 L32.96217998330812,37.20165609929659 L32.85154343505682,37.09383246429903 L32.74660420738844,36.98045636201369 L32.647640580269865,36.86182844548227 L32.554914987449564,36.73826329461369 L32.46867332053044,36.6100885819748 L32.38914427690953,36.47764420386159 L32.31653875331361,36.34128137895534 L32.251049286538986,36.20136171695379 L32.19284954287852,36.05825625964728 L32.14209385758985,35.91234449698255 L32.098916825626034,35.76401336072368 L32.063432944713924,35.61365619837859 L32.035736311726765,35.46167173011218 L32.015900373156235,35.30846299141207 L32.00397773034551,35.15443626431103 L32.0,34.99999999999999 L32.00397773034551,34.845563735688955 L32.015900373156235,34.69153700858791 L32.03573631172677,34.538328269887806 L32.06343294471393,34.386343801621386 L32.09891682562604,34.235986639276305 L32.142093857589856,34.08765550301744 L32.19284954287852,33.941743740352706 L32.251049286538986,33.798638283046195 L32.316538753313615,33.65871862104465 L32.38914427690954,33.5223557961384 L32.46867332053045,33.38991141802519 L32.55491498744957,33.2617367053863 L32.64764058026987,33.138171554517726 L32.746604207388444,33.019543637986295 L32.851543435056826,32.90616753570096 L32.96217998330813,32.798343900703394 L33.07822046390548,32.696358661890194 L33.1993571583549,32.60048226578083 L33.32526883391941,32.51096895934214 L33.45562159547051,32.428056115771 L33.59006977091804,32.35196360502336 L33.728256827870425,32.28289321075859 L33.86981631909445,32.221028095245515 L34.0143728542675,32.166532313649014 L34.161543095445175,32.119550378985195 L34.31093677360462,32.08020687889885 L34.46215772356779,32.04860614527945 L34.61480493456035,32.024831977591695 L34.76847361362006,32.00894742065442 L34.92275625903503,32.00099459745706 L35.07724374096496,32.00099459745706 L35.23152638637993,32.00894742065442 L35.385195065439646,32.024831977591695 L35.5378422764322,32.04860614527945 L35.689063226395376,32.08020687889885 L35.83845690455482,32.119550378985195 L35.985627145732494,32.166532313649014 L36.130183680905546,32.22102809524551 L36.27174317212957,32.28289321075858 L36.409930229081944,32.35196360502335 L36.54437840452948,32.42805611577099 L36.674731166080576,32.51096895934214 L36.80064284164509,32.60048226578083 L36.92177953609451,32.69635866189019 L37.03782001669187,32.79834390070339 L37.14845656494317,32.90616753570095 L37.25339579261154,33.01954363798629 L37.352359419730114,33.13817155451771 L37.44508501255042,33.26173670538629 L37.531326679469544,33.38991141802518 L37.61085572309045,33.522355796138385 L37.68346124668638,33.658718621044635 L37.748950713461,33.798638283046174 L37.80715045712147,33.941743740352685 L37.85790614241014,34.087655503017416 L37.90108317437395,34.235986639276284 L37.93656705528607,34.386343801621365 L37.96426368827323,34.53832826988778 L37.984099626843765,34.691537008587886 L37.99602226965449,34.84556373568893 L38.0,34.999999999999964 " />
			<path d="M-2.7088590542428967e-30,25.0 L-2.7088590542428967e-30,-9.39524994056994e-16 " />
			<path d="M25.0,3.000166966725809e-30 L-7.55498151574979e-16,3.000166966725809e-30 " />
			<path d="M0.0,25.0 L24.999999999999996,25.0 " />
			<path d="M25.0,25.000000000000004 L25.0,0.0 " />
			<path d="M0.0,25.0 L25.0,25.0 " />
			<path d="M25.0,0.0 L25.0,25.0 " />
			<path d="M-3.1554436208840472e-30,3.000166966725809e-30 L-25.0,3.000166966725809e-30 " />
			<path d="M-25.0,0.0 L-25.0,-25.0 " />
			<path d="M-2.7088590542428967e-30,8.368318453432565e-16 L-2.7088590542428967e-30,-25.0 " />
			<path d="M-25.0,-25.0 L0.0,-25.0 " />
			<path d="M-50.0,-50.0 L-50.0,0.0 " />
			<path d="M-50.0,-50.0 L0.0,-50.0 " />
			<path d="M-25.0,-25.0 L-25.0,0.0 " />
			<path d="M-25.0,-25.0 L0.0,-25.0 " />
			<path d="M-3.1554436208840472e-30,3.000166966725809e-30 L-25.0,3.000166966725809e-30 " />
			<path d="M-50.0,1.422445156283785e-30 L0.0,1.422445156283785e-30 " />
			<path d="M-1.1311372438008733e-30,-50.0 L-1.1311372438008733e-30,0.0 " />
			<path d="M-32.0,-35.0 L-32.00397773034551,-34.84556373568896 L-32.015900373156235,-34.69153700858792 L-32.035736311726765,-34.53832826988781 L-32.063432944713924,-34.3863438016214 L-32.09891682562604,-34.23598663927631 L-32.14209385758985,-34.087655503017444 L-32.19284954287852,-33.94174374035271 L-32.251049286538986,-33.7986382830462 L-32.316538753313615,-33.658718621044656 L-32.38914427690953,-33.522355796138406 L-32.46867332053044,-33.3899114180252 L-32.554914987449564,-33.26173670538631 L-32.647640580269865,-33.13817155451773 L-32.74660420738844,-33.0195436379863 L-32.85154343505682,-32.90616753570097 L-32.96217998330812,-32.7983439007034 L-33.078220463905474,-32.6963586618902 L-33.19935715835489,-32.60048226578084 L-33.3252688339194,-32.510968959342144 L-33.455621595470504,-32.42805611577101 L-33.59006977091804,-32.35196360502336 L-33.72825682787042,-32.28289321075859 L-33.86981631909445,-32.221028095245515 L-34.01437285426749,-32.166532313649014 L-34.16154309544517,-32.119550378985195 L-34.31093677360462,-32.08020687889885 L-34.46215772356779,-32.04860614527945 L-34.61480493456035,-32.024831977591695 L-34.76847361362006,-32.00894742065442 L-34.92275625903503,-32.00099459745706 L-35.07724374096497,-32.00099459745706 L-35.23152638637994,-32.00894742065442 L-35.38519506543965,-32.024831977591695 L-35.53784227643221,-32.04860614527945 L-35.68906322639539,-32.08020687889885 L-35.83845690455483,-32.119550378985195 L-35.98562714573251,-32.166532313649014 L-36.13018368090556,-32.221028095245515 L-36.27174317212958,-32.28289321075859 L-36.409930229081965,-32.35196360502336 L-36.544378404529496,-32.42805611577101 L-36.6747311660806,-32.510968959342144 L-36.80064284164511,-32.60048226578084 L-36.921779536094526,-32.6963586618902 L-37.03782001669188,-32.79834390070341 L-37.14845656494318,-32.90616753570097 L-37.25339579261156,-33.01954363798631 L-37.352359419730135,-33.13817155451773 L-37.445085012550436,-33.26173670538631 L-37.53132667946956,-33.3899114180252 L-37.61085572309047,-33.52235579613841 L-37.68346124668639,-33.65871862104466 L-37.748950713461014,-33.79863828304621 L-37.80715045712148,-33.94174374035272 L-37.85790614241015,-34.08765550301745 L-37.901083174373966,-34.23598663927632 L-37.936567055286076,-34.38634380162141 L-37.964263688273235,-34.53832826988782 L-37.984099626843765,-34.69153700858793 L-37.99602226965449,-34.84556373568897 L-38.0,-35.00000000000001 L-37.99602226965449,-35.154436264311045 L-37.984099626843765,-35.30846299141209 L-37.96426368827323,-35.461671730112194 L-37.93656705528607,-35.613656198378614 L-37.90108317437396,-35.764013360723695 L-37.857906142410144,-35.91234449698256 L-37.80715045712148,-36.058256259647294 L-37.748950713461014,-36.201361716953805 L-37.683461246686385,-36.34128137895535 L-37.61085572309046,-36.4776442038616 L-37.53132667946955,-36.61008858197481 L-37.44508501255043,-36.7382632946137 L-37.35235941973013,-36.861828445482274 L-37.253395792611556,-36.980456362013705 L-37.148456564943174,-37.09383246429904 L-37.03782001669187,-37.201656099296606 L-36.92177953609452,-37.303641338109806 L-36.8006428416451,-37.39951773421917 L-36.67473116608059,-37.48903104065786 L-36.54437840452949,-37.571943884229 L-36.40993022908196,-37.64803639497664 L-36.271743172129575,-37.71710678924141 L-36.13018368090555,-37.778971904754485 L-35.9856271457325,-37.833467686350986 L-35.838456904554825,-37.880449621014805 L-35.68906322639538,-37.91979312110115 L-35.53784227643221,-37.95139385472055 L-35.38519506543965,-37.975168022408305 L-35.23152638637994,-37.99105257934558 L-35.07724374096497,-37.99900540254294 L-34.92275625903504,-37.99900540254294 L-34.76847361362007,-37.99105257934558 L-34.614804934560354,-37.975168022408305 L-34.4621577235678,-37.95139385472055 L-34.310936773604624,-37.91979312110115 L-34.16154309544518,-37.880449621014805 L-34.014372854267506,-37.833467686350986 L-33.869816319094454,-37.77897190475449 L-33.72825682787043,-37.71710678924142 L-33.590069770918056,-37.64803639497665 L-33.45562159547052,-37.57194388422901 L-33.325268833919424,-37.48903104065786 L-33.19935715835491,-37.39951773421917 L-33.07822046390549,-37.30364133810981 L-32.96217998330813,-37.20165609929661 L-32.85154343505683,-37.09383246429905 L-32.74660420738846,-36.98045636201371 L-32.647640580269886,-36.86182844548229 L-32.55491498744958,-36.73826329461371 L-32.468673320530456,-36.61008858197482 L-32.38914427690955,-36.477644203861615 L-32.31653875331362,-36.341281378955365 L-32.251049286539,-36.201361716953826 L-32.19284954287853,-36.058256259647315 L-32.14209385758986,-35.912344496982584 L-32.09891682562605,-35.764013360723716 L-32.06343294471393,-35.613656198378635 L-32.03573631172677,-35.46167173011222 L-32.015900373156235,-35.308462991412114 L-32.00397773034551,-35.15443626431107 L-32.0,-35.000000000000036 " />
			<path d="M-2.7088590542428967e-30,8.368318453432565e-16 L-2.7088590542428967e-30,-25.0 " />
			<path d="M-25.0,0.0 L-25.0,-25.0 " />
			<path d="M-25.0,-25.0 L0.0,-25.0 " />
			<path d="M-3.1554436208840472e-30,3.000166966725809e-30 L-25.0,3.000166966725809e-30 " />
			<path d="M-25.0,25.000000000000004 L-25.0,0.0 " />
			<path d="M-2.7088590542428967e-30,25.0 L-2.7088590542428967e-30,-9.39524994056994e-16 " />
			<path d="M-25.0,25.0 L0.0,25.0 " />
			<path d="M-50.0,0.0 L-50.0,50.0 " />
			<path d="M-3.1554436208840472e-30,3.000166966725809e-30 L-25.0,3.000166966725809e-30 " />
			<path d="M-50.0,1.422445156283785e-30 L0.0,1.422445156283785e-30 " />
			<path d="M-25.0,25.0 L0.0,25.0 " />
			<path d="M-25.0,0.0 L-25.0,25.0 " />
			<path d="M-50.0,50.0 L0.0,50.0 " />
			<path d="M-1.1311372438008733e-30,0.0 L-1.1311372438008733e-30,50.0 " />
			<path d="M-32.0,35.0 L-32.00397773034551,35.15443626431104 L-32.015900373156235,35.30846299141208 L-32.035736311726765,35.46167173011219 L-32.063432944713924,35.6136561983786 L-32.09891682562604,35.76401336072369 L-32.14209385758985,35.912344496982556 L-32.19284954287852,36.05825625964729 L-32.251049286538986,36.2013617169538 L-32.316538753313615,36.341281378955344 L-32.38914427690953,36.477644203861594 L-32.46867332053044,36.6100885819748 L-32.554914987449564,36.73826329461369 L-32.647640580269865,36.86182844548227 L-32.74660420738844,36.9804563620137 L-32.85154343505682,37.09383246429903 L-32.96217998330812,37.2016560992966 L-33.078220463905474,37.3036413381098 L-33.19935715835489,37.39951773421916 L-33.3252688339194,37.489031040657856 L-33.455621595470504,37.57194388422899 L-33.59006977091804,37.64803639497664 L-33.72825682787042,37.71710678924141 L-33.86981631909445,37.778971904754485 L-34.01437285426749,37.833467686350986 L-34.16154309544517,37.880449621014805 L-34.31093677360462,37.91979312110115 L-34.46215772356779,37.95139385472055 L-34.61480493456035,37.975168022408305 L-34.76847361362006,37.99105257934558 L-34.92275625903503,37.99900540254294 L-35.07724374096497,37.99900540254294 L-35.23152638637994,37.99105257934558 L-35.38519506543965,37.975168022408305 L-35.53784227643221,37.95139385472055 L-35.68906322639539,37.91979312110115 L-35.83845690455483,37.880449621014805 L-35.98562714573251,37.833467686350986 L-36.13018368090556,37.778971904754485 L-36.27174317212958,37.71710678924141 L-36.409930229081965,37.64803639497664 L-36.544378404529496,37.57194388422899 L-36.6747311660806,37.489031040657856 L-36.80064284164511,37.39951773421916 L-36.921779536094526,37.3036413381098 L-37.03782001669188,37.20165609929659 L-37.14845656494318,37.09383246429903 L-37.25339579261156,36.98045636201369 L-37.352359419730135,36.86182844548227 L-37.445085012550436,36.73826329461369 L-37.53132667946956,36.6100885819748 L-37.61085572309047,36.47764420386159 L-37.68346124668639,36.34128137895534 L-37.748950713461014,36.20136171695379 L-37.80715045712148,36.05825625964728 L-37.85790614241015,35.91234449698255 L-37.901083174373966,35.76401336072368 L-37.936567055286076,35.61365619837859 L-37.964263688273235,35.46167173011218 L-37.984099626843765,35.30846299141207 L-37.99602226965449,35.15443626431103 L-38.0,34.99999999999999 L-37.99602226965449,34.845563735688955 L-37.984099626843765,34.69153700858791 L-37.96426368827323,34.538328269887806 L-37.93656705528607,34.386343801621386 L-37.90108317437396,34.235986639276305 L-37.857906142410144,34.08765550301744 L-37.80715045712148,33.941743740352706 L-37.748950713461014,33.798638283046195 L-37.683461246686385,33.65871862104465 L-37.61085572309046,33.5223557961384 L-37.53132667946955,33.38991141802519 L-37.44508501255043,33.2617367053863 L-37.35235941973013,33.138171554517726 L-37.253395792611556,33.019543637986295 L-37.148456564943174,32.90616753570096 L-37.03782001669187,32.798343900703394 L-36.92177953609452,32.696358661890194 L-36.8006428416451,32.60048226578083 L-36.67473116608059,32.51096895934214 L-36.54437840452949,32.428056115771 L-36.40993022908196,32.35196360502336 L-36.271743172129575,32.28289321075859 L-36.13018368090555,32.221028095245515 L-35.9856271457325,32.166532313649014 L-35.838456904554825,32.119550378985195 L-35.68906322639538,32.08020687889885 L-35.53784227643221,32.04860614527945 L-35.38519506543965,32.024831977591695 L-35.23152638637994,32.00894742065442 L-35.07724374096497,32.00099459745706 L-34.92275625903504,32.00099459745706 L-34.76847361362007,32.00894742065442 L-34.614804934560354,32.024831977591695 L-34.4621577235678,32.04860614527945 L-34.310936773604624,32.08020687889885 L-34.16154309544518,32.119550378985195 L-34.014372854267506,32.166532313649014 L-33.869816319094454,32.22102809524551 L-33.72825682787043,32.28289321075858 L-33.590069770918056,32.35196360502335 L-33.45562159547052,32.42805611577099 L-33.325268833919424,32.51096895934214 L-33.19935715835491,32.60048226578083 L-33.07822046390549,32.69635866189019 L-32.96217998330813,32.79834390070339 L-32.85154343505683,32.90616753570095 L-32.74660420738846,33.01954363798629 L-32.647640580269886,33.13817155451771 L-32.55491498744958,33.26173670538629 L-32.468673320530456,33.38991141802518 L-32.38914427690955,33.522355796138385 L-32.31653875331362,33.658718621044635 L-32.251049286539,33.798638283046174 L-32.19284954287853,33.941743740352685 L-32.14209385758986,34.087655503017416 L-32.09891682562605,34.235986639276284 L-32.06343294471393,34.386343801621365 L-32.03573631172677,34.53832826988778 L-32.015900373156235,34.691537008587886 L-32.00397773034551,34.84556373568893 L-32.0,34.999999999999964 " />
			<path d="M-25.0,25.000000000000004 L-25.0,0.0 " />
			<path d="M-25.0,25.0 L0.0,25.0 " />
			<path d="M-2.7088590542428967e-30,25.0 L-2.7088590542428967e-30,-9.39524994056994e-16 " />

       </g>

       <!-- solid lines -->
       <g  stroke="rgb(56,189,248)" fill="none">
			<path d="M-1.1311372438008733e-30,-25.0 L-1.1311372438008733e-30,0.0 " />
			<path d="M0.0,-25.0 L25.0,-25.0 " />
			<path d="M0.0,1.422445156283785e-30 L25.0,1.422445156283785e-30 " />
			<path d="M25.0,-25.0 L25.0,0.0 " />
			<path d="M0.0,-50.0 L50.0,-50.0 " />
			<path d="M50.0,-50.0 L50.0,0.0 " />
			<path d="M-1.1311372438008733e-30,-50.0 L-1.1311372438008733e-30,-25.0 " />
			<path d="M25.0,1.422445156283785e-30 L50.0,1.422445156283785e-30 " />
			<path d="M38.0,-35.0 L37.99602226965449,-35.15443626431104 L37.984099626843765,-35.30846299141208 L37.964263688273235,-35.46167173011219 L37.936567055286076,-35.6136561983786 L37.90108317437396,-35.76401336072369 L37.85790614241015,-35.912344496982556 L37.80715045712148,-36.05825625964729 L37.748950713461014,-36.2013617169538 L37.683461246686385,-36.341281378955344 L37.61085572309047,-36.477644203861594 L37.53132667946956,-36.6100885819748 L37.445085012550436,-36.73826329461369 L37.352359419730135,-36.86182844548227 L37.25339579261156,-36.9804563620137 L37.14845656494318,-37.09383246429903 L37.03782001669188,-37.2016560992966 L36.921779536094526,-37.3036413381098 L36.80064284164511,-37.39951773421916 L36.6747311660806,-37.489031040657856 L36.544378404529496,-37.57194388422899 L36.40993022908196,-37.64803639497664 L36.27174317212958,-37.71710678924141 L36.13018368090555,-37.778971904754485 L35.98562714573251,-37.833467686350986 L35.83845690455483,-37.880449621014805 L35.68906322639538,-37.91979312110115 L35.53784227643221,-37.95139385472055 L35.38519506543965,-37.975168022408305 L35.23152638637994,-37.99105257934558 L35.07724374096497,-37.99900540254294 L34.92275625903503,-37.99900540254294 L34.76847361362006,-37.99105257934558 L34.61480493456035,-37.975168022408305 L34.46215772356779,-37.95139385472055 L34.31093677360461,-37.91979312110115 L34.16154309544517,-37.880449621014805 L34.01437285426749,-37.833467686350986 L33.86981631909444,-37.778971904754485 L33.72825682787042,-37.71710678924141 L33.590069770918035,-37.64803639497664 L33.455621595470504,-37.57194388422899 L33.3252688339194,-37.489031040657856 L33.19935715835489,-37.39951773421916 L33.078220463905474,-37.3036413381098 L32.96217998330812,-37.20165609929659 L32.85154343505682,-37.09383246429903 L32.74660420738844,-36.98045636201369 L32.647640580269865,-36.86182844548227 L32.554914987449564,-36.73826329461369 L32.46867332053044,-36.6100885819748 L32.38914427690953,-36.47764420386159 L32.31653875331361,-36.34128137895534 L32.251049286538986,-36.20136171695379 L32.19284954287852,-36.05825625964728 L32.14209385758985,-35.91234449698255 L32.098916825626034,-35.76401336072368 L32.063432944713924,-35.61365619837859 L32.035736311726765,-35.46167173011218 L32.015900373156235,-35.30846299141207 L32.00397773034551,-35.15443626431103 L32.0,-34.99999999999999 L32.00397773034551,-34.845563735688955 L32.015900373156235,-34.69153700858791 L32.03573631172677,-34.538328269887806 L32.06343294471393,-34.386343801621386 L32.09891682562604,-34.235986639276305 L32.142093857589856,-34.08765550301744 L32.19284954287852,-33.941743740352706 L32.251049286538986,-33.798638283046195 L32.316538753313615,-33.65871862104465 L32.38914427690954,-33.5223557961384 L32.46867332053045,-33.38991141802519 L32.55491498744957,-33.2617367053863 L32.64764058026987,-33.138171554517726 L32.746604207388444,-33.019543637986295 L32.851543435056826,-32.90616753570096 L32.96217998330813,-32.798343900703394 L33.07822046390548,-32.696358661890194 L33.1993571583549,-32.60048226578083 L33.32526883391941,-32.51096895934214 L33.45562159547051,-32.428056115771 L33.59006977091804,-32.35196360502336 L33.728256827870425,-32.28289321075859 L33.86981631909445,-32.221028095245515 L34.0143728542675,-32.166532313649014 L34.161543095445175,-32.119550378985195 L34.31093677360462,-32.08020687889885 L34.46215772356779,-32.04860614527945 L34.61480493456035,-32.024831977591695 L34.76847361362006,-32.00894742065442 L34.92275625903503,-32.00099459745706 L35.07724374096496,-32.00099459745706 L35.23152638637993,-32.00894742065442 L35.385195065439646,-32.024831977591695 L35.5378422764322,-32.04860614527945 L35.689063226395376,-32.08020687889885 L35.83845690455482,-32.119550378985195 L35.985627145732494,-32.166532313649014 L36.130183680905546,-32.22102809524551 L36.27174317212957,-32.28289321075858 L36.409930229081944,-32.35196360502335 L36.54437840452948,-32.42805611577099 L36.674731166080576,-32.51096895934214 L36.80064284164509,-32.60048226578083 L36.92177953609451,-32.69635866189019 L37.03782001669187,-32.79834390070339 L37.14845656494317,-32.90616753570095 L37.25339579261154,-33.01954363798629 L37.352359419730114,-33.13817155451771 L37.44508501255042,-33.26173670538629 L37.531326679469544,-33.38991141802518 L37.61085572309045,-33.522355796138385 L37.68346124668638,-33.658718621044635 L37.748950713461,-33.798638283046174 L37.80715045712147,-33.941743740352685 L37.85790614241014,-34.087655503017416 L37.90108317437395,-34.235986639276284 L37.93656705528607,-34.386343801621365 L37.96426368827323,-34.53832826988778 L37.984099626843765,-34.691537008587886 L37.99602226965449,-34.84556373568893 L38.0,-34.999999999999964 " />
			<path d="M-1.1311372438008733e-30,0.0 L-1.1311372438008733e-30,24.999999999999996 " />
			<path d="M0.0,25.0 L25.0,25.0 " />
			<path d="M25.0,0.0 L25.0,25.0 " />
			<path d="M0.0,1.422445156283785e-30 L25.0,1.422445156283785e-30 " />
			<path d="M-1.1311372438008733e-30,24.999999999999996 L-1.1311372438008733e-30,50.0 " />
			<path d="M0.0,50.0 L50.0,50.0 " />
			<path d="M50.0,0.0 L50.0,50.0 " />
			<path d="M25.0,1.422445156283785e-30 L50.0,1.422445156283785e-30 " />
			<path d="M38.0,35.0 L37.99602226965449,34.84556373568896 L37.984099626843765,34.69153700858792 L37.964263688273235,34.53832826988781 L37.936567055286076,34.3863438016214 L37.90108317437396,34.23598663927631 L37.85790614241015,34.087655503017444 L37.80715045712148,33.94174374035271 L37.748950713461014,33.7986382830462 L37.683461246686385,33.658718621044656 L37.61085572309047,33.522355796138406 L37.53132667946956,33.3899114180252 L37.445085012550436,33.26173670538631 L37.352359419730135,33.13817155451773 L37.25339579261156,33.0195436379863 L37.14845656494318,32.90616753570097 L37.03782001669188,32.7983439007034 L36.921779536094526,32.6963586618902 L36.80064284164511,32.60048226578084 L36.6747311660806,32.510968959342144 L36.544378404529496,32.42805611577101 L36.40993022908196,32.35196360502336 L36.27174317212958,32.28289321075859 L36.13018368090555,32.221028095245515 L35.98562714573251,32.166532313649014 L35.83845690455483,32.119550378985195 L35.68906322639538,32.08020687889885 L35.53784227643221,32.04860614527945 L35.38519506543965,32.024831977591695 L35.23152638637994,32.00894742065442 L35.07724374096497,32.00099459745706 L34.92275625903503,32.00099459745706 L34.76847361362006,32.00894742065442 L34.61480493456035,32.024831977591695 L34.46215772356779,32.04860614527945 L34.31093677360461,32.08020687889885 L34.16154309544517,32.119550378985195 L34.01437285426749,32.166532313649014 L33.86981631909444,32.221028095245515 L33.72825682787042,32.28289321075859 L33.590069770918035,32.35196360502336 L33.455621595470504,32.42805611577101 L33.3252688339194,32.510968959342144 L33.19935715835489,32.60048226578084 L33.078220463905474,32.6963586618902 L32.96217998330812,32.79834390070341 L32.85154343505682,32.90616753570097 L32.74660420738844,33.01954363798631 L32.647640580269865,33.13817155451773 L32.554914987449564,33.26173670538631 L32.46867332053044,33.3899114180252 L32.38914427690953,33.52235579613841 L32.31653875331361,33.65871862104466 L32.251049286538986,33.79863828304621 L32.19284954287852,33.94174374035272 L32.14209385758985,34.08765550301745 L32.098916825626034,34.23598663927632 L32.063432944713924,34.38634380162141 L32.035736311726765,34.53832826988782 L32.015900373156235,34.69153700858793 L32.00397773034551,34.84556373568897 L32.0,35.00000000000001 L32.00397773034551,35.154436264311045 L32.015900373156235,35.30846299141209 L32.03573631172677,35.461671730112194 L32.06343294471393,35.613656198378614 L32.09891682562604,35.764013360723695 L32.142093857589856,35.91234449698256 L32.19284954287852,36.058256259647294 L32.251049286538986,36.201361716953805 L32.316538753313615,36.34128137895535 L32.38914427690954,36.4776442038616 L32.46867332053045,36.61008858197481 L32.55491498744957,36.7382632946137 L32.64764058026987,36.861828445482274 L32.746604207388444,36.980456362013705 L32.851543435056826,37.09383246429904 L32.96217998330813,37.201656099296606 L33.07822046390548,37.303641338109806 L33.1993571583549,37.39951773421917 L33.32526883391941,37.48903104065786 L33.45562159547051,37.571943884229 L33.59006977091804,37.64803639497664 L33.728256827870425,37.71710678924141 L33.86981631909445,37.778971904754485 L34.0143728542675,37.833467686350986 L34.161543095445175,37.880449621014805 L34.31093677360462,37.91979312110115 L34.46215772356779,37.95139385472055 L34.61480493456035,37.975168022408305 L34.76847361362006,37.99105257934558 L34.92275625903503,37.99900540254294 L35.07724374096496,37.99900540254294 L35.23152638637993,37.99105257934558 L35.385195065439646,37.975168022408305 L35.5378422764322,37.95139385472055 L35.689063226395376,37.91979312110115 L35.83845690455482,37.880449621014805 L35.985627145732494,37.833467686350986 L36.130183680905546,37.77897190475449 L36.27174317212957,37.71710678924142 L36.409930229081944,37.64803639497665 L36.54437840452948,37.57194388422901 L36.674731166080576,37.48903104065786 L36.80064284164509,37.39951773421917 L36.92177953609451,37.30364133810981 L37.03782001669187,37.20165609929661 L37.14845656494317,37.09383246429905 L37.25339579261154,36.98045636201371 L37.352359419730114,36.86182844548229 L37.44508501255042,36.73826329461371 L37.531326679469544,36.61008858197482 L37.61085572309045,36.477644203861615 L37.68346124668638,36.341281378955365 L37.748950713461,36.201361716953826 L37.80715045712147,36.058256259647315 L37.85790614241014,35.912344496982584 L37.90108317437395,35.764013360723716 L37.93656705528607,35.613656198378635 L37.96426368827323,35.46167173011222 L37.984099626843765,35.308462991412114 L37.99602226965449,35.15443626431107 L38.0,35.000000000000036 " />
			<path d="M-25.0,1.422445156283785e-30 L0.0,1.422445156283785e-30 " />
			<path d="M-25.0,-25.0 L-25.0,0.0 " />
			<path d="M-1.1311372438008733e-30,-25.0 L-1.1311372438008733e-30,0.0 " />
			<path d="M-25.0,-25.0 L0.0,-25.0 " />
			<path d="M-50.0,-50.0 L-50.0,0.0 " />
			<path d="M-50.0,-50.0 L0.0,-50.0 " />
			<path d="M-50.0,1.422445156283785e-30 L-25.0,1.422445156283785e-30 " />
			<path d="M-1.1311372438008733e-30,-50.0 L-1.1311372438008733e-30,-25.0 " />
			<path d="M-32.0,-35.0 L-32.00397773034551,-35.15443626431104 L-32.015900373156235,-35.30846299141208 L-32.035736311726765,-35.46167173011219 L-32.063432944713924,-35.6136561983786 L-32.09891682562604,-35.76401336072369 L-32.14209385758985,-35.912344496982556 L-32.19284954287852,-36.05825625964729 L-32.251049286538986,-36.2013617169538 L-32.316538753313615,-36.341281378955344 L-32.38914427690953,-36.477644203861594 L-32.46867332053044,-36.6100885819748 L-32.554914987449564,-36.73826329461369 L-32.647640580269865,-36.86182844548227 L-32.74660420738844,-36.9804563620137 L-32.85154343505682,-37.09383246429903 L-32.96217998330812,-37.2016560992966 L-33.078220463905474,-37.3036413381098 L-33.19935715835489,-37.39951773421916 L-33.3252688339194,-37.489031040657856 L-33.455621595470504,-37.57194388422899 L-33.59006977091804,-37.64803639497664 L-33.72825682787042,-37.71710678924141 L-33.86981631909445,-37.778971904754485 L-34.01437285426749,-37.833467686350986 L-34.16154309544517,-37.880449621014805 L-34.31093677360462,-37.91979312110115 L-34.46215772356779,-37.95139385472055 L-34.61480493456035,-37.975168022408305 L-34.76847361362006,-37.99105257934558 L-34.92275625903503,-37.99900540254294 L-35.07724374096497,-37.99900540254294 L-35.23152638637994,-37.99105257934558 L-35.38519506543965,-37.975168022408305 L-35.53784227643221,-37.95139385472055 L-35.68906322639539,-37.91979312110115 L-35.83845690455483,-37.880449621014805 L-35.98562714573251,-37.833467686350986 L-36.13018368090556,-37.778971904754485 L-36.27174317212958,-37.71710678924141 L-36.409930229081965,-37.64803639497664 L-36.544378404529496,-37.57194388422899 L-36.6747311660806,-37.489031040657856 L-36.80064284164511,-37.39951773421916 L-36.921779536094526,-37.3036413381098 L-37.03782001669188,-37.20165609929659 L-37.14845656494318,-37.09383246429903 L-37.25339579261156,-36.98045636201369 L-37.352359419730135,-36.86182844548227 L-37.445085012550436,-36.73826329461369 L-37.53132667946956,-36.6100885819748 L-37.61085572309047,-36.47764420386159 L-37.68346124668639,-36.34128137895534 L-37.748950713461014,-36.20136171695379 L-37.80715045712148,-36.05825625964728 L-37.85790614241015,-35.91234449698255 L-37.901083174373966,-35.76401336072368 L-37.936567055286076,-35.61365619837859 L-37.964263688273235,-35.46167173011218 L-37.984099626843765,-35.30846299141207 L-37.99602226965449,-35.15443626431103 L-38.0,-34.99999999999999 L-37.99602226965449,-34.845563735688955 L-37.984099626843765,-34.69153700858791 L-37.96426368827323,-34.538328269887806 L-37.93656705528607,-34.386343801621386 L-37.90108317437396,-34.235986639276305 L-37.857906142410144,-34.08765550301744 L-37.80715045712148,-33.941743740352706 L-37.748950713461014,-33.798638283046195 L-37.683461246686385,-33.65871862104465 L-37.61085572309046,-33.5223557961384 L-37.53132667946955,-33.38991141802519 L-37.44508501255043,-33.2617367053863 L-37.35235941973013,-33.138171554517726 L-37.253395792611556,-33.019543637986295 L-37.148456564943174,-32.90616753570096 L-37.03782001669187,-32.798343900703394 L-36.92177953609452,-32.696358661890194 L-36.8006428416451,-32.60048226578083 L-36.67473116608059,-32.51096895934214 L-36.54437840452949,-32.428056115771 L-36.40993022908196,-32.35196360502336 L-36.271743172129575,-32.28289321075859 L-36.13018368090555,-32.221028095245515 L-35.9856271457325,-32.166532313649014 L-35.838456904554825,-32.119550378985195 L-35.68906322639538,-32.08020687889885 L-35.53784227643221,-32.04860614527945 L-35.38519506543965,-32.024831977591695 L-35.23152638637994,-32.00894742065442 L-35.07724374096497,-32.00099459745706 L-34.92275625903504,-32.00099459745706 L-34.76847361362007,-32.00894742065442 L-34.614804934560354,-32.024831977591695 L-34.4621577235678,-32.04860614527945 L-34.310936773604624,-32.08020687889885 L-34.16154309544518,-32.119550378985195 L-34.014372854267506,-32.166532313649014 L-33.869816319094454,-32.22102809524551 L-33.72825682787043,-32.28289321075858 L-33.590069770918056,-32.35196360502335 L-33.45562159547052,-32.42805611577099 L-33.325268833919424,-32.51096895934214 L-33.19935715835491,-32.60048226578083 L-33.07822046390549,-32.69635866189019 L-32.96217998330813,-32.79834390070339 L-32.85154343505683,-32.90616753570095 L-32.74660420738846,-33.01954363798629 L-32.647640580269886,-33.13817155451771 L-32.55491498744958,-33.26173670538629 L-32.468673320530456,-33.38991141802518 L-32.38914427690955,-33.522355796138385 L-32.31653875331362,-33.658718621044635 L-32.251049286539,-33.798638283046174 L-32.19284954287853,-33.941743740352685 L-32.14209385758986,-34.087655503017416 L-32.09891682562605,-34.235986639276284 L-32.06343294471393,-34.386343801621365 L-32.03573631172677,-34.53832826988778 L-32.015900373156235,-34.691537008587886 L-32.00397773034551,-34.84556373568893 L-32.0,-34.999999999999964 " />
			<path d="M-25.0,1.422445156283785e-30 L0.0,1.422445156283785e-30 " />
			<path d="M-25.0,0.0 L-25.0,25.0 " />
			<path d="M-25.0,25.0 L0.0,25.0 " />
			<path d="M-1.1311372438008733e-30,0.0 L-1.1311372438008733e-30,24.999999999999996 " />
			<path d="M-50.0,0.0 L-50.0,50.0 " />
			<path d="M-50.0,1.422445156283785e-30 L-25.0,1.422445156283785e-30 " />
			<path d="M-50.0,50.0 L0.0,50.0 " />
			<path d="M-1.1311372438008733e-30,24.999999999999996 L-1.1311372438008733e-30,50.0 " />
			<path d="M-32.0,35.0 L-32.00397773034551,34.84556373568896 L-32.015900373156235,34.69153700858792 L-32.035736311726765,34.53832826988781 L-32.063432944713924,34.3863438016214 L-32.09891682562604,34.23598663927631 L-32.14209385758985,34.087655503017444 L-32.19284954287852,33.94174374035271 L-32.251049286538986,33.7986382830462 L-32.316538753313615,33.658718621044656 L-32.38914427690953,33.522355796138406 L-32.46867332053044,33.3899114180252 L-32.554914987449564,33.26173670538631 L-32.647640580269865,33.13817155451773 L-32.74660420738844,33.0195436379863 L-32.85154343505682,32.90616753570097 L-32.96217998330812,32.7983439007034 L-33.078220463905474,32.6963586618902 L-33.19935715835489,32.60048226578084 L-33.3252688339194,32.510968959342144 L-33.455621595470504,32.42805611577101 L-33.59006977091804,32.35196360502336 L-33.72825682787042,32.28289321075859 L-33.86981631909445,32.221028095245515 L-34.01437285426749,32.166532313649014 L-34.16154309544517,32.119550378985195 L-34.31093677360462,32.08020687889885 L-34.46215772356779,32.04860614527945 L-34.61480493456035,32.024831977591695 L-34.76847361362006,32.00894742065442 L-34.92275625903503,32.00099459745706 L-35.07724374096497,32.00099459745706 L-35.23152638637994,32.00894742065442 L-35.38519506543965,32.024831977591695 L-35.53784227643221,32.04860614527945 L-35.68906322639539,32.08020687889885 L-35.83845690455483,32.119550378985195 L-35.98562714573251,32.166532313649014 L-36.13018368090556,32.221028095245515 L-36.27174317212958,32.28289321075859 L-36.409930229081965,32.35196360502336 L-36.544378404529496,32.42805611577101 L-36.6747311660806,32.510968959342144 L-36.80064284164511,32.60048226578084 L-36.921779536094526,32.6963586618902 L-37.03782001669188,32.79834390070341 L-37.14845656494318,32.90616753570097 L-37.25339579261156,33.01954363798631 L-37.352359419730135,33.13817155451773 L-37.445085012550436,33.26173670538631 L-37.53132667946956,33.3899114180252 L-37.61085572309047,33.52235579613841 L-37.68346124668639,33.65871862104466 L-37.748950713461014,33.79863828304621 L-37.80715045712148,33.94174374035272 L-37.85790614241015,34.08765550301745 L-37.901083174373966,34.23598663927632 L-37.936567055286076,34.38634380162141 L-37.964263688273235,34.53832826988782 L-37.984099626843765,34.69153700858793 L-37.99602226965449,34.84556373568897 L-38.0,35.00000000000001 L-37.99602226965449,35.154436264311045 L-37.984099626843765,35.30846299141209 L-37.96426368827323,35.461671730112194 L-37.93656705528607,35.613656198378614 L-37.90108317437396,35.764013360723695 L-37.857906142410144,35.91234449698256 L-37.80715045712148,36.058256259647294 L-37.748950713461014,36.201361716953805 L-37.683461246686385,36.34128137895535 L-37.61085572309046,36.4776442038616 L-37.53132667946955,36.61008858197481 L-37.44508501255043,36.7382632946137 L-37.35235941973013,36.861828445482274 L-37.253395792611556,36.980456362013705 L-37.148456564943174,37.09383246429904 L-37.03782001669187,37.201656099296606 L-36.92177953609452,37.303641338109806 L-36.8006428416451,37.39951773421917 L-36.67473116608059,37.48903104065786 L-36.54437840452949,37.571943884229 L-36.40993022908196,37.64803639497664 L-36.271743172129575,37.71710678924141 L-36.13018368090555,37.778971904754485 L-35.9856271457325,37.833467686350986 L-35.838456904554825,37.880449621014805 L-35.68906322639538,37.91979312110115 L-35.53784227643221,37.95139385472055 L-35.38519506543965,37.975168022408305 L-35.23152638637994,37.99105257934558 L-35.07724374096497,37.99900540254294 L-34.92275625903504,37.99900540254294 L-34.76847361362007,37.99105257934558 L-34.614804934560354,37.975168022408305 L-34.4621577235678,37.95139385472055 L-34.310936773604624,37.91979312110115 L-34.16154309544518,37.880449621014805 L-34.014372854267506,37.833467686350986 L-33.869816319094454,37.77897190475449 L-33.72825682787043,37.71710678924142 L-33.590069770918056,37.64803639497665 L-33.45562159547052,37.57194388422901 L-33.325268833919424,37.48903104065786 L-33.19935715835491,37.39951773421917 L-33.07822046390549,37.30364133810981 L-32.96217998330813,37.20165609929661 L-32.85154343505683,37.09383246429905 L-32.74660420738846,36.98045636201371 L-32.647640580269886,36.86182844548229 L-32.55491498744958,36.73826329461371 L-32.468673320530456,36.61008858197482 L-32.38914427690955,36.477644203861615 L-32.31653875331362,36.341281378955365 L-32.251049286539,36.201361716953826 L-32.19284954287853,36.058256259647315 L-32.14209385758986,35.912344496982584 L-32.09891682562605,35.764013360723716 L-32.06343294471393,35.613656198378635 L-32.03573631172677,35.46167173011222 L-32.015900373156235,35.308462991412114 L-32.00397773034551,35.15443626431107 L-32.0,35.000000000000036 " />

       </g>
    </g>
    
</svg>
