<?xml version="1.0" encoding="UTF-8" standalone="no"?>
<svg
   xmlns:svg="http://www.w3.org/2000/svg"
   xmlns="http://www.w3.org/2000/svg"
   width="400.0"
   height="300.0"

>
    <g transform="scale(2.25, -2.25)   translate(2.222222322222222,-52.22222222222222)" stroke-width="0.5"  fill="none">
       <!-- hidden lines -->
       <g  stroke="rgb(160,160,160)" fill="none" stroke-dasharray="0.5,0.5" >
			<path d="M0.0,50.0 L5.0,50.0 " />
			<path d="M0.0,50.0 L0.0,-50.0 " />
			<path d="M0.0,-50.0 L5.0,-50.0 " />
			<path d="M5.0,50.0 L5.0,-50.0 " />
			<path d="M5.0,35.0 L5.0,35.33589342831001 L5.0,35.66756280186912 L5.0,35.99083718586575 L5.0,36.301651217353 L5.0,36.59609622954638 L5.0,36.870469405576614 L5.0,37.12132034356008 L5.0,37.34549444740453 L5.0,37.54017259768528 L5.0,37.70290660370764 L5.0,37.83164999092543 L5.0,37.924783736545706 L5.0,37.98113662967986 L5.0,38.0 " />
			<path d="M5.0,38.0 L5.0,37.924783736545194 L5.0,37.70290660370672 L5.0,37.34549444740332 L5.0,36.87046940557523 L5.0,36.301651217351555 L5.0,35.66756280186773 L5.0,34.99999999999876 L5.0,34.332437198129846 L5.0,33.69834878264621 L5.0,33.12953059442283 L5.0,32.65450555259514 L5.0,32.297093396292205 L5.0,32.07521626345425 L5.0,32.0 " />
			<path d="M5.0,32.0 L5.0,32.0188633703204 L5.0,32.07521626345476 L5.0,32.16835000907522 L5.0,32.29709339629313 L5.0,32.459827402315575 L5.0,32.654505552596355 L5.0,32.8786796564408 L5.0,33.12953059442422 L5.0,33.40390377045437 L5.0,33.69834878264765 L5.0,34.009162814134754 L5.0,34.33243719813124 L5.0,34.664106571690176 L5.0,34.99999999999997 " />
			<path d="M5.0,35.0 L5.0,35.33589342831001 L5.0,35.66756280186912 L5.0,35.99083718586575 L5.0,36.301651217353 L5.0,36.59609622954638 L5.0,36.870469405576614 L5.0,37.12132034356008 L5.0,37.34549444740453 L5.0,37.54017259768528 L5.0,37.70290660370764 L5.0,37.83164999092543 L5.0,37.924783736545706 L5.0,37.98113662967986 L5.0,38.0 " />
			<path d="M5.0,38.0 L5.0,37.924783736545194 L5.0,37.70290660370672 L5.0,37.34549444740332 L5.0,36.87046940557523 L5.0,36.301651217351555 L5.0,35.66756280186773 L5.0,34.99999999999876 L5.0,34.332437198129846 L5.0,33.69834878264621 L5.0,33.12953059442283 L5.0,32.65450555259514 L5.0,32.297093396292205 L5.0,32.07521626345425 L5.0,32.0 " />
			<path d="M5.0,32.0 L5.0,32.0188633703204 L5.0,32.07521626345476 L5.0,32.16835000907522 L5.0,32.29709339629313 L5.0,32.459827402315575 L5.0,32.654505552596355 L5.0,32.8786796564408 L5.0,33.12953059442422 L5.0,33.40390377045437 L5.0,33.69834878264765 L5.0,34.009162814134754 L5.0,34.33243719813124 L5.0,34.664106571690176 L5.0,34.99999999999997 " />
			<path d="M5.0,-35.0 L5.0,-34.66410657168999 L5.0,-34.33243719813088 L5.0,-34.00916281413425 L5.0,-33.698348782647 L5.0,-33.40390377045362 L5.0,-33.129530594423386 L5.0,-32.87867965643992 L5.0,-32.65450555259547 L5.0,-32.45982740231472 L5.0,-32.29709339629236 L5.0,-32.16835000907457 L5.0,-32.075216263454294 L5.0,-32.01886337032014 L5.0,-32.0 " />
			<path d="M5.0,-32.0 L5.0,-32.075216263454806 L5.0,-32.29709339629328 L5.0,-32.65450555259668 L5.0,-33.12953059442477 L5.0,-33.698348782648445 L5.0,-34.33243719813227 L5.0,-35.00000000000124 L5.0,-35.667562801870154 L5.0,-36.30165121735379 L5.0,-36.87046940557717 L5.0,-37.34549444740486 L5.0,-37.702906603707795 L5.0,-37.92478373654575 L5.0,-38.0 " />
			<path d="M5.0,-38.0 L5.0,-37.9811366296796 L5.0,-37.92478373654524 L5.0,-37.83164999092478 L5.0,-37.70290660370687 L5.0,-37.540172597684425 L5.0,-37.345494447403645 L5.0,-37.1213203435592 L5.0,-36.87046940557578 L5.0,-36.59609622954563 L5.0,-36.30165121735235 L5.0,-35.990837185865246 L5.0,-35.66756280186876 L5.0,-35.335893428309824 L5.0,-35.00000000000003 " />
			<path d="M5.0,25.0 L5.0,-25.0 " />
			<path d="M5.0,25.0 L5.0,-25.0 " />
			<path d="M5.0,-35.0 L5.0,-34.66410657168999 L5.0,-34.33243719813088 L5.0,-34.00916281413425 L5.0,-33.698348782647 L5.0,-33.40390377045362 L5.0,-33.129530594423386 L5.0,-32.87867965643992 L5.0,-32.65450555259547 L5.0,-32.45982740231472 L5.0,-32.29709339629236 L5.0,-32.16835000907457 L5.0,-32.075216263454294 L5.0,-32.01886337032014 L5.0,-32.0 " />
			<path d="M5.0,-32.0 L5.0,-32.075216263454806 L5.0,-32.29709339629328 L5.0,-32.65450555259668 L5.0,-33.12953059442477 L5.0,-33.698348782648445 L5.0,-34.33243719813227 L5.0,-35.00000000000124 L5.0,-35.667562801870154 L5.0,-36.30165121735379 L5.0,-36.87046940557717 L5.0,-37.34549444740486 L5.0,-37.702906603707795 L5.0,-37.92478373654575 L5.0,-38.0 " />
			<path d="M5.0,-38.0 L5.0,-37.9811366296796 L5.0,-37.92478373654524 L5.0,-37.83164999092478 L5.0,-37.70290660370687 L5.0,-37.540172597684425 L5.0,-37.345494447403645 L5.0,-37.1213203435592 L5.0,-36.87046940557578 L5.0,-36.59609622954563 L5.0,-36.30165121735235 L5.0,-35.990837185865246 L5.0,-35.66756280186876 L5.0,-35.335893428309824 L5.0,-35.00000000000003 " />
			<path d="M0.0,35.0 L0.0,34.66410657169008 L0.0,34.33243719813105 L0.0,34.0091628141345 L0.0,33.69834878264732 L0.0,33.403903770453994 L0.0,33.1295305944238 L0.0,32.878679656440355 L0.0,32.65450555259591 L0.0,32.45982740231515 L0.0,32.297093396292745 L0.0,32.1683500090749 L0.0,32.07521626345453 L0.0,32.018863370320275 L0.0,32.0 " />
			<path d="M0.0,32.0 L0.0,32.07521626345453 L0.0,32.297093396292745 L0.0,32.65450555259591 L0.0,33.1295305944238 L0.0,33.69834878264732 L0.0,34.33243719813105 L0.0,35.0 L0.0,35.66756280186894 L0.0,36.30165121735267 L0.0,36.8704694055762 L0.0,37.34549444740409 L0.0,37.702906603707255 L0.0,37.92478373654547 L0.0,38.0 " />
			<path d="M0.0,38.0 L0.0,37.981136629679725 L0.0,37.92478373654547 L0.0,37.8316499909251 L0.0,37.702906603707255 L0.0,37.54017259768485 L0.0,37.34549444740409 L0.0,37.121320343559645 L0.0,36.8704694055762 L0.0,36.59609622954601 L0.0,36.30165121735268 L0.0,35.9908371858655 L0.0,35.66756280186895 L0.0,35.33589342830992 L0.0,35.00000000000003 " />
			<path d="M0.0,35.0 L0.0,34.66410657169008 L0.0,34.33243719813105 L0.0,34.0091628141345 L0.0,33.69834878264732 L0.0,33.403903770453994 L0.0,33.1295305944238 L0.0,32.878679656440355 L0.0,32.65450555259591 L0.0,32.45982740231515 L0.0,32.297093396292745 L0.0,32.1683500090749 L0.0,32.07521626345453 L0.0,32.018863370320275 L0.0,32.0 " />
			<path d="M0.0,32.0 L0.0,32.07521626345453 L0.0,32.297093396292745 L0.0,32.65450555259591 L0.0,33.1295305944238 L0.0,33.69834878264732 L0.0,34.33243719813105 L0.0,35.0 L0.0,35.66756280186894 L0.0,36.30165121735267 L0.0,36.8704694055762 L0.0,37.34549444740409 L0.0,37.702906603707255 L0.0,37.92478373654547 L0.0,38.0 " />
			<path d="M0.0,38.0 L0.0,37.981136629679725 L0.0,37.92478373654547 L0.0,37.8316499909251 L0.0,37.702906603707255 L0.0,37.54017259768485 L0.0,37.34549444740409 L0.0,37.121320343559645 L0.0,36.8704694055762 L0.0,36.59609622954601 L0.0,36.30165121735268 L0.0,35.9908371858655 L0.0,35.66756280186895 L0.0,35.33589342830992 L0.0,35.00000000000003 " />
			<path d="M0.0,-35.0 L0.0,-35.33589342830992 L0.0,-35.66756280186895 L0.0,-35.9908371858655 L0.0,-36.30165121735268 L0.0,-36.596096229546006 L0.0,-36.8704694055762 L0.0,-37.121320343559645 L0.0,-37.34549444740409 L0.0,-37.54017259768485 L0.0,-37.702906603707255 L0.0,-37.8316499909251 L0.0,-37.92478373654547 L0.0,-37.981136629679725 L0.0,-38.0 " />
			<path d="M0.0,-38.0 L0.0,-37.92478373654547 L0.0,-37.702906603707255 L0.0,-37.34549444740409 L0.0,-36.8704694055762 L0.0,-36.30165121735268 L0.0,-35.66756280186895 L0.0,-35.0 L0.0,-34.33243719813106 L0.0,-33.69834878264733 L0.0,-33.1295305944238 L0.0,-32.65450555259591 L0.0,-32.297093396292745 L0.0,-32.07521626345453 L0.0,-32.0 " />
			<path d="M0.0,-32.0 L0.0,-32.018863370320275 L0.0,-32.07521626345453 L0.0,-32.1683500090749 L0.0,-32.297093396292745 L0.0,-32.45982740231515 L0.0,-32.65450555259591 L0.0,-32.878679656440355 L0.0,-33.1295305944238 L0.0,-33.40390377045399 L0.0,-33.69834878264732 L0.0,-34.0091628141345 L0.0,-34.33243719813105 L0.0,-34.66410657169008 L0.0,-34.99999999999997 " />
			<path d="M0.0,-35.0 L0.0,-35.33589342830992 L0.0,-35.66756280186895 L0.0,-35.9908371858655 L0.0,-36.30165121735268 L0.0,-36.596096229546006 L0.0,-36.8704694055762 L0.0,-37.121320343559645 L0.0,-37.34549444740409 L0.0,-37.54017259768485 L0.0,-37.702906603707255 L0.0,-37.8316499909251 L0.0,-37.92478373654547 L0.0,-37.981136629679725 L0.0,-38.0 " />
			<path d="M0.0,-38.0 L0.0,-37.92478373654547 L0.0,-37.702906603707255 L0.0,-37.34549444740409 L0.0,-36.8704694055762 L0.0,-36.30165121735268 L0.0,-35.66756280186895 L0.0,-35.0 L0.0,-34.33243719813106 L0.0,-33.69834878264733 L0.0,-33.1295305944238 L0.0,-32.65450555259591 L0.0,-32.297093396292745 L0.0,-32.07521626345453 L0.0,-32.0 " />
			<path d="M0.0,-32.0 L0.0,-32.018863370320275 L0.0,-32.07521626345453 L0.0,-32.1683500090749 L0.0,-32.297093396292745 L0.0,-32.45982740231515 L0.0,-32.65450555259591 L0.0,-32.878679656440355 L0.0,-33.1295305944238 L0.0,-33.40390377045399 L0.0,-33.69834878264732 L0.0,-34.0091628141345 L0.0,-34.33243719813105 L0.0,-34.66410657169008 L0.0,-34.99999999999997 " />
			<path d="M5.0,25.0 L20.0,25.0 " />
			<path d="M5.0,-25.0 L20.0,-25.0 " />
			<path d="M20.0,25.0 L20.0,-25.0 " />
			<path d="M5.0,38.0 L0.0,38.0 " />
			<path d="M5.0,32.0 L0.0,32.0 " />
			<path d="M5.0,38.0 L0.0,38.0 " />
			<path d="M5.0,32.0 L0.0,32.0 " />
			<path d="M5.0,-32.0 L0.0,-32.0 " />
			<path d="M5.0,-38.0 L0.0,-38.0 " />
			<path d="M5.0,-32.0 L0.0,-32.0 " />
			<path d="M5.0,-38.0 L0.0,-38.0 " />

       </g>

       <!-- solid lines -->
       <g  stroke="rgb(148,163,184)" fill="none">
			<path d="M0.0,50.0 L5.0,50.0 " />
			<path d="M5.0,50.0 L5.0,-50.0 " />
			<path d="M0.0,-50.0 L5.0,-50.0 " />
			<path d="M0.0,50.0 L0.0,-50.0 " />
			<path d="M5.0,-25.0 L20.0,-25.0 " />
			<path d="M5.0,25.0 L20.0,25.0 " />
			<path d="M20.0,25.0 L20.0,-25.0 " />

       </g>
    </g>
    
</svg>
