<?xml version="1.0" encoding="UTF-8" standalone="no"?>
<svg
   xmlns:svg="http://www.w3.org/2000/svg"
   xmlns="http://www.w3.org/2000/svg"
   width="600.0"
   height="400.0"

>
    <g transform="scale(2.2472893469145583, -2.2472893469145583)   translate(142.0291141748571,-81.49778882991113)" stroke-width="0.4449805279293303"  fill="none">
       <!-- hidden lines -->
       <g  stroke="rgb(160,160,160)" fill="none" stroke-dasharray="0.4449805279293303,0.4449805279293303" >
			<path d="M3.5185298559622713,0.6372303199285761 L3.5185298559622717,46.78960884409141 " />
			<path d="M3.5185298559622713,0.6372303199285761 L-7.088071861835942,-5.48649403702937 " />
			<path d="M32.69290795953838,12.348103177821336 L30.144950057333755,12.1205287570724 " />
			<path d="M37.21601786920196,-6.104089771301962 L30.14495005733404,12.12052875706677 " />
			<path d="M39.76397577140386,-5.876515350547615 L37.216017869199234,-6.10408977129655 " />
			<path d="M40.77889099623955,-10.024233826771919 L40.66498218397545,-9.508484878990144 L40.54734938128274,-8.991865169565843 L40.426003360659244,-8.474422009151766 L40.300955234649365,-7.956202783810251 L40.172216454826376,-7.437254950673438 L40.03979881074379,-6.917626033597425 L39.903714428855714,-6.397363618810309 L39.76397577140641,-5.876515350554541 " />
			<path d="M42.36341242690564,-21.789873089044985 L3.5185298559622553,0.6372303199285854 " />
			<path d="M39.76397577140628,-5.876515350554059 L39.606987133244644,-5.306293379701378 L39.44566050836094,-4.735490232851967 L39.28001356618186,-4.1641684276738244 L39.110064449320305,-3.592390538641414 L38.9358317715883,-3.0202191901821394 L38.757334615958214,-2.4477170498173653 L38.57459253247279,-1.8749468212986589 L38.38762553610388,-1.3019712377402946 L38.19645410456026,-0.7288530547480766 L38.001099176044754,-0.15565504354612555 L37.80158214696111,0.4175600158980489 L37.59792486957036,0.9907293417498481 L37.39014964959758,1.5637901571836392 L37.17827924378876,2.136679697258491 L36.96233685741834,2.709335215792525 L36.74234614174771,3.281693992235264 L36.51833119143472,3.8536933385371426 L36.29031654189471,4.425270606015471 L36.05832716661325,4.9963631922161245 L35.82238847441096,5.5669085477699385 L35.582526306660455,6.136844183243748 L35.33876693445615,6.706107675984491 L35.09113705573692,7.274636676955903 L34.83966379236189,7.842368917567676 L34.58437468713994,8.409242216495253 L34.325297700813074,8.97519448649035 L34.062461208993994,9.54016374118112 L33.7958939990582,10.104088101861224 L33.525625266991085,10.666905804267193 L33.25168461419016,11.228555205343172 L32.974102044222995,11.78897478999249 L32.69290795954129,12.348103177814473 " />
			<path d="M29.15737405360813,-12.000239707511986 L39.76397577140634,-5.876515350554039 " />
			<path d="M3.5185298559622713,0.6372303199285761 L-7.088071861835942,-5.48649403702937 " />
			<path d="M3.5185298559622704,-50.852457163074526 L3.5185298559622713,0.6372303199285761 " />
			<path d="M-7.088071861835943,-56.976181520032455 L3.5185298559622704,-50.85245716307451 " />
			<path d="M42.36341242690564,-21.789873089044985 L3.5185298559622553,0.6372303199285854 " />
			<path d="M3.518529855962236,-50.85245716307449 L3.9823148057391196,-51.07269656799664 L4.445620128643303,-51.28678481738985 L4.908390024544965,-51.494696126633265 L5.370568757800695,-51.69640545505179 L5.832100663966263,-51.891888508932105 L6.292930156500781,-52.08112174444845 L6.753001733461493,-52.264082370498336 L7.212259984188408,-52.44074835144741 L7.6706495959779035,-52.61109840978344 L8.12811536074457,-52.77511202867899 L8.584602181670377,-52.93276945446238 L9.040055079840528,-53.084051698996866 L9.494419200865108,-53.22894054196756 L9.947639821485664,-53.367418533075806 L10.399662356165994,-53.49946899414094 L10.850432363666442,-53.62507602110897 L11.29989555360076,-53.744224485968054 L11.747997792974765,-53.856900038570494 L12.194685112706104,-53.9630891083611 L12.639903714124221,-54.06277890601157 L13.083599975449859,-54.15595742496083 L13.525720458253232,-54.24261344286113 L13.966211913890033,-54.3227365229296 L14.405021289914734,-54.39631701520533 L14.842095736470146,-54.4633460577115 L15.277382612652623,-54.5238155775228 L15.710829492852117,-54.57771829173767 L16.142384173066258,-54.625047708355474 L16.571994677187718,-54.6657981270584 L16.99960926326424,-54.69996463989795 L17.42517642973037,-54.72754313188614 L17.848644921610237,-54.74853028149097 L18.26996373669074,-54.76292356103664 L18.689082131664165,-54.770721237007834 L19.10594962823962,-54.771922370258565 L19.52051601922269,-54.766526816125285 L19.932731374562298,-54.75453522444432 L20.342546047364248,-54.73594903947355 L20.749910679870705,-54.71077049971855 L21.154776209404744,-54.67900263766287 L21.557093874279428,-54.64064927940291 L21.95681521967066,-54.59571504418709 L22.35389210345301,-54.54420534385945 L22.748276701997934,-54.48612638220792 L23.139921515933626,-54.421485154217095 L23.528779375865806,-54.35028944522579 L23.9148034480587,-54.27254782998937 L24.297947240075732,-54.188269671647014 L24.678164606379017,-54.097465120594045 L25.055409753887076,-54.00014511325937 L25.42963724749015,-53.89632137078839 L25.80080201552231,-53.78600639763123 L26.16885935518995,-53.66921348003677 L26.533764937955677,-53.5459566844524 L26.895474814877208,-53.41625085582995 L27.253945421900585,-53.28011161583773 L27.609133585106967,-53.13755536097904 L27.960996525912485,-52.988599260617455 L28.30949186622044,-52.833261254908905 L28.654577633525275,-52.67156005264099 L28.99621226596778,-52.50351512897973 L29.334354617340708,-52.329146723123955 L29.668963962044376,-52.14847583586775 L29.999999999991548,-51.9615242270712 " />
			<path d="M-36.24621778612014,47.71109830473409 L-25.639616068321928,53.83482266169203 " />
			<path d="M-16.454029532882977,54.65524615975082 L-16.759837079465285,54.681597782613636 L-17.06461631937233,54.704594393625975 L-17.36834855274891,54.724234581821364 L-17.671015143979304,54.74051714216798 L-17.972597522830732,54.75344107564268 L-18.273077185592687,54.7630055892922 L-18.572435696212274,54.7692100962819 L-18.87065468742534,54.7720542159317 L-19.167715861883416,54.7715377737395 L-19.46360099327635,54.7676608013918 L-19.758291927450607,54.76042353676183 L-20.051770583523084,54.749826423894916 L-20.34401895499054,54.73587011298129 L-20.635019110834307,54.71855546031611 L-20.92475319662049,54.697883528247 L-21.213203435595542,54.673855585108825 L-21.500352129776754,54.64647310514588 L-21.786181661038235,54.615737768421454 L-22.07067449219198,54.58165146071474 L-22.35381316806366,54.54421627340511 L-22.635580316563725,54.503434503343826 L-22.915958649753275,54.459308652713126 L-23.19493096490472,54.411841428872656 L-23.47248014555729,54.3610357441934 L-23.748589162567217,54.30689471587897 L-24.02324107515256,54.24942166577435 L-24.296419031932622,54.1886201201621 L-24.568106271961863,54.124493809545974 L-24.838286125758287,54.057046668422046 L-25.1069420163262,53.98628283503733 L-25.374057460173283,53.91220665113581 L-25.639616068321672,53.83482266169223 " />
			<path d="M3.5185298559622713,0.637230319928576 L-42.36341242690564,27.127182047885245 " />
			<path d="M-25.63961606832197,53.83482266169214 L-25.926997536213317,53.746801455942 L-26.212492777272107,53.65487009210547 L-26.496081021303716,53.55903525832318 L-26.777741636850326,53.459303926718874 L-27.05745413269197,53.35568335289216 L-27.33519815933717,53.248181075390725 L-27.610953510503432,53.13680491516183 L-27.884700124587376,53.021562974983325 L-28.156418086124106,52.902463638874224 L-28.426087627236146,52.77951557148471 L-28.69368912907166,52.6527277174657 L-28.95920312323162,52.522109300818286 L-29.222610293186204,52.38766982422252 L-29.48389147568021,52.24941906834609 L-29.743027662127037,52.10736709113288 L-29.99999999999141,51.96152422707128 " />
			<path d="M-29.999999999991683,51.96152422707112 L-30.34064443984659,51.76033514409709 L-30.6773318155424,51.552395414561566 L-31.010018215897542,51.337732158219794 L-31.338660251542564,51.116373371717636 L-31.66321506057902,50.88834792494025 L-31.983640314169605,50.6536855572468 L-32.299894222058704,50.41241687359189 L-32.611935538022735,50.164573340533906 L-32.91972356524954,49.91018728213123 L-33.22321816164611,49.64929187572644 L-33.52237974507396,49.38192114761925 L-33.81716929851149,49.10810996862884 L-34.10754837514262,48.827894049545876 L-34.393479103371085,48.54130993647512 L-34.674924191759686,48.24839500606904 L-34.9518469338939,47.94918746065305 L-35.224211213169134,47.643726323243186 L-35.491981507501166,47.332051432456616 L-35.755122893958905,47.014203437315885 L-36.01360105331914,46.69022379194739 L-36.26738227454248,46.36015475017489 L-36.51643345916993,46.024039360008715 L-36.76072212563975,45.68192145803139 L-37.000216413523646,45.3338456636804 L-37.234885087682066,44.97985737342891 L-37.464697542337944,44.62000275486502 L-37.68962380506834,44.25432874067064 L-37.909634540713455,43.88288302250035 L-38.1247010552026,43.50571404476154 L-38.334795299296474,43.12287099829609 L-38.5398898722454,42.73440381396491 L-38.73995802536296,42.3403631561359 L-38.93497366551459,41.940800416076236 L-39.12491135852069,41.535767705249825 L-39.30974633247376,41.12531784852091 L-39.48945448096919,40.70950437726454 L-39.66401236624926,40.28838152238499 L-39.83339722225992,39.86200420724286 L-39.99758695761994,39.43042804049194 L-40.156560158502124,38.99370930882662 L-40.31029609142611,38.55190496964092 L-40.45877470596248,38.10507264360009 L-40.60197663734775,37.65327060712556 L-40.739883209009896,37.19655778479454 L-40.87247643500426,36.734993741654954 L-40.999739022359265,36.26863867545693 L-41.12165437333176,35.79755340880167 L-41.238206587571746,35.321799381208976 L-41.349380464196116,34.8414386411042 L-41.45516150377116,34.35653383772577 L-41.55553591020361,33.867148212954454 L-41.65049059253995,33.37334559306526 L-41.74001316667375,32.875190380403126 L-41.82409195696078,32.37274754498348 L-41.90271599774183,31.866082616018808 L-41.97587503477281,31.355261673372205 L-42.043559526562134,30.840351338939186 L-42.10576064561517,30.321418767958786 L-42.16247027958546,29.79853164025507 L-42.213681032332815,29.271758151410243 L-42.259386224887876,28.741167003870512 L-42.29957989632324,28.206827397985844 L-42.334256804530824,27.668809022984725 L-42.36341242690564,27.127182047885317 " />
			<path d="M-25.639616068324106,53.834822661691845 L-24.922113226833055,51.98556652003129 " />
			<path d="M-15.736526691390035,52.805990018089055 L-24.922113226827605,51.98556652002706 " />
			<path d="M-16.454029532888477,54.65524615974895 L-15.736526691397428,52.805990018088394 " />
			<path d="M3.5185298559622713,0.6372303199285761 L3.5185298559622717,46.78960884409141 " />
			<path d="M3.5185298559622713,0.6372303199285761 L-7.088071861835942,-5.48649403702937 " />
			<path d="M-52.97001414470385,21.0034576909273 L-42.36341242690564,27.127182047885245 " />
			<path d="M-42.36341242690564,27.127182047885263 L-42.390483517437964,26.489732143415704 L-42.41000398262388,25.847563867596143 L-42.42197034546319,25.200791603931016 L-42.4263804744982,24.549530555990614 L-42.42323358419335,23.893896726890922 L-42.41253023507515,23.23400689863103 L-42.39427233363233,22.56997861129187 L-42.36846313197626,21.90193014209985 L-42.33510722726169,21.229980484359267 L-42.29421056086785,20.5542493262571 L-42.245780417340264,19.874857029544064 L-42.18982542309314,19.191924608095672 L-42.12635554487284,18.505573706357175 L-42.05538208798261,17.815926577676144 L-41.976917694268884,17.123106062526617 L-41.890976339869496,16.427235566628664 L-41.797573332724205,15.728439038967247 L-41.6967253098481,15.026840949714336 L-41.588450234368125,14.322566268058202 L-41.47276739232356,13.61574043994381 L-41.349697389230705,12.906489365728286 L-41.21926214641263,12.194939377755443 L-41.08148489709456,11.481217217853342 L-40.93639018226553,10.765450014759015 L-40.784003846307094,10.047765261474117 L-40.62435303238999,9.328290792555835 L-40.4574661776393,8.60715476134687 L-40.28337300806921,7.8844856171486315 L-40.10210453328826,7.16041208234183 L-39.913693040975836,6.43506312945831 L-39.718172091131024,5.708567958208309 L-39.51557651009497,4.981055972467404 L-39.30594238434751,4.252656757226934 L-39.089307054079484,3.523500055512228 L-38.865709106541594,2.7937157452727015 L-38.635188369171274,2.0634338162478527 L-38.39778590249859,1.3327843468134348 L-38.15354399283247,0.6018974808117998 L-37.90250614472868,-0.1290965956294939 L-37.64471707324072,-0.8600676772864323 L-37.38022269595519,-1.5908855630308694 L-37.10907012481286,-2.3214200790220354 L-36.831307657717076,-3.0515411018931897 L-36.54698476993096,-3.7811185819293156 L-36.25615210526471,-4.51002256623164 L-35.95886146705502,-5.238123221864985 L-35.65516580893777,-5.965290858983677 L-35.34511922541582,-6.6913959539320285 L-35.02877694222379,-7.416309172315167 L-34.706195306491125,-8.13990139203617 L-34.37743177670549,-8.862043726295445 L-34.04254491247826,-9.582607546548074 L-33.70159436411386,-10.301464505415273 L-33.354640861984706,-11.018486559545709 L-33.00174620571398,-11.733545992422693 L-32.64297325316777,-12.44651543711312 L-32.27838590925877,-13.157267898954194 L-31.908049114563568,-13.865676778173798 L-31.53202883375526,-14.571615892440521 L-31.150392043853863,-15.274959499339417 L-30.7632067222963,-15.97558231876927 L-30.37054183482818,-16.673359555257598 L-29.972467323219576,-17.36816692018936 L-29.569054092806972,-18.05988065394529 L-29.160373999863523,-18.74837754794607 L-28.74649983879996,-19.433534966598348 L-28.327505329198402,-20.115230869138657 L-27.90346510268136,-20.79334383137147 L-27.474454689618316,-21.467753067297288 L-27.040550505672176,-22.138338450627174 L-26.601829838188046,-22.80498053617978 L-26.15837083242677,-23.46756058115693 L-25.710252477645636,-24.125960566294243 L-25.257554593028747,-24.78006321688279 L-24.800357813469553,-25.42975202365816 L-24.338743575208113,-26.074911263553176 L-23.87279410132562,-26.71542602031058 L-23.40259238709872,-27.351182204951996 L-22.92822218521642,-27.982066576099555 L-22.449767990861865,-28.607966760146553 L-21.96731502666212,-29.22877127127349 L-21.480949227508162,-29.844369531305993 L-20.99075722524814,-30.45465188941119 L-20.496826333256404,-31.059509641628647 L-19.999244530881224,-31.658835050232927 L-19.498100447773822,-32.252521362923865 L-18.993483348101577,-32.84046283184135 L-18.485483114648236,-33.42255473240127 L-17.974190232803924,-33.99869338194905 L-17.459695774447813,-34.56877615822781 L-16.942091381726357,-35.132701517657395 L-16.421469250729846,-35.69036901342148 L-15.897922115070466,-36.24167931335917 L-15.37154322936446,-36.786534217658186 L-14.842426352621532,-37.32483667634624 L-14.310665731544477,-37.85649080657766 L-13.776356083741838,-38.381401909712146 L-13.239592580856721,-38.899476488182536 L-12.700470831614847,-39.41062226214864 L-12.15908686479451,-39.91474818593427 L-11.615537112121938,-40.41176446424432 L-11.069918391094857,-40.90158256815911 L-10.522327887737141,-41.384115250903356 L-9.97286313928806,-41.859276563386565 L-9.42162201682889,-42.3269818695123 L-8.868702707849978,-42.78714786125372 L-8.314203698761544,-43.23969257349241 L-7.758223757351152,-43.68453539861813 L-7.200861915191245,-44.12159710088661 L-6.642217449999462,-44.55079983053313 L-6.082389867955188,-44.97206713763925 L-5.5214788859755135,-45.38532398575001 L-4.959584413953573,-45.79049676523955 L-4.396806536962513,-46.187513306422474 L-3.8332454974281966,-46.57630289240882 L-3.269001677274011,-46.95679627170017 L-2.7041755800407956,-47.32892567052479 L-2.1388678129849823,-47.69262480490952 L-1.5731790691583911,-48.0478288924864 L-1.0072101094727715,-48.39447466403164 L-0.4410617447520965,-48.73250037473529 L0.12516518222392156,-49.06184581519924 L0.6913698146819247,-49.38245232216172 L1.2574512998197502,-49.69426278894648 L1.8233088067703112,-49.997221675634734 L2.3888415445616333,-50.29127501895781 L2.953948780069937,-50.57637044190933 L3.5185298559620444,-50.852457163074405 " />
			<path d="M3.5185298559622713,0.637230319928576 L-42.36341242690564,27.127182047885245 " />
			<path d="M3.5185298559622704,-50.852457163074526 L3.5185298559622713,0.6372303199285761 " />
			<path d="M-52.97001414470385,21.0034576909273 L-42.36341242690564,27.127182047885245 " />
			<path d="M-7.088071861835943,-56.976181520032455 L3.5185298559622704,-50.85245716307451 " />
			<path d="M3.5185298559622713,0.6372303199285761 L-7.088071861835942,-5.48649403702937 " />
			<path d="M39.76397577140628,-5.876515350554059 L39.606987133244644,-5.306293379701378 L39.44566050836094,-4.735490232851967 L39.28001356618186,-4.1641684276738244 L39.110064449320305,-3.592390538641414 L38.9358317715883,-3.0202191901821394 L38.757334615958214,-2.4477170498173653 L38.57459253247279,-1.8749468212986589 L38.38762553610388,-1.3019712377402946 L38.19645410456026,-0.7288530547480766 L38.001099176044754,-0.15565504354612555 L37.80158214696111,0.4175600158980489 L37.59792486957036,0.9907293417498481 L37.39014964959758,1.5637901571836392 L37.17827924378876,2.136679697258491 L36.96233685741834,2.709335215792525 L36.74234614174771,3.281693992235264 L36.51833119143472,3.8536933385371426 L36.29031654189471,4.425270606015471 L36.05832716661325,4.9963631922161245 L35.82238847441096,5.5669085477699385 L35.582526306660455,6.136844183243748 L35.33876693445615,6.706107675984491 L35.09113705573692,7.274636676955903 L34.83966379236189,7.842368917567676 L34.58437468713994,8.409242216495253 L34.325297700813074,8.97519448649035 L34.062461208993994,9.54016374118112 L33.7958939990582,10.104088101861224 L33.525625266991085,10.666905804267193 L33.25168461419016,11.228555205343172 L32.974102044222995,11.78897478999249 L32.69290795954129,12.348103177814473 " />
			<path d="M39.763975771405974,-5.876515350553082 L49.46346658311582,-5.010191773886226 " />
			<path d="M-16.454029532882977,54.65524615975082 L-16.759837079465285,54.681597782613636 L-17.06461631937233,54.704594393625975 L-17.36834855274891,54.724234581821364 L-17.671015143979304,54.74051714216798 L-17.972597522830732,54.75344107564268 L-18.273077185592687,54.7630055892922 L-18.572435696212274,54.7692100962819 L-18.87065468742534,54.7720542159317 L-19.167715861883416,54.7715377737395 L-19.46360099327635,54.7676608013918 L-19.758291927450607,54.76042353676183 L-20.051770583523084,54.749826423894916 L-20.34401895499054,54.73587011298129 L-20.635019110834307,54.71855546031611 L-20.92475319662049,54.697883528247 L-21.213203435595542,54.673855585108825 L-21.500352129776754,54.64647310514588 L-21.786181661038235,54.615737768421454 L-22.07067449219198,54.58165146071474 L-22.35381316806366,54.54421627340511 L-22.635580316563725,54.503434503343826 L-22.915958649753275,54.459308652713126 L-23.19493096490472,54.411841428872656 L-23.47248014555729,54.3610357441934 L-23.748589162567217,54.30689471587897 L-24.02324107515256,54.24942166577435 L-24.296419031932622,54.1886201201621 L-24.568106271961863,54.124493809545974 L-24.838286125758287,54.057046668422046 L-25.1069420163262,53.98628283503733 L-25.374057460173283,53.91220665113581 L-25.639616068321672,53.83482266169223 " />
			<path d="M-25.63961606832043,53.834822661692165 L-30.22541408573063,65.65403041630896 " />
			<path d="M32.20052635966934,13.307316288558972 L30.144950057335876,12.120528757066932 " />
			<path d="M39.76397577140628,-5.876515350554059 L39.606987133244644,-5.306293379701378 L39.44566050836094,-4.735490232851967 L39.28001356618186,-4.1641684276738244 L39.110064449320305,-3.592390538641414 L38.9358317715883,-3.0202191901821394 L38.757334615958214,-2.4477170498173653 L38.57459253247279,-1.8749468212986589 L38.38762553610388,-1.3019712377402946 L38.19645410456026,-0.7288530547480766 L38.001099176044754,-0.15565504354612555 L37.80158214696111,0.4175600158980489 L37.59792486957036,0.9907293417498481 L37.39014964959758,1.5637901571836392 L37.17827924378876,2.136679697258491 L36.96233685741834,2.709335215792525 L36.74234614174771,3.281693992235264 L36.51833119143472,3.8536933385371426 L36.29031654189471,4.425270606015471 L36.05832716661325,4.9963631922161245 L35.82238847441096,5.5669085477699385 L35.582526306660455,6.136844183243748 L35.33876693445615,6.706107675984491 L35.09113705573692,7.274636676955903 L34.83966379236189,7.842368917567676 L34.58437468713994,8.409242216495253 L34.325297700813074,8.97519448649035 L34.062461208993994,9.54016374118112 L33.7958939990582,10.104088101861224 L33.525625266991085,10.666905804267193 L33.25168461419016,11.228555205343172 L32.974102044222995,11.78897478999249 L32.69290795954129,12.348103177814473 " />
			<path d="M50.37057748920422,0.2472090064048551 L50.213588851042594,0.817430977257537 L50.05226222615887,1.3882341241069458 L49.886615283979786,1.9595559292850924 L49.71666616711823,2.5313338183175045 L49.542433489386205,3.103505166776782 L49.36393633375612,3.6760073071415524 L49.1811942502707,4.2487775356602615 L48.994227253901784,4.821753119218625 L48.80305582235814,5.394871302210843 L48.60770089384263,5.968069313412797 L48.408183864758975,6.541284372856968 L48.20452658736823,7.114453698708763 L47.99675136739545,7.687514514142557 L47.78488096158661,8.260404054217412 L47.56893857521619,8.833059572751441 L47.34894785954555,9.405418349194179 L47.12493290923255,9.977417695496056 L46.896918259692534,10.548994962974387 L46.66492888441108,11.12008754917499 L46.428990192208786,11.690632904728801 L46.189128024458284,12.260568540202616 L45.94536865225399,12.829832032943305 L45.69773877353474,13.398361033914767 L45.44626551015969,13.966093274526532 L45.190976404937736,14.532966573454111 L44.93189941861085,15.098918843449258 L44.66906292679175,15.66388809814002 L44.40249571685596,16.22781245882013 L44.132226984788836,16.790630161226094 L43.85828633198791,17.35227956230207 L43.580703762020754,17.912699146951336 L43.29950967733904,18.47182753477332 " />
			<path d="M50.37057748920422,0.24720900640486712 L39.76397577140601,-5.876515350553079 " />
			<path d="M47.822619586999565,0.019634585655928183 L37.21601786920135,-6.104089771302018 " />
			<path d="M47.822619586999565,0.019634585655928183 L40.75155177513164,18.244253114024662 " />
			<path d="M47.822619586999565,0.019634585655928183 L50.37057748920422,0.2472090064048668 " />
			<path d="M-13.317551106229963,54.202586223344355 L-15.736526691390038,52.805990018089055 " />
			<path d="M-15.033014350522368,59.95854701865051 L-25.63961606832058,53.83482266169257 " />
			<path d="M-5.847427815083268,60.778970516708625 L-6.15323536166558,60.80532213957146 L-6.4580146015726,60.82831875058382 L-6.761746834949186,60.84795893877922 L-7.064413426179588,60.86424149912585 L-7.365995805031016,60.877165432600556 L-7.666475467792978,60.8867299462501 L-7.965833978412572,60.89293445323982 L-8.264052969625642,60.89577857288965 L-8.561114144083724,60.89526213069746 L-8.856999275476664,60.89138515834976 L-9.151690209650887,60.88414789371981 L-9.445168865723378,60.87355078085293 L-9.737417237190837,60.85959446993931 L-10.028417393034577,60.842279817274154 L-10.318151478820798,60.821607885205054 L-10.606601717795861,60.797579942066896 L-10.89375041197708,60.77019746210397 L-11.1795799432386,60.73946212537956 L-11.46407277439232,60.705375817672866 L-11.747211450264,60.66794063036325 L-12.028978598764077,60.62715886030198 L-12.309356931953605,60.58303300967131 L-12.588329247105058,60.53556578583086 L-12.865878427757632,60.484760101151615 L-13.141987444767569,60.43061907283721 L-13.41663935735292,60.373146022732605 L-13.689817314132984,60.31234447712037 L-13.961504554162236,60.24821816650426 L-14.23168440795867,60.18077102538035 L-14.500340298526588,60.11000719199564 L-14.767455742373649,60.03593100809415 L-15.033014350522048,59.95854701865059 " />
			<path d="M-16.454029532882977,54.65524615975082 L-16.759837079465285,54.681597782613636 L-17.06461631937233,54.704594393625975 L-17.36834855274891,54.724234581821364 L-17.671015143979304,54.74051714216798 L-17.972597522830732,54.75344107564268 L-18.273077185592687,54.7630055892922 L-18.572435696212274,54.7692100962819 L-18.87065468742534,54.7720542159317 L-19.167715861883416,54.7715377737395 L-19.46360099327635,54.7676608013918 L-19.758291927450607,54.76042353676183 L-20.051770583523084,54.749826423894916 L-20.34401895499054,54.73587011298129 L-20.635019110834307,54.71855546031611 L-20.92475319662049,54.697883528247 L-21.213203435595542,54.673855585108825 L-21.500352129776754,54.64647310514588 L-21.786181661038235,54.615737768421454 L-22.07067449219198,54.58165146071474 L-22.35381316806366,54.54421627340511 L-22.635580316563725,54.503434503343826 L-22.915958649753275,54.459308652713126 L-23.19493096490472,54.411841428872656 L-23.47248014555729,54.3610357441934 L-23.748589162567217,54.30689471587897 L-24.02324107515256,54.24942166577435 L-24.296419031932622,54.1886201201621 L-24.568106271961863,54.124493809545974 L-24.838286125758287,54.057046668422046 L-25.1069420163262,53.98628283503733 L-25.374057460173283,53.91220665113581 L-25.639616068321672,53.83482266169223 " />
			<path d="M-5.129924973591825,58.929714375047 L-14.315511509029395,58.109290876985 " />
			<path d="M-14.315511509031161,58.10929087698955 L-24.922113226829374,51.985566520031604 " />
			<path d="M-14.315511509031161,58.10929087698955 L-15.033014350522365,59.95854701865049 " />
			<path d="M39.763975771405974,-5.876515350553082 L49.46346658311582,-5.010191773886226 " />
			<path d="M39.76397577140628,-5.876515350554059 L39.606987133244644,-5.306293379701378 L39.44566050836094,-4.735490232851967 L39.28001356618186,-4.1641684276738244 L39.110064449320305,-3.592390538641414 L38.9358317715883,-3.0202191901821394 L38.757334615958214,-2.4477170498173653 L38.57459253247279,-1.8749468212986589 L38.38762553610388,-1.3019712377402946 L38.19645410456026,-0.7288530547480766 L38.001099176044754,-0.15565504354612555 L37.80158214696111,0.4175600158980489 L37.59792486957036,0.9907293417498481 L37.39014964959758,1.5637901571836392 L37.17827924378876,2.136679697258491 L36.96233685741834,2.709335215792525 L36.74234614174771,3.281693992235264 L36.51833119143472,3.8536933385371426 L36.29031654189471,4.425270606015471 L36.05832716661325,4.9963631922161245 L35.82238847441096,5.5669085477699385 L35.582526306660455,6.136844183243748 L35.33876693445615,6.706107675984491 L35.09113705573692,7.274636676955903 L34.83966379236189,7.842368917567676 L34.58437468713994,8.409242216495253 L34.325297700813074,8.97519448649035 L34.062461208993994,9.54016374118112 L33.7958939990582,10.104088101861224 L33.525625266991085,10.666905804267193 L33.25168461419016,11.228555205343172 L32.974102044222995,11.78897478999249 L32.69290795954129,12.348103177814473 " />
			<path d="M50.37057748920422,0.2472090064048551 L50.213588851042594,0.817430977257537 L50.05226222615887,1.3882341241069458 L49.886615283979786,1.9595559292850924 L49.71666616711823,2.5313338183175045 L49.542433489386205,3.103505166776782 L49.36393633375612,3.6760073071415524 L49.1811942502707,4.2487775356602615 L48.994227253901784,4.821753119218625 L48.80305582235814,5.394871302210843 L48.60770089384263,5.968069313412797 L48.408183864758975,6.541284372856968 L48.20452658736823,7.114453698708763 L47.99675136739545,7.687514514142557 L47.78488096158661,8.260404054217412 L47.56893857521619,8.833059572751441 L47.34894785954555,9.405418349194179 L47.12493290923255,9.977417695496056 L46.896918259692534,10.548994962974387 L46.66492888441108,11.12008754917499 L46.428990192208786,11.690632904728801 L46.189128024458284,12.260568540202616 L45.94536865225399,12.829832032943305 L45.69773877353474,13.398361033914767 L45.44626551015969,13.966093274526532 L45.190976404937736,14.532966573454111 L44.93189941861085,15.098918843449258 L44.66906292679175,15.66388809814002 L44.40249571685596,16.22781245882013 L44.132226984788836,16.790630161226094 L43.85828633198791,17.35227956230207 L43.580703762020754,17.912699146951336 L43.29950967733904,18.47182753477332 " />
			<path d="M50.37057748920422,0.24720900640486712 L39.76397577140601,-5.876515350553079 " />
			<path d="M50.37057748920422,0.2472090064048668 L60.07006830091402,1.1135325830717204 " />
			<path d="M-16.454029532882977,54.65524615975082 L-16.759837079465285,54.681597782613636 L-17.06461631937233,54.704594393625975 L-17.36834855274891,54.724234581821364 L-17.671015143979304,54.74051714216798 L-17.972597522830732,54.75344107564268 L-18.273077185592687,54.7630055892922 L-18.572435696212274,54.7692100962819 L-18.87065468742534,54.7720542159317 L-19.167715861883416,54.7715377737395 L-19.46360099327635,54.7676608013918 L-19.758291927450607,54.76042353676183 L-20.051770583523084,54.749826423894916 L-20.34401895499054,54.73587011298129 L-20.635019110834307,54.71855546031611 L-20.92475319662049,54.697883528247 L-21.213203435595542,54.673855585108825 L-21.500352129776754,54.64647310514588 L-21.786181661038235,54.615737768421454 L-22.07067449219198,54.58165146071474 L-22.35381316806366,54.54421627340511 L-22.635580316563725,54.503434503343826 L-22.915958649753275,54.459308652713126 L-23.19493096490472,54.411841428872656 L-23.47248014555729,54.3610357441934 L-23.748589162567217,54.30689471587897 L-24.02324107515256,54.24942166577435 L-24.296419031932622,54.1886201201621 L-24.568106271961863,54.124493809545974 L-24.838286125758287,54.057046668422046 L-25.1069420163262,53.98628283503733 L-25.374057460173283,53.91220665113581 L-25.639616068321672,53.83482266169223 " />
			<path d="M-25.63961606832043,53.834822661692165 L-30.22541408573063,65.65403041630896 " />
			<path d="M-15.033014350522368,59.95854701865051 L-25.63961606832058,53.83482266169257 " />
			<path d="M-5.847427815083268,60.778970516708625 L-6.15323536166558,60.80532213957146 L-6.4580146015726,60.82831875058382 L-6.761746834949186,60.84795893877922 L-7.064413426179588,60.86424149912585 L-7.365995805031016,60.877165432600556 L-7.666475467792978,60.8867299462501 L-7.965833978412572,60.89293445323982 L-8.264052969625642,60.89577857288965 L-8.561114144083724,60.89526213069746 L-8.856999275476664,60.89138515834976 L-9.151690209650887,60.88414789371981 L-9.445168865723378,60.87355078085293 L-9.737417237190837,60.85959446993931 L-10.028417393034577,60.842279817274154 L-10.318151478820798,60.821607885205054 L-10.606601717795861,60.797579942066896 L-10.89375041197708,60.77019746210397 L-11.1795799432386,60.73946212537956 L-11.46407277439232,60.705375817672866 L-11.747211450264,60.66794063036325 L-12.028978598764077,60.62715886030198 L-12.309356931953605,60.58303300967131 L-12.588329247105058,60.53556578583086 L-12.865878427757632,60.484760101151615 L-13.141987444767569,60.43061907283721 L-13.41663935735292,60.373146022732605 L-13.689817314132984,60.31234447712037 L-13.961504554162236,60.24821816650426 L-14.23168440795867,60.18077102538035 L-14.500340298526588,60.11000719199564 L-14.767455742373649,60.03593100809415 L-15.033014350522048,59.95854701865059 " />
			<path d="M-15.033014350522365,59.95854701865049 L-19.618812367932414,71.77775477326689 " />
			<path d="M-36.45041162140122,48.23737734106644 L-30.000000000000004,51.96152422706633 " />

       </g>

       <!-- solid lines -->
       <g  stroke="rgb(0,0,0)" fill="none">
			<path d="M-7.0880718618359415,40.66588448713347 L3.5185298559622717,46.78960884409141 " />
			<path d="M32.69290795954806,12.348103177801107 L32.35376578092639,13.011423216305786 L32.009609739715074,13.672726874753012 L31.660493169770568,14.33191167092498 L31.30647017368238,14.988875450963869 L30.947595614388824,15.643516405202716 L30.583925106674844,16.295733083942864 L30.215515008553503,16.945424413175516 L29.842422412532116,17.592489710245236 L29.464705136764575,18.236828699452854 L29.082421716091336,18.87834152759504 L28.69563139296829,19.516928779438604 L28.30439410828586,20.1524914931269 L27.90877049208013,20.784931175515847 L27.508821854136897,21.41414981743746 L27.104610174490453,22.04004990888844 L26.696198093818623,22.662534454141166 L26.283648903735326,23.28150698677515 L25.867026536982237,23.896871584626492 L25.446395557521186,24.508532884652798 L25.02182115052869,25.1163960977117 L24.5933691122941,25.720367023250382 L24.161105840023232,26.320352063903716 L23.72509832154881,26.91625823999911 L23.285414124949288,27.50799320396558 L22.84212138807794,28.09546525464474 L22.395288808003457,28.678583351501818 L21.94498563036395,29.25725712873428 L21.491281638635975,29.831396909275693 L21.03424714332021,30.40091371869302 L20.573952971045404,30.965719298975028 L20.11047045359243,31.52572612220952 L19.643871416839996,32.0808474041476 L19.17422816963368,32.630997117652704 L18.701613492580282,33.17609000603217 L18.226100626769163,33.71604159624935 L17.747763262421905,34.25076821201451 L17.26667552747253,34.780186986752206 L16.782911976079983,35.30421587644297 L16.296547577074463,35.82277367233778 L15.807657702339414,36.33578001354294 L15.316318115131313,36.84315539947353 L14.82260495833852,37.34482120217371 L14.32659474268139,37.84069967850173 L13.828364334855474,38.33071398217765 L13.327990945619478,38.81478817569233 L12.82555211782986,39.29284724207539 L12.321125714424142,39.76481709652059 L11.814789906354394,40.23062459786674 L11.306623160473043,40.69019755993251 L10.79670422737291,41.143464762702976 L10.285112129183316,41.59035596336664 L9.771926147323953,42.030801907200896 L9.257225810218563,42.4647343383046 L8.741090880970551,42.8920860101755 L8.223601345002011,43.31279069613153 L7.704837397658418,43.72678319957395 L7.1848794317808125,44.13399936409079 L6.663808025247276,44.53437608339922 L6.141703928485692,44.92785131112518 L5.618648051959971,45.31436407041863 L5.094721453631331,45.69385446340315 L4.5700053263966804,46.06626368045836 L4.0445809855062915,46.43153400933355 L3.5185298559626745,46.78960884409114 " />
			<path d="M22.086306241742655,6.224378820856964 L32.69290795954087,12.348103177814911 " />
			<path d="M-7.088071861835939,40.66588448713346 L-6.562020732292098,40.30780965237572 L-6.0365963914019325,39.94253932350069 L-5.511880264167505,39.57013010644565 L-4.987953665839012,39.190639713461245 L-4.46489778931344,38.80412695416791 L-3.9427936925520406,38.410651726442104 L-3.4217222860186887,38.01027500713384 L-2.901764320141261,37.60305884261716 L-2.3830003727978486,37.1890663391749 L-1.8655108368295004,36.768361653219046 L-1.3493759075816598,36.34100998134832 L-0.8346755704764117,35.90707755024478 L-0.32148958861718846,35.46663160641067 L0.19010250957223285,35.0197404057472 L0.70002144267219,34.566473202976916 L1.2081881885533736,34.10690024091135 L1.714523996622944,33.6410927395654 L2.2189504000285005,33.16912288512041 L2.7213892278179515,32.691063818737554 L3.2217626170538196,32.20698962522306 L3.7199930248796083,31.716975321547313 L4.216003240536578,31.221096845219517 L4.709716397329206,30.719431042519556 L5.201055984537158,30.212055656589182 L5.689945859272054,29.69904931538426 L6.176310258277425,29.18049151948969 L6.660073809669825,28.656462629799154 L7.141161544619088,28.127043855061668 L7.619498908966236,27.592317239296715 L8.09501177477718,27.052365649079814 L8.5676264518304,26.507272760700634 L9.03726969903662,25.95712304719574 L9.50386873578896,25.40200176525787 L9.967351253241766,24.84199494202368 L10.42764542551641,24.277189361741964 L10.884679920832088,23.70767255232486 L11.338383912559976,23.13353277178367 L11.788687090199371,22.554858994551477 L12.235519670273735,21.971740897694662 L12.678812407144974,21.38426884701577 L13.118496603744394,20.79253388304957 L13.554504122218713,20.19662770695445 L13.986767394489483,19.59664266630139 L14.415219432724008,18.99267174076294 L14.839793839716439,18.38480852770427 L15.260424819177398,17.773147227678233 L15.677047185930409,17.157782629827167 L16.089596376013624,16.538810097193466 L16.498008456685376,15.916325551941021 L16.902220136331778,15.290425460490276 L17.302168774274975,14.6612068185689 L17.697792390480643,14.028767136180235 L18.089029675163005,13.393204422492214 L18.475819998286003,12.754617170648942 L18.858103418959185,12.113104342507036 L19.23582069472671,11.468765353299656 L19.60891329074808,10.82170005623017 L19.977323388869355,10.172008726997849 L20.340993896583278,9.519792048258033 L20.699868455876828,8.86515109401942 L21.053891451965015,8.208187313980762 L21.4030080219095,7.549002517809078 L21.747164063120785,6.887698859362126 L22.086306241742214,6.224378820858205 " />
			<path d="M-7.088071861835942,-5.48649403702937 L-7.0880718618359415,40.66588448713347 " />
			<path d="M42.36341242690564,-21.789873089045 L42.346107718123356,-21.435860996815496 L42.32670776157958,-21.080788277241716 L42.30521351716692,-20.724672499006154 L42.28162604840146,-20.367531282400904 L42.25594652237021,-20.009382298455833 L42.228176209673265,-19.650243268064255 L42.166368823866144,-18.929066195568684 L42.096216123526766,-18.20414279595009 L42.01773199285636,-17.475616541694976 L41.930931964962824,-16.743631618345205 L41.835833218786476,-16.008332895961622 L41.73245457570016,-15.269865900452334 L41.620816495784176,-14.528376784770993 L41.50094107377698,-13.784012299991165 L41.372852034702305,-13.036919766262162 L41.236574729173675,-12.28724704365241 L41.09213612837713,-11.535142502885803 L40.939564818733245,-10.780754995977071 L40.77889099623965,-10.024233826772399 " />
			<path d="M22.086306241742456,6.224378820857731 L22.367500326424413,5.665250433035273 L22.645082896391564,5.104830848386007 L22.919023549192488,4.5431814473100305 L23.18929228125962,3.9803637449040634 L23.45585949119541,3.4164393842239553 L23.7186959830145,2.851470129533195 L23.977772969341373,2.2855178595380954 L24.23306207456333,1.7186445606105218 L24.48453533793836,1.1509123199987483 L24.7321652166576,0.582383319027338 L24.975924588861886,0.013119826286644987 L25.215786756612395,-0.5568158091871673 L25.4517254488147,-1.1273611647409743 L25.683714824096135,-1.6984537509415816 L25.91172947363617,-2.270031018419958 L26.135744423949163,-2.8420303647218392 L26.35573513961981,-3.4143891411645746 L26.571677525990246,-3.987044659698655 L26.783547931799085,-4.559934199773506 L26.991323151771866,-5.1329950152073005 L27.194980429162612,-5.706164341059096 L27.394497458246263,-6.279379400503273 L27.589852386761763,-6.8525774117051705 L27.7810238183054,-7.425695594697395 L27.9679908146743,-7.998671178255762 L28.150732898159724,-8.571441406774415 L28.3292300537898,-9.143943547139191 L28.50346273152183,-9.716114895598466 L28.67341184838338,-10.28789278463088 L28.83905879056247,-10.859214589809019 L29.00038541544619,-11.430017736658433 L29.15737405360769,-12.00023970751063 " />
			<path d="M31.75681070910743,-27.913597446002935 L-7.088071861835942,-5.48649403702937 " />
			<path d="M29.157374053609736,-12.000239707518176 L29.295050334077352,-12.513304885765045 L29.429180975886865,-13.02580228943199 L29.559754060263863,-13.537686378284082 L29.686757984556564,-14.048911666585347 L29.81018146326671,-14.559432727140322 L29.930013529052466,-15.069204195330833 L30.04624353370299,-15.578180773147203 L30.158861149084572,-16.086317233213133 L30.26785636805839,-16.593568422804772 L30.373219505369782,-17.09988926786291 L30.47494119850883,-17.605234776998227 L30.573012408542333,-18.109560045489232 L30.667424420916994,-18.612820259272436 L30.758168846233787,-19.11497069892452 L30.845237620993423,-19.615966743636033 L30.928623008312925,-20.115763875176572 L31.008317598613033,-20.614317681850338 L31.084314310276667,-21.111583862442686 L31.156606390278213,-21.607518230156863 L31.22518741478357,-22.102076716540125 L31.29005128972095,-22.595215375399818 L31.351192251322423,-23.086890386708387 L31.408604866636068,-23.577058060497176 L31.46228403400876,-24.065674840738712 L31.51222498353946,-24.552697309217056 L31.55842327750311,-25.038082189385932 L31.600874810744955,-25.521786350214203 L31.639575811045304,-26.003766810018647 L31.674522839454752,-26.483980740283055 L31.705712790599733,-26.962385469464017 L31.733142892958526,-27.43893848678288 L31.756810709107405,-27.913597446002484 " />
			<path d="M31.756810709107427,-27.91359744600293 L42.36341242690564,-21.789873089044985 " />
			<path d="M-7.088071861835943,-56.97618152003247 L-7.088071861835942,-5.48649403702937 " />
			<path d="M31.756810709107427,-27.91359744600293 L42.36341242690564,-21.789873089044985 " />
			<path d="M31.75681070910743,-27.913597446002935 L-7.088071861835942,-5.48649403702937 " />
			<path d="M42.42640687119285,-24.494897427831795 L42.422468804653406,-23.825150420582975 L42.41065533610655,-23.15098045911355 L42.39096865863102,-22.472512697843268 L42.363412426905654,-21.78987308904523 " />
			<path d="M29.99999999999168,-51.96152422707112 L30.18351179794447,-51.8542694264448 L30.365887203737845,-51.745062341882736 L30.54711935104087,-51.63390708496993 L30.72720141656564,-51.520807840638966 L30.90612662032416,-51.405768867012476 L31.083888225883623,-51.288794495242804 L31.260479540620068,-51.16988912934894 L31.435893915970315,-51.04905724605067 L31.61012474768226,-50.92630339460013 L31.783165476063555,-50.801632196610456 L31.9550095862286,-50.67504834588179 L32.125650608343776,-50.54655660822453 L32.295082117871026,-50.416161821280014 L32.46329773580979,-50.283868894338255 L32.630291128937145,-50.149682808153166 L32.79605601004619,-50.01360861475508 L32.960586138182876,-49.87565143726045 L33.123875318880856,-49.73581646967902 L33.285917404394766,-49.594108976718324 L33.44670629393167,-49.45053429358535 L33.606235933880775,-49.30509782578577 L33.76450031804128,-49.15780504892041 L33.92149348784858,-49.00866150847906 L34.07720953259858,-48.857672819631716 L34.231642589670194,-48.70484466701718 L34.3847868447461,-48.55018280452903 L34.53663653203166,-48.39369305509896 L34.687185934471984,-48.23538131047758 L34.83642938396715,-48.0752535310126 L34.984361261585626,-47.913315745424434 L35.13097599777584,-47.74957405057917 L35.27626807257586,-47.58403461125906 L35.42023201582118,-47.41670365993043 L35.56286240735068,-47.247587496509055 L35.70415387721076,-47.07669248812287 L35.84410110585743,-46.90402506887235 L35.98269882435663,-46.729591739588265 L36.119941814582596,-46.55339906758686 L36.25582490941432,-46.37545368642262 L36.39034299293007,-46.195762295638616 L36.52349100060005,-46.01433166051413 L36.65526391947702,-45.83116861181002 L36.785656788385054,-45.646280045511574 L36.914664698106336,-45.459672922568785 L37.042282791565995,-45.27135426863436 L37.16850626401493,-45.08133117379921 L37.29333036321074,-44.88961079232543 L37.41675038959667,-44.69620034237702 L37.53876169647845,-44.50110710574811 L37.65935969019935,-44.30433842758881 L37.77853983031307,-44.10590171612863 L37.8962976297547,-43.90580444239757 L38.01262865500964,-43.70405413994491 L38.12752852628054,-43.50065840455553 L38.24099291765219,-43.29562489396389 L38.3530175572544,-43.08896132756576 L38.46359822742278,-42.88067548612763 L38.57273076485761,-42.67077521149372 L38.680411060780536,-42.45926840629071 L38.78663506108928,-42.24616303363025 L38.891398766510264,-42.03146711680924 L38.9946982327492,-41.815188739007546 L39.19688894628904,-41.37791723076908 L39.39317675253106,-40.934414360395586 L39.58353209125362,-40.484746917788044 L39.76792629564292,-40.028982621209266 L39.94633159661003,-39.5671901070859 L40.11872112697283,-39.099438919671954 L40.28506892550216,-38.62579950057575 L40.445349940831434,-38.14634317815162 L40.599540035229296,-37.66114215675812 L40.7476159882347,-37.17026950588438 L40.88955550015378,-36.67379914914605 L41.025337195418146,-36.171805853152705 L41.15494062580392,-35.66436521624821 L41.27834627351122,-35.151553657125994 L41.395535554103404,-34.6334484033206 L41.50649081930588,-34.11012747957748 L41.61119535966385,-33.58166969610285 L41.70963340705865,-33.04815463669506 L41.80179013708243,-32.50966264675965 L41.88765167127063,-31.966274821209577 L41.96720507919202,-31.418072992252622 L42.040438380396004,-30.865139717067795 L42.10734054621677,-30.307558265372464 L42.167901501434244,-29.745412606882354 L42.222112125791334,-29.178787398665854 L42.269964255367405,-28.607767972395123 L42.311450683807756,-28.032440321495404 L42.346565163408876,-27.452891088194672 L42.37530240605929,-26.86920755047571 L42.39765808403595,-26.281477608932374 L42.41362883065601,-25.68978977353199 L42.42321224078374,-25.094233150286186 L42.42640687119285,-24.494897427832008 " />
			<path d="M31.81980515339464,-30.618621784790808 L31.81661052298552,-31.217957507244872 L31.80702711285778,-31.813514130490397 L31.791056366237733,-32.40520196589049 L31.768700688261085,-32.99293190743352 L31.739963445610684,-33.57661544515219 L31.704848966009592,-34.15616467845266 L31.663362537569263,-34.7314923293521 L31.615510407993227,-35.30251175562256 L31.56129978363618,-35.86913696383881 L31.500738828418754,-36.43128262232865 L31.43383666259804,-36.98886407402373 L31.360603361394126,-37.541797349208316 L31.281049953472802,-38.089999178165 L31.195188419284662,-38.63338700371484 L31.103031689260966,-39.171878993650026 L31.00459364186625,-39.705394053057546 L30.899889101508386,-40.233851836531926 L30.788933836306,-40.757172760274834 L30.671744555713907,-41.275278014080044 L30.548338908006727,-41.78808957320202 L30.41873547762107,-42.29553021010632 L30.282953782356827,-42.797523506099495 L30.14101427043788,-43.29399386283761 L29.992938317432603,-43.78486651371117 L29.83874822303487,-44.2700675351045 L29.678467207705744,-44.74952385752844 L29.512119409176563,-45.22316327662448 L29.339729878813912,-45.69091446403827 L29.161324577846983,-46.15270697816147 L28.976930373457847,-46.60847127474011 L28.786575034735442,-47.05813871734754 L28.590287228493615,-47.501641587720876 L28.388096514953965,-47.938913095959194 L28.28479704871512,-48.155191473760816 L28.180033343294227,-48.369887390581816 L28.073809342985562,-48.58299276324222 L27.966129047062736,-48.79449956844516 L27.85699650962801,-49.00439984307902 L27.746415839459736,-49.21268568451709 L27.63439119985764,-49.41934925091514 L27.52092680848608,-49.624382761506766 L27.406026937215273,-49.82777849689613 L27.289695911960443,-50.02952879934871 L27.17193811251893,-50.229626073079714 L27.052757972405324,-50.42806278453987 L26.93215997868453,-50.62483146269912 L26.81014867180285,-50.819924699328006 L26.686728645417034,-51.013335149276394 L26.561904546221328,-51.20505553075014 L26.435681073772514,-51.39507862558525 L26.308062980312975,-51.58339727951963 L26.179055070591815,-51.77000440246239 L26.048662201683882,-51.954892968760845 L25.91688928280702,-52.13805601746494 L25.783741275137174,-52.319486652589404 L25.649223191621537,-52.499178043373384 L25.513340096789946,-52.677123424537584 L25.376097106564103,-52.853316096538975 L25.237499388065018,-53.027749425823075 L25.097552159418456,-53.2004168450736 L24.956260689558505,-53.371311853459765 L24.813630298029132,-53.54042801688114 L24.669666354783963,-53.707758968209745 L24.524374279984087,-53.87329840752984 L24.377759543793978,-54.03704010237512 L24.22982766617561,-54.1989778879633 L24.08058421668059,-54.359105667428274 L23.930034814240415,-54.517417412049646 L23.778185126954995,-54.673907161479725 L23.62504087187923,-54.82856902396788 L23.470607814807742,-54.98139717658244 L23.31489177005787,-55.13238586542981 L23.15789860025071,-55.28152940587117 L22.99963421609035,-55.428822182736546 L22.8401045761414,-55.57425865053614 L22.67931568660464,-55.71783333366913 L22.51727360109085,-55.85954082662987 L22.353984420392997,-55.999375794211325 L22.18945429225647,-56.13733297170598 L22.023689411147565,-56.273407165104096 L21.856696018020372,-56.40759325128921 L21.688480400081758,-56.539886178231 L21.51904889055463,-56.67028096517557 L21.348407868439594,-56.79877270283287 L21.176563758274703,-56.925356553561585 L21.00352302989356,-57.050027751551305 L20.82929219818178,-57.17278160300187 L20.653877822831703,-57.293613486300174 L20.47728650809539,-57.41251885219411 L20.299524902536056,-57.52949322396385 L20.1205996987777,-57.64453219759037 L19.940517633253105,-57.75763144192139 L19.75928548595024,-57.868786698834256 L19.576910080157024,-57.977993783396386 L19.393398282204647,-58.085248584022615 " />
			<path d="M19.393398282204373,-58.08524858402277 L19.06236224425702,-58.2722001928197 L18.7277528995533,-58.4528710800762 L18.38961054818031,-58.627239485932265 L18.04797591573773,-58.79528440959382 L17.702890148432807,-58.95698561186201 L17.354394808124784,-59.11232361757084 L17.00253186731919,-59.26127971793269 L16.64734370411272,-59.40383597279163 L16.288873097089258,-59.53997521278411 L15.927163220167635,-59.669681041406804 L15.56225763740181,-59.792937836991406 L15.19420029773406,-59.90973075458612 L14.823035529701777,-60.02004572774351 L14.448808036098598,-60.123869470214714 L14.071562888590421,-60.2211894775496 L13.691345522287019,-60.31199402860278 L13.308201730269865,-60.39627218694534 L12.922177658076844,-60.47401380218196 L12.533319798144536,-60.54520951117345 L12.141674984208695,-60.60985073916447 L11.747290385663618,-60.66792970081618 L11.350213501881125,-60.71943940114399 L10.950492156489751,-60.76437363635997 L10.548174491614912,-60.80272699462007 L10.143308962080717,-60.83449485667591 L9.735944329574096,-60.85967339643107 L9.326129656771968,-60.87825958140197 L8.913914301432193,-60.890251173083065 L8.49934791044896,-60.895646727216466 L8.082480413873334,-60.89444559396585 L7.66336201889974,-60.88664791799477 L7.2420432038190405,-60.872254638449206 L6.818574711938979,-60.851267488844464 L6.3930075454726705,-60.823688996856376 L5.965392959395956,-60.7895224840169 L5.535782455274308,-60.74877206531406 L5.1042277750599805,-60.70144264869632 L4.670780894860275,-60.64753993448151 L4.235494018677587,-60.587070414670265 L3.7984195721219756,-60.520041372164144 L3.359610196097073,-60.44646087988846 L2.919118740460071,-60.36633779982002 L2.4769982576564917,-60.279681781919756 L2.0333019963306302,-60.18650326297051 L1.588083394912287,-60.086813465320056 L1.1413960751807366,-59.98062439552947 L0.6932938358065126,-59.867948842927014 L0.24383064587198433,-59.74880037806793 L-0.20693936162868276,-59.62319335109989 L-0.6589618963092292,-59.491142890034745 L-1.11218251693,-59.35266489892647 L-1.5665466379548256,-59.20777605595575 L-2.0219995361252288,-59.0564938114212 L-2.4784863570512563,-58.898836385637765 L-2.935952121818147,-58.73482276674217 L-3.3943417336078703,-58.56447270840608 L-3.8535999843350055,-58.38780672745695 L-4.313671561295951,-58.20484610140699 L-4.774501053830701,-58.01561286589057 L-5.236032959996514,-57.820129812010165 L-5.698211693252492,-57.618420483591535 L-6.160981589154396,-57.41050917434803 L-6.624286912058814,-57.1964209249547 L-7.088071861835882,-56.97618152003248 " />
			<path d="M42.42640687119285,-24.494897427831788 L31.81980515339464,-30.618621784789735 " />
			<path d="M31.756810709107427,-27.91359744600294 L31.78436694083281,-28.596237054801463 L31.804053618308345,-29.274704816072042 L31.815867086855206,-29.948874777541743 L31.81980515339464,-30.618621784790374 " />
			<path d="M-27.060631250680803,48.53152180279153 L-16.45402953288259,54.655246159749474 " />
			<path d="M3.518529855962298,46.78960884409139 L3.200473389702277,47.002411832379764 L2.8822359220676774,47.21255661979764 L2.5638354508394614,47.42003132169837 L2.2452899830172073,47.624824204440806 L1.926617533800711,47.826923686052915 L1.6078361255711457,48.026318336886796 L1.288963786871792,48.222996880265065 L0.9700185513885332,48.41694819311859 L0.6510184569298106,48.60816130661562 L0.3319815444065798,48.796625406782056 L0.01292585681211258,48.982329835113006 L-0.30613056179853376,49.165264089175665 L-0.6251696673289839,49.34541782320318 L-0.9441734166619657,49.52278084867981 L-1.2631237686797878,49.69734313491713 L-1.5820026852846045,49.8690948096213 L-1.9007921324185777,50.03802615945138 L-2.2194740810837645,50.20412763056864 L-2.5380305083617687,50.36738982917697 L-2.8564433984329805,50.52780352205402 L-3.174694743595496,50.68535963707346 L-3.4927665452834953,50.84004926371803 L-3.8106408150851694,50.991863653583465 L-4.128299575759994,51.14079422087323 L-4.445724862255564,51.28683254288418 L-4.762898722723475,51.42997036048281 L-5.079803219534566,51.57019957857236 L-5.396420430293436,51.70751226655064 L-5.712732448852035,51.84190065875856 L-6.0287213863223075,51.97335715491931 L-6.344369372087933,52.101874320568164 L-6.65965855481494,52.22744488747296 L-6.974571103461334,52.350061754045136 L-7.289089208285454,52.46971798574135 L-7.603195081853287,52.586406815455696 L-7.91687096004435,52.70012164390238 L-8.23009910305636,52.81085603998894 L-8.542861796408506,52.91860374117998 L-8.855141351943292,53.023358653851325 L-9.166920108826815,53.125114853634635 L-9.478180434547694,53.223866585752496 L-9.788904725914211,53.319608265343824 L-10.09907541004976,53.41233447777976 L-10.408674945386776,53.50203997896984 L-10.717685822658773,53.588719695658654 L-11.026090565890563,53.67236872571267 L-11.333871733386601,53.75298233839753 L-11.6410119187174,53.83055597464559 L-11.94749375170394,53.90508524731373 L-12.253299899400032,53.97656594143149 L-12.55841306707256,54.04499401443944 L-12.862815999179606,54.1103655964178 L-13.166491480346304,54.1726769903053 L-13.46942233633846,54.23192467210828 L-13.771591435033844,54.28810529109997 L-14.072981687391025,54.34121567001 L-14.373576048415968,54.391252805204104 L-14.67335751812591,54.43821386685395 L-14.972309142510754,54.48209619909722 L-15.270414014491957,54.52289732018776 L-15.5676552748787,54.560614922636006 L-15.864016113321334,54.59524687333942 L-16.159479769262095,54.62679121370315 L-16.45402953288263,54.65524615975079 " />
			<path d="M-7.0880718618359415,40.66588448713347 L3.5185298559622717,46.78960884409141 " />
			<path d="M-27.06063125068121,48.531521802792874 L-26.766081487060326,48.50306685674521 L-26.47061783111957,48.47152251638148 L-26.17425699267693,48.43689056567806 L-25.877015732290204,48.399172963229816 L-25.578910860309023,48.35837184213928 L-25.27995923592418,48.31448950989601 L-24.980177766214233,48.26752844824617 L-24.679583405189256,48.21749131305206 L-24.37819315283204,48.16438093414202 L-24.07602405413666,48.10820031515033 L-23.773093198144498,48.04895263334735 L-23.46941771697782,47.98664123945985 L-23.16501478487079,47.9212696574815 L-22.859901617198265,47.85284158447355 L-22.554095469502176,47.78136089035579 L-22.247613636515638,47.70683161768765 L-21.940473451184836,47.62925798143959 L-21.63269228368879,47.54864436875472 L-21.324287540457007,47.46499533870072 L-21.015276663185027,47.37831562201191 L-20.705677127848027,47.28861012082182 L-20.395506443712485,47.19588390838589 L-20.084782152345966,47.10014222879456 L-19.773521826625046,47.001390496676706 L-19.46174306974149,46.89963429689338 L-19.14946351420671,46.79487938422203 L-18.83670082085456,46.68713168303099 L-18.523472677842562,46.57639728694443 L-18.209796799651524,46.46268245849776 L-17.895690926083688,46.34599362878341 L-17.58117282125956,46.22633739708719 L-17.26626027261318,46.10372053051503 L-16.950971089886163,45.97814996361023 L-16.635323104120545,45.84963279796137 L-16.31933416665027,45.718176301800625 L-16.003022148091688,45.5837879095927 L-15.686404937332842,45.446475221614435 L-15.369500440521751,45.30624600352489 L-15.052326580053837,45.16310818592626 L-14.734901293558234,45.0170698639153 L-14.417242532883368,44.86813929662551 L-14.099368263081693,44.71632490676008 L-13.781296461393698,44.56163528011551 L-13.4630451162312,44.40407916509607 L-13.144632226160006,44.243665472219035 L-12.826075798882005,44.080403273610706 L-12.507393850216811,43.91430180249344 L-12.188604403082842,43.745370452663366 L-11.869725486478025,43.5736187779592 L-11.550775134460206,43.39905649172187 L-11.231771385127217,43.221693466245235 L-10.912732279596792,43.041539732217736 L-10.59367586098616,42.85860547815509 L-10.2746201733917,42.67290104982414 L-9.955583260868462,42.484436949657706 L-9.6365831664097,42.29322383616066 L-9.317637930926402,42.09927252330711 L-8.998765592227056,41.90259397992884 L-8.679984183997483,41.70319932909495 L-8.361311734781005,41.501099847482855 L-8.042766266958775,41.29630696474043 L-7.724365795730563,41.08883226283971 L-7.4061283280959564,40.87868747542183 L-7.088071861836315,40.66588448713372 " />
			<path d="M-36.246217786120525,47.71109830473409 L-35.980659177971845,47.78848229417777 L-35.71354373412474,47.86255847807929 L-35.44488784355682,47.93332231146402 L-35.1747079897604,48.00076945258796 L-34.903020749731155,48.06489576320408 L-34.62984279295108,48.12569730881635 L-34.355190880365726,48.18317035892097 L-34.079081863355796,48.2373113872354 L-33.80153268270323,48.28811707191466 L-33.522560367551776,48.33558429575514 L-33.24218203436221,48.37971014638585 L-32.960414885862136,48.420491916447126 L-32.67727620999045,48.45792710375677 L-32.39278337883669,48.49201341146349 L-32.10695384757518,48.522748748187915 L-31.819805153393947,48.55013122815086 L-31.53135491441888,48.57415917128905 L-31.241620828632666,48.59483110335816 L-30.95062067278888,48.61214575602334 L-30.658372301321418,48.62610206693697 L-30.364893645248934,48.63669917980388 L-30.070202711074664,48.643936444433855 L-29.77431757968171,48.64781341678156 L-29.47725640522364,48.648329858973774 L-29.179037414010573,48.64548573932396 L-28.879678903390968,48.639281232334255 L-28.57919924062899,48.629716718684726 L-28.277616861777567,48.61679278521004 L-27.974950270547172,48.60051022486342 L-27.671218037170576,48.58087003666804 L-27.366438797263513,48.55787342565569 L-27.060631250681382,48.531521802792895 " />
			<path d="M-7.088071861835942,-5.48649403702937 L-7.0880718618359415,40.66588448713347 " />
			<path d="M-52.97001414470385,21.003457690927277 L-52.94085852232905,21.54508466602647 L-52.906181614121486,22.083103041027318 L-52.86598794268616,22.617442646911734 L-52.82028275013113,23.1480337944512 L-52.76907199738381,23.674807283295777 L-52.71236236341356,24.197694410999247 L-52.650161244360575,24.716626981979417 L-52.5824767525713,25.23153731641219 L-52.509317715540384,25.742358259058555 L-52.4306936747594,26.24902318802302 L-52.34661488447243,26.75146602344243 L-52.25709231033872,27.249621236104343 L-52.162137628002455,27.743423855993324 L-52.06176322157009,28.232809480764413 L-51.95598218199513,28.717714284142634 L-51.84480830537086,29.19807502424722 L-51.72825609113098,29.6738290518397 L-51.6063407401586,30.144914318494767 L-51.4790781528037,30.61126938469261 L-51.34648492680945,31.072833427832013 L-51.20857835514743,31.529546250162856 L-51.0653764237623,31.98134828663721 L-50.916897809226064,32.42818061267788 L-50.763161876302206,32.86998495186341 L-50.60418867542017,33.306703683528575 L-50.4399989400603,33.738279850279355 L-50.2706140840498,34.16465716542133 L-50.09605619876987,34.58578002030074 L-49.916348050274614,35.00159349155698 L-49.73151307632171,35.41204334828578 L-49.54157538331579,35.81707605911209 L-49.34655974316432,36.21663879917163 L-49.14649159004694,36.61067945700053 L-48.9413970170982,36.99914664133162 L-48.73130277300451,37.38198968779698 L-48.51623625851556,37.759158665535715 L-48.29622552287064,38.13060438370591 L-48.07129926014046,38.49627839790022 L-47.84148680548479,38.85613301646404 L-47.60681813132658,39.21012130671548 L-47.367323843442904,39.558197101066405 L-47.1230351769733,39.90031500304369 L-46.87398399234607,40.236430393209815 L-46.62020277112297,40.56649943498228 L-46.361724611762966,40.89047908035075 L-46.09858322530546,41.20832707549146 L-45.83081293097367,41.52000196627802 L-45.558448651698676,41.82546310368788 L-45.281525909564714,42.12467064910388 L-45.00008082117637,42.41758557950997 L-44.71415009294815,42.704169692580734 L-44.42377101631728,42.98438561166372 L-44.12898146288002,43.25819679065417 L-43.82981987945244,43.52556751876139 L-43.52632528305612,43.78646292516624 L-43.21853725582959,44.04084898356897 L-42.90649593986583,44.288692516627 L-42.590242031977,44.529961200282 L-42.26981677838669,44.76462356797551 L-41.94526196935051,44.992649014752985 L-41.616619933705785,45.214007801255235 L-41.28393353335093,45.428671057597114 L-40.947246157655414,45.636610787132746 L-40.606601717800935,45.83779987010681 " />
			<path d="M-40.6066017178008,45.837799870106885 L-40.34962937993557,45.98364273416917 L-40.090493193488165,46.125694711382906 L-39.82921201099357,46.263945467259816 L-39.56580484103836,46.39838494385607 L-39.300290846877786,46.52900336050395 L-39.032689345041646,46.655791214523376 L-38.76301980392895,46.778739281913325 L-38.49130184239157,46.89783861802282 L-38.21755522830696,47.013080558201686 L-37.941799877140014,47.12445671843095 L-37.66405585049414,47.23195899593272 L-37.3843433546518,47.33557956975975 L-37.102682739104466,47.43531090136435 L-36.81909449507215,47.53114573514692 L-36.533599254012636,47.62307709898371 L-36.24621778612068,47.71109830473405 " />
			<path d="M-7.088071861835928,-5.486494037029378 L-52.97001414470385,21.0034576909273 " />
			<path d="M-7.088071861835925,-56.97618152003246 L-7.652652937728217,-56.7000947988673 L-8.217760173236524,-56.414999375915784 L-8.783292911027853,-56.12094603259269 L-9.349150417978407,-55.81798714590445 L-9.915231903116236,-55.50617667911968 L-10.481436535574254,-55.185570172157206 L-11.047663462550261,-54.85622473169326 L-11.613811827270943,-54.518199020989606 L-12.17978078695656,-54.171553249444365 L-12.745469530783144,-53.81634916186749 L-13.310777297838968,-53.452650027482754 L-13.875603395072197,-53.080520628658135 L-14.439847215226372,-52.700027249366784 L-15.003408254760693,-52.31123766338043 L-15.56618613175176,-51.91422112219751 L-16.12808060377369,-51.50904834270798 L-16.688991585753353,-51.09579149459722 L-17.248819167797638,-50.6745241874911 L-17.807463632989432,-50.24532145784457 L-18.364825475149328,-49.8082597555761 L-18.9208054165597,-49.3634169304504 L-19.475304425648144,-48.9108722182117 L-20.02822373462706,-48.450706226470274 L-20.57946485708623,-47.98300092034454 L-21.128929605535298,-47.50783960786135 L-21.676520108893023,-47.025306925117086 L-22.222138829920105,-46.5354888212023 L-22.765688582592663,-46.038472542892265 L-23.30707254941301,-45.53434661910662 L-23.846194298654886,-45.023200845140515 L-24.38295780153999,-44.50512626667013 L-24.91726744934264,-43.98021516353564 L-25.4490280704197,-43.448561033304216 L-25.978144947162626,-42.910258574616165 L-26.504523832868635,-42.36540367031716 L-27.02807096852801,-41.81409337037946 L-27.54869309952452,-41.25642587461538 L-28.066297492245987,-40.6925005151858 L-28.58079195060209,-40.12241773890704 L-29.092084832446403,-39.546279089359246 L-29.60008506589974,-38.964187188799336 L-30.104702165571993,-38.37624571988186 L-30.60584624867939,-37.78255940719092 L-31.103428051054568,-37.18323399858664 L-31.597358943046302,-36.578376246369174 L-32.08755094530633,-35.96809388826399 L-32.573916744460284,-35.35249562823148 L-33.056369708660036,-34.731691117104546 L-33.53482390301458,-34.10579093305755 L-34.00919410489689,-33.47490656190999 L-34.47939581912379,-32.839150377268574 L-34.945345293006284,-32.19863562051117 L-35.406959531267724,-31.553476380616157 L-35.86415631082692,-30.903787573840788 L-36.31685419544381,-30.249684923252243 L-36.76497255022494,-29.591284938114928 L-37.20843155598621,-28.928704893137777 L-37.64715222347036,-28.262062807585174 L-38.08105640741649,-27.591477424255288 L-38.51006682047954,-26.91706818832947 L-38.93410704699658,-26.238955226096657 L-39.35310155659813,-25.557259323556345 L-39.7669757176617,-24.872101904904067 L-40.17565581060515,-24.18360501090329 L-40.57906904101775,-23.49189127714736 L-40.97714355262636,-22.797083912215594 L-41.369808440094474,-22.09930667572727 L-41.75699376165204,-21.398683856297417 L-42.13863055155344,-20.69534024939852 L-42.51465083236174,-19.989401135131796 L-42.88498762705696,-19.280992255912196 L-43.249574970965945,-18.57023979407112 L-43.608347923512156,-17.85727034938069 L-43.96124257978288,-17.14221091650371 L-44.30819608191204,-16.425188862373275 L-44.64914663027645,-15.706331903506076 L-44.98403349450367,-14.985768083253443 L-45.3127970242893,-14.26362574899417 L-45.63537866002198,-13.540033529273169 L-45.951720943214006,-12.815120310890029 L-46.26176752673595,-12.089015215941677 L-46.565463184853215,-11.36184757882299 L-46.862753823062896,-10.63374692318964 L-47.15358648772914,-9.904842938887317 L-47.43790937551527,-9.175265458851195 L-47.715671842611044,-8.445144435980037 L-47.98682441375338,-7.714609919988875 L-48.25131879103891,-6.9837920342444315 L-48.50910786252687,-6.252820952587496 L-48.76014571063066,-5.521826876146203 L-49.00438762029677,-4.790940010144567 L-49.241790086969466,-4.06029054071015 L-49.47231082433978,-3.3300086116852974 L-49.69590877187767,-2.6002243014457744 L-49.9125441021457,-1.8710675997310675 L-50.12217822789316,-1.1426683844905963 L-50.324773808929216,-0.41515639874969423 L-50.52029475877403,0.31133877250030917 L-50.70870625108646,1.0366877253838327 L-50.889974725867404,1.760761260190618 L-51.06406789543749,2.483430404388872 L-51.23095475018818,3.2045664355978376 L-51.39060556410529,3.9240409045161107 L-51.54299190006372,4.6417256578010155 L-51.68808661489277,5.357492860895355 L-51.82586386421083,6.071215020797442 L-51.9562991070289,6.782765008770286 L-52.07936911012176,7.492016082985827 L-52.19505195216633,8.198841911100224 L-52.3033270276463,8.903116592756344 L-52.40417505052241,9.604714682009249 L-52.49757805766771,10.303511209670695 L-52.5835194120671,10.999381705568656 L-52.66198380578082,11.692202220718173 L-52.732957262671036,12.381849349399186 L-52.796427140891346,13.068200251137696 L-52.85238213513847,13.751132672586078 L-52.90081227866606,14.430524969299107 L-52.94170894505989,15.106256127401288 L-52.97506484977447,15.778205785141864 L-53.00087405143054,16.446254254333873 L-53.01913195287336,17.110282541673055 L-53.02983530199156,17.770172369932936 L-53.03298219229641,18.42580619903262 L-53.02857206326141,19.077067246973037 L-53.01660570042209,19.72383951063815 L-52.997085235236185,20.36600778645771 L-52.97001414470386,21.003457690927068 " />
			<path d="M-7.088071861835928,-5.486494037029378 L-52.97001414470385,21.0034576909273 " />
			<path d="M-7.088071861835943,-56.97618152003247 L-7.088071861835942,-5.48649403702937 " />
			<path d="M42.392398771251926,13.21442675447862 L31.785797053453713,7.0907023975206735 " />
			<path d="M22.08630624174259,6.224378820857949 L31.785797053452125,7.090702397524778 " />
			<path d="M32.6929079595405,12.348103177815867 L42.392398771250335,13.214426754482725 " />
			<path d="M49.4634665831174,-5.010191773890326 L38.85686486531919,-11.133916130848272 " />
			<path d="M38.85686486531919,-11.133916130848272 L31.78579705345126,7.090702397520461 " />
			<path d="M42.39239877124948,13.214426754478408 L49.46346658311741,-5.010191773890325 " />
			<path d="M22.086306241742456,6.224378820857731 L22.367500326424413,5.665250433035273 L22.645082896391564,5.104830848386007 L22.919023549192488,4.5431814473100305 L23.18929228125962,3.9803637449040634 L23.45585949119541,3.4164393842239553 L23.7186959830145,2.851470129533195 L23.977772969341373,2.2855178595380954 L24.23306207456333,1.7186445606105218 L24.48453533793836,1.1509123199987483 L24.7321652166576,0.582383319027338 L24.975924588861886,0.013119826286644987 L25.215786756612395,-0.5568158091871673 L25.4517254488147,-1.1273611647409743 L25.683714824096135,-1.6984537509415816 L25.91172947363617,-2.270031018419958 L26.135744423949163,-2.8420303647218392 L26.35573513961981,-3.4143891411645746 L26.571677525990246,-3.987044659698655 L26.783547931799085,-4.559934199773506 L26.991323151771866,-5.1329950152073005 L27.194980429162612,-5.706164341059096 L27.394497458246263,-6.279379400503273 L27.589852386761763,-6.8525774117051705 L27.7810238183054,-7.425695594697395 L27.9679908146743,-7.998671178255762 L28.150732898159724,-8.571441406774415 L28.3292300537898,-9.143943547139191 L28.50346273152183,-9.716114895598466 L28.67341184838338,-10.28789278463088 L28.83905879056247,-10.859214589809019 L29.00038541544619,-11.430017736658433 L29.15737405360769,-12.00023970751063 " />
			<path d="M29.157374053608066,-12.000239707511001 L38.8568648653176,-11.133916130844172 " />
			<path d="M-21.039827550289143,66.47445391436658 L-31.646429268087356,60.350729557408634 " />
			<path d="M-27.060631250679304,48.531521802791666 L-31.646429268089502,60.35072955740844 " />
			<path d="M-16.45402953288109,54.655246159749616 L-21.03982755029129,66.47445391436639 " />
			<path d="M-31.646429268087356,60.350729557408634 L-40.832015803524925,59.530306059346636 " />
			<path d="M-30.22541408572848,65.65403041630914 L-40.832015803526694,59.5303060593512 " />
			<path d="M-30.22541408572671,65.65403041630458 L-21.039827550289143,66.47445391436658 " />
			<path d="M-36.24621778611833,47.711098304733426 L-40.83201580352884,59.530306059351 " />
			<path d="M-36.246217786120525,47.71109830473409 L-35.980659177971845,47.78848229417777 L-35.71354373412474,47.86255847807929 L-35.44488784355682,47.93332231146402 L-35.1747079897604,48.00076945258796 L-34.903020749731155,48.06489576320408 L-34.62984279295108,48.12569730881635 L-34.355190880365726,48.18317035892097 L-34.079081863355796,48.2373113872354 L-33.80153268270323,48.28811707191466 L-33.522560367551776,48.33558429575514 L-33.24218203436221,48.37971014638585 L-32.960414885862136,48.420491916447126 L-32.67727620999045,48.45792710375677 L-32.39278337883669,48.49201341146349 L-32.10695384757518,48.522748748187915 L-31.819805153393947,48.55013122815086 L-31.53135491441888,48.57415917128905 L-31.241620828632666,48.59483110335816 L-30.95062067278888,48.61214575602334 L-30.658372301321418,48.62610206693697 L-30.364893645248934,48.63669917980388 L-30.070202711074664,48.643936444433855 L-29.77431757968171,48.64781341678156 L-29.47725640522364,48.648329858973774 L-29.179037414010573,48.64548573932396 L-28.879678903390968,48.639281232334255 L-28.57919924062899,48.629716718684726 L-28.277616861777567,48.61679278521004 L-27.974950270547172,48.60051022486342 L-27.671218037170576,48.58087003666804 L-27.366438797263513,48.55787342565569 L-27.060631250681382,48.531521802792895 " />
			<path d="M43.29950967733878,18.47182753477382 L32.69290795954057,12.348103177815874 " />
			<path d="M40.75155177513409,18.24425311402488 L32.20052635966934,13.307316288558972 " />
			<path d="M40.75155177513409,18.24425311402488 L43.29950967733878,18.47182753477382 " />
			<path d="M-5.847427815083297,60.77897051670863 L-16.45402953288151,54.65524615975069 " />
			<path d="M-5.129924973591825,58.929714375047 L-13.317551106229963,54.202586223344355 " />
			<path d="M-5.129924973591825,58.929714375047 L-5.847427815083296,60.77897051670863 " />
			<path d="M52.99900048905014,19.338151111436567 L42.392398771251926,13.21442675447862 " />
			<path d="M32.6929079595405,12.348103177815867 L42.392398771250335,13.214426754482725 " />
			<path d="M43.29950967733878,18.47182753477382 L32.69290795954057,12.348103177815874 " />
			<path d="M43.29950967733878,18.47182753477382 L52.99900048904855,19.33815111144067 " />
			<path d="M60.070068300915615,1.113532583067621 L49.4634665831174,-5.010191773890326 " />
			<path d="M42.39239877124948,13.214426754478408 L49.46346658311741,-5.010191773890325 " />
			<path d="M60.070068300915615,1.113532583067621 L52.99900048904769,19.338151111436353 " />
			<path d="M-10.43322583249093,72.59817827132453 L-21.039827550289143,66.47445391436658 " />
			<path d="M-16.45402953288109,54.655246159749616 L-21.03982755029129,66.47445391436639 " />
			<path d="M-5.847427815083297,60.77897051670863 L-16.45402953288151,54.65524615975069 " />
			<path d="M-5.847427815083296,60.77897051670863 L-10.433225832493074,72.59817827132433 " />
			<path d="M-30.22541408572671,65.65403041630458 L-21.039827550289143,66.47445391436658 " />
			<path d="M-19.618812367930268,71.77775477326709 L-30.22541408572848,65.65403041630914 " />
			<path d="M-10.43322583249093,72.59817827132453 L-19.6188123679285,71.77775477326253 " />
			<path d="M19.39339828220179,-58.08524858402427 L30.000000000000004,-51.96152422706633 " />
			<path d="M-40.60660171779822,45.837799870108384 L-36.45041162140122,48.23737734106644 " />

       </g>
    </g>
    
</svg>
