<?xml version="1.0" encoding="UTF-8" standalone="no"?>
<svg
   xmlns:svg="http://www.w3.org/2000/svg"
   xmlns="http://www.w3.org/2000/svg"
   width="400.0"
   height="300.0"

>
    <g transform="scale(0.5624999997187499, -0.5624999997187499)   translate(8.888888993333335,-208.8888889933334)" stroke-width="0.5"  fill="none">
       <!-- hidden lines -->
       <g  stroke="rgb(160,160,160)" fill="none" stroke-dasharray="0.5,0.5" >
			<path d="M20.0,200.0 L20.0,113.9230484541 " />
			<path d="M20.0,103.9230484541 L20.0,105.0426932151331 L20.0,106.14825779366318 L20.0,107.22583907365171 L20.0,108.26188584527564 L20.0,109.24336921925344 L20.0,110.15794647268741 L20.0,110.99411626596556 L20.0,111.74136327878038 L20.0,112.39029044638292 L20.0,112.93273713312426 L20.0,113.36188175718374 L20.0,113.67232757591827 L20.0,113.86017055303245 L20.0,113.9230484541 " />
			<path d="M20.0,93.9230484541 L20.0,93.98592635516755 L20.0,94.17376933228172 L20.0,94.48421515101626 L20.0,94.91335977507573 L20.0,95.45580646181708 L20.0,96.10473362941961 L20.0,96.85198064223444 L20.0,97.68815043551258 L20.0,98.60272768894656 L20.0,99.58421106292435 L20.0,100.62025783454827 L20.0,101.69783911453682 L20.0,102.8034036930669 L20.0,103.92304845409991 " />
			<path d="M20.0,93.9230484541 L20.0,86.33229234290894 " />
			<path d="M20.0,103.9230484541 L20.0,105.04269321513337 L20.0,106.14825779366372 L20.0,107.22583907365251 L20.0,108.26188584527665 L20.0,109.24336921925462 L20.0,110.15794647268872 L20.0,110.99411626596694 L20.0,111.74136327878176 L20.0,112.39029044638426 L20.0,112.93273713312547 L20.0,113.36188175718475 L20.0,113.67232757591903 L20.0,113.86017055303286 L20.0,113.9230484541 " />
			<path d="M20.0,113.9230484541 L20.0,113.67232757591731 L20.0,112.9327371331224 L20.0,111.74136327877771 L20.0,110.1579464726841 L20.0,108.26188584527185 L20.0,106.14825779365911 L20.0,103.92304845409586 L20.0,101.69783911453283 L20.0,99.58421106292069 L20.0,97.68815043550943 L20.0,96.10473362941713 L20.0,94.91335977507401 L20.0,94.17376933228084 L20.0,93.92304845410001 " />
			<path d="M20.0,93.9230484541 L20.0,93.985926355168 L20.0,94.17376933228255 L20.0,94.4842151510174 L20.0,94.9133597750771 L20.0,95.45580646181858 L20.0,96.10473362942119 L20.0,96.851980642236 L20.0,97.68815043551406 L20.0,98.60272768894791 L20.0,99.5842110629255 L20.0,100.6202578345492 L20.0,101.69783911453746 L20.0,102.80340369306724 L20.0,103.92304845409991 " />
			<path d="M0.0,86.33229234290897 L20.0,86.33229234290897 " />
			<path d="M0.0,200.0 L0.0,113.9230484541 " />
			<path d="M0.0,113.9230484541 L0.0,113.86017055303245 L0.0,113.67232757591829 L0.0,113.36188175718374 L0.0,112.93273713312428 L0.0,112.39029044638293 L0.0,111.7413632787804 L0.0,110.99411626596557 L0.0,110.15794647268743 L0.0,109.24336921925345 L0.0,108.26188584527566 L0.0,107.22583907365174 L0.0,106.14825779366319 L0.0,105.04269321513311 L0.0,103.9230484541001 " />
			<path d="M0.0,103.92304845410001 L0.0,102.80340369306691 L0.0,101.69783911453683 L0.0,100.62025783454828 L0.0,99.58421106292435 L0.0,98.60272768894656 L0.0,97.68815043551258 L0.0,96.85198064223444 L0.0,96.10473362941961 L0.0,95.45580646181708 L0.0,94.91335977507572 L0.0,94.48421515101626 L0.0,94.17376933228171 L0.0,93.98592635516755 L0.0,93.9230484541 " />
			<path d="M0.0,93.9230484541 L0.0,86.33229234290894 " />
			<path d="M0.0,103.9230484541 L0.0,102.80340369306693 L0.0,101.69783911453685 L0.0,100.62025783454833 L0.0,99.58421106292441 L0.0,98.60272768894663 L0.0,97.68815043551267 L0.0,96.85198064223452 L0.0,96.1047336294197 L0.0,95.45580646181716 L0.0,94.9133597750758 L0.0,94.48421515101631 L0.0,94.17376933228176 L0.0,93.98592635516758 L0.0,93.9230484541 " />
			<path d="M0.0,93.9230484541 L0.0,94.17376933228176 L0.0,94.9133597750758 L0.0,96.1047336294197 L0.0,97.68815043551267 L0.0,99.58421106292441 L0.0,101.69783911453685 L0.0,103.9230484541 L0.0,106.14825779366313 L0.0,108.26188584527557 L0.0,110.15794647268733 L0.0,111.7413632787803 L0.0,112.93273713312419 L0.0,113.67232757591823 L0.0,113.92304845409998 " />
			<path d="M0.0,113.9230484541 L0.0,113.86017055303242 L0.0,113.67232757591823 L0.0,113.36188175718368 L0.0,112.93273713312419 L0.0,112.39029044638283 L0.0,111.7413632787803 L0.0,110.99411626596547 L0.0,110.15794647268734 L0.0,109.24336921925337 L0.0,108.26188584527559 L0.0,107.22583907365167 L0.0,106.14825779366315 L0.0,105.04269321513308 L0.0,103.92304845410008 " />
			<path d="M20.0,113.9230484541 L0.0,113.9230484541 " />
			<path d="M20.0,93.9230484541 L0.0,93.9230484541 " />
			<path d="M20.0,86.33229234290894 L20.0,100.52847360927548 L20.0,114.07648409132831 L20.0,126.88897117875948 L20.0,138.883324646761 L20.0,149.98220929650242 L20.0,160.1140635841729 L20.0,169.21356102360966 L20.0,177.2220313875586 L20.0,184.08783899181407 L20.0,189.76671562320206 L20.0,194.22204596480756 L20.0,197.42510367812952 L20.0,199.35523661999184 L20.0,199.99999999999991 " />
			<path d="M0.0,86.33229234290894 L0.0,100.52847360927548 L0.0,114.07648409132831 L0.0,126.88897117875948 L0.0,138.883324646761 L0.0,149.98220929650242 L0.0,160.1140635841729 L0.0,169.21356102360966 L0.0,177.2220313875586 L0.0,184.08783899181407 L0.0,189.76671562320206 L0.0,194.22204596480756 L0.0,197.42510367812952 L0.0,199.35523661999184 L0.0,199.99999999999991 " />
			<path d="M20.0,86.33229234290897 L0.0,86.33229234290897 " />
			<path d="M20.0,93.9230484541 L20.0,86.33229234290894 " />
			<path d="M20.0,113.9230484541 L20.0,113.67232757591819 L20.0,112.9327371331241 L20.0,111.7413632787802 L20.0,110.15794647268724 L20.0,108.26188584527551 L20.0,106.1482577936631 L20.0,103.9230484541 L20.0,101.69783911453689 L20.0,99.58421106292448 L20.0,97.68815043551274 L20.0,96.1047336294198 L20.0,94.91335977507589 L20.0,94.17376933228181 L20.0,93.92304845410001 " />
			<path d="M20.0,200.0 L20.0,113.9230484541 " />
			<path d="M20.0,103.9230484541 L20.0,105.04269321513337 L20.0,106.14825779366372 L20.0,107.22583907365251 L20.0,108.26188584527665 L20.0,109.24336921925462 L20.0,110.15794647268872 L20.0,110.99411626596694 L20.0,111.74136327878176 L20.0,112.39029044638426 L20.0,112.93273713312547 L20.0,113.36188175718475 L20.0,113.67232757591903 L20.0,113.86017055303286 L20.0,113.9230484541 " />
			<path d="M20.0,113.9230484541 L20.0,113.67232757591731 L20.0,112.9327371331224 L20.0,111.74136327877771 L20.0,110.1579464726841 L20.0,108.26188584527185 L20.0,106.14825779365911 L20.0,103.92304845409586 L20.0,101.69783911453283 L20.0,99.58421106292069 L20.0,97.68815043550943 L20.0,96.10473362941713 L20.0,94.91335977507401 L20.0,94.17376933228084 L20.0,93.92304845410001 " />
			<path d="M20.0,93.9230484541 L20.0,93.985926355168 L20.0,94.17376933228255 L20.0,94.4842151510174 L20.0,94.9133597750771 L20.0,95.45580646181858 L20.0,96.10473362942119 L20.0,96.851980642236 L20.0,97.68815043551406 L20.0,98.60272768894791 L20.0,99.5842110629255 L20.0,100.6202578345492 L20.0,101.69783911453746 L20.0,102.80340369306724 L20.0,103.92304845409991 " />
			<path d="M20.0,113.9230484541 L0.0,113.9230484541 " />
			<path d="M0.0,200.0 L0.0,113.9230484541 " />
			<path d="M0.0,93.9230484541 L0.0,86.33229234290894 " />
			<path d="M0.0,93.9230484541 L0.0,94.17376933228181 L0.0,94.91335977507589 L0.0,96.1047336294198 L0.0,97.68815043551275 L0.0,99.58421106292448 L0.0,101.69783911453689 L0.0,103.9230484541 L0.0,106.14825779366312 L0.0,108.26188584527551 L0.0,110.15794647268726 L0.0,111.74136327878021 L0.0,112.9327371331241 L0.0,113.67232757591819 L0.0,113.92304845409998 " />
			<path d="M0.0,103.92304845410001 L0.0,102.80340369306694 L0.0,101.69783911453686 L0.0,100.62025783454834 L0.0,99.58421106292442 L0.0,98.60272768894664 L0.0,97.68815043551268 L0.0,96.85198064223454 L0.0,96.10473362941971 L0.0,95.45580646181716 L0.0,94.9133597750758 L0.0,94.48421515101633 L0.0,94.17376933228176 L0.0,93.98592635516758 L0.0,93.9230484541 " />
			<path d="M0.0,93.9230484541 L0.0,94.17376933228175 L0.0,94.9133597750758 L0.0,96.10473362941968 L0.0,97.68815043551265 L0.0,99.5842110629244 L0.0,101.69783911453683 L0.0,103.92304845409998 L0.0,106.14825779366313 L0.0,108.26188584527557 L0.0,110.15794647268731 L0.0,111.74136327878028 L0.0,112.93273713312418 L0.0,113.67232757591823 L0.0,113.92304845409998 " />
			<path d="M0.0,113.9230484541 L0.0,113.86017055303242 L0.0,113.67232757591825 L0.0,113.36188175718368 L0.0,112.93273713312419 L0.0,112.39029044638285 L0.0,111.74136327878031 L0.0,110.99411626596549 L0.0,110.15794647268734 L0.0,109.24336921925338 L0.0,108.2618858452756 L0.0,107.22583907365168 L0.0,106.14825779366316 L0.0,105.0426932151331 L0.0,103.9230484541001 " />
			<path d="M0.0,86.33229234290897 L20.0,86.33229234290897 " />
			<path d="M20.0,93.9230484541 L0.0,93.9230484541 " />
			<path d="M20.0,86.33229234290901 L20.0,10.0 " />
			<path d="M20.0,0.0 L20.0,1.1196447610313507 L20.0,2.225209339559753 L20.0,3.3027906195467467 L20.0,4.3388373911693146 L20.0,5.320320765146004 L20.0,6.2348980185791785 L20.0,7.071067811856868 L20.0,7.818314824671625 L20.0,8.467241992274516 L20.0,9.009688679016646 L20.0,9.43883330307736 L20.0,9.749279121813593 L20.0,9.937122098929894 L20.0,9.999999999999998 " />
			<path d="M20.0,0.0 L20.0,1.1196447610333724 L20.0,2.2252093395637202 L20.0,3.302790619552508 L20.0,4.3388373911766465 L20.0,5.320320765154617 L20.0,6.234898018588721 L20.0,7.0710678118669374 L20.0,7.818314824681771 L20.0,8.467241992284256 L20.0,9.009688679025473 L20.0,9.438833303084749 L20.0,9.749279121819026 L20.0,9.937122098932855 L20.0,9.999999999999998 " />
			<path d="M20.0,10.0 L20.0,9.937122098931995 L20.0,9.749279121817446 L20.0,9.438833303082601 L20.0,9.009688679022908 L20.0,8.467241992281426 L20.0,7.818314824678826 L20.0,7.071067811864015 L20.0,6.2348980185859535 L20.0,5.320320765152122 L20.0,4.3388373911745255 L20.0,3.302790619550846 L20.0,2.2252093395625825 L20.0,1.1196447610328017 L20.0,4.570934516320399e-14 " />
			<path d="M20.0,0.0 L20.0,1.1196447610333724 L20.0,2.2252093395637202 L20.0,3.302790619552508 L20.0,4.3388373911766465 L20.0,5.320320765154617 L20.0,6.234898018588721 L20.0,7.0710678118669374 L20.0,7.818314824681771 L20.0,8.467241992284256 L20.0,9.009688679025473 L20.0,9.438833303084749 L20.0,9.749279121819026 L20.0,9.937122098932855 L20.0,9.999999999999998 " />
			<path d="M20.0,10.0 L20.0,9.937122098931995 L20.0,9.749279121817446 L20.0,9.438833303082601 L20.0,9.009688679022908 L20.0,8.467241992281426 L20.0,7.818314824678826 L20.0,7.071067811864015 L20.0,6.2348980185859535 L20.0,5.320320765152122 L20.0,4.3388373911745255 L20.0,3.302790619550846 L20.0,2.2252093395625825 L20.0,1.1196447610328017 L20.0,4.570934516320399e-14 " />
			<path d="M20.0,51.96152422706 L20.0,53.081168988093374 L20.0,54.18673356662372 L20.0,55.264314846612514 L20.0,56.30036161823665 L20.0,57.28184499221462 L20.0,58.196422245648726 L20.0,59.03259203892694 L20.0,59.779839051741774 L20.0,60.42876621934426 L20.0,60.971212906085476 L20.0,61.40035753014475 L20.0,61.710803348879026 L20.0,61.89864632599286 L20.0,61.96152422706 " />
			<path d="M20.0,61.96152422706 L20.0,61.71080334887732 L20.0,60.9712129060824 L20.0,59.779839051737724 L20.0,58.1964222456441 L20.0,56.300361618231854 L20.0,54.18673356661911 L20.0,51.96152422705587 L20.0,49.736314887492824 L20.0,47.62268683588069 L20.0,45.72662620846943 L20.0,44.143209402377124 L20.0,42.95183554803402 L20.0,42.21224510524085 L20.0,41.96152422706001 " />
			<path d="M20.0,41.96152422706 L20.0,42.02440212812801 L20.0,42.21224510524256 L20.0,42.52269092397741 L20.0,42.951835548037096 L20.0,43.49428223477858 L20.0,44.14320940238119 L20.0,44.890456415196 L20.0,45.726626208474066 L20.0,46.64120346190791 L20.0,47.62268683588551 L20.0,48.65873360750919 L20.0,49.736314887497464 L20.0,50.84187946602725 L20.0,51.96152422705992 " />
			<path d="M20.0,51.96152422706 L20.0,53.081168988093374 L20.0,54.18673356662372 L20.0,55.264314846612514 L20.0,56.30036161823665 L20.0,57.28184499221462 L20.0,58.196422245648726 L20.0,59.03259203892694 L20.0,59.779839051741774 L20.0,60.42876621934426 L20.0,60.971212906085476 L20.0,61.40035753014475 L20.0,61.710803348879026 L20.0,61.89864632599286 L20.0,61.96152422706 " />
			<path d="M20.0,61.96152422706 L20.0,61.71080334887732 L20.0,60.9712129060824 L20.0,59.779839051737724 L20.0,58.1964222456441 L20.0,56.300361618231854 L20.0,54.18673356661911 L20.0,51.96152422705587 L20.0,49.736314887492824 L20.0,47.62268683588069 L20.0,45.72662620846943 L20.0,44.143209402377124 L20.0,42.95183554803402 L20.0,42.21224510524085 L20.0,41.96152422706001 " />
			<path d="M20.0,41.96152422706 L20.0,42.02440212812801 L20.0,42.21224510524256 L20.0,42.52269092397741 L20.0,42.951835548037096 L20.0,43.49428223477858 L20.0,44.14320940238119 L20.0,44.890456415196 L20.0,45.726626208474066 L20.0,46.64120346190791 L20.0,47.62268683588551 L20.0,48.65873360750919 L20.0,49.736314887497464 L20.0,50.84187946602725 L20.0,51.96152422705992 " />
			<path d="M20.0,10.0 L0.0,10.0 " />
			<path d="M0.0,86.33229234290901 L0.0,10.000000000000004 " />
			<path d="M0.0,86.33229234290897 L20.0,86.33229234290897 " />
			<path d="M0.0,0.0 L20.0,0.0 " />
			<path d="M0.0,10.000000000000004 L0.0,9.9371220989299 L0.0,9.749279121813597 L0.0,9.438833303077365 L0.0,9.009688679016657 L0.0,8.467241992274525 L0.0,7.8183148246716385 L0.0,7.071067811856886 L0.0,6.234898018579197 L0.0,5.320320765146026 L0.0,4.33883739116934 L0.0,3.302790619546775 L0.0,2.2252093395597843 L0.0,1.119644761031384 L0.0,8.862984952788553e-14 " />
			<path d="M20.0,3.056402745135148e-13 L0.0,3.056402745135148e-13 " />
			<path d="M0.0,9.877978887873647e-15 L0.0,1.1196447610330882 L0.0,2.225209339563154 L0.0,3.30279061955168 L0.0,4.33883739117559 L0.0,5.320320765153374 L0.0,6.2348980185873435 L0.0,7.0710678118654835 L0.0,7.818314824680305 L0.0,8.467241992282847 L0.0,9.009688679024197 L0.0,9.43883330308368 L0.0,9.749279121818242 L0.0,9.937122098932429 L0.0,9.999999999999998 " />
			<path d="M0.0,10.000000000000004 L0.0,9.937122098932429 L0.0,9.749279121818239 L0.0,9.438833303083678 L0.0,9.009688679024192 L0.0,8.467241992282842 L0.0,7.818314824680299 L0.0,7.071067811865477 L0.0,6.234898018587336 L0.0,5.320320765153367 L0.0,4.3388373911755815 L0.0,3.302790619551671 L0.0,2.2252093395631443 L0.0,1.1196447610330784 L0.0,8.862984952801966e-14 " />
			<path d="M0.0,0.0 L20.0,0.0 " />
			<path d="M20.0,3.056402745135148e-13 L0.0,3.056402745135148e-13 " />
			<path d="M0.0,-1.3947689259246353e-14 L0.0,1.1196447610330647 L0.0,2.2252093395631305 L0.0,3.302790619551657 L0.0,4.338837391175567 L0.0,5.320320765153352 L0.0,6.234898018587321 L0.0,7.071067811865463 L0.0,7.818314824680285 L0.0,8.46724199228283 L0.0,9.009688679024181 L0.0,9.438833303083666 L0.0,9.749279121818228 L0.0,9.937122098932418 L0.0,9.999999999999988 " />
			<path d="M0.0,9.999999999999993 L0.0,9.937122098932418 L0.0,9.749279121818232 L0.0,9.43883330308367 L0.0,9.009688679024187 L0.0,8.467241992282839 L0.0,7.818314824680295 L0.0,7.071067811865473 L0.0,6.234898018587334 L0.0,5.320320765153364 L0.0,4.33883739117558 L0.0,3.3027906195516703 L0.0,2.225209339563144 L0.0,1.1196447610330784 L0.0,8.862984952801966e-14 " />
			<path d="M0.0,0.0 L20.0,0.0 " />
			<path d="M0.0,51.96152422706 L0.0,50.841879466026924 L0.0,49.73631488749686 L0.0,48.65873360750833 L0.0,47.62268683588442 L0.0,46.64120346190664 L0.0,45.726626208472666 L0.0,44.89045641519453 L0.0,44.1432094023797 L0.0,43.49428223477716 L0.0,42.95183554803581 L0.0,42.52269092397633 L0.0,42.21224510524176 L0.0,42.024402128127576 L0.0,41.96152422706 " />
			<path d="M0.0,41.96152422706 L0.0,42.21224510524176 L0.0,42.95183554803581 L0.0,44.1432094023797 L0.0,45.726626208472666 L0.0,47.62268683588442 L0.0,49.73631488749686 L0.0,51.96152422706 L0.0,54.18673356662315 L0.0,56.300361618235584 L0.0,58.19642224564734 L0.0,59.779839051740296 L0.0,60.97121290608419 L0.0,61.710803348878244 L0.0,61.961524227059996 " />
			<path d="M0.0,61.96152422706 L0.0,61.89864632599243 L0.0,61.710803348878244 L0.0,61.40035753014368 L0.0,60.9712129060842 L0.0,60.42876621934285 L0.0,59.7798390517403 L0.0,59.03259203892548 L0.0,58.19642224564734 L0.0,57.28184499221337 L0.0,56.300361618235584 L0.0,55.264314846611676 L0.0,54.18673356662315 L0.0,53.08116898809308 L0.0,51.96152422706009 " />
			<path d="M0.0,51.96152422706 L0.0,50.841879466026924 L0.0,49.73631488749686 L0.0,48.65873360750833 L0.0,47.62268683588442 L0.0,46.64120346190664 L0.0,45.726626208472666 L0.0,44.89045641519453 L0.0,44.1432094023797 L0.0,43.49428223477716 L0.0,42.95183554803581 L0.0,42.52269092397633 L0.0,42.21224510524176 L0.0,42.024402128127576 L0.0,41.96152422706 " />
			<path d="M0.0,41.96152422706 L0.0,42.21224510524176 L0.0,42.95183554803581 L0.0,44.1432094023797 L0.0,45.726626208472666 L0.0,47.62268683588442 L0.0,49.73631488749686 L0.0,51.96152422706 L0.0,54.18673356662315 L0.0,56.300361618235584 L0.0,58.19642224564734 L0.0,59.779839051740296 L0.0,60.97121290608419 L0.0,61.710803348878244 L0.0,61.961524227059996 " />
			<path d="M0.0,61.96152422706 L0.0,61.89864632599243 L0.0,61.710803348878244 L0.0,61.40035753014368 L0.0,60.9712129060842 L0.0,60.42876621934285 L0.0,59.7798390517403 L0.0,59.03259203892548 L0.0,58.19642224564734 L0.0,57.28184499221337 L0.0,56.300361618235584 L0.0,55.264314846611676 L0.0,54.18673356662315 L0.0,53.08116898809308 L0.0,51.96152422706009 " />
			<path d="M20.0,3.056402745135148e-13 L0.0,3.056402745135148e-13 " />
			<path d="M20.0,-2.4492935982947064e-14 L20.0,6.375118063179295 L20.0,12.7437570206831 L20.0,19.099444351625355 L20.0,25.43572069800679 L20.0,31.746146429434585 L20.0,38.02430818779266 L20.0,44.26382540521119 L20.0,50.45835678871092 L20.0,56.601606764932086 L20.0,62.68733187839784 L20.0,68.70934713680978 L20.0,74.66153229692657 L20.0,80.53783808463744 L20.0,86.33229234290813 " />
			<path d="M20.0,86.33229234290897 L0.0,86.33229234290897 " />
			<path d="M0.0,-2.4492935982947064e-14 L0.0,6.375118063179295 L0.0,12.7437570206831 L0.0,19.099444351625355 L0.0,25.43572069800679 L0.0,31.746146429434585 L0.0,38.02430818779266 L0.0,44.26382540521119 L0.0,50.45835678871092 L0.0,56.601606764932086 L0.0,62.68733187839784 L0.0,68.70934713680978 L0.0,74.66153229692657 L0.0,80.53783808463744 L0.0,86.33229234290813 " />
			<path d="M20.0,3.056402745135148e-13 L0.0,3.056402745135148e-13 " />
			<path d="M20.0,0.0 L20.0,1.1196447610333724 L20.0,2.2252093395637202 L20.0,3.302790619552508 L20.0,4.3388373911766465 L20.0,5.320320765154617 L20.0,6.234898018588721 L20.0,7.0710678118669374 L20.0,7.818314824681771 L20.0,8.467241992284256 L20.0,9.009688679025473 L20.0,9.438833303084749 L20.0,9.749279121819026 L20.0,9.937122098932855 L20.0,9.999999999999998 " />
			<path d="M20.0,10.0 L20.0,9.937122098931995 L20.0,9.749279121817446 L20.0,9.438833303082601 L20.0,9.009688679022908 L20.0,8.467241992281426 L20.0,7.818314824678826 L20.0,7.071067811864015 L20.0,6.2348980185859535 L20.0,5.320320765152122 L20.0,4.3388373911745255 L20.0,3.302790619550846 L20.0,2.2252093395625825 L20.0,1.1196447610328017 L20.0,4.570934516320399e-14 " />
			<path d="M20.0,0.0 L20.0,1.1196447610333724 L20.0,2.2252093395637202 L20.0,3.302790619552508 L20.0,4.3388373911766465 L20.0,5.320320765154617 L20.0,6.234898018588721 L20.0,7.0710678118669374 L20.0,7.818314824681771 L20.0,8.467241992284256 L20.0,9.009688679025473 L20.0,9.438833303084749 L20.0,9.749279121819026 L20.0,9.937122098932855 L20.0,9.999999999999998 " />
			<path d="M20.0,10.0 L20.0,9.937122098931995 L20.0,9.749279121817446 L20.0,9.438833303082601 L20.0,9.009688679022908 L20.0,8.467241992281426 L20.0,7.818314824678826 L20.0,7.071067811864015 L20.0,6.2348980185859535 L20.0,5.320320765152122 L20.0,4.3388373911745255 L20.0,3.302790619550846 L20.0,2.2252093395625825 L20.0,1.1196447610328017 L20.0,4.570934516320399e-14 " />
			<path d="M20.0,10.0 L20.0,9.937122098934957 L20.0,9.74927912182288 L20.0,9.438833303089995 L20.0,9.009688679031736 L20.0,8.467241992291168 L20.0,7.818314824688971 L20.0,7.07106781187408 L20.0,6.234898018595488 L20.0,5.320320765160722 L20.0,4.3388373911818405 L20.0,3.302790619556584 L20.0,2.2252093395665224 L20.0,1.1196447610347922 L20.0,4.570934516328288e-14 " />
			<path d="M20.0,86.33229234290901 L20.0,10.0 " />
			<path d="M20.0,51.96152422706 L20.0,53.081168988093374 L20.0,54.18673356662372 L20.0,55.264314846612514 L20.0,56.30036161823665 L20.0,57.28184499221462 L20.0,58.196422245648726 L20.0,59.03259203892694 L20.0,59.779839051741774 L20.0,60.42876621934426 L20.0,60.971212906085476 L20.0,61.40035753014475 L20.0,61.710803348879026 L20.0,61.89864632599286 L20.0,61.96152422706 " />
			<path d="M20.0,61.96152422706 L20.0,61.71080334887732 L20.0,60.9712129060824 L20.0,59.779839051737724 L20.0,58.1964222456441 L20.0,56.300361618231854 L20.0,54.18673356661911 L20.0,51.96152422705587 L20.0,49.736314887492824 L20.0,47.62268683588069 L20.0,45.72662620846943 L20.0,44.143209402377124 L20.0,42.95183554803402 L20.0,42.21224510524085 L20.0,41.96152422706001 " />
			<path d="M20.0,41.96152422706 L20.0,42.02440212812801 L20.0,42.21224510524256 L20.0,42.52269092397741 L20.0,42.951835548037096 L20.0,43.49428223477858 L20.0,44.14320940238119 L20.0,44.890456415196 L20.0,45.726626208474066 L20.0,46.64120346190791 L20.0,47.62268683588551 L20.0,48.65873360750919 L20.0,49.736314887497464 L20.0,50.84187946602725 L20.0,51.96152422705992 " />
			<path d="M20.0,51.96152422706 L20.0,53.081168988093374 L20.0,54.18673356662372 L20.0,55.264314846612514 L20.0,56.30036161823665 L20.0,57.28184499221462 L20.0,58.196422245648726 L20.0,59.03259203892694 L20.0,59.779839051741774 L20.0,60.42876621934426 L20.0,60.971212906085476 L20.0,61.40035753014475 L20.0,61.710803348879026 L20.0,61.89864632599286 L20.0,61.96152422706 " />
			<path d="M20.0,61.96152422706 L20.0,61.71080334887732 L20.0,60.9712129060824 L20.0,59.779839051737724 L20.0,58.1964222456441 L20.0,56.300361618231854 L20.0,54.18673356661911 L20.0,51.96152422705587 L20.0,49.736314887492824 L20.0,47.62268683588069 L20.0,45.72662620846943 L20.0,44.143209402377124 L20.0,42.95183554803402 L20.0,42.21224510524085 L20.0,41.96152422706001 " />
			<path d="M20.0,41.96152422706 L20.0,42.02440212812801 L20.0,42.21224510524256 L20.0,42.52269092397741 L20.0,42.951835548037096 L20.0,43.49428223477858 L20.0,44.14320940238119 L20.0,44.890456415196 L20.0,45.726626208474066 L20.0,46.64120346190791 L20.0,47.62268683588551 L20.0,48.65873360750919 L20.0,49.736314887497464 L20.0,50.84187946602725 L20.0,51.96152422705992 " />
			<path d="M0.0,86.33229234290897 L20.0,86.33229234290897 " />
			<path d="M0.0,-1.3947689259246353e-14 L0.0,1.1196447610330647 L0.0,2.2252093395631305 L0.0,3.302790619551657 L0.0,4.338837391175567 L0.0,5.320320765153352 L0.0,6.234898018587321 L0.0,7.071067811865463 L0.0,7.818314824680285 L0.0,8.46724199228283 L0.0,9.009688679024181 L0.0,9.438833303083666 L0.0,9.749279121818228 L0.0,9.937122098932418 L0.0,9.999999999999988 " />
			<path d="M0.0,9.999999999999993 L0.0,9.937122098932418 L0.0,9.749279121818232 L0.0,9.43883330308367 L0.0,9.009688679024187 L0.0,8.467241992282839 L0.0,7.818314824680295 L0.0,7.071067811865473 L0.0,6.234898018587334 L0.0,5.320320765153364 L0.0,4.33883739117558 L0.0,3.3027906195516703 L0.0,2.225209339563144 L0.0,1.1196447610330784 L0.0,8.862984952801966e-14 " />
			<path d="M0.0,6.296800734139466e-16 L0.0,1.1196447610330793 L0.0,2.2252093395631447 L0.0,3.302790619551671 L0.0,4.3388373911755815 L0.0,5.320320765153366 L0.0,6.2348980185873355 L0.0,7.071067811865476 L0.0,7.818314824680298 L0.0,8.467241992282842 L0.0,9.009688679024192 L0.0,9.438833303083674 L0.0,9.749279121818237 L0.0,9.937122098932425 L0.0,9.999999999999995 " />
			<path d="M0.0,10.0 L0.0,9.937122098932425 L0.0,9.749279121818237 L0.0,9.438833303083676 L0.0,9.00968867902419 L0.0,8.46724199228284 L0.0,7.818314824680297 L0.0,7.0710678118654755 L0.0,6.2348980185873355 L0.0,5.320320765153366 L0.0,4.3388373911755815 L0.0,3.3027906195516703 L0.0,2.225209339563144 L0.0,1.1196447610330784 L0.0,8.862984952801966e-14 " />
			<path d="M0.0,7.515198660539648e-15 L0.0,1.1196447610348115 L0.0,2.2252093395665367 L0.0,3.302790619556595 L0.0,4.338837391181847 L0.0,5.320320765160724 L0.0,6.234898018595487 L0.0,7.071067811874076 L0.0,7.818314824688965 L0.0,8.467241992291164 L0.0,9.009688679031735 L0.0,9.438833303089993 L0.0,9.749279121822882 L0.0,9.937122098934958 L0.0,9.999999999999998 " />
			<path d="M0.0,86.33229234290901 L0.0,10.000000000000004 " />
			<path d="M0.0,51.96152422706 L0.0,50.841879466026924 L0.0,49.73631488749686 L0.0,48.65873360750833 L0.0,47.62268683588442 L0.0,46.64120346190664 L0.0,45.726626208472666 L0.0,44.89045641519453 L0.0,44.1432094023797 L0.0,43.49428223477716 L0.0,42.95183554803581 L0.0,42.52269092397633 L0.0,42.21224510524176 L0.0,42.024402128127576 L0.0,41.96152422706 " />
			<path d="M0.0,41.96152422706 L0.0,42.21224510524176 L0.0,42.95183554803581 L0.0,44.1432094023797 L0.0,45.726626208472666 L0.0,47.62268683588442 L0.0,49.73631488749686 L0.0,51.96152422706 L0.0,54.18673356662315 L0.0,56.300361618235584 L0.0,58.19642224564734 L0.0,59.779839051740296 L0.0,60.97121290608419 L0.0,61.710803348878244 L0.0,61.961524227059996 " />
			<path d="M0.0,61.96152422706 L0.0,61.89864632599243 L0.0,61.710803348878244 L0.0,61.40035753014368 L0.0,60.9712129060842 L0.0,60.42876621934285 L0.0,59.7798390517403 L0.0,59.03259203892548 L0.0,58.19642224564734 L0.0,57.28184499221337 L0.0,56.300361618235584 L0.0,55.264314846611676 L0.0,54.18673356662315 L0.0,53.08116898809308 L0.0,51.96152422706009 " />
			<path d="M0.0,51.96152422706 L0.0,50.841879466026924 L0.0,49.73631488749686 L0.0,48.65873360750833 L0.0,47.62268683588442 L0.0,46.64120346190664 L0.0,45.726626208472666 L0.0,44.89045641519453 L0.0,44.1432094023797 L0.0,43.49428223477716 L0.0,42.95183554803581 L0.0,42.52269092397633 L0.0,42.21224510524176 L0.0,42.024402128127576 L0.0,41.96152422706 " />
			<path d="M0.0,41.96152422706 L0.0,42.21224510524176 L0.0,42.95183554803581 L0.0,44.1432094023797 L0.0,45.726626208472666 L0.0,47.62268683588442 L0.0,49.73631488749686 L0.0,51.96152422706 L0.0,54.18673356662315 L0.0,56.300361618235584 L0.0,58.19642224564734 L0.0,59.779839051740296 L0.0,60.97121290608419 L0.0,61.710803348878244 L0.0,61.961524227059996 " />
			<path d="M0.0,61.96152422706 L0.0,61.89864632599243 L0.0,61.710803348878244 L0.0,61.40035753014368 L0.0,60.9712129060842 L0.0,60.42876621934285 L0.0,59.7798390517403 L0.0,59.03259203892548 L0.0,58.19642224564734 L0.0,57.28184499221337 L0.0,56.300361618235584 L0.0,55.264314846611676 L0.0,54.18673356662315 L0.0,53.08116898809308 L0.0,51.96152422706009 " />
			<path d="M0.0,0.0 L20.0,0.0 " />
			<path d="M20.0,3.056402745135148e-13 L0.0,3.056402745135148e-13 " />
			<path d="M0.0,0.0 L20.0,0.0 " />
			<path d="M20.0,3.056402745135148e-13 L0.0,3.056402745135148e-13 " />
			<path d="M20.0,10.0 L0.0,10.0 " />
			<path d="M20.0,1.2246467991473533e-15 L20.0,-1.119644761033373 L20.0,-2.225209339563723 L20.0,-3.302790619552512 L20.0,-4.338837391176652 L20.0,-5.320320765154624 L20.0,-6.23489801858873 L20.0,-7.071067811866946 L20.0,-7.8183148246817815 L20.0,-8.467241992284263 L20.0,-9.009688679025478 L20.0,-9.43883330308475 L20.0,-9.749279121819027 L20.0,-9.937122098932855 L20.0,-9.999999999999995 " />
			<path d="M20.0,-10.0 L20.0,-9.937122098931995 L20.0,-9.749279121817446 L20.0,-9.4388333030826 L20.0,-9.009688679022904 L20.0,-8.46724199228142 L20.0,-7.818314824678815 L20.0,-7.071067811864001 L20.0,-6.234898018585935 L20.0,-5.320320765152097 L20.0,-4.338837391174495 L20.0,-3.3027906195508097 L20.0,-2.2252093395625403 L20.0,-1.1196447610327545 L20.0,-9.107234018216917e-14 " />
			<path d="M20.0,-10.0 L20.0,-9.937122098932488 L20.0,-9.749279121818347 L20.0,-9.438833303083825 L20.0,-9.00968867902437 L20.0,-8.467241992283036 L20.0,-7.818314824680499 L20.0,-7.071067811865671 L20.0,-6.2348980185875185 L20.0,-5.320320765153525 L20.0,-4.338837391175711 L20.0,-3.3027906195517653 L20.0,-2.2252093395631984 L20.0,-1.1196447610330897 L20.0,-9.10723401821957e-14 " />
			<path d="M20.0,-10.0 L20.0,-86.3322923429154 " />
			<path d="M20.0,1.2246467991473533e-15 L20.0,-1.119644761033373 L20.0,-2.225209339563723 L20.0,-3.302790619552512 L20.0,-4.338837391176652 L20.0,-5.320320765154624 L20.0,-6.23489801858873 L20.0,-7.071067811866946 L20.0,-7.8183148246817815 L20.0,-8.467241992284263 L20.0,-9.009688679025478 L20.0,-9.43883330308475 L20.0,-9.749279121819027 L20.0,-9.937122098932855 L20.0,-9.999999999999995 " />
			<path d="M20.0,-10.0 L20.0,-9.937122098931995 L20.0,-9.749279121817446 L20.0,-9.4388333030826 L20.0,-9.009688679022904 L20.0,-8.46724199228142 L20.0,-7.818314824678815 L20.0,-7.071067811864001 L20.0,-6.234898018585935 L20.0,-5.320320765152097 L20.0,-4.338837391174495 L20.0,-3.3027906195508097 L20.0,-2.2252093395625403 L20.0,-1.1196447610327545 L20.0,-9.107234018216917e-14 " />
			<path d="M20.0,-51.961524227066 L20.0,-50.84187946603263 L20.0,-49.73631488750228 L20.0,-48.65873360751349 L20.0,-47.622686835889354 L20.0,-46.64120346191138 L20.0,-45.72662620847728 L20.0,-44.89045641519906 L20.0,-44.14320940238423 L20.0,-43.49428223478174 L20.0,-42.95183554804053 L20.0,-42.52269092398125 L20.0,-42.21224510524698 L20.0,-42.02440212813315 L20.0,-41.961524227066 " />
			<path d="M20.0,-41.961524227066 L20.0,-42.212245105248684 L20.0,-42.951835548043604 L20.0,-44.14320940238828 L20.0,-45.7266262084819 L20.0,-47.62268683589415 L20.0,-49.73631488750689 L20.0,-51.961524227070136 L20.0,-54.18673356663318 L20.0,-56.30036161824531 L20.0,-58.19642224565657 L20.0,-59.77983905174888 L20.0,-60.971212906091985 L20.0,-61.71080334888516 L20.0,-61.96152422706599 " />
			<path d="M20.0,-61.961524227066 L20.0,-61.898646325997994 L20.0,-61.710803348883445 L20.0,-61.4003575301486 L20.0,-60.97121290608891 L20.0,-60.42876621934742 L20.0,-59.779839051744815 L20.0,-59.032592038930005 L20.0,-58.19642224565194 L20.0,-57.2818449922181 L20.0,-56.300361618240494 L20.0,-55.26431484661681 L20.0,-54.18673356662854 L20.0,-53.08116898809875 L20.0,-51.961524227066086 " />
			<path d="M20.0,-51.961524227066 L20.0,-50.84187946603263 L20.0,-49.73631488750228 L20.0,-48.65873360751349 L20.0,-47.622686835889354 L20.0,-46.64120346191138 L20.0,-45.72662620847728 L20.0,-44.89045641519906 L20.0,-44.14320940238423 L20.0,-43.49428223478174 L20.0,-42.95183554804053 L20.0,-42.52269092398125 L20.0,-42.21224510524698 L20.0,-42.02440212813315 L20.0,-41.961524227066 " />
			<path d="M20.0,-41.961524227066 L20.0,-42.212245105248684 L20.0,-42.951835548043604 L20.0,-44.14320940238828 L20.0,-45.7266262084819 L20.0,-47.62268683589415 L20.0,-49.73631488750689 L20.0,-51.961524227070136 L20.0,-54.18673356663318 L20.0,-56.30036161824531 L20.0,-58.19642224565657 L20.0,-59.77983905174888 L20.0,-60.971212906091985 L20.0,-61.71080334888516 L20.0,-61.96152422706599 " />
			<path d="M20.0,-61.961524227066 L20.0,-61.898646325997994 L20.0,-61.710803348883445 L20.0,-61.4003575301486 L20.0,-60.97121290608891 L20.0,-60.42876621934742 L20.0,-59.779839051744815 L20.0,-59.032592038930005 L20.0,-58.19642224565194 L20.0,-57.2818449922181 L20.0,-56.300361618240494 L20.0,-55.26431484661681 L20.0,-54.18673356662854 L20.0,-53.08116898809875 L20.0,-51.961524227066086 " />
			<path d="M0.0,-86.33229234291535 L20.0,-86.33229234291535 " />
			<path d="M0.0,-2.4492935982950004e-15 L0.0,-1.119644761033081 L0.0,-2.2252093395631465 L0.0,-3.302790619551673 L0.0,-4.338837391175585 L0.0,-5.320320765153369 L0.0,-6.234898018587338 L0.0,-7.071067811865479 L0.0,-7.818314824680303 L0.0,-8.467241992282844 L0.0,-9.009688679024197 L0.0,-9.438833303083682 L0.0,-9.749279121818242 L0.0,-9.937122098932432 L0.0,-10.000000000000005 " />
			<path d="M0.0,-10.000000000000007 L0.0,-9.937122098932432 L0.0,-9.749279121818246 L0.0,-9.438833303083685 L0.0,-9.009688679024201 L0.0,-8.467241992282853 L0.0,-7.818314824680311 L0.0,-7.071067811865487 L0.0,-6.234898018587348 L0.0,-5.3203207651533795 L0.0,-4.338837391175595 L0.0,-3.3027906195516845 L0.0,-2.2252093395631576 L0.0,-1.1196447610330924 L0.0,-5.836588764394179e-14 " />
			<path d="M0.0,-2.4492935982949996e-15 L0.0,-1.119644761033081 L0.0,-2.225209339563146 L0.0,-3.302790619551672 L0.0,-4.338837391175583 L0.0,-5.320320765153366 L0.0,-6.2348980185873355 L0.0,-7.071067811865475 L0.0,-7.818314824680298 L0.0,-8.46724199228284 L0.0,-9.009688679024192 L0.0,-9.438833303083674 L0.0,-9.749279121818235 L0.0,-9.937122098932422 L0.0,-9.999999999999995 " />
			<path d="M0.0,-9.999999999999996 L0.0,-9.937122098932422 L0.0,-9.749279121818232 L0.0,-9.43883330308367 L0.0,-9.009688679024185 L0.0,-8.467241992282835 L0.0,-7.81831482468029 L0.0,-7.071067811865467 L0.0,-6.234898018587326 L0.0,-5.320320765153357 L0.0,-4.338837391175572 L0.0,-3.3027906195516614 L0.0,-2.225209339563134 L0.0,-1.1196447610330689 L0.0,-3.460711491696345e-14 " />
			<path d="M0.0,-2.449293598295e-15 L0.0,-1.1196447610331222 L0.0,-2.2252093395632273 L0.0,-3.30279061955179 L0.0,-4.3388373911757325 L0.0,-5.320320765153542 L0.0,-6.23489801858753 L0.0,-7.07106781186568 L0.0,-7.818314824680504 L0.0,-8.46724199228304 L0.0,-9.00968867902437 L0.0,-9.438833303083825 L0.0,-9.749279121818345 L0.0,-9.937122098932482 L0.0,-9.999999999999995 " />
			<path d="M0.0,-9.999999999999996 L0.0,-86.3322923429154 " />
			<path d="M0.0,-51.961524227066 L0.0,-53.08116898809908 L0.0,-54.186733566629144 L0.0,-55.26431484661767 L0.0,-56.30036161824158 L0.0,-57.28184499221936 L0.0,-58.19642224565334 L0.0,-59.032592038931476 L0.0,-59.7798390517463 L0.0,-60.428766219348844 L0.0,-60.971212906090194 L0.0,-61.40035753014968 L0.0,-61.71080334888424 L0.0,-61.89864632599843 L0.0,-61.961524227066 " />
			<path d="M0.0,-61.961524227066 L0.0,-61.71080334888424 L0.0,-60.971212906090194 L0.0,-59.7798390517463 L0.0,-58.19642224565334 L0.0,-56.30036161824158 L0.0,-54.186733566629144 L0.0,-51.961524227066 L0.0,-49.73631488750286 L0.0,-47.62268683589042 L0.0,-45.72662620847866 L0.0,-44.14320940238571 L0.0,-42.951835548041814 L0.0,-42.21224510524776 L0.0,-41.96152422706601 " />
			<path d="M0.0,-41.961524227066 L0.0,-42.02440212813357 L0.0,-42.21224510524776 L0.0,-42.522690923982324 L0.0,-42.95183554804181 L0.0,-43.49428223478316 L0.0,-44.1432094023857 L0.0,-44.890456415200525 L0.0,-45.72662620847866 L0.0,-46.64120346191263 L0.0,-47.62268683589042 L0.0,-48.65873360751433 L0.0,-49.73631488750286 L0.0,-50.84187946603292 L0.0,-51.961524227065915 " />
			<path d="M0.0,-51.961524227066 L0.0,-53.08116898809908 L0.0,-54.186733566629144 L0.0,-55.26431484661767 L0.0,-56.30036161824158 L0.0,-57.28184499221936 L0.0,-58.19642224565334 L0.0,-59.032592038931476 L0.0,-59.7798390517463 L0.0,-60.428766219348844 L0.0,-60.971212906090194 L0.0,-61.40035753014968 L0.0,-61.71080334888424 L0.0,-61.89864632599843 L0.0,-61.961524227066 " />
			<path d="M0.0,-61.961524227066 L0.0,-61.71080334888424 L0.0,-60.971212906090194 L0.0,-59.7798390517463 L0.0,-58.19642224565334 L0.0,-56.30036161824158 L0.0,-54.186733566629144 L0.0,-51.961524227066 L0.0,-49.73631488750286 L0.0,-47.62268683589042 L0.0,-45.72662620847866 L0.0,-44.14320940238571 L0.0,-42.951835548041814 L0.0,-42.21224510524776 L0.0,-41.96152422706601 " />
			<path d="M0.0,-41.961524227066 L0.0,-42.02440212813357 L0.0,-42.21224510524776 L0.0,-42.522690923982324 L0.0,-42.95183554804181 L0.0,-43.49428223478316 L0.0,-44.1432094023857 L0.0,-44.890456415200525 L0.0,-45.72662620847866 L0.0,-46.64120346191263 L0.0,-47.62268683589042 L0.0,-48.65873360751433 L0.0,-49.73631488750286 L0.0,-50.84187946603292 L0.0,-51.961524227065915 " />
			<path d="M20.0,3.056402745135148e-13 L0.0,3.056402745135148e-13 " />
			<path d="M20.0,3.056402745135148e-13 L0.0,3.056402745135148e-13 " />
			<path d="M20.0,-10.0 L0.0,-10.0 " />
			<path d="M20.0,-10.0 L20.0,-86.3322923429154 " />
			<path d="M20.0,1.2246467991473533e-15 L20.0,-1.1196447610330376 L20.0,-2.2252093395630648 L20.0,-3.3027906195515566 L20.0,-4.338837391175436 L20.0,-5.320320765153195 L20.0,-6.234898018587147 L20.0,-7.071067811865276 L20.0,-7.818314824680098 L20.0,-8.467241992282647 L20.0,-9.009688679024013 L20.0,-9.438833303083525 L20.0,-9.749279121818125 L20.0,-9.937122098932365 L20.0,-9.999999999999995 " />
			<path d="M20.0,1.2246467991473533e-15 L20.0,-1.119644761033373 L20.0,-2.225209339563723 L20.0,-3.302790619552512 L20.0,-4.338837391176652 L20.0,-5.320320765154624 L20.0,-6.23489801858873 L20.0,-7.071067811866946 L20.0,-7.8183148246817815 L20.0,-8.467241992284263 L20.0,-9.009688679025478 L20.0,-9.43883330308475 L20.0,-9.749279121819027 L20.0,-9.937122098932855 L20.0,-9.999999999999995 " />
			<path d="M20.0,-10.0 L20.0,-9.937122098931995 L20.0,-9.749279121817446 L20.0,-9.4388333030826 L20.0,-9.009688679022904 L20.0,-8.46724199228142 L20.0,-7.818314824678815 L20.0,-7.071067811864001 L20.0,-6.234898018585935 L20.0,-5.320320765152097 L20.0,-4.338837391174495 L20.0,-3.3027906195508097 L20.0,-2.2252093395625403 L20.0,-1.1196447610327545 L20.0,-9.107234018216917e-14 " />
			<path d="M20.0,1.2246467991473533e-15 L20.0,-1.119644761033373 L20.0,-2.225209339563723 L20.0,-3.302790619552512 L20.0,-4.338837391176652 L20.0,-5.320320765154624 L20.0,-6.23489801858873 L20.0,-7.071067811866946 L20.0,-7.8183148246817815 L20.0,-8.467241992284263 L20.0,-9.009688679025478 L20.0,-9.43883330308475 L20.0,-9.749279121819027 L20.0,-9.937122098932855 L20.0,-9.999999999999995 " />
			<path d="M20.0,-10.0 L20.0,-9.937122098931995 L20.0,-9.749279121817446 L20.0,-9.4388333030826 L20.0,-9.009688679022904 L20.0,-8.46724199228142 L20.0,-7.818314824678815 L20.0,-7.071067811864001 L20.0,-6.234898018585935 L20.0,-5.320320765152097 L20.0,-4.338837391174495 L20.0,-3.3027906195508097 L20.0,-2.2252093395625403 L20.0,-1.1196447610327545 L20.0,-9.107234018216917e-14 " />
			<path d="M20.0,-86.3322923429154 L20.0,-80.53783808464351 L20.0,-74.66153229693222 L20.0,-68.709347136815 L20.0,-62.68733187840262 L20.0,-56.6016067649364 L20.0,-50.45835678871475 L20.0,-44.26382540521453 L20.0,-38.024308187795505 L20.0,-31.746146429436916 L20.0,-25.435720698008602 L20.0,-19.099444351626644 L20.0,-12.743757020683857 L20.0,-6.375118063179522 L20.0,-9.131332544865277e-13 " />
			<path d="M20.0,-51.961524227066 L20.0,-50.84187946603263 L20.0,-49.73631488750228 L20.0,-48.65873360751349 L20.0,-47.622686835889354 L20.0,-46.64120346191138 L20.0,-45.72662620847728 L20.0,-44.89045641519906 L20.0,-44.14320940238423 L20.0,-43.49428223478174 L20.0,-42.95183554804053 L20.0,-42.52269092398125 L20.0,-42.21224510524698 L20.0,-42.02440212813315 L20.0,-41.961524227066 " />
			<path d="M20.0,-41.961524227066 L20.0,-42.212245105248684 L20.0,-42.951835548043604 L20.0,-44.14320940238828 L20.0,-45.7266262084819 L20.0,-47.62268683589415 L20.0,-49.73631488750689 L20.0,-51.961524227070136 L20.0,-54.18673356663318 L20.0,-56.30036161824531 L20.0,-58.19642224565657 L20.0,-59.77983905174888 L20.0,-60.971212906091985 L20.0,-61.71080334888516 L20.0,-61.96152422706599 " />
			<path d="M20.0,-61.961524227066 L20.0,-61.898646325997994 L20.0,-61.710803348883445 L20.0,-61.4003575301486 L20.0,-60.97121290608891 L20.0,-60.42876621934742 L20.0,-59.779839051744815 L20.0,-59.032592038930005 L20.0,-58.19642224565194 L20.0,-57.2818449922181 L20.0,-56.300361618240494 L20.0,-55.26431484661681 L20.0,-54.18673356662854 L20.0,-53.08116898809875 L20.0,-51.961524227066086 " />
			<path d="M20.0,-51.961524227066 L20.0,-50.84187946603263 L20.0,-49.73631488750228 L20.0,-48.65873360751349 L20.0,-47.622686835889354 L20.0,-46.64120346191138 L20.0,-45.72662620847728 L20.0,-44.89045641519906 L20.0,-44.14320940238423 L20.0,-43.49428223478174 L20.0,-42.95183554804053 L20.0,-42.52269092398125 L20.0,-42.21224510524698 L20.0,-42.02440212813315 L20.0,-41.961524227066 " />
			<path d="M20.0,-41.961524227066 L20.0,-42.212245105248684 L20.0,-42.951835548043604 L20.0,-44.14320940238828 L20.0,-45.7266262084819 L20.0,-47.62268683589415 L20.0,-49.73631488750689 L20.0,-51.961524227070136 L20.0,-54.18673356663318 L20.0,-56.30036161824531 L20.0,-58.19642224565657 L20.0,-59.77983905174888 L20.0,-60.971212906091985 L20.0,-61.71080334888516 L20.0,-61.96152422706599 " />
			<path d="M20.0,-61.961524227066 L20.0,-61.898646325997994 L20.0,-61.710803348883445 L20.0,-61.4003575301486 L20.0,-60.97121290608891 L20.0,-60.42876621934742 L20.0,-59.779839051744815 L20.0,-59.032592038930005 L20.0,-58.19642224565194 L20.0,-57.2818449922181 L20.0,-56.300361618240494 L20.0,-55.26431484661681 L20.0,-54.18673356662854 L20.0,-53.08116898809875 L20.0,-51.961524227066086 " />
			<path d="M0.0,-86.33229234291535 L20.0,-86.33229234291535 " />
			<path d="M0.0,-9.999999999999996 L0.0,-86.3322923429154 " />
			<path d="M20.0,-10.0 L0.0,-10.0 " />
			<path d="M20.0,3.056402745135148e-13 L0.0,3.056402745135148e-13 " />
			<path d="M0.0,-9.999999999999996 L0.0,-9.937122098932361 L0.0,-9.74927912181812 L0.0,-9.43883330308352 L0.0,-9.009688679024007 L0.0,-8.467241992282636 L0.0,-7.818314824680084 L0.0,-7.071067811865262 L0.0,-6.23489801858713 L0.0,-5.320320765153178 L0.0,-4.338837391175417 L0.0,-3.3027906195515375 L0.0,-2.2252093395630457 L0.0,-1.1196447610330182 L0.0,-3.682756096621167e-14 " />
			<path d="M20.0,3.056402745135148e-13 L0.0,3.056402745135148e-13 " />
			<path d="M0.0,-2.4492935982947002e-15 L0.0,-1.119644761033081 L0.0,-2.2252093395631465 L0.0,-3.302790619551673 L0.0,-4.338837391175583 L0.0,-5.320320765153367 L0.0,-6.234898018587336 L0.0,-7.071067811865476 L0.0,-7.8183148246803 L0.0,-8.467241992282842 L0.0,-9.009688679024194 L0.0,-9.438833303083676 L0.0,-9.749279121818237 L0.0,-9.937122098932425 L0.0,-9.999999999999998 " />
			<path d="M0.0,-10.0 L0.0,-9.937122098932425 L0.0,-9.749279121818237 L0.0,-9.438833303083676 L0.0,-9.00968867902419 L0.0,-8.46724199228284 L0.0,-7.818314824680297 L0.0,-7.071067811865474 L0.0,-6.234898018587334 L0.0,-5.320320765153365 L0.0,-4.338837391175581 L0.0,-3.3027906195516703 L0.0,-2.2252093395631434 L0.0,-1.1196447610330778 L0.0,-4.371094371888973e-14 " />
			<path d="M20.0,3.056402745135148e-13 L0.0,3.056402745135148e-13 " />
			<path d="M0.0,-2.4492935982950004e-15 L0.0,-1.119644761033081 L0.0,-2.2252093395631465 L0.0,-3.302790619551673 L0.0,-4.338837391175585 L0.0,-5.320320765153369 L0.0,-6.234898018587338 L0.0,-7.071067811865479 L0.0,-7.818314824680303 L0.0,-8.467241992282844 L0.0,-9.009688679024197 L0.0,-9.438833303083682 L0.0,-9.749279121818242 L0.0,-9.937122098932432 L0.0,-10.000000000000005 " />
			<path d="M0.0,-10.000000000000007 L0.0,-9.937122098932432 L0.0,-9.749279121818246 L0.0,-9.438833303083685 L0.0,-9.009688679024201 L0.0,-8.467241992282853 L0.0,-7.818314824680311 L0.0,-7.071067811865487 L0.0,-6.234898018587348 L0.0,-5.3203207651533795 L0.0,-4.338837391175595 L0.0,-3.3027906195516845 L0.0,-2.2252093395631576 L0.0,-1.1196447610330924 L0.0,-5.836588764394179e-14 " />
			<path d="M20.0,3.056402745135148e-13 L0.0,3.056402745135148e-13 " />
			<path d="M20.0,-86.33229234291535 L0.0,-86.33229234291535 " />
			<path d="M0.0,-86.3322923429154 L0.0,-80.53783808464351 L0.0,-74.66153229693222 L0.0,-68.709347136815 L0.0,-62.68733187840262 L0.0,-56.6016067649364 L0.0,-50.45835678871475 L0.0,-44.26382540521453 L0.0,-38.024308187795505 L0.0,-31.746146429436916 L0.0,-25.435720698008602 L0.0,-19.099444351626644 L0.0,-12.743757020683857 L0.0,-6.375118063179522 L0.0,-9.131332544865277e-13 " />
			<path d="M0.0,-51.961524227066 L0.0,-53.08116898809908 L0.0,-54.186733566629144 L0.0,-55.26431484661767 L0.0,-56.30036161824158 L0.0,-57.28184499221936 L0.0,-58.19642224565334 L0.0,-59.032592038931476 L0.0,-59.7798390517463 L0.0,-60.428766219348844 L0.0,-60.971212906090194 L0.0,-61.40035753014968 L0.0,-61.71080334888424 L0.0,-61.89864632599843 L0.0,-61.961524227066 " />
			<path d="M0.0,-61.961524227066 L0.0,-61.71080334888424 L0.0,-60.971212906090194 L0.0,-59.7798390517463 L0.0,-58.19642224565334 L0.0,-56.30036161824158 L0.0,-54.186733566629144 L0.0,-51.961524227066 L0.0,-49.73631488750286 L0.0,-47.62268683589042 L0.0,-45.72662620847866 L0.0,-44.14320940238571 L0.0,-42.951835548041814 L0.0,-42.21224510524776 L0.0,-41.96152422706601 " />
			<path d="M0.0,-41.961524227066 L0.0,-42.02440212813357 L0.0,-42.21224510524776 L0.0,-42.522690923982324 L0.0,-42.95183554804181 L0.0,-43.49428223478316 L0.0,-44.1432094023857 L0.0,-44.890456415200525 L0.0,-45.72662620847866 L0.0,-46.64120346191263 L0.0,-47.62268683589042 L0.0,-48.65873360751433 L0.0,-49.73631488750286 L0.0,-50.84187946603292 L0.0,-51.961524227065915 " />
			<path d="M0.0,-51.961524227066 L0.0,-53.08116898809908 L0.0,-54.186733566629144 L0.0,-55.26431484661767 L0.0,-56.30036161824158 L0.0,-57.28184499221936 L0.0,-58.19642224565334 L0.0,-59.032592038931476 L0.0,-59.7798390517463 L0.0,-60.428766219348844 L0.0,-60.971212906090194 L0.0,-61.40035753014968 L0.0,-61.71080334888424 L0.0,-61.89864632599843 L0.0,-61.961524227066 " />
			<path d="M0.0,-61.961524227066 L0.0,-61.71080334888424 L0.0,-60.971212906090194 L0.0,-59.7798390517463 L0.0,-58.19642224565334 L0.0,-56.30036161824158 L0.0,-54.186733566629144 L0.0,-51.961524227066 L0.0,-49.73631488750286 L0.0,-47.62268683589042 L0.0,-45.72662620847866 L0.0,-44.14320940238571 L0.0,-42.951835548041814 L0.0,-42.21224510524776 L0.0,-41.96152422706601 " />
			<path d="M0.0,-41.961524227066 L0.0,-42.02440212813357 L0.0,-42.21224510524776 L0.0,-42.522690923982324 L0.0,-42.95183554804181 L0.0,-43.49428223478316 L0.0,-44.1432094023857 L0.0,-44.890456415200525 L0.0,-45.72662620847866 L0.0,-46.64120346191263 L0.0,-47.62268683589042 L0.0,-48.65873360751433 L0.0,-49.73631488750286 L0.0,-50.84187946603292 L0.0,-51.961524227065915 " />
			<path d="M20.0,-86.33229234291535 L20.0,-93.92304845413 " />
			<path d="M20.0,-103.92304845413 L20.0,-102.8034036930969 L20.0,-101.69783911456682 L20.0,-100.62025783457827 L20.0,-99.58421106295434 L20.0,-98.60272768897654 L20.0,-97.68815043554257 L20.0,-96.85198064226442 L20.0,-96.1047336294496 L20.0,-95.45580646184706 L20.0,-94.91335977510572 L20.0,-94.48421515104624 L20.0,-94.1737693323117 L20.0,-93.98592635519753 L20.0,-93.92304845413 " />
			<path d="M20.0,-113.92304845413 L20.0,-113.86017055306246 L20.0,-113.67232757594829 L20.0,-113.36188175721375 L20.0,-112.93273713315429 L20.0,-112.39029044641295 L20.0,-111.74136327881041 L20.0,-110.9941162659956 L20.0,-110.15794647271746 L20.0,-109.24336921928348 L20.0,-108.2618858453057 L20.0,-107.22583907368177 L20.0,-106.14825779369323 L20.0,-105.04269321516315 L20.0,-103.92304845413008 " />
			<path d="M20.0,-113.92304845413 L20.0,-200.0 " />
			<path d="M20.0,-103.92304845413 L20.0,-102.80340369309663 L20.0,-101.69783911456628 L20.0,-100.62025783457749 L20.0,-99.58421106295336 L20.0,-98.60272768897538 L20.0,-97.68815043554127 L20.0,-96.85198064226306 L20.0,-96.10473362944822 L20.0,-95.45580646184574 L20.0,-94.91335977510452 L20.0,-94.48421515104525 L20.0,-94.17376933231097 L20.0,-93.98592635519714 L20.0,-93.92304845413 " />
			<path d="M20.0,-93.92304845413 L20.0,-94.17376933231269 L20.0,-94.91335977510761 L20.0,-96.10473362945228 L20.0,-97.6881504355459 L20.0,-99.58421106295815 L20.0,-101.69783911457088 L20.0,-103.92304845413413 L20.0,-106.14825779369717 L20.0,-108.26188584530931 L20.0,-110.15794647272057 L20.0,-111.74136327881287 L20.0,-112.93273713315598 L20.0,-113.67232757594915 L20.0,-113.92304845412998 " />
			<path d="M20.0,-113.92304845413 L20.0,-113.86017055306199 L20.0,-113.67232757594745 L20.0,-113.3618817572126 L20.0,-112.9327371331529 L20.0,-112.39029044641141 L20.0,-111.74136327880882 L20.0,-110.994116265994 L20.0,-110.15794647271593 L20.0,-109.2433692192821 L20.0,-108.26188584530449 L20.0,-107.2258390736808 L20.0,-106.14825779369254 L20.0,-105.04269321516276 L20.0,-103.92304845413008 " />
			<path d="M0.0,-113.92304845413 L0.0,-200.0 " />
			<path d="M20.0,-113.92304845413 L0.0,-113.92304845413 " />
			<path d="M0.0,-86.33229234291535 L0.0,-93.92304845413 " />
			<path d="M0.0,-93.92304845413 L0.0,-93.98592635519753 L0.0,-94.1737693323117 L0.0,-94.48421515104624 L0.0,-94.9133597751057 L0.0,-95.45580646184703 L0.0,-96.10473362944957 L0.0,-96.8519806422644 L0.0,-97.68815043554252 L0.0,-98.6027276889765 L0.0,-99.5842110629543 L0.0,-100.62025783457821 L0.0,-101.69783911456676 L0.0,-102.80340369309684 L0.0,-103.9230484541299 " />
			<path d="M0.0,-103.92304845412998 L0.0,-105.04269321516308 L0.0,-106.14825779369318 L0.0,-107.22583907368173 L0.0,-108.26188584530564 L0.0,-109.24336921928345 L0.0,-110.15794647271743 L0.0,-110.99411626599557 L0.0,-111.7413632788104 L0.0,-112.39029044641293 L0.0,-112.93273713315428 L0.0,-113.36188175721375 L0.0,-113.67232757594829 L0.0,-113.86017055306246 L0.0,-113.92304845413 " />
			<path d="M0.0,-103.92304845413 L0.0,-105.04269321516307 L0.0,-106.14825779369315 L0.0,-107.22583907368167 L0.0,-108.26188584530559 L0.0,-109.24336921928337 L0.0,-110.15794647271733 L0.0,-110.99411626599547 L0.0,-111.7413632788103 L0.0,-112.39029044641283 L0.0,-112.93273713315419 L0.0,-113.36188175721367 L0.0,-113.67232757594823 L0.0,-113.86017055306242 L0.0,-113.92304845413 " />
			<path d="M0.0,-113.92304845413 L0.0,-113.67232757594823 L0.0,-112.93273713315419 L0.0,-111.7413632788103 L0.0,-110.15794647271733 L0.0,-108.26188584530559 L0.0,-106.14825779369315 L0.0,-103.92304845413 L0.0,-101.69783911456686 L0.0,-99.58421106295442 L0.0,-97.68815043554267 L0.0,-96.1047336294497 L0.0,-94.9133597751058 L0.0,-94.17376933231176 L0.0,-93.92304845413001 " />
			<path d="M0.0,-93.92304845413 L0.0,-93.98592635519758 L0.0,-94.17376933231176 L0.0,-94.48421515104633 L0.0,-94.9133597751058 L0.0,-95.45580646184716 L0.0,-96.1047336294497 L0.0,-96.85198064226452 L0.0,-97.68815043554267 L0.0,-98.60272768897663 L0.0,-99.58421106295441 L0.0,-100.62025783457833 L0.0,-101.69783911456685 L0.0,-102.80340369309691 L0.0,-103.92304845412991 " />
			<path d="M0.0,-86.33229234291535 L20.0,-86.33229234291535 " />
			<path d="M20.0,-93.92304845413 L0.0,-93.92304845413 " />
			<path d="M20.0,-200.0 L20.0,-199.35523661999193 L20.0,-197.42510367812974 L20.0,-194.22204596480802 L20.0,-189.76671562320277 L20.0,-184.08783899181515 L20.0,-177.22203138756007 L20.0,-169.2135610236116 L20.0,-160.1140635841753 L20.0,-149.98220929650546 L20.0,-138.88332464676466 L20.0,-126.88897117876385 L20.0,-114.0764840913334 L20.0,-100.52847360928129 L20.0,-86.33229234291618 " />
			<path d="M20.0,-86.33229234291535 L0.0,-86.33229234291535 " />
			<path d="M0.0,-200.0 L0.0,-199.35523661999193 L0.0,-197.42510367812974 L0.0,-194.22204596480802 L0.0,-189.76671562320277 L0.0,-184.08783899181515 L0.0,-177.22203138756007 L0.0,-169.2135610236116 L0.0,-160.1140635841753 L0.0,-149.98220929650546 L0.0,-138.88332464676466 L0.0,-126.88897117876385 L0.0,-114.0764840913334 L0.0,-100.52847360928129 L0.0,-86.33229234291618 " />
			<path d="M20.0,-113.92304845413 L20.0,-200.0 " />
			<path d="M20.0,-93.92304845413 L20.0,-94.17376933231182 L20.0,-94.9133597751059 L20.0,-96.10473362944981 L20.0,-97.68815043554275 L20.0,-99.58421106295448 L20.0,-101.69783911456689 L20.0,-103.92304845412998 L20.0,-106.14825779369309 L20.0,-108.26188584530549 L20.0,-110.15794647271721 L20.0,-111.74136327881018 L20.0,-112.93273713315409 L20.0,-113.67232757594817 L20.0,-113.92304845412998 " />
			<path d="M20.0,-86.33229234291535 L20.0,-93.92304845413 " />
			<path d="M20.0,-103.92304845413 L20.0,-102.80340369309663 L20.0,-101.69783911456628 L20.0,-100.62025783457749 L20.0,-99.58421106295336 L20.0,-98.60272768897538 L20.0,-97.68815043554127 L20.0,-96.85198064226306 L20.0,-96.10473362944822 L20.0,-95.45580646184574 L20.0,-94.91335977510452 L20.0,-94.48421515104525 L20.0,-94.17376933231097 L20.0,-93.98592635519714 L20.0,-93.92304845413 " />
			<path d="M20.0,-93.92304845413 L20.0,-94.17376933231269 L20.0,-94.91335977510761 L20.0,-96.10473362945228 L20.0,-97.6881504355459 L20.0,-99.58421106295815 L20.0,-101.69783911457088 L20.0,-103.92304845413413 L20.0,-106.14825779369717 L20.0,-108.26188584530931 L20.0,-110.15794647272057 L20.0,-111.74136327881287 L20.0,-112.93273713315598 L20.0,-113.67232757594915 L20.0,-113.92304845412998 " />
			<path d="M20.0,-113.92304845413 L20.0,-113.86017055306199 L20.0,-113.67232757594745 L20.0,-113.3618817572126 L20.0,-112.9327371331529 L20.0,-112.39029044641141 L20.0,-111.74136327880882 L20.0,-110.994116265994 L20.0,-110.15794647271593 L20.0,-109.2433692192821 L20.0,-108.26188584530449 L20.0,-107.2258390736808 L20.0,-106.14825779369254 L20.0,-105.04269321516276 L20.0,-103.92304845413008 " />
			<path d="M0.0,-86.33229234291535 L20.0,-86.33229234291535 " />
			<path d="M0.0,-113.92304845413 L0.0,-200.0 " />
			<path d="M0.0,-113.92304845413 L0.0,-113.67232757594817 L0.0,-112.93273713315409 L0.0,-111.74136327881018 L0.0,-110.15794647271723 L0.0,-108.2618858453055 L0.0,-106.1482577936931 L0.0,-103.92304845413 L0.0,-101.6978391145669 L0.0,-99.5842110629545 L0.0,-97.68815043554277 L0.0,-96.10473362944981 L0.0,-94.9133597751059 L0.0,-94.17376933231182 L0.0,-93.92304845413001 " />
			<path d="M0.0,-86.33229234291535 L0.0,-93.92304845413 " />
			<path d="M0.0,-103.92304845412998 L0.0,-105.04269321516306 L0.0,-106.14825779369313 L0.0,-107.22583907368166 L0.0,-108.26188584530557 L0.0,-109.24336921928335 L0.0,-110.15794647271733 L0.0,-110.99411626599546 L0.0,-111.74136327881028 L0.0,-112.39029044641283 L0.0,-112.93273713315418 L0.0,-113.36188175721367 L0.0,-113.67232757594823 L0.0,-113.86017055306242 L0.0,-113.92304845413 " />
			<path d="M0.0,-113.92304845413 L0.0,-113.67232757594823 L0.0,-112.93273713315419 L0.0,-111.74136327881031 L0.0,-110.15794647271734 L0.0,-108.26188584530559 L0.0,-106.14825779369316 L0.0,-103.92304845413001 L0.0,-101.69783911456688 L0.0,-99.58421106295442 L0.0,-97.68815043554268 L0.0,-96.10473362944971 L0.0,-94.91335977510582 L0.0,-94.17376933231176 L0.0,-93.92304845413001 " />
			<path d="M0.0,-93.92304845413 L0.0,-93.98592635519756 L0.0,-94.17376933231176 L0.0,-94.48421515104631 L0.0,-94.9133597751058 L0.0,-95.45580646184715 L0.0,-96.10473362944968 L0.0,-96.85198064226451 L0.0,-97.68815043554265 L0.0,-98.60272768897661 L0.0,-99.5842110629544 L0.0,-100.62025783457831 L0.0,-101.69783911456683 L0.0,-102.8034036930969 L0.0,-103.9230484541299 " />
			<path d="M20.0,-113.92304845413 L0.0,-113.92304845413 " />
			<path d="M20.0,-93.92304845413 L0.0,-93.92304845413 " />
			<path d="M20.0,113.9230484541 L0.0,113.9230484541 " />
			<path d="M20.0,93.9230484541 L0.0,93.9230484541 " />
			<path d="M20.0,113.9230484541 L0.0,113.9230484541 " />
			<path d="M20.0,93.9230484541 L0.0,93.9230484541 " />
			<path d="M20.0,10.0 L0.0,10.0 " />
			<path d="M20.0,10.0 L0.0,10.0 " />
			<path d="M20.0,61.96152422706 L0.0,61.96152422706 " />
			<path d="M20.0,41.96152422706 L0.0,41.96152422706 " />
			<path d="M20.0,61.96152422706 L0.0,61.96152422706 " />
			<path d="M20.0,41.96152422706 L0.0,41.96152422706 " />
			<path d="M20.0,10.0 L0.0,10.0 " />
			<path d="M20.0,10.0 L0.0,10.0 " />
			<path d="M20.0,61.96152422706 L0.0,61.96152422706 " />
			<path d="M20.0,41.96152422706 L0.0,41.96152422706 " />
			<path d="M20.0,61.96152422706 L0.0,61.96152422706 " />
			<path d="M20.0,41.96152422706 L0.0,41.96152422706 " />
			<path d="M20.0,-10.0 L0.0,-10.0 " />
			<path d="M20.0,-10.0 L0.0,-10.0 " />
			<path d="M20.0,-41.961524227066 L0.0,-41.961524227066 " />
			<path d="M20.0,-61.961524227066 L0.0,-61.961524227066 " />
			<path d="M20.0,-41.961524227066 L0.0,-41.961524227066 " />
			<path d="M20.0,-61.961524227066 L0.0,-61.961524227066 " />
			<path d="M20.0,-10.0 L0.0,-10.0 " />
			<path d="M20.0,-10.0 L0.0,-10.0 " />
			<path d="M20.0,-41.961524227066 L0.0,-41.961524227066 " />
			<path d="M20.0,-61.961524227066 L0.0,-61.961524227066 " />
			<path d="M20.0,-41.961524227066 L0.0,-41.961524227066 " />
			<path d="M20.0,-61.961524227066 L0.0,-61.961524227066 " />
			<path d="M20.0,-93.92304845413 L0.0,-93.92304845413 " />
			<path d="M20.0,-113.92304845413 L0.0,-113.92304845413 " />
			<path d="M20.0,-93.92304845413 L0.0,-93.92304845413 " />
			<path d="M20.0,-113.92304845413 L0.0,-113.92304845413 " />

       </g>

       <!-- solid lines -->
       <g  stroke="rgb(56,189,248)" fill="none">
			<path d="M20.0,200.0 L20.0,199.35523661999196 L20.0,197.42510367812966 L20.0,194.22204596480776 L20.0,189.76671562320226 L20.0,184.08783899181424 L20.0,177.2220313875587 L20.0,169.2135610236097 L20.0,160.1140635841728 L20.0,149.9822092965023 L20.0,138.8833246467608 L20.0,126.88897117875922 L20.0,114.07648409132793 L20.0,100.52847360927501 L20.0,86.33229234291058 " />
			<path d="M20.0,86.33229234290897 L0.0,86.33229234290897 " />
			<path d="M0.0,200.0 L0.0,199.35523661999196 L0.0,197.42510367812966 L0.0,194.22204596480776 L0.0,189.76671562320226 L0.0,184.08783899181424 L0.0,177.2220313875587 L0.0,169.2135610236097 L0.0,160.1140635841728 L0.0,149.9822092965023 L0.0,138.8833246467608 L0.0,126.88897117875922 L0.0,114.07648409132793 L0.0,100.52847360927501 L0.0,86.33229234291058 " />
			<path d="M20.0,200.0 L0.0,200.0 " />
			<path d="M20.0,200.0 L0.0,200.0 " />
			<path d="M20.0,86.33229234290901 L20.0,80.5378380846376 L20.0,74.66153229692664 L20.0,68.70934713680977 L20.0,62.68733187839774 L20.0,56.60160676493191 L20.0,50.45835678871066 L20.0,44.26382540521083 L20.0,38.024308187792215 L20.0,31.746146429434045 L20.0,25.435720698006158 L20.0,19.099444351624633 L20.0,12.743757020682287 L20.0,6.375118063178392 L20.0,1.8237823718474894e-12 " />
			<path d="M0.0,0.0 L20.0,0.0 " />
			<path d="M20.0,86.33229234290897 L0.0,86.33229234290897 " />
			<path d="M0.0,86.33229234290901 L0.0,80.5378380846376 L0.0,74.66153229692664 L0.0,68.70934713680977 L0.0,62.68733187839774 L0.0,56.60160676493191 L0.0,50.45835678871066 L0.0,44.26382540521083 L0.0,38.024308187792215 L0.0,31.746146429434045 L0.0,25.435720698006158 L0.0,19.099444351624633 L0.0,12.743757020682287 L0.0,6.375118063178392 L0.0,1.8237823718474894e-12 " />
			<path d="M20.0,0.0 L20.0,-6.3751180631798245 L20.0,-12.743757020684132 L20.0,-19.09944435162689 L20.0,-25.43572069800882 L20.0,-31.746146429437104 L20.0,-38.02430818779567 L20.0,-44.26382540521466 L20.0,-50.458356788714866 L20.0,-56.601606764936484 L20.0,-62.687331878402674 L20.0,-68.70934713681504 L20.0,-74.66153229693224 L20.0,-80.53783808464351 L20.0,-86.33229234291525 " />
			<path d="M20.0,-86.33229234291535 L0.0,-86.33229234291535 " />
			<path d="M0.0,0.0 L0.0,-6.3751180631798245 L0.0,-12.743757020684132 L0.0,-19.09944435162689 L0.0,-25.43572069800882 L0.0,-31.746146429437104 L0.0,-38.02430818779567 L0.0,-44.26382540521466 L0.0,-50.458356788714866 L0.0,-56.601606764936484 L0.0,-62.687331878402674 L0.0,-68.70934713681504 L0.0,-74.66153229693224 L0.0,-80.53783808464351 L0.0,-86.33229234291525 " />
			<path d="M20.0,-86.33229234291535 L20.0,-100.5284736092812 L20.0,-114.07648409133336 L20.0,-126.88897117876385 L20.0,-138.8833246467647 L20.0,-149.9822092965055 L20.0,-160.1140635841754 L20.0,-169.2135610236117 L20.0,-177.22203138756015 L20.0,-184.08783899181523 L20.0,-189.76671562320288 L20.0,-194.2220459648081 L20.0,-197.4251036781298 L20.0,-199.35523661999196 L20.0,-199.99999999999997 " />
			<path d="M20.0,-200.0 L0.0,-200.0 " />
			<path d="M0.0,-86.33229234291535 L0.0,-100.5284736092812 L0.0,-114.07648409133336 L0.0,-126.88897117876385 L0.0,-138.8833246467647 L0.0,-149.9822092965055 L0.0,-160.1140635841754 L0.0,-169.2135610236117 L0.0,-177.22203138756015 L0.0,-184.08783899181523 L0.0,-189.76671562320288 L0.0,-194.2220459648081 L0.0,-197.4251036781298 L0.0,-199.35523661999196 L0.0,-199.99999999999997 " />
			<path d="M20.0,-86.33229234291535 L0.0,-86.33229234291535 " />
			<path d="M20.0,-200.0 L0.0,-200.0 " />

       </g>
    </g>
    
</svg>
