<?xml version="1.0" encoding="UTF-8" standalone="no"?>
<svg
   xmlns:svg="http://www.w3.org/2000/svg"
   xmlns="http://www.w3.org/2000/svg"
   width="400.0"
   height="300.0"

>
    <g transform="scale(0.56249999971875, -0.56249999971875)   translate(8.888888993333333,-208.88888899333332)" stroke-width="0.5"  fill="none">
       <!-- hidden lines -->
       <g  stroke="rgb(160,160,160)" fill="none" stroke-dasharray="0.5,0.5" >
			<path d="M20.0,186.50491172460772 L20.0,86.33229234290529 " />
			<path d="M-1.7763568394002505e-14,86.33229234290529 L20.0,86.33229234290529 " />
			<path d="M0.0,186.50491172460772 L0.0,86.33229234290529 " />
			<path d="M20.0,199.99999999999997 L20.0,113.92304845409998 " />
			<path d="M20.0,103.9230484541 L20.0,105.04269321513218 L20.0,106.14825779366139 L20.0,107.22583907364913 L20.0,108.26188584527233 L20.0,109.24336921924956 L20.0,110.15794647268311 L20.0,110.99411626596101 L20.0,111.74136327877581 L20.0,112.39029044637853 L20.0,112.93273713312028 L20.0,113.3618817571804 L20.0,113.67232757591583 L20.0,113.86017055303111 L20.0,113.9230484541 " />
			<path d="M20.0,93.9230484541 L20.0,93.98592635516889 L20.0,94.17376933228417 L20.0,94.4842151510196 L20.0,94.91335977507971 L20.0,95.45580646182148 L20.0,96.1047336294242 L20.0,96.851980642239 L20.0,97.6881504355169 L20.0,98.60272768895047 L20.0,99.5842110629277 L20.0,100.62025783455091 L20.0,101.69783911453864 L20.0,102.80340369306785 L20.0,103.92304845409991 " />
			<path d="M20.0,93.9230484541 L20.0,86.33229234290529 " />
			<path d="M20.0,186.50491172460772 L20.0,86.33229234290529 " />
			<path d="M20.0,103.9230484541 L20.0,105.04269321513337 L20.0,106.14825779366372 L20.0,107.22583907365251 L20.0,108.26188584527665 L20.0,109.24336921925462 L20.0,110.15794647268872 L20.0,110.99411626596694 L20.0,111.74136327878176 L20.0,112.39029044638426 L20.0,112.93273713312547 L20.0,113.36188175718475 L20.0,113.67232757591903 L20.0,113.86017055303286 L20.0,113.9230484541 " />
			<path d="M20.0,113.9230484541 L20.0,113.67232757591731 L20.0,112.9327371331224 L20.0,111.74136327877771 L20.0,110.1579464726841 L20.0,108.26188584527185 L20.0,106.14825779365911 L20.0,103.92304845409586 L20.0,101.69783911453283 L20.0,99.58421106292069 L20.0,97.68815043550943 L20.0,96.10473362941713 L20.0,94.91335977507401 L20.0,94.17376933228084 L20.0,93.92304845410001 " />
			<path d="M20.0,93.9230484541 L20.0,93.985926355168 L20.0,94.17376933228255 L20.0,94.4842151510174 L20.0,94.9133597750771 L20.0,95.45580646181858 L20.0,96.10473362942119 L20.0,96.851980642236 L20.0,97.68815043551406 L20.0,98.60272768894791 L20.0,99.5842110629255 L20.0,100.6202578345492 L20.0,101.69783911453746 L20.0,102.80340369306724 L20.0,103.92304845409991 " />
			<path d="M-1.7763568394002505e-14,86.33229234290529 L20.0,86.33229234290529 " />
			<path d="M0.0,186.50491172460772 L0.0,86.33229234290529 " />
			<path d="M0.0,199.99999999999997 L0.0,113.92304845409998 " />
			<path d="M0.0,113.9230484541 L0.0,113.86017055303111 L0.0,113.67232757591583 L0.0,113.3618817571804 L0.0,112.93273713312028 L0.0,112.39029044637853 L0.0,111.7413632787758 L0.0,110.99411626596101 L0.0,110.1579464726831 L0.0,109.24336921924953 L0.0,108.26188584527232 L0.0,107.2258390736491 L0.0,106.14825779366136 L0.0,105.04269321513215 L0.0,103.9230484541001 " />
			<path d="M0.0,103.92304845410001 L0.0,102.80340369306782 L0.0,101.69783911453862 L0.0,100.62025783455088 L0.0,99.58421106292766 L0.0,98.60272768895045 L0.0,97.68815043551689 L0.0,96.85198064223898 L0.0,96.10473362942419 L0.0,95.45580646182147 L0.0,94.91335977507971 L0.0,94.4842151510196 L0.0,94.17376933228417 L0.0,93.98592635516889 L0.0,93.9230484541 " />
			<path d="M0.0,93.9230484541 L0.0,86.33229234290529 " />
			<path d="M0.0,103.9230484541 L0.0,102.80340369306693 L0.0,101.69783911453685 L0.0,100.62025783454833 L0.0,99.58421106292441 L0.0,98.60272768894663 L0.0,97.68815043551267 L0.0,96.85198064223452 L0.0,96.1047336294197 L0.0,95.45580646181716 L0.0,94.9133597750758 L0.0,94.48421515101631 L0.0,94.17376933228176 L0.0,93.98592635516758 L0.0,93.9230484541 " />
			<path d="M0.0,93.9230484541 L0.0,94.17376933228176 L0.0,94.9133597750758 L0.0,96.1047336294197 L0.0,97.68815043551267 L0.0,99.58421106292441 L0.0,101.69783911453685 L0.0,103.9230484541 L0.0,106.14825779366313 L0.0,108.26188584527557 L0.0,110.15794647268733 L0.0,111.7413632787803 L0.0,112.93273713312419 L0.0,113.67232757591823 L0.0,113.92304845409998 " />
			<path d="M0.0,113.9230484541 L0.0,113.86017055303242 L0.0,113.67232757591823 L0.0,113.36188175718368 L0.0,112.93273713312419 L0.0,112.39029044638283 L0.0,111.7413632787803 L0.0,110.99411626596547 L0.0,110.15794647268734 L0.0,109.24336921925337 L0.0,108.26188584527559 L0.0,107.22583907365167 L0.0,106.14825779366315 L0.0,105.04269321513308 L0.0,103.92304845410008 " />
			<path d="M20.0,113.9230484541 L0.0,113.9230484541 " />
			<path d="M20.0,93.9230484541 L0.0,93.9230484541 " />
			<path d="M20.0,86.33229234290529 L-1.7763568394002505e-14,86.33229234290529 " />
			<path d="M20.0,86.33229234290549 L20.0,56.3888011956888 " />
			<path d="M20.0,51.96152422706 L20.0,52.28906454293161 L20.0,52.616253370547845 L20.0,52.942739598840454 L20.0,53.2681728707107 L20.0,53.59220395900263 L20.0,53.91448514126379 L20.0,54.234670572891226 L20.0,54.552416658262324 L20.0,54.86738241945227 L20.0,55.17922986214238 L20.0,55.48762433832669 L20.0,55.79223490542761 L20.0,56.09273468143516 L20.0,56.38880119568879 " />
			<path d="M20.0,47.5342472584312 L20.0,47.83031377268484 L20.0,48.13081354869238 L20.0,48.435424115793296 L20.0,48.74381859197761 L20.0,49.05566603466771 L20.0,49.370631795857655 L20.0,49.68837788122875 L20.0,50.00856331285618 L20.0,50.33084449511734 L20.0,50.654875583409265 L20.0,50.98030885527951 L20.0,51.30679508357211 L20.0,51.63398391118834 L20.0,51.96152422705992 " />
			<path d="M20.0,47.5342472584312 L20.0,0.0 " />
			<path d="M20.0,0.0 L20.0,1.1196447610333724 L20.0,2.2252093395637202 L20.0,3.302790619552508 L20.0,4.3388373911766465 L20.0,5.320320765154617 L20.0,6.234898018588721 L20.0,7.0710678118669374 L20.0,7.818314824681771 L20.0,8.467241992284256 L20.0,9.009688679025473 L20.0,9.438833303084749 L20.0,9.749279121819026 L20.0,9.937122098932855 L20.0,9.999999999999998 " />
			<path d="M20.0,10.0 L20.0,9.937122098931995 L20.0,9.749279121817446 L20.0,9.438833303082601 L20.0,9.009688679022908 L20.0,8.467241992281426 L20.0,7.818314824678826 L20.0,7.071067811864015 L20.0,6.2348980185859535 L20.0,5.320320765152122 L20.0,4.3388373911745255 L20.0,3.302790619550846 L20.0,2.2252093395625825 L20.0,1.1196447610328017 L20.0,4.570934516320399e-14 " />
			<path d="M0.0,0.0 L20.0,0.0 " />
			<path d="M0.0,86.33229234290549 L0.0,56.388801195688806 " />
			<path d="M0.0,56.388801195688806 L0.0,56.09273468143517 L0.0,55.79223490542763 L0.0,55.48762433832671 L0.0,55.1792298621424 L0.0,54.8673824194523 L0.0,54.55241665826235 L0.0,54.234670572891254 L0.0,53.914485141263825 L0.0,53.59220395900267 L0.0,53.26817287071074 L0.0,52.9427395988405 L0.0,52.616253370547895 L0.0,52.28906454293167 L0.0,51.96152422706009 " />
			<path d="M0.0,51.96152422706 L0.0,51.633983911188395 L0.0,51.30679508357216 L0.0,50.98030885527955 L0.0,50.65487558340931 L0.0,50.330844495117375 L0.0,50.00856331285622 L0.0,49.68837788122878 L0.0,49.37063179585768 L0.0,49.05566603466774 L0.0,48.74381859197763 L0.0,48.43542411579332 L0.0,48.130813548692394 L0.0,47.830313772684846 L0.0,47.534247258431215 " />
			<path d="M0.0,47.53424725843121 L0.0,-1.4210854715202004e-14 " />
			<path d="M0.0,-1.3947689259246353e-14 L0.0,1.1196447610330647 L0.0,2.2252093395631305 L0.0,3.302790619551657 L0.0,4.338837391175567 L0.0,5.320320765153352 L0.0,6.234898018587321 L0.0,7.071067811865463 L0.0,7.818314824680285 L0.0,8.46724199228283 L0.0,9.009688679024181 L0.0,9.438833303083666 L0.0,9.749279121818228 L0.0,9.937122098932418 L0.0,9.999999999999988 " />
			<path d="M0.0,9.999999999999993 L0.0,9.937122098932418 L0.0,9.749279121818232 L0.0,9.43883330308367 L0.0,9.009688679024187 L0.0,8.467241992282839 L0.0,7.818314824680295 L0.0,7.071067811865473 L0.0,6.234898018587334 L0.0,5.320320765153364 L0.0,4.33883739117558 L0.0,3.3027906195516703 L0.0,2.225209339563144 L0.0,1.1196447610330784 L0.0,8.862984952801966e-14 " />
			<path d="M-1.7763568394002505e-14,86.33229234290529 L20.0,86.33229234290529 " />
			<path d="M20.0,56.3888011956888 L0.0,56.3888011956888 " />
			<path d="M20.0,47.53424725843121 L0.0,47.53424725843121 " />
			<path d="M-8.881784197001252e-15,3.0558682544517897e-13 L20.0,3.0558682544517897e-13 " />
			<path d="M20.0,3.056402745135148e-13 L0.0,3.056402745135148e-13 " />
			<path d="M20.0,86.33229234290529 L20.0,10.0 " />
			<path d="M20.0,0.0 L20.0,1.119644761032185 L20.0,2.2252093395613906 L20.0,3.302790619549124 L20.0,4.33883739117234 L20.0,5.3203207651495585 L20.0,6.234898018583117 L20.0,7.071067811861024 L20.0,7.818314824675813 L20.0,8.467241992278536 L20.0,9.00968867902029 L20.0,9.438833303080408 L20.0,9.749279121815835 L20.0,9.937122098931116 L20.0,9.999999999999998 " />
			<path d="M20.0,0.0 L20.0,1.1196447610333724 L20.0,2.2252093395637202 L20.0,3.302790619552508 L20.0,4.3388373911766465 L20.0,5.320320765154617 L20.0,6.234898018588721 L20.0,7.0710678118669374 L20.0,7.818314824681771 L20.0,8.467241992284256 L20.0,9.009688679025473 L20.0,9.438833303084749 L20.0,9.749279121819026 L20.0,9.937122098932855 L20.0,9.999999999999998 " />
			<path d="M20.0,10.0 L20.0,9.937122098931995 L20.0,9.749279121817446 L20.0,9.438833303082601 L20.0,9.009688679022908 L20.0,8.467241992281426 L20.0,7.818314824678826 L20.0,7.071067811864015 L20.0,6.2348980185859535 L20.0,5.320320765152122 L20.0,4.3388373911745255 L20.0,3.302790619550846 L20.0,2.2252093395625825 L20.0,1.1196447610328017 L20.0,4.570934516320399e-14 " />
			<path d="M20.0,47.5342472584312 L20.0,0.0 " />
			<path d="M20.0,56.3888011956888 L20.0,57.08639224782691 L20.0,57.75165885500731 L20.0,58.380404933791596 L20.0,58.96866474927037 L20.0,59.512727928425385 L20.0,60.0091628628295 L20.0,60.454838353074805 L20.0,60.8469433584096 L20.0,61.183004727015884 L20.0,61.460902795095905 L20.0,61.67888475637852 L20.0,61.83557571771904 L20.0,61.92998737106061 L20.0,61.96152422706 " />
			<path d="M20.0,61.96152422706 L20.0,61.71080334887732 L20.0,60.9712129060824 L20.0,59.779839051737724 L20.0,58.1964222456441 L20.0,56.300361618231854 L20.0,54.18673356661911 L20.0,51.96152422705587 L20.0,49.736314887492824 L20.0,47.62268683588069 L20.0,45.72662620846943 L20.0,44.143209402377124 L20.0,42.95183554803402 L20.0,42.21224510524085 L20.0,41.96152422706001 " />
			<path d="M20.0,41.96152422706 L20.0,41.993061083060006 L20.0,42.08747273640209 L20.0,42.24416369774302 L20.0,42.46214565902595 L20.0,42.74004372710617 L20.0,43.07610509571257 L20.0,43.468210101047376 L20.0,43.9138855912926 L20.0,44.41032052569654 L20.0,44.9543837048513 L20.0,45.54264352032975 L20.0,46.17138959911363 L20.0,46.836656206293576 L20.0,47.53424725843112 " />
			<path d="M20.0,86.33229234290549 L20.0,56.3888011956888 " />
			<path d="M20.0,51.96152422706 L20.0,53.081168988093374 L20.0,54.18673356662372 L20.0,55.264314846612514 L20.0,56.30036161823665 L20.0,57.28184499221462 L20.0,58.196422245648726 L20.0,59.03259203892694 L20.0,59.779839051741774 L20.0,60.42876621934426 L20.0,60.971212906085476 L20.0,61.40035753014475 L20.0,61.710803348879026 L20.0,61.89864632599286 L20.0,61.96152422706 " />
			<path d="M20.0,61.96152422706 L20.0,61.71080334887732 L20.0,60.9712129060824 L20.0,59.779839051737724 L20.0,58.1964222456441 L20.0,56.300361618231854 L20.0,54.18673356661911 L20.0,51.96152422705587 L20.0,49.736314887492824 L20.0,47.62268683588069 L20.0,45.72662620846943 L20.0,44.143209402377124 L20.0,42.95183554803402 L20.0,42.21224510524085 L20.0,41.96152422706001 " />
			<path d="M20.0,41.96152422706 L20.0,42.02440212812801 L20.0,42.21224510524256 L20.0,42.52269092397741 L20.0,42.951835548037096 L20.0,43.49428223477858 L20.0,44.14320940238119 L20.0,44.890456415196 L20.0,45.726626208474066 L20.0,46.64120346190791 L20.0,47.62268683588551 L20.0,48.65873360750919 L20.0,49.736314887497464 L20.0,50.84187946602725 L20.0,51.96152422705992 " />
			<path d="M20.0,10.0 L0.0,10.0 " />
			<path d="M0.0,86.33229234290529 L0.0,10.000000000000007 " />
			<path d="M20.0,86.33229234290529 L-1.7763568394002505e-14,86.33229234290529 " />
			<path d="M0.0,0.0 L20.0,0.0 " />
			<path d="M0.0,10.000000000000004 L0.0,9.93712209893112 L0.0,9.749279121815837 L0.0,9.43883330308041 L0.0,9.00968867902029 L0.0,8.467241992278534 L0.0,7.8183148246758085 L0.0,7.071067811861019 L0.0,6.234898018583107 L0.0,5.320320765149547 L0.0,4.338837391172325 L0.0,3.3027906195491052 L0.0,2.225209339561369 L0.0,1.1196447610321607 L0.0,8.862984952794701e-14 " />
			<path d="M20.0,3.056402745135148e-13 L0.0,3.056402745135148e-13 " />
			<path d="M0.0,9.877978887873647e-15 L0.0,1.1196447610330882 L0.0,2.225209339563154 L0.0,3.30279061955168 L0.0,4.33883739117559 L0.0,5.320320765153374 L0.0,6.2348980185873435 L0.0,7.0710678118654835 L0.0,7.818314824680305 L0.0,8.467241992282847 L0.0,9.009688679024197 L0.0,9.43883330308368 L0.0,9.749279121818242 L0.0,9.937122098932429 L0.0,9.999999999999998 " />
			<path d="M0.0,10.000000000000004 L0.0,9.937122098932429 L0.0,9.749279121818239 L0.0,9.438833303083678 L0.0,9.009688679024192 L0.0,8.467241992282842 L0.0,7.818314824680299 L0.0,7.071067811865477 L0.0,6.234898018587336 L0.0,5.320320765153367 L0.0,4.3388373911755815 L0.0,3.302790619551671 L0.0,2.2252093395631443 L0.0,1.1196447610330784 L0.0,8.862984952801966e-14 " />
			<path d="M0.0,0.0 L20.0,0.0 " />
			<path d="M-8.881784197001252e-15,3.0558682544517897e-13 L20.0,3.0558682544517897e-13 " />
			<path d="M0.0,47.53424725843121 L0.0,-1.4210854715202004e-14 " />
			<path d="M20.0,47.53424725843121 L0.0,47.53424725843121 " />
			<path d="M20.0,56.3888011956888 L0.0,56.3888011956888 " />
			<path d="M0.0,47.53424725843121 L0.0,46.836656206293355 L0.0,46.17138959911318 L0.0,45.542643520329094 L0.0,44.954383704850486 L0.0,44.41032052569559 L0.0,43.91388559129156 L0.0,43.468210101046296 L0.0,43.0761050957115 L0.0,42.74004372710515 L0.0,42.462145659025026 L0.0,42.24416369774225 L0.0,42.08747273640153 L0.0,41.9930610830597 L0.0,41.96152422706 " />
			<path d="M0.0,41.96152422706 L0.0,42.21224510524176 L0.0,42.95183554803581 L0.0,44.1432094023797 L0.0,45.726626208472666 L0.0,47.62268683588442 L0.0,49.73631488749686 L0.0,51.96152422706 L0.0,54.18673356662315 L0.0,56.300361618235584 L0.0,58.19642224564734 L0.0,59.779839051740296 L0.0,60.97121290608419 L0.0,61.710803348878244 L0.0,61.961524227059996 " />
			<path d="M0.0,61.96152422706 L0.0,61.92998737106031 L0.0,61.83557571771848 L0.0,61.678884756377755 L0.0,61.460902795094974 L0.0,61.18300472701485 L0.0,60.8469433584085 L0.0,60.4548383530737 L0.0,60.00916286282843 L0.0,59.5127279284244 L0.0,58.9686647492695 L0.0,58.380404933790885 L0.0,57.751658855006795 L0.0,57.08639224782661 L0.0,56.388801195688885 " />
			<path d="M0.0,86.33229234290549 L0.0,56.388801195688806 " />
			<path d="M-1.7763568394002505e-14,86.33229234290529 L20.0,86.33229234290529 " />
			<path d="M0.0,51.96152422706 L0.0,50.841879466026924 L0.0,49.73631488749686 L0.0,48.65873360750833 L0.0,47.62268683588442 L0.0,46.64120346190664 L0.0,45.726626208472666 L0.0,44.89045641519453 L0.0,44.1432094023797 L0.0,43.49428223477716 L0.0,42.95183554803581 L0.0,42.52269092397633 L0.0,42.21224510524176 L0.0,42.024402128127576 L0.0,41.96152422706 " />
			<path d="M0.0,41.96152422706 L0.0,42.21224510524176 L0.0,42.95183554803581 L0.0,44.1432094023797 L0.0,45.726626208472666 L0.0,47.62268683588442 L0.0,49.73631488749686 L0.0,51.96152422706 L0.0,54.18673356662315 L0.0,56.300361618235584 L0.0,58.19642224564734 L0.0,59.779839051740296 L0.0,60.97121290608419 L0.0,61.710803348878244 L0.0,61.961524227059996 " />
			<path d="M0.0,61.96152422706 L0.0,61.89864632599243 L0.0,61.710803348878244 L0.0,61.40035753014368 L0.0,60.9712129060842 L0.0,60.42876621934285 L0.0,59.7798390517403 L0.0,59.03259203892548 L0.0,58.19642224564734 L0.0,57.28184499221337 L0.0,56.300361618235584 L0.0,55.264314846611676 L0.0,54.18673356662315 L0.0,53.08116898809308 L0.0,51.96152422706009 " />
			<path d="M20.0,186.50491172461335 L20.0,188.34564306242868 L20.0,190.05521614376937 L20.0,191.63244047321953 L20.0,193.07621771906432 L20.0,194.38554247813528 L20.0,195.5595029759429 L20.0,196.597281701609 L20.0,197.49815597715676 L20.0,198.2614984607621 L20.0,198.88677758361558 L20.0,199.373557920091 L20.0,199.7215004909629 L20.0,199.9303629994613 L20.0,199.99999999999997 " />
			<path d="M0.0,186.50491172461335 L0.0,188.34564306242868 L0.0,190.05521614376937 L0.0,191.63244047321953 L0.0,193.07621771906432 L0.0,194.38554247813528 L0.0,195.5595029759429 L0.0,196.597281701609 L0.0,197.49815597715676 L0.0,198.2614984607621 L0.0,198.88677758361558 L0.0,199.373557920091 L0.0,199.7215004909629 L0.0,199.9303629994613 L0.0,199.99999999999997 " />
			<path d="M20.0,186.50491172461335 L0.0,186.50491172461335 " />
			<path d="M20.0,93.9230484541 L20.0,86.33229234291737 " />
			<path d="M20.0,113.9230484541 L20.0,113.67232757592063 L20.0,112.9327371331281 L20.0,111.74136327878479 L20.0,110.15794647269156 L20.0,108.26188584527883 L20.0,106.14825779366491 L20.0,103.92304845410001 L20.0,101.69783911453511 L20.0,99.58421106292118 L20.0,97.68815043550845 L20.0,96.10473362941522 L20.0,94.91335977507191 L20.0,94.17376933227936 L20.0,93.92304845410001 " />
			<path d="M20.0,199.99999999999997 L20.0,113.92304845409998 " />
			<path d="M20.0,186.50491172461335 L20.0,86.33229234291736 " />
			<path d="M20.0,103.9230484541 L20.0,105.04269321513337 L20.0,106.14825779366372 L20.0,107.22583907365251 L20.0,108.26188584527665 L20.0,109.24336921925462 L20.0,110.15794647268872 L20.0,110.99411626596694 L20.0,111.74136327878176 L20.0,112.39029044638426 L20.0,112.93273713312547 L20.0,113.36188175718475 L20.0,113.67232757591903 L20.0,113.86017055303286 L20.0,113.9230484541 " />
			<path d="M20.0,113.9230484541 L20.0,113.67232757591731 L20.0,112.9327371331224 L20.0,111.74136327877771 L20.0,110.1579464726841 L20.0,108.26188584527185 L20.0,106.14825779365911 L20.0,103.92304845409586 L20.0,101.69783911453283 L20.0,99.58421106292069 L20.0,97.68815043550943 L20.0,96.10473362941713 L20.0,94.91335977507401 L20.0,94.17376933228084 L20.0,93.92304845410001 " />
			<path d="M20.0,93.9230484541 L20.0,93.985926355168 L20.0,94.17376933228255 L20.0,94.4842151510174 L20.0,94.9133597750771 L20.0,95.45580646181858 L20.0,96.10473362942119 L20.0,96.851980642236 L20.0,97.68815043551406 L20.0,98.60272768894791 L20.0,99.5842110629255 L20.0,100.6202578345492 L20.0,101.69783911453746 L20.0,102.80340369306724 L20.0,103.92304845409991 " />
			<path d="M20.0,113.9230484541 L0.0,113.9230484541 " />
			<path d="M0.0,199.99999999999997 L0.0,113.92304845409998 " />
			<path d="M0.0,93.9230484541 L0.0,86.33229234291737 " />
			<path d="M0.0,93.9230484541 L0.0,94.17376933227936 L0.0,94.91335977507191 L0.0,96.10473362941521 L0.0,97.68815043550843 L0.0,99.58421106292117 L0.0,101.6978391145351 L0.0,103.9230484541 L0.0,106.1482577936649 L0.0,108.26188584527881 L0.0,110.15794647269155 L0.0,111.74136327878477 L0.0,112.93273713312809 L0.0,113.67232757592063 L0.0,113.92304845409998 " />
			<path d="M0.0,186.50491172461335 L0.0,86.33229234291736 " />
			<path d="M0.0,103.92304845410001 L0.0,102.80340369306694 L0.0,101.69783911453686 L0.0,100.62025783454834 L0.0,99.58421106292442 L0.0,98.60272768894664 L0.0,97.68815043551268 L0.0,96.85198064223454 L0.0,96.10473362941971 L0.0,95.45580646181716 L0.0,94.9133597750758 L0.0,94.48421515101633 L0.0,94.17376933228176 L0.0,93.98592635516758 L0.0,93.9230484541 " />
			<path d="M0.0,93.9230484541 L0.0,94.17376933228175 L0.0,94.9133597750758 L0.0,96.10473362941968 L0.0,97.68815043551265 L0.0,99.5842110629244 L0.0,101.69783911453683 L0.0,103.92304845409998 L0.0,106.14825779366313 L0.0,108.26188584527557 L0.0,110.15794647268731 L0.0,111.74136327878028 L0.0,112.93273713312418 L0.0,113.67232757591823 L0.0,113.92304845409998 " />
			<path d="M0.0,113.9230484541 L0.0,113.86017055303242 L0.0,113.67232757591825 L0.0,113.36188175718368 L0.0,112.93273713312419 L0.0,112.39029044638285 L0.0,111.74136327878031 L0.0,110.99411626596549 L0.0,110.15794647268734 L0.0,109.24336921925338 L0.0,108.2618858452756 L0.0,107.22583907365168 L0.0,106.14825779366316 L0.0,105.0426932151331 L0.0,103.9230484541001 " />
			<path d="M-1.7763568394002505e-14,86.33229234291737 L20.0,86.33229234291737 " />
			<path d="M20.0,86.33229234291737 L-1.7763568394002505e-14,86.33229234291737 " />
			<path d="M20.0,93.9230484541 L0.0,93.9230484541 " />
			<path d="M20.0,86.33229234291736 L20.0,95.93126999922451 L20.0,105.25131317082956 L20.0,114.2653224412493 L20.0,122.94708823324197 L20.0,131.27136701706473 L20.0,139.21395470980383 L20.0,146.75175705235802 L20.0,153.86285675944356 L20.0,160.5265772473721 L20.0,166.72354275430385 L20.0,172.43573467816665 L20.0,177.6465439684307 L20.0,182.34081941940187 L20.0,186.50491172461267 " />
			<path d="M20.0,186.50491172461335 L0.0,186.50491172461335 " />
			<path d="M0.0,86.33229234291736 L0.0,95.93126999922451 L0.0,105.25131317082956 L0.0,114.2653224412493 L0.0,122.94708823324197 L0.0,131.27136701706473 L0.0,139.21395470980383 L0.0,146.75175705235802 L0.0,153.86285675944356 L0.0,160.5265772473721 L0.0,166.72354275430385 L0.0,172.43573467816665 L0.0,177.6465439684307 L0.0,182.34081941940187 L0.0,186.50491172461267 " />
			<path d="M20.0,86.33229234291737 L0.0,86.33229234291737 " />
			<path d="M20.0,186.50491172461335 L20.0,86.33229234291736 " />
			<path d="M-1.7763568394002505e-14,86.33229234291737 L20.0,86.33229234291737 " />
			<path d="M0.0,186.50491172461335 L0.0,86.33229234291736 " />
			<path d="M20.0,86.33229234291737 L20.0,56.38880119574374 " />
			<path d="M20.0,51.96152422706 L20.0,53.081168988093374 L20.0,54.18673356662372 L20.0,55.264314846612514 L20.0,56.30036161823665 L20.0,57.28184499221462 L20.0,58.196422245648726 L20.0,59.03259203892694 L20.0,59.779839051741774 L20.0,60.42876621934426 L20.0,60.971212906085476 L20.0,61.40035753014475 L20.0,61.710803348879026 L20.0,61.89864632599286 L20.0,61.96152422706 " />
			<path d="M20.0,61.96152422706 L20.0,61.92998737106035 L20.0,61.8355757177193 L20.0,61.678884756380086 L20.0,61.46090279509953 L20.0,61.18300472702229 L20.0,60.84694335841948 L20.0,60.45483835308879 L20.0,60.009162862848186 L20.0,59.51272792844927 L20.0,58.96866474929991 L20.0,58.38040493382716 L20.0,57.75165885504917 L20.0,57.08639224787526 L20.0,56.388801195743774 " />
			<path d="M20.0,47.53424725837627 L20.0,46.83665620624425 L20.0,46.17138959906988 L20.0,45.5426435202915 L20.0,44.95438370481842 L20.0,44.4103205256688 L20.0,43.91388559126973 L20.0,43.46821010102904 L20.0,43.07610509569837 L20.0,42.74004372709566 L20.0,42.46214565901864 L20.0,42.24416369773839 L20.0,42.08747273639958 L20.0,41.99306108305905 L20.0,41.96152422706 " />
			<path d="M20.0,41.96152422706 L20.0,42.02440212812801 L20.0,42.21224510524256 L20.0,42.52269092397741 L20.0,42.951835548037096 L20.0,43.49428223477858 L20.0,44.14320940238119 L20.0,44.890456415196 L20.0,45.726626208474066 L20.0,46.64120346190791 L20.0,47.62268683588551 L20.0,48.65873360750919 L20.0,49.736314887497464 L20.0,50.84187946602725 L20.0,51.96152422705992 " />
			<path d="M20.0,47.53424725837627 L20.0,-2.4868995751603507e-14 " />
			<path d="M20.0,0.0 L20.0,1.1196447610333724 L20.0,2.2252093395637202 L20.0,3.302790619552508 L20.0,4.3388373911766465 L20.0,5.320320765154617 L20.0,6.234898018588721 L20.0,7.0710678118669374 L20.0,7.818314824681771 L20.0,8.467241992284256 L20.0,9.009688679025473 L20.0,9.438833303084749 L20.0,9.749279121819026 L20.0,9.937122098932855 L20.0,9.999999999999998 " />
			<path d="M20.0,10.0 L20.0,9.937122098931995 L20.0,9.749279121817446 L20.0,9.438833303082601 L20.0,9.009688679022908 L20.0,8.467241992281426 L20.0,7.818314824678826 L20.0,7.071067811864015 L20.0,6.2348980185859535 L20.0,5.320320765152122 L20.0,4.3388373911745255 L20.0,3.302790619550846 L20.0,2.2252093395625825 L20.0,1.1196447610328017 L20.0,4.570934516320399e-14 " />
			<path d="M20.0,10.0 L20.0,9.937122098933735 L20.0,9.749279121820638 L20.0,9.438833303086943 L20.0,9.009688679028095 L20.0,8.467241992287146 L20.0,7.8183148246847844 L20.0,7.071067811869929 L20.0,6.234898018591558 L20.0,5.320320765157179 L20.0,4.3388373911788305 L20.0,3.302790619554229 L20.0,2.2252093395649117 L20.0,1.1196447610339888 L20.0,4.5487300558326016e-14 " />
			<path d="M20.0,86.33229234291737 L20.0,10.0 " />
			<path d="M20.0,51.96152422706 L20.0,53.081168988093374 L20.0,54.18673356662372 L20.0,55.264314846612514 L20.0,56.30036161823665 L20.0,57.28184499221462 L20.0,58.196422245648726 L20.0,59.03259203892694 L20.0,59.779839051741774 L20.0,60.42876621934426 L20.0,60.971212906085476 L20.0,61.40035753014475 L20.0,61.710803348879026 L20.0,61.89864632599286 L20.0,61.96152422706 " />
			<path d="M20.0,61.96152422706 L20.0,61.71080334887732 L20.0,60.9712129060824 L20.0,59.779839051737724 L20.0,58.1964222456441 L20.0,56.300361618231854 L20.0,54.18673356661911 L20.0,51.96152422705587 L20.0,49.736314887492824 L20.0,47.62268683588069 L20.0,45.72662620846943 L20.0,44.143209402377124 L20.0,42.95183554803402 L20.0,42.21224510524085 L20.0,41.96152422706001 " />
			<path d="M20.0,41.96152422706 L20.0,42.02440212812801 L20.0,42.21224510524256 L20.0,42.52269092397741 L20.0,42.951835548037096 L20.0,43.49428223477858 L20.0,44.14320940238119 L20.0,44.890456415196 L20.0,45.726626208474066 L20.0,46.64120346190791 L20.0,47.62268683588551 L20.0,48.65873360750919 L20.0,49.736314887497464 L20.0,50.84187946602725 L20.0,51.96152422705992 " />
			<path d="M20.0,56.388801195743746 L0.0,56.388801195743746 " />
			<path d="M0.0,86.33229234291737 L0.0,56.38880119574374 " />
			<path d="M-1.7763568394002505e-14,86.33229234291737 L20.0,86.33229234291737 " />
			<path d="M0.0,56.38880119574374 L0.0,57.0863922478755 L0.0,57.75165885504965 L0.0,58.38040493382783 L0.0,58.96866474930075 L0.0,59.512727928450246 L0.0,60.00916286284924 L0.0,60.45483835308988 L0.0,60.84694335842056 L0.0,61.183004727023324 L0.0,61.46090279510045 L0.0,61.67888475638085 L0.0,61.83557571771986 L0.0,61.929987371060655 L0.0,61.96152422706 " />
			<path d="M0.0,61.96152422706 L0.0,61.89864632599243 L0.0,61.710803348878244 L0.0,61.40035753014368 L0.0,60.9712129060842 L0.0,60.42876621934285 L0.0,59.7798390517403 L0.0,59.03259203892548 L0.0,58.19642224564734 L0.0,57.28184499221337 L0.0,56.300361618235584 L0.0,55.264314846611676 L0.0,54.18673356662315 L0.0,53.08116898809308 L0.0,51.96152422706009 " />
			<path d="M20.0,47.53424725837626 L0.0,47.53424725837626 " />
			<path d="M0.0,51.96152422706 L0.0,50.841879466026924 L0.0,49.73631488749686 L0.0,48.65873360750833 L0.0,47.62268683588442 L0.0,46.64120346190664 L0.0,45.726626208472666 L0.0,44.89045641519453 L0.0,44.1432094023797 L0.0,43.49428223477716 L0.0,42.95183554803581 L0.0,42.52269092397633 L0.0,42.21224510524176 L0.0,42.024402128127576 L0.0,41.96152422706 " />
			<path d="M0.0,41.96152422706 L0.0,41.99306108305935 L0.0,42.087472736400144 L0.0,42.244163697739154 L0.0,42.462145659019555 L0.0,42.74004372709668 L0.0,43.07610509569945 L0.0,43.468210101030124 L0.0,43.91388559127077 L0.0,44.41032052566976 L0.0,44.95438370481926 L0.0,45.542643520292174 L0.0,46.171389599070366 L0.0,46.836656206244506 L0.0,47.53424725837623 " />
			<path d="M-8.881784197001252e-15,3.0558682544517897e-13 L20.0,3.0558682544517897e-13 " />
			<path d="M0.0,47.53424725837627 L0.0,-2.4868995751603507e-14 " />
			<path d="M20.0,3.056402745135148e-13 L0.0,3.056402745135148e-13 " />
			<path d="M0.0,6.296800734139466e-16 L0.0,1.1196447610330793 L0.0,2.2252093395631447 L0.0,3.302790619551671 L0.0,4.3388373911755815 L0.0,5.320320765153366 L0.0,6.2348980185873355 L0.0,7.071067811865476 L0.0,7.818314824680298 L0.0,8.467241992282842 L0.0,9.009688679024192 L0.0,9.438833303083674 L0.0,9.749279121818237 L0.0,9.937122098932425 L0.0,9.999999999999995 " />
			<path d="M0.0,10.0 L0.0,9.937122098932425 L0.0,9.749279121818237 L0.0,9.438833303083676 L0.0,9.00968867902419 L0.0,8.46724199228284 L0.0,7.818314824680297 L0.0,7.0710678118654755 L0.0,6.2348980185873355 L0.0,5.320320765153366 L0.0,4.3388373911755815 L0.0,3.3027906195516703 L0.0,2.225209339563144 L0.0,1.1196447610330784 L0.0,8.862984952801966e-14 " />
			<path d="M0.0,0.0 L20.0,0.0 " />
			<path d="M20.0,3.056402745135148e-13 L0.0,3.056402745135148e-13 " />
			<path d="M20.0,10.0 L0.0,10.0 " />
			<path d="M0.0,7.515198660539648e-15 L0.0,1.1196447610339775 L0.0,2.2252093395649006 L0.0,3.302790619554218 L0.0,4.338837391178822 L0.0,5.320320765157171 L0.0,6.234898018591551 L0.0,7.071067811869922 L0.0,7.818314824684779 L0.0,8.467241992287143 L0.0,9.009688679028088 L0.0,9.43883330308694 L0.0,9.749279121820637 L0.0,9.937122098933735 L0.0,9.999999999999998 " />
			<path d="M0.0,86.33229234291737 L0.0,10.000000000000007 " />
			<path d="M20.0,86.33229234291737 L-1.7763568394002505e-14,86.33229234291737 " />
			<path d="M0.0,51.96152422706 L0.0,50.841879466026924 L0.0,49.73631488749686 L0.0,48.65873360750833 L0.0,47.62268683588442 L0.0,46.64120346190664 L0.0,45.726626208472666 L0.0,44.89045641519453 L0.0,44.1432094023797 L0.0,43.49428223477716 L0.0,42.95183554803581 L0.0,42.52269092397633 L0.0,42.21224510524176 L0.0,42.024402128127576 L0.0,41.96152422706 " />
			<path d="M0.0,41.96152422706 L0.0,42.21224510524176 L0.0,42.95183554803581 L0.0,44.1432094023797 L0.0,45.726626208472666 L0.0,47.62268683588442 L0.0,49.73631488749686 L0.0,51.96152422706 L0.0,54.18673356662315 L0.0,56.300361618235584 L0.0,58.19642224564734 L0.0,59.779839051740296 L0.0,60.97121290608419 L0.0,61.710803348878244 L0.0,61.961524227059996 " />
			<path d="M0.0,61.96152422706 L0.0,61.89864632599243 L0.0,61.710803348878244 L0.0,61.40035753014368 L0.0,60.9712129060842 L0.0,60.42876621934285 L0.0,59.7798390517403 L0.0,59.03259203892548 L0.0,58.19642224564734 L0.0,57.28184499221337 L0.0,56.300361618235584 L0.0,55.264314846611676 L0.0,54.18673356662315 L0.0,53.08116898809308 L0.0,51.96152422706009 " />
			<path d="M20.0,-2.4492935982947064e-14 L20.0,6.375118063179916 L20.0,12.74375702068434 L20.0,19.099444351627213 L20.0,25.435720698009256 L20.0,31.746146429437655 L20.0,38.02430818779633 L20.0,44.263825405215435 L20.0,50.45835678871574 L20.0,56.601606764937465 L20.0,62.687331878403754 L20.0,68.7093471368162 L20.0,74.66153229693349 L20.0,80.53783808464485 L20.0,86.33229234291655 " />
			<path d="M20.0,86.33229234291737 L0.0,86.33229234291737 " />
			<path d="M0.0,-2.4492935982947064e-14 L0.0,6.375118063179916 L0.0,12.74375702068434 L0.0,19.099444351627213 L0.0,25.435720698009256 L0.0,31.746146429437655 L0.0,38.02430818779633 L0.0,44.263825405215435 L0.0,50.45835678871574 L0.0,56.601606764937465 L0.0,62.687331878403754 L0.0,68.7093471368162 L0.0,74.66153229693349 L0.0,80.53783808464485 L0.0,86.33229234291655 " />
			<path d="M20.0,3.056402745135148e-13 L0.0,3.056402745135148e-13 " />
			<path d="M20.0,0.0 L20.0,1.1196447610333724 L20.0,2.2252093395637202 L20.0,3.302790619552508 L20.0,4.3388373911766465 L20.0,5.320320765154617 L20.0,6.234898018588721 L20.0,7.0710678118669374 L20.0,7.818314824681771 L20.0,8.467241992284256 L20.0,9.009688679025473 L20.0,9.438833303084749 L20.0,9.749279121819026 L20.0,9.937122098932855 L20.0,9.999999999999998 " />
			<path d="M20.0,10.0 L20.0,9.937122098931995 L20.0,9.749279121817446 L20.0,9.438833303082601 L20.0,9.009688679022908 L20.0,8.467241992281426 L20.0,7.818314824678826 L20.0,7.071067811864015 L20.0,6.2348980185859535 L20.0,5.320320765152122 L20.0,4.3388373911745255 L20.0,3.302790619550846 L20.0,2.2252093395625825 L20.0,1.1196447610328017 L20.0,4.570934516320399e-14 " />
			<path d="M20.0,47.53424725837627 L20.0,-2.4868995751603507e-14 " />
			<path d="M20.0,56.38880119574374 L20.0,55.79223490547612 L20.0,55.17922986218382 L20.0,54.55241665829614 L20.0,53.91448514128954 L20.0,53.26817287072805 L20.0,52.61625337055657 L20.0,51.96152422705999 L20.0,51.306795083563415 L20.0,50.654875583391934 L20.0,50.00856331283045 L20.0,49.37063179582385 L20.0,48.74381859193617 L20.0,48.130813548643864 L20.0,47.53424725837631 " />
			<path d="M20.0,86.33229234291737 L20.0,56.38880119574374 " />
			<path d="M-1.7763568394002505e-14,86.33229234291737 L20.0,86.33229234291737 " />
			<path d="M0.0,-1.3947689259246353e-14 L0.0,1.1196447610330647 L0.0,2.2252093395631305 L0.0,3.302790619551657 L0.0,4.338837391175567 L0.0,5.320320765153352 L0.0,6.234898018587321 L0.0,7.071067811865463 L0.0,7.818314824680285 L0.0,8.46724199228283 L0.0,9.009688679024181 L0.0,9.438833303083666 L0.0,9.749279121818228 L0.0,9.937122098932418 L0.0,9.999999999999988 " />
			<path d="M0.0,9.999999999999993 L0.0,9.937122098932418 L0.0,9.749279121818232 L0.0,9.43883330308367 L0.0,9.009688679024187 L0.0,8.467241992282839 L0.0,7.818314824680295 L0.0,7.071067811865473 L0.0,6.234898018587334 L0.0,5.320320765153364 L0.0,4.33883739117558 L0.0,3.3027906195516703 L0.0,2.225209339563144 L0.0,1.1196447610330784 L0.0,8.862984952801966e-14 " />
			<path d="M0.0,47.53424725837627 L0.0,-2.4868995751603507e-14 " />
			<path d="M0.0,47.53424725837627 L0.0,48.130813548643886 L0.0,48.74381859193619 L0.0,49.37063179582387 L0.0,50.00856331283047 L0.0,50.654875583391956 L0.0,51.306795083563436 L0.0,51.96152422706002 L0.0,52.61625337055659 L0.0,53.26817287072807 L0.0,53.91448514128956 L0.0,54.55241665829616 L0.0,55.17922986218384 L0.0,55.79223490547614 L0.0,56.388801195743696 " />
			<path d="M0.0,86.33229234291737 L0.0,56.38880119574374 " />
			<path d="M20.0,3.056402745135148e-13 L0.0,3.056402745135148e-13 " />
			<path d="M0.0,0.0 L20.0,0.0 " />
			<path d="M-8.881784197001252e-15,3.0558682544517897e-13 L20.0,3.0558682544517897e-13 " />
			<path d="M20.0,47.53424725837626 L0.0,47.53424725837626 " />
			<path d="M20.0,56.388801195743746 L0.0,56.388801195743746 " />
			<path d="M20.0,3.055333763768431e-13 L20.0,-47.534247258393314 " />
			<path d="M20.0,-51.961524227066 L20.0,-51.633983911190896 L20.0,-51.30679508357118 L20.0,-50.98030885527511 L20.0,-50.654875583401434 L20.0,-50.33084449510613 L20.0,-50.00856331284164 L20.0,-49.68837788121095 L20.0,-49.37063179583666 L20.0,-49.05566603464362 L20.0,-48.74381859195052 L20.0,-48.43542411576332 L20.0,-48.13081354865964 L20.0,-47.830313772649454 L20.0,-47.53424725839332 " />
			<path d="M20.0,-56.3888011957387 L20.0,-56.09273468148256 L20.0,-55.79223490547238 L20.0,-55.48762433836869 L20.0,-55.179229862181494 L20.0,-54.86738241948839 L20.0,-54.55241665829536 L20.0,-54.234670572921075 L20.0,-53.91448514129038 L20.0,-53.592203959025895 L20.0,-53.26817287073058 L20.0,-52.94273959885691 L20.0,-52.61625337056084 L20.0,-52.28906454294113 L20.0,-51.961524227066086 " />
			<path d="M20.0,-56.388801195738694 L20.0,-86.33229234291542 " />
			<path d="M20.0,1.2246467991473533e-15 L20.0,-1.119644761033373 L20.0,-2.225209339563723 L20.0,-3.302790619552512 L20.0,-4.338837391176652 L20.0,-5.320320765154624 L20.0,-6.23489801858873 L20.0,-7.071067811866946 L20.0,-7.8183148246817815 L20.0,-8.467241992284263 L20.0,-9.009688679025478 L20.0,-9.43883330308475 L20.0,-9.749279121819027 L20.0,-9.937122098932855 L20.0,-9.999999999999995 " />
			<path d="M20.0,-10.0 L20.0,-9.937122098931995 L20.0,-9.749279121817446 L20.0,-9.4388333030826 L20.0,-9.009688679022904 L20.0,-8.46724199228142 L20.0,-7.818314824678815 L20.0,-7.071067811864001 L20.0,-6.234898018585935 L20.0,-5.320320765152097 L20.0,-4.338837391174495 L20.0,-3.3027906195508097 L20.0,-2.2252093395625403 L20.0,-1.1196447610327545 L20.0,-9.107234018216917e-14 " />
			<path d="M-2.3092638912203256e-14,-86.33229234291542 L20.0,-86.33229234291542 " />
			<path d="M0.0,-2.4492935982950004e-15 L0.0,-1.119644761033081 L0.0,-2.2252093395631465 L0.0,-3.302790619551673 L0.0,-4.338837391175585 L0.0,-5.320320765153369 L0.0,-6.234898018587338 L0.0,-7.071067811865479 L0.0,-7.818314824680303 L0.0,-8.467241992282844 L0.0,-9.009688679024197 L0.0,-9.438833303083682 L0.0,-9.749279121818242 L0.0,-9.937122098932432 L0.0,-10.000000000000005 " />
			<path d="M0.0,-10.000000000000007 L0.0,-9.937122098932432 L0.0,-9.749279121818246 L0.0,-9.438833303083685 L0.0,-9.009688679024201 L0.0,-8.467241992282853 L0.0,-7.818314824680311 L0.0,-7.071067811865487 L0.0,-6.234898018587348 L0.0,-5.3203207651533795 L0.0,-4.338837391175595 L0.0,-3.3027906195516845 L0.0,-2.2252093395631576 L0.0,-1.1196447610330924 L0.0,-5.836588764394179e-14 " />
			<path d="M0.0,3.055333763768431e-13 L0.0,-47.53424725839331 " />
			<path d="M0.0,-47.5342472583933 L0.0,-47.83031377264944 L0.0,-48.130813548659624 L0.0,-48.43542411576331 L0.0,-48.74381859195051 L0.0,-49.05566603464361 L0.0,-49.370631795836644 L0.0,-49.688377881210926 L0.0,-50.00856331284162 L0.0,-50.330844495106106 L0.0,-50.65487558340142 L0.0,-50.98030885527509 L0.0,-51.30679508357116 L0.0,-51.633983911190874 L0.0,-51.961524227065915 " />
			<path d="M0.0,-51.961524227066 L0.0,-52.289064542941105 L0.0,-52.61625337056082 L0.0,-52.94273959885689 L0.0,-53.26817287073057 L0.0,-53.59220395902587 L0.0,-53.91448514129036 L0.0,-54.234670572921054 L0.0,-54.55241665829534 L0.0,-54.86738241948838 L0.0,-55.17922986218148 L0.0,-55.48762433836868 L0.0,-55.79223490547236 L0.0,-56.09273468148255 L0.0,-56.38880119573868 " />
			<path d="M0.0,-56.38880119573869 L0.0,-86.33229234291542 " />
			<path d="M20.0,3.056402745135148e-13 L0.0,3.056402745135148e-13 " />
			<path d="M20.0,-47.534247258393314 L0.0,-47.534247258393314 " />
			<path d="M-8.881784197001252e-15,3.0558682544517897e-13 L20.0,3.0558682544517897e-13 " />
			<path d="M20.0,-56.38880119573869 L0.0,-56.38880119573869 " />
			<path d="M20.0,1.2246467991473533e-15 L20.0,-1.119644761033373 L20.0,-2.225209339563723 L20.0,-3.302790619552512 L20.0,-4.338837391176652 L20.0,-5.320320765154624 L20.0,-6.23489801858873 L20.0,-7.071067811866946 L20.0,-7.8183148246817815 L20.0,-8.467241992284263 L20.0,-9.009688679025478 L20.0,-9.43883330308475 L20.0,-9.749279121819027 L20.0,-9.937122098932855 L20.0,-9.999999999999995 " />
			<path d="M20.0,-10.0 L20.0,-9.937122098931995 L20.0,-9.749279121817446 L20.0,-9.4388333030826 L20.0,-9.009688679022904 L20.0,-8.46724199228142 L20.0,-7.818314824678815 L20.0,-7.071067811864001 L20.0,-6.234898018585935 L20.0,-5.320320765152097 L20.0,-4.338837391174495 L20.0,-3.3027906195508097 L20.0,-2.2252093395625403 L20.0,-1.1196447610327545 L20.0,-9.107234018216917e-14 " />
			<path d="M20.0,-10.0 L20.0,-9.937122098932473 L20.0,-9.749279121818324 L20.0,-9.438833303083793 L20.0,-9.00968867902433 L20.0,-8.467241992282995 L20.0,-7.818314824680455 L20.0,-7.0710678118656265 L20.0,-6.234898018587476 L20.0,-5.320320765153488 L20.0,-4.338837391175679 L20.0,-3.3027906195517396 L20.0,-2.225209339563181 L20.0,-1.1196447610330809 L20.0,-9.1072340182195e-14 " />
			<path d="M20.0,-10.0 L20.0,-86.33229234291542 " />
			<path d="M20.0,-56.388801195738694 L20.0,-86.33229234291542 " />
			<path d="M20.0,-47.534247258393314 L20.0,-46.83665620626007 L20.0,-46.17138959908449 L20.0,-45.542643520304914 L20.0,-44.95438370483069 L20.0,-44.410320525679985 L20.0,-43.9138855912799 L20.0,-43.46821010103828 L20.0,-43.07610509570678 L20.0,-42.740043727103355 L20.0,-42.46214565902573 L20.0,-42.24416369774501 L20.0,-42.08747273640586 L20.0,-41.993061083065115 L20.0,-41.961524227066 " />
			<path d="M20.0,-41.961524227066 L20.0,-42.212245105248684 L20.0,-42.951835548043604 L20.0,-44.14320940238828 L20.0,-45.7266262084819 L20.0,-47.62268683589415 L20.0,-49.73631488750689 L20.0,-51.961524227070136 L20.0,-54.18673356663318 L20.0,-56.30036161824531 L20.0,-58.19642224565657 L20.0,-59.77983905174888 L20.0,-60.971212906091985 L20.0,-61.71080334888516 L20.0,-61.96152422706599 " />
			<path d="M20.0,-61.961524227066 L20.0,-61.929987371066275 L20.0,-61.83557571772502 L20.0,-61.67888475638546 L20.0,-61.46090279510442 L20.0,-61.183004727026585 L20.0,-60.84694335842304 L20.0,-60.454838353091525 L20.0,-60.00916286284998 L20.0,-59.51272792845006 L20.0,-58.968664749299606 L20.0,-58.3804049338257 L20.0,-57.75165885504652 L20.0,-57.08639224787139 L20.0,-56.38880119573878 " />
			<path d="M20.0,3.055333763768431e-13 L20.0,-47.534247258393314 " />
			<path d="M20.0,-51.961524227066 L20.0,-50.84187946603263 L20.0,-49.73631488750228 L20.0,-48.65873360751349 L20.0,-47.622686835889354 L20.0,-46.64120346191138 L20.0,-45.72662620847728 L20.0,-44.89045641519906 L20.0,-44.14320940238423 L20.0,-43.49428223478174 L20.0,-42.95183554804053 L20.0,-42.52269092398125 L20.0,-42.21224510524698 L20.0,-42.02440212813315 L20.0,-41.961524227066 " />
			<path d="M20.0,-41.961524227066 L20.0,-42.212245105248684 L20.0,-42.951835548043604 L20.0,-44.14320940238828 L20.0,-45.7266262084819 L20.0,-47.62268683589415 L20.0,-49.73631488750689 L20.0,-51.961524227070136 L20.0,-54.18673356663318 L20.0,-56.30036161824531 L20.0,-58.19642224565657 L20.0,-59.77983905174888 L20.0,-60.971212906091985 L20.0,-61.71080334888516 L20.0,-61.96152422706599 " />
			<path d="M20.0,-61.961524227066 L20.0,-61.898646325997994 L20.0,-61.710803348883445 L20.0,-61.4003575301486 L20.0,-60.97121290608891 L20.0,-60.42876621934742 L20.0,-59.779839051744815 L20.0,-59.032592038930005 L20.0,-58.19642224565194 L20.0,-57.2818449922181 L20.0,-56.300361618240494 L20.0,-55.26431484661681 L20.0,-54.18673356662854 L20.0,-53.08116898809875 L20.0,-51.961524227066086 " />
			<path d="M20.0,3.056402745135148e-13 L0.0,3.056402745135148e-13 " />
			<path d="M0.0,-2.4492935982949996e-15 L0.0,-1.119644761033081 L0.0,-2.225209339563146 L0.0,-3.302790619551672 L0.0,-4.338837391175583 L0.0,-5.320320765153366 L0.0,-6.2348980185873355 L0.0,-7.071067811865475 L0.0,-7.818314824680298 L0.0,-8.46724199228284 L0.0,-9.009688679024192 L0.0,-9.438833303083674 L0.0,-9.749279121818235 L0.0,-9.937122098932422 L0.0,-9.999999999999995 " />
			<path d="M0.0,-9.999999999999996 L0.0,-9.937122098932422 L0.0,-9.749279121818232 L0.0,-9.43883330308367 L0.0,-9.009688679024185 L0.0,-8.467241992282835 L0.0,-7.81831482468029 L0.0,-7.071067811865467 L0.0,-6.234898018587326 L0.0,-5.320320765153357 L0.0,-4.338837391175572 L0.0,-3.3027906195516614 L0.0,-2.225209339563134 L0.0,-1.1196447610330689 L0.0,-3.460711491696345e-14 " />
			<path d="M20.0,-10.0 L0.0,-10.0 " />
			<path d="M0.0,-2.449293598295e-15 L0.0,-1.1196447610331133 L0.0,-2.2252093395632095 L0.0,-3.3027906195517653 L0.0,-4.3388373911757006 L0.0,-5.320320765153505 L0.0,-6.234898018587489 L0.0,-7.071067811865635 L0.0,-7.81831482468046 L0.0,-8.467241992282998 L0.0,-9.00968867902433 L0.0,-9.438833303083793 L0.0,-9.749279121818322 L0.0,-9.93712209893247 L0.0,-9.999999999999995 " />
			<path d="M20.0,-86.33229234291542 L-2.3092638912203256e-14,-86.33229234291542 " />
			<path d="M0.0,-10.0 L0.0,-86.33229234291542 " />
			<path d="M-2.3092638912203256e-14,-86.33229234291542 L20.0,-86.33229234291542 " />
			<path d="M0.0,-56.38880119573869 L0.0,-86.33229234291542 " />
			<path d="M20.0,-56.38880119573869 L0.0,-56.38880119573869 " />
			<path d="M20.0,-47.534247258393314 L0.0,-47.534247258393314 " />
			<path d="M0.0,-56.38880119573869 L0.0,-57.08639224787168 L0.0,-57.751658855047026 L0.0,-58.380404933826405 L0.0,-58.968664749300466 L0.0,-59.51272792845104 L0.0,-60.00916286285104 L0.0,-60.454838353092626 L0.0,-60.846943358424134 L0.0,-61.183004727027615 L0.0,-61.46090279510534 L0.0,-61.678884756386225 L0.0,-61.83557571772558 L0.0,-61.92998737106658 L0.0,-61.961524227066 " />
			<path d="M0.0,-61.961524227066 L0.0,-61.71080334888424 L0.0,-60.971212906090194 L0.0,-59.7798390517463 L0.0,-58.19642224565334 L0.0,-56.30036161824158 L0.0,-54.186733566629144 L0.0,-51.961524227066 L0.0,-49.73631488750286 L0.0,-47.62268683589042 L0.0,-45.72662620847866 L0.0,-44.14320940238571 L0.0,-42.951835548041814 L0.0,-42.21224510524776 L0.0,-41.96152422706601 " />
			<path d="M0.0,-41.961524227066 L0.0,-41.99306108306542 L0.0,-42.08747273640642 L0.0,-42.244163697745776 L0.0,-42.46214565902665 L0.0,-42.740043727104386 L0.0,-43.07610509570787 L0.0,-43.468210101039375 L0.0,-43.91388559128095 L0.0,-44.41032052568096 L0.0,-44.954383704831535 L0.0,-45.5426435203056 L0.0,-46.171389599084975 L0.0,-46.83665620626033 L0.0,-47.53424725839322 " />
			<path d="M0.0,3.055333763768431e-13 L0.0,-47.53424725839331 " />
			<path d="M-8.881784197001252e-15,3.0558682544517897e-13 L20.0,3.0558682544517897e-13 " />
			<path d="M0.0,-51.961524227066 L0.0,-53.08116898809908 L0.0,-54.186733566629144 L0.0,-55.26431484661767 L0.0,-56.30036161824158 L0.0,-57.28184499221936 L0.0,-58.19642224565334 L0.0,-59.032592038931476 L0.0,-59.7798390517463 L0.0,-60.428766219348844 L0.0,-60.971212906090194 L0.0,-61.40035753014968 L0.0,-61.71080334888424 L0.0,-61.89864632599843 L0.0,-61.961524227066 " />
			<path d="M0.0,-61.961524227066 L0.0,-61.71080334888424 L0.0,-60.971212906090194 L0.0,-59.7798390517463 L0.0,-58.19642224565334 L0.0,-56.30036161824158 L0.0,-54.186733566629144 L0.0,-51.961524227066 L0.0,-49.73631488750286 L0.0,-47.62268683589042 L0.0,-45.72662620847866 L0.0,-44.14320940238571 L0.0,-42.951835548041814 L0.0,-42.21224510524776 L0.0,-41.96152422706601 " />
			<path d="M0.0,-41.961524227066 L0.0,-42.02440212813357 L0.0,-42.21224510524776 L0.0,-42.522690923982324 L0.0,-42.95183554804181 L0.0,-43.49428223478316 L0.0,-44.1432094023857 L0.0,-44.890456415200525 L0.0,-45.72662620847866 L0.0,-46.64120346191263 L0.0,-47.62268683589042 L0.0,-48.65873360751433 L0.0,-49.73631488750286 L0.0,-50.84187946603292 L0.0,-51.961524227065915 " />
			<path d="M20.0,-86.33229234291542 L20.0,-186.50491172461096 " />
			<path d="M0.0,-86.33229234291542 L0.0,-186.50491172461096 " />
			<path d="M-2.3092638912203256e-14,-86.33229234291542 L20.0,-86.33229234291542 " />
			<path d="M20.0,-86.33229234291542 L20.0,-93.92304845413 " />
			<path d="M20.0,-103.92304845413 L20.0,-102.80340369309688 L20.0,-101.69783911456679 L20.0,-100.62025783457823 L20.0,-99.5842110629543 L20.0,-98.60272768897649 L20.0,-97.6881504355425 L20.0,-96.85198064226435 L20.0,-96.10473362944953 L20.0,-95.45580646184699 L20.0,-94.91335977510566 L20.0,-94.4842151510462 L20.0,-94.17376933231166 L20.0,-93.98592635519752 L20.0,-93.92304845413 " />
			<path d="M20.0,-113.92304845413 L20.0,-113.86017055306247 L20.0,-113.67232757594833 L20.0,-113.3618817572138 L20.0,-112.93273713315433 L20.0,-112.390290446413 L20.0,-111.74136327881047 L20.0,-110.99411626599564 L20.0,-110.15794647271748 L20.0,-109.2433692192835 L20.0,-108.2618858453057 L20.0,-107.22583907368175 L20.0,-106.14825779369319 L20.0,-105.0426932151631 L20.0,-103.92304845413008 " />
			<path d="M20.0,-113.92304845413 L20.0,-200.0 " />
			<path d="M20.0,-86.33229234291542 L20.0,-186.50491172461096 " />
			<path d="M20.0,-103.92304845413 L20.0,-102.80340369309663 L20.0,-101.69783911456628 L20.0,-100.62025783457749 L20.0,-99.58421106295336 L20.0,-98.60272768897538 L20.0,-97.68815043554127 L20.0,-96.85198064226306 L20.0,-96.10473362944822 L20.0,-95.45580646184574 L20.0,-94.91335977510452 L20.0,-94.48421515104525 L20.0,-94.17376933231097 L20.0,-93.98592635519714 L20.0,-93.92304845413 " />
			<path d="M20.0,-93.92304845413 L20.0,-94.17376933231269 L20.0,-94.91335977510761 L20.0,-96.10473362945228 L20.0,-97.6881504355459 L20.0,-99.58421106295815 L20.0,-101.69783911457088 L20.0,-103.92304845413413 L20.0,-106.14825779369717 L20.0,-108.26188584530931 L20.0,-110.15794647272057 L20.0,-111.74136327881287 L20.0,-112.93273713315598 L20.0,-113.67232757594915 L20.0,-113.92304845412998 " />
			<path d="M20.0,-113.92304845413 L20.0,-113.86017055306199 L20.0,-113.67232757594745 L20.0,-113.3618817572126 L20.0,-112.9327371331529 L20.0,-112.39029044641141 L20.0,-111.74136327880882 L20.0,-110.994116265994 L20.0,-110.15794647271593 L20.0,-109.2433692192821 L20.0,-108.26188584530449 L20.0,-107.2258390736808 L20.0,-106.14825779369254 L20.0,-105.04269321516276 L20.0,-103.92304845413008 " />
			<path d="M0.0,-113.92304845413 L0.0,-200.0 " />
			<path d="M20.0,-113.92304845413 L0.0,-113.92304845413 " />
			<path d="M0.0,-86.33229234291542 L0.0,-93.92304845413 " />
			<path d="M0.0,-93.92304845413 L0.0,-93.98592635519752 L0.0,-94.17376933231166 L0.0,-94.4842151510462 L0.0,-94.91335977510566 L0.0,-95.45580646184699 L0.0,-96.10473362944953 L0.0,-96.85198064226435 L0.0,-97.6881504355425 L0.0,-98.60272768897649 L0.0,-99.5842110629543 L0.0,-100.62025783457824 L0.0,-101.69783911456679 L0.0,-102.8034036930969 L0.0,-103.9230484541299 " />
			<path d="M0.0,-103.92304845412998 L0.0,-105.0426932151631 L0.0,-106.1482577936932 L0.0,-107.22583907368175 L0.0,-108.2618858453057 L0.0,-109.2433692192835 L0.0,-110.15794647271748 L0.0,-110.99411626599564 L0.0,-111.74136327881047 L0.0,-112.390290446413 L0.0,-112.93273713315433 L0.0,-113.3618817572138 L0.0,-113.67232757594833 L0.0,-113.86017055306247 L0.0,-113.92304845413 " />
			<path d="M0.0,-86.33229234291542 L0.0,-186.50491172461096 " />
			<path d="M0.0,-103.92304845413 L0.0,-105.04269321516307 L0.0,-106.14825779369315 L0.0,-107.22583907368167 L0.0,-108.26188584530559 L0.0,-109.24336921928337 L0.0,-110.15794647271733 L0.0,-110.99411626599547 L0.0,-111.7413632788103 L0.0,-112.39029044641283 L0.0,-112.93273713315419 L0.0,-113.36188175721367 L0.0,-113.67232757594823 L0.0,-113.86017055306242 L0.0,-113.92304845413 " />
			<path d="M0.0,-113.92304845413 L0.0,-113.67232757594823 L0.0,-112.93273713315419 L0.0,-111.7413632788103 L0.0,-110.15794647271733 L0.0,-108.26188584530559 L0.0,-106.14825779369315 L0.0,-103.92304845413 L0.0,-101.69783911456686 L0.0,-99.58421106295442 L0.0,-97.68815043554267 L0.0,-96.1047336294497 L0.0,-94.9133597751058 L0.0,-94.17376933231176 L0.0,-93.92304845413001 " />
			<path d="M0.0,-93.92304845413 L0.0,-93.98592635519758 L0.0,-94.17376933231176 L0.0,-94.48421515104633 L0.0,-94.9133597751058 L0.0,-95.45580646184716 L0.0,-96.1047336294497 L0.0,-96.85198064226452 L0.0,-97.68815043554267 L0.0,-98.60272768897663 L0.0,-99.58421106295441 L0.0,-100.62025783457833 L0.0,-101.69783911456685 L0.0,-102.80340369309691 L0.0,-103.92304845412991 " />
			<path d="M-2.3092638912203256e-14,-86.33229234291542 L20.0,-86.33229234291542 " />
			<path d="M20.0,-93.92304845413 L0.0,-93.92304845413 " />
			<path d="M20.0,-86.33229234291542 L-2.3092638912203256e-14,-86.33229234291542 " />
			<path d="M20.0,-10.0 L20.0,-86.33229234291531 " />
			<path d="M20.0,1.2246467991473533e-15 L20.0,-1.1196447610330464 L20.0,-2.225209339563082 L20.0,-3.3027906195515815 L20.0,-4.338837391175468 L20.0,-5.320320765153232 L20.0,-6.234898018587188 L20.0,-7.07106781186532 L20.0,-7.818314824680142 L20.0,-8.46724199228269 L20.0,-9.009688679024052 L20.0,-9.438833303083559 L20.0,-9.749279121818148 L20.0,-9.937122098932377 L20.0,-9.999999999999995 " />
			<path d="M20.0,1.2246467991473533e-15 L20.0,-1.119644761033373 L20.0,-2.225209339563723 L20.0,-3.302790619552512 L20.0,-4.338837391176652 L20.0,-5.320320765154624 L20.0,-6.23489801858873 L20.0,-7.071067811866946 L20.0,-7.8183148246817815 L20.0,-8.467241992284263 L20.0,-9.009688679025478 L20.0,-9.43883330308475 L20.0,-9.749279121819027 L20.0,-9.937122098932855 L20.0,-9.999999999999995 " />
			<path d="M20.0,-10.0 L20.0,-9.937122098931995 L20.0,-9.749279121817446 L20.0,-9.4388333030826 L20.0,-9.009688679022904 L20.0,-8.46724199228142 L20.0,-7.818314824678815 L20.0,-7.071067811864001 L20.0,-6.234898018585935 L20.0,-5.320320765152097 L20.0,-4.338837391174495 L20.0,-3.3027906195508097 L20.0,-2.2252093395625403 L20.0,-1.1196447610327545 L20.0,-9.107234018216917e-14 " />
			<path d="M20.0,3.055333763768431e-13 L20.0,-47.53424725839521 " />
			<path d="M20.0,-51.961524227066 L20.0,-50.84187946603263 L20.0,-49.73631488750228 L20.0,-48.65873360751349 L20.0,-47.622686835889354 L20.0,-46.64120346191138 L20.0,-45.72662620847728 L20.0,-44.89045641519906 L20.0,-44.14320940238423 L20.0,-43.49428223478174 L20.0,-42.95183554804053 L20.0,-42.52269092398125 L20.0,-42.21224510524698 L20.0,-42.02440212813315 L20.0,-41.961524227066 " />
			<path d="M20.0,-41.961524227066 L20.0,-41.99306108306574 L20.0,-42.08747273640702 L20.0,-42.24416369774665 L20.0,-42.46214565902777 L20.0,-42.74004372710571 L20.0,-43.076105095709366 L20.0,-43.468210101041024 L20.0,-43.91388559128272 L20.0,-44.41032052568281 L20.0,-44.954383704833454 L20.0,-45.54264352030755 L20.0,-46.17138959908693 L20.0,-46.83665620626226 L20.0,-47.53424725839517 " />
			<path d="M20.0,-56.38880119573679 L20.0,-57.08639224787024 L20.0,-57.75165885504603 L20.0,-58.38040493382581 L20.0,-58.968664749300224 L20.0,-59.51272792845111 L20.0,-60.009162862851376 L20.0,-60.45483835309315 L20.0,-60.846943358424795 L20.0,-61.18300472702835 L20.0,-61.46090279510607 L20.0,-61.67888475638688 L20.0,-61.835575717726094 L20.0,-61.92998737106687 L20.0,-61.961524227066 " />
			<path d="M20.0,-61.961524227066 L20.0,-61.898646325997994 L20.0,-61.710803348883445 L20.0,-61.4003575301486 L20.0,-60.97121290608891 L20.0,-60.42876621934742 L20.0,-59.779839051744815 L20.0,-59.032592038930005 L20.0,-58.19642224565194 L20.0,-57.2818449922181 L20.0,-56.300361618240494 L20.0,-55.26431484661681 L20.0,-54.18673356662854 L20.0,-53.08116898809875 L20.0,-51.961524227066086 " />
			<path d="M20.0,-56.38880119573679 L20.0,-86.33229234291532 " />
			<path d="M20.0,-51.961524227066 L20.0,-50.84187946603263 L20.0,-49.73631488750228 L20.0,-48.65873360751349 L20.0,-47.622686835889354 L20.0,-46.64120346191138 L20.0,-45.72662620847728 L20.0,-44.89045641519906 L20.0,-44.14320940238423 L20.0,-43.49428223478174 L20.0,-42.95183554804053 L20.0,-42.52269092398125 L20.0,-42.21224510524698 L20.0,-42.02440212813315 L20.0,-41.961524227066 " />
			<path d="M20.0,-41.961524227066 L20.0,-42.212245105248684 L20.0,-42.951835548043604 L20.0,-44.14320940238828 L20.0,-45.7266262084819 L20.0,-47.62268683589415 L20.0,-49.73631488750689 L20.0,-51.961524227070136 L20.0,-54.18673356663318 L20.0,-56.30036161824531 L20.0,-58.19642224565657 L20.0,-59.77983905174888 L20.0,-60.971212906091985 L20.0,-61.71080334888516 L20.0,-61.96152422706599 " />
			<path d="M20.0,-61.961524227066 L20.0,-61.898646325997994 L20.0,-61.710803348883445 L20.0,-61.4003575301486 L20.0,-60.97121290608891 L20.0,-60.42876621934742 L20.0,-59.779839051744815 L20.0,-59.032592038930005 L20.0,-58.19642224565194 L20.0,-57.2818449922181 L20.0,-56.300361618240494 L20.0,-55.26431484661681 L20.0,-54.18673356662854 L20.0,-53.08116898809875 L20.0,-51.961524227066086 " />
			<path d="M20.0,-86.33229234291531 L-2.3092638912203256e-14,-86.33229234291531 " />
			<path d="M-2.3092638912203256e-14,-86.33229234291531 L20.0,-86.33229234291531 " />
			<path d="M0.0,-10.0 L0.0,-86.33229234291531 " />
			<path d="M20.0,-10.0 L0.0,-10.0 " />
			<path d="M20.0,3.056402745135148e-13 L0.0,3.056402745135148e-13 " />
			<path d="M0.0,-9.999999999999996 L0.0,-9.937122098932374 L0.0,-9.749279121818144 L0.0,-9.438833303083554 L0.0,-9.009688679024045 L0.0,-8.467241992282679 L0.0,-7.818314824680128 L0.0,-7.071067811865305 L0.0,-6.234898018587171 L0.0,-5.320320765153215 L0.0,-4.338837391175449 L0.0,-3.3027906195515624 L0.0,-2.225209339563063 L0.0,-1.1196447610330271 L0.0,-3.6827560966212024e-14 " />
			<path d="M20.0,3.056402745135148e-13 L0.0,3.056402745135148e-13 " />
			<path d="M0.0,-2.4492935982947002e-15 L0.0,-1.119644761033081 L0.0,-2.2252093395631465 L0.0,-3.302790619551673 L0.0,-4.338837391175583 L0.0,-5.320320765153367 L0.0,-6.234898018587336 L0.0,-7.071067811865476 L0.0,-7.8183148246803 L0.0,-8.467241992282842 L0.0,-9.009688679024194 L0.0,-9.438833303083676 L0.0,-9.749279121818237 L0.0,-9.937122098932425 L0.0,-9.999999999999998 " />
			<path d="M0.0,-10.0 L0.0,-9.937122098932425 L0.0,-9.749279121818237 L0.0,-9.438833303083676 L0.0,-9.00968867902419 L0.0,-8.46724199228284 L0.0,-7.818314824680297 L0.0,-7.071067811865474 L0.0,-6.234898018587334 L0.0,-5.320320765153365 L0.0,-4.338837391175581 L0.0,-3.3027906195516703 L0.0,-2.2252093395631434 L0.0,-1.1196447610330778 L0.0,-4.371094371888973e-14 " />
			<path d="M-8.881784197001252e-15,3.0558682544517897e-13 L20.0,3.0558682544517897e-13 " />
			<path d="M20.0,-47.53424725839521 L0.0,-47.53424725839521 " />
			<path d="M0.0,3.055333763768431e-13 L0.0,-47.53424725839521 " />
			<path d="M0.0,-47.53424725839521 L0.0,-46.83665620626201 L0.0,-46.17138959908645 L0.0,-45.54264352030687 L0.0,-44.954383704832615 L0.0,-44.41032052568185 L0.0,-43.91388559128167 L0.0,-43.468210101039936 L0.0,-43.076105095708286 L0.0,-42.74004372710468 L0.0,-42.462145659026845 L0.0,-42.24416369774588 L0.0,-42.08747273640647 L0.0,-41.993061083065435 L0.0,-41.961524227066 " />
			<path d="M0.0,-41.961524227066 L0.0,-42.02440212813357 L0.0,-42.21224510524776 L0.0,-42.522690923982324 L0.0,-42.95183554804181 L0.0,-43.49428223478316 L0.0,-44.1432094023857 L0.0,-44.890456415200525 L0.0,-45.72662620847866 L0.0,-46.64120346191263 L0.0,-47.62268683589042 L0.0,-48.65873360751433 L0.0,-49.73631488750286 L0.0,-50.84187946603292 L0.0,-51.961524227065915 " />
			<path d="M20.0,-56.38880119573679 L0.0,-56.38880119573679 " />
			<path d="M0.0,-51.961524227066 L0.0,-53.08116898809908 L0.0,-54.186733566629144 L0.0,-55.26431484661767 L0.0,-56.30036161824158 L0.0,-57.28184499221936 L0.0,-58.19642224565334 L0.0,-59.032592038931476 L0.0,-59.7798390517463 L0.0,-60.428766219348844 L0.0,-60.971212906090194 L0.0,-61.40035753014968 L0.0,-61.71080334888424 L0.0,-61.89864632599843 L0.0,-61.961524227066 " />
			<path d="M0.0,-61.961524227066 L0.0,-61.92998737106657 L0.0,-61.83557571772553 L0.0,-61.67888475638612 L0.0,-61.460902795105156 L0.0,-61.183004727027324 L0.0,-60.846943358423715 L0.0,-60.45483835309207 L0.0,-60.00916286285033 L0.0,-59.51272792845015 L0.0,-58.968664749299386 L0.0,-58.380404933825126 L0.0,-57.75165885504555 L0.0,-57.08639224786999 L0.0,-56.388801195736825 " />
			<path d="M0.0,-56.38880119573679 L0.0,-86.33229234291532 " />
			<path d="M0.0,-51.961524227066 L0.0,-53.08116898809908 L0.0,-54.186733566629144 L0.0,-55.26431484661767 L0.0,-56.30036161824158 L0.0,-57.28184499221936 L0.0,-58.19642224565334 L0.0,-59.032592038931476 L0.0,-59.7798390517463 L0.0,-60.428766219348844 L0.0,-60.971212906090194 L0.0,-61.40035753014968 L0.0,-61.71080334888424 L0.0,-61.89864632599843 L0.0,-61.961524227066 " />
			<path d="M0.0,-61.961524227066 L0.0,-61.71080334888424 L0.0,-60.971212906090194 L0.0,-59.7798390517463 L0.0,-58.19642224565334 L0.0,-56.30036161824158 L0.0,-54.186733566629144 L0.0,-51.961524227066 L0.0,-49.73631488750286 L0.0,-47.62268683589042 L0.0,-45.72662620847866 L0.0,-44.14320940238571 L0.0,-42.951835548041814 L0.0,-42.21224510524776 L0.0,-41.96152422706601 " />
			<path d="M0.0,-41.961524227066 L0.0,-42.02440212813357 L0.0,-42.21224510524776 L0.0,-42.522690923982324 L0.0,-42.95183554804181 L0.0,-43.49428223478316 L0.0,-44.1432094023857 L0.0,-44.890456415200525 L0.0,-45.72662620847866 L0.0,-46.64120346191263 L0.0,-47.62268683589042 L0.0,-48.65873360751433 L0.0,-49.73631488750286 L0.0,-50.84187946603292 L0.0,-51.961524227065915 " />
			<path d="M20.0,-86.33229234291532 L20.0,-80.53783808464343 L20.0,-74.66153229693214 L20.0,-68.70934713681491 L20.0,-62.68733187840253 L20.0,-56.60160676493631 L20.0,-50.45835678871467 L20.0,-44.26382540521445 L20.0,-38.02430818779542 L20.0,-31.746146429436827 L20.0,-25.435720698008513 L20.0,-19.099444351626556 L20.0,-12.743757020683768 L20.0,-6.375118063179433 L20.0,-9.131332544865152e-13 " />
			<path d="M20.0,3.056402745135148e-13 L0.0,3.056402745135148e-13 " />
			<path d="M0.0,-86.33229234291532 L0.0,-80.53783808464343 L0.0,-74.66153229693214 L0.0,-68.70934713681491 L0.0,-62.68733187840253 L0.0,-56.60160676493631 L0.0,-50.45835678871467 L0.0,-44.26382540521445 L0.0,-38.02430818779542 L0.0,-31.746146429436827 L0.0,-25.435720698008513 L0.0,-19.099444351626556 L0.0,-12.743757020683768 L0.0,-6.375118063179433 L0.0,-9.131332544865152e-13 " />
			<path d="M20.0,-86.33229234291531 L0.0,-86.33229234291531 " />
			<path d="M20.0,-56.38880119573679 L20.0,-86.33229234291532 " />
			<path d="M20.0,-47.53424725839521 L20.0,-48.13081354866131 L20.0,-48.74381859195195 L20.0,-49.370631795837824 L20.0,-50.008563312842526 L20.0,-50.65487558340203 L20.0,-51.30679508357147 L20.0,-51.96152422706599 L20.0,-52.616253370560514 L20.0,-53.268172870729956 L20.0,-53.91448514128947 L20.0,-54.55241665829416 L20.0,-55.179229862180044 L20.0,-55.79223490547068 L20.0,-56.38880119573675 " />
			<path d="M20.0,3.055333763768431e-13 L20.0,-47.53424725839521 " />
			<path d="M20.0,1.2246467991473533e-15 L20.0,-1.119644761033373 L20.0,-2.225209339563723 L20.0,-3.302790619552512 L20.0,-4.338837391176652 L20.0,-5.320320765154624 L20.0,-6.23489801858873 L20.0,-7.071067811866946 L20.0,-7.8183148246817815 L20.0,-8.467241992284263 L20.0,-9.009688679025478 L20.0,-9.43883330308475 L20.0,-9.749279121819027 L20.0,-9.937122098932855 L20.0,-9.999999999999995 " />
			<path d="M20.0,-10.0 L20.0,-9.937122098931995 L20.0,-9.749279121817446 L20.0,-9.4388333030826 L20.0,-9.009688679022904 L20.0,-8.46724199228142 L20.0,-7.818314824678815 L20.0,-7.071067811864001 L20.0,-6.234898018585935 L20.0,-5.320320765152097 L20.0,-4.338837391174495 L20.0,-3.3027906195508097 L20.0,-2.2252093395625403 L20.0,-1.1196447610327545 L20.0,-9.107234018216917e-14 " />
			<path d="M20.0,3.056402745135148e-13 L0.0,3.056402745135148e-13 " />
			<path d="M0.0,-56.38880119573679 L0.0,-86.33229234291532 " />
			<path d="M0.0,-56.38880119573679 L0.0,-55.79223490547069 L0.0,-55.17922986218005 L0.0,-54.55241665829418 L0.0,-53.914485141289475 L0.0,-53.26817287072997 L0.0,-52.61625337056053 L0.0,-51.96152422706601 L0.0,-51.30679508357149 L0.0,-50.654875583402045 L0.0,-50.00856331284253 L0.0,-49.37063179583784 L0.0,-48.74381859195196 L0.0,-48.13081354866132 L0.0,-47.534247258395254 " />
			<path d="M0.0,3.055333763768431e-13 L0.0,-47.53424725839521 " />
			<path d="M0.0,-2.4492935982950004e-15 L0.0,-1.119644761033081 L0.0,-2.2252093395631465 L0.0,-3.302790619551673 L0.0,-4.338837391175585 L0.0,-5.320320765153369 L0.0,-6.234898018587338 L0.0,-7.071067811865479 L0.0,-7.818314824680303 L0.0,-8.467241992282844 L0.0,-9.009688679024197 L0.0,-9.438833303083682 L0.0,-9.749279121818242 L0.0,-9.937122098932432 L0.0,-10.000000000000005 " />
			<path d="M0.0,-10.000000000000007 L0.0,-9.937122098932432 L0.0,-9.749279121818246 L0.0,-9.438833303083685 L0.0,-9.009688679024201 L0.0,-8.467241992282853 L0.0,-7.818314824680311 L0.0,-7.071067811865487 L0.0,-6.234898018587348 L0.0,-5.3203207651533795 L0.0,-4.338837391175595 L0.0,-3.3027906195516845 L0.0,-2.2252093395631576 L0.0,-1.1196447610330924 L0.0,-5.836588764394179e-14 " />
			<path d="M-2.3092638912203256e-14,-86.33229234291531 L20.0,-86.33229234291531 " />
			<path d="M20.0,-56.38880119573679 L0.0,-56.38880119573679 " />
			<path d="M20.0,-47.53424725839521 L0.0,-47.53424725839521 " />
			<path d="M-8.881784197001252e-15,3.0558682544517897e-13 L20.0,3.0558682544517897e-13 " />
			<path d="M20.0,-200.0 L20.0,-199.93036299946095 L20.0,-199.72150049096226 L20.0,-199.37355792009004 L20.0,-198.88677758361433 L20.0,-198.26149846076063 L20.0,-197.49815597715505 L20.0,-196.59728170160707 L20.0,-195.55950297594083 L20.0,-194.38554247813303 L20.0,-193.07621771906193 L20.0,-191.63244047321703 L20.0,-190.0552161437668 L20.0,-188.34564306242606 L20.0,-186.5049117246109 " />
			<path d="M20.0,-186.50491172461076 L0.0,-186.50491172461076 " />
			<path d="M0.0,-200.0 L0.0,-199.93036299946095 L0.0,-199.72150049096226 L0.0,-199.37355792009004 L0.0,-198.88677758361433 L0.0,-198.26149846076063 L0.0,-197.49815597715505 L0.0,-196.59728170160707 L0.0,-195.55950297594083 L0.0,-194.38554247813303 L0.0,-193.07621771906193 L0.0,-191.63244047321703 L0.0,-190.0552161437668 L0.0,-188.34564306242606 L0.0,-186.5049117246109 " />
			<path d="M20.0,-86.33229234291531 L20.0,-93.92304845413 " />
			<path d="M20.0,-86.33229234291531 L20.0,-186.50491172461076 " />
			<path d="M20.0,-113.92304845413 L20.0,-200.0 " />
			<path d="M20.0,-93.92304845413 L20.0,-94.17376933231185 L20.0,-94.91335977510596 L20.0,-96.10473362944987 L20.0,-97.68815043554282 L20.0,-99.58421106295454 L20.0,-101.69783911456693 L20.0,-103.92304845413001 L20.0,-106.14825779369309 L20.0,-108.26188584530547 L20.0,-110.15794647271719 L20.0,-111.74136327881013 L20.0,-112.93273713315405 L20.0,-113.67232757594815 L20.0,-113.92304845412998 " />
			<path d="M20.0,-103.92304845413 L20.0,-102.80340369309663 L20.0,-101.69783911456628 L20.0,-100.62025783457749 L20.0,-99.58421106295336 L20.0,-98.60272768897538 L20.0,-97.68815043554127 L20.0,-96.85198064226306 L20.0,-96.10473362944822 L20.0,-95.45580646184574 L20.0,-94.91335977510452 L20.0,-94.48421515104525 L20.0,-94.17376933231097 L20.0,-93.98592635519714 L20.0,-93.92304845413 " />
			<path d="M20.0,-93.92304845413 L20.0,-94.17376933231269 L20.0,-94.91335977510761 L20.0,-96.10473362945228 L20.0,-97.6881504355459 L20.0,-99.58421106295815 L20.0,-101.69783911457088 L20.0,-103.92304845413413 L20.0,-106.14825779369717 L20.0,-108.26188584530931 L20.0,-110.15794647272057 L20.0,-111.74136327881287 L20.0,-112.93273713315598 L20.0,-113.67232757594915 L20.0,-113.92304845412998 " />
			<path d="M20.0,-113.92304845413 L20.0,-113.86017055306199 L20.0,-113.67232757594745 L20.0,-113.3618817572126 L20.0,-112.9327371331529 L20.0,-112.39029044641141 L20.0,-111.74136327880882 L20.0,-110.994116265994 L20.0,-110.15794647271593 L20.0,-109.2433692192821 L20.0,-108.26188584530449 L20.0,-107.2258390736808 L20.0,-106.14825779369254 L20.0,-105.04269321516276 L20.0,-103.92304845413008 " />
			<path d="M0.0,-86.33229234291531 L0.0,-186.50491172461076 " />
			<path d="M-2.3092638912203256e-14,-86.33229234291531 L20.0,-86.33229234291531 " />
			<path d="M0.0,-113.92304845413 L0.0,-113.67232757594815 L0.0,-112.93273713315403 L0.0,-111.74136327881013 L0.0,-110.15794647271717 L0.0,-108.26188584530546 L0.0,-106.14825779369308 L0.0,-103.92304845413 L0.0,-101.69783911456693 L0.0,-99.58421106295455 L0.0,-97.68815043554284 L0.0,-96.10473362944988 L0.0,-94.91335977510596 L0.0,-94.17376933231186 L0.0,-93.92304845413001 " />
			<path d="M0.0,-86.33229234291531 L0.0,-93.92304845413 " />
			<path d="M0.0,-113.92304845413 L0.0,-200.0 " />
			<path d="M0.0,-103.92304845412998 L0.0,-105.04269321516306 L0.0,-106.14825779369313 L0.0,-107.22583907368166 L0.0,-108.26188584530557 L0.0,-109.24336921928335 L0.0,-110.15794647271733 L0.0,-110.99411626599546 L0.0,-111.74136327881028 L0.0,-112.39029044641283 L0.0,-112.93273713315418 L0.0,-113.36188175721367 L0.0,-113.67232757594823 L0.0,-113.86017055306242 L0.0,-113.92304845413 " />
			<path d="M0.0,-113.92304845413 L0.0,-113.67232757594823 L0.0,-112.93273713315419 L0.0,-111.74136327881031 L0.0,-110.15794647271734 L0.0,-108.26188584530559 L0.0,-106.14825779369316 L0.0,-103.92304845413001 L0.0,-101.69783911456688 L0.0,-99.58421106295442 L0.0,-97.68815043554268 L0.0,-96.10473362944971 L0.0,-94.91335977510582 L0.0,-94.17376933231176 L0.0,-93.92304845413001 " />
			<path d="M0.0,-93.92304845413 L0.0,-93.98592635519756 L0.0,-94.17376933231176 L0.0,-94.48421515104631 L0.0,-94.9133597751058 L0.0,-95.45580646184715 L0.0,-96.10473362944968 L0.0,-96.85198064226451 L0.0,-97.68815043554265 L0.0,-98.60272768897661 L0.0,-99.5842110629544 L0.0,-100.62025783457831 L0.0,-101.69783911456683 L0.0,-102.8034036930969 L0.0,-103.9230484541299 " />
			<path d="M20.0,-113.92304845413 L0.0,-113.92304845413 " />
			<path d="M20.0,-93.92304845413 L0.0,-93.92304845413 " />
			<path d="M20.0,-86.33229234291531 L-2.3092638912203256e-14,-86.33229234291531 " />
			<path d="M20.0,-186.50491172461076 L20.0,-182.34081941939908 L20.0,-177.64654396842775 L20.0,-172.43573467816356 L20.0,-166.7235427543007 L20.0,-160.5265772473689 L20.0,-153.86285675944035 L20.0,-146.7517570523549 L20.0,-139.21395470980082 L20.0,-131.2713670170618 L20.0,-122.94708823323921 L20.0,-114.26532244124672 L20.0,-105.25131317082719 L20.0,-95.93126999922237 L20.0,-86.33229234291612 " />
			<path d="M20.0,-86.33229234291531 L0.0,-86.33229234291531 " />
			<path d="M0.0,-186.50491172461076 L0.0,-182.34081941939908 L0.0,-177.64654396842775 L0.0,-172.43573467816356 L0.0,-166.7235427543007 L0.0,-160.5265772473689 L0.0,-153.86285675944035 L0.0,-146.7517570523549 L0.0,-139.21395470980082 L0.0,-131.2713670170618 L0.0,-122.94708823323921 L0.0,-114.26532244124672 L0.0,-105.25131317082719 L0.0,-95.93126999922237 L0.0,-86.33229234291612 " />
			<path d="M20.0,-186.50491172461076 L0.0,-186.50491172461076 " />
			<path d="M20.0,-86.33229234291531 L20.0,-186.50491172461076 " />
			<path d="M-2.3092638912203256e-14,-86.33229234291531 L20.0,-86.33229234291531 " />
			<path d="M0.0,-86.33229234291531 L0.0,-186.50491172461076 " />
			<path d="M20.0,113.9230484541 L0.0,113.9230484541 " />
			<path d="M20.0,93.9230484541 L0.0,93.9230484541 " />
			<path d="M20.0,10.0 L0.0,10.0 " />
			<path d="M20.0,10.0 L0.0,10.0 " />
			<path d="M20.0,61.96152422706 L0.0,61.96152422706 " />
			<path d="M20.0,41.96152422706 L0.0,41.96152422706 " />
			<path d="M20.0,61.96152422706 L0.0,61.96152422706 " />
			<path d="M20.0,41.96152422706 L0.0,41.96152422706 " />
			<path d="M20.0,113.9230484541 L0.0,113.9230484541 " />
			<path d="M20.0,93.9230484541 L0.0,93.9230484541 " />
			<path d="M20.0,61.96152422706 L0.0,61.96152422706 " />
			<path d="M20.0,41.96152422706 L0.0,41.96152422706 " />
			<path d="M20.0,10.0 L0.0,10.0 " />
			<path d="M20.0,61.96152422706 L0.0,61.96152422706 " />
			<path d="M20.0,41.96152422706 L0.0,41.96152422706 " />
			<path d="M20.0,10.0 L0.0,10.0 " />
			<path d="M20.0,-10.0 L0.0,-10.0 " />
			<path d="M20.0,-10.0 L0.0,-10.0 " />
			<path d="M20.0,-41.961524227066 L0.0,-41.961524227066 " />
			<path d="M20.0,-61.961524227066 L0.0,-61.961524227066 " />
			<path d="M20.0,-41.961524227066 L0.0,-41.961524227066 " />
			<path d="M20.0,-61.961524227066 L0.0,-61.961524227066 " />
			<path d="M20.0,-93.92304845413 L0.0,-93.92304845413 " />
			<path d="M20.0,-113.92304845413 L0.0,-113.92304845413 " />
			<path d="M20.0,-10.0 L0.0,-10.0 " />
			<path d="M20.0,-41.961524227066 L0.0,-41.961524227066 " />
			<path d="M20.0,-61.961524227066 L0.0,-61.961524227066 " />
			<path d="M20.0,-41.961524227066 L0.0,-41.961524227066 " />
			<path d="M20.0,-61.961524227066 L0.0,-61.961524227066 " />
			<path d="M20.0,-10.0 L0.0,-10.0 " />
			<path d="M20.0,-93.92304845413 L0.0,-93.92304845413 " />
			<path d="M20.0,-113.92304845413 L0.0,-113.92304845413 " />

       </g>

       <!-- solid lines -->
       <g  stroke="rgb(56,189,248)" fill="none">
			<path d="M20.0,186.50491172460778 L20.0,182.3408194193956 L20.0,177.6465439684238 L20.0,172.43573467815912 L20.0,166.72354275429575 L20.0,160.52657724736346 L20.0,153.86285675943444 L20.0,146.75175705234847 L20.0,139.21395470979388 L20.0,131.2713670170544 L20.0,122.94708823323131 L20.0,114.26532244123835 L20.0,105.25131317081838 L20.0,95.93126999921311 L20.0,86.33229234290707 " />
			<path d="M20.0,86.33229234290529 L0.0,86.33229234290529 " />
			<path d="M0.0,186.50491172460778 L0.0,182.3408194193956 L0.0,177.6465439684238 L0.0,172.43573467815912 L0.0,166.72354275429575 L0.0,160.52657724736346 L0.0,153.86285675943444 L0.0,146.75175705234847 L0.0,139.21395470979388 L0.0,131.2713670170544 L0.0,122.94708823323131 L0.0,114.26532244123835 L0.0,105.25131317081838 L0.0,95.93126999921311 L0.0,86.33229234290707 " />
			<path d="M20.0,186.50491172460767 L0.0,186.50491172460767 " />
			<path d="M20.0,200.0 L20.0,199.93036299946064 L20.0,199.72150049096163 L20.0,199.37355792008916 L20.0,198.88677758361314 L20.0,198.2614984607592 L20.0,197.4981559771534 L20.0,196.5972817016052 L20.0,195.55950297593873 L20.0,194.38554247813076 L20.0,193.07621771905949 L20.0,191.6324404732144 L20.0,190.05521614376403 L20.0,188.34564306242316 L20.0,186.5049117246084 " />
			<path d="M20.0,186.50491172460767 L0.0,186.50491172460767 " />
			<path d="M0.0,200.0 L0.0,199.93036299946064 L0.0,199.72150049096163 L0.0,199.37355792008916 L0.0,198.88677758361314 L0.0,198.2614984607592 L0.0,197.4981559771534 L0.0,196.5972817016052 L0.0,195.55950297593873 L0.0,194.38554247813076 L0.0,193.07621771905949 L0.0,191.6324404732144 L0.0,190.05521614376403 L0.0,188.34564306242316 L0.0,186.5049117246084 " />
			<path d="M20.0,200.0 L0.0,200.0 " />
			<path d="M20.0,86.33229234290549 L20.0,80.53783808463419 L20.0,74.66153229692351 L20.0,68.70934713680693 L20.0,62.68733187839523 L20.0,56.60160676492969 L20.0,50.458356788708755 L20.0,44.263825405209275 L20.0,38.02430818779099 L20.0,31.74614642943317 L20.0,25.435720698005632 L20.0,19.099444351624456 L20.0,12.743757020682464 L20.0,6.375118063178925 L20.0,1.823782371847638e-12 " />
			<path d="M0.0,0.0 L20.0,0.0 " />
			<path d="M0.0,86.33229234290549 L0.0,80.53783808463419 L0.0,74.66153229692351 L0.0,68.70934713680693 L0.0,62.68733187839523 L0.0,56.60160676492969 L0.0,50.458356788708755 L0.0,44.263825405209275 L0.0,38.02430818779099 L0.0,31.74614642943317 L0.0,25.435720698005632 L0.0,19.099444351624456 L0.0,12.743757020682464 L0.0,6.375118063178925 L0.0,1.823782371847638e-12 " />
			<path d="M20.0,86.33229234290529 L0.0,86.33229234290529 " />
			<path d="M20.0,200.0 L0.0,200.0 " />
			<path d="M20.0,0.0 L20.0,-6.37511806317983 L20.0,-12.743757020684143 L20.0,-19.099444351626907 L20.0,-25.43572069800884 L20.0,-31.746146429437132 L20.0,-38.0243081877957 L20.0,-44.2638254052147 L20.0,-50.45835678871491 L20.0,-56.60160676493652 L20.0,-62.687331878402716 L20.0,-68.70934713681508 L20.0,-74.66153229693228 L20.0,-80.53783808464354 L20.0,-86.33229234291532 " />
			<path d="M20.0,-86.33229234291542 L0.0,-86.33229234291542 " />
			<path d="M0.0,0.0 L0.0,-6.37511806317983 L0.0,-12.743757020684143 L0.0,-19.099444351626907 L0.0,-25.43572069800884 L0.0,-31.746146429437132 L0.0,-38.0243081877957 L0.0,-44.2638254052147 L0.0,-50.45835678871491 L0.0,-56.60160676493652 L0.0,-62.687331878402716 L0.0,-68.70934713681508 L0.0,-74.66153229693228 L0.0,-80.53783808464354 L0.0,-86.33229234291532 " />
			<path d="M20.0,-86.33229234291542 L20.0,-95.93126999922235 L20.0,-105.25131317082722 L20.0,-114.26532244124677 L20.0,-122.9470882332393 L20.0,-131.27136701706192 L20.0,-139.21395470980093 L20.0,-146.7517570523551 L20.0,-153.86285675944055 L20.0,-160.52657724736912 L20.0,-166.7235427543009 L20.0,-172.43573467816378 L20.0,-177.64654396842795 L20.0,-182.34081941939925 L20.0,-186.5049117246108 " />
			<path d="M20.0,-186.50491172461096 L0.0,-186.50491172461096 " />
			<path d="M0.0,-86.33229234291542 L0.0,-95.93126999922235 L0.0,-105.25131317082722 L0.0,-114.26532244124677 L0.0,-122.9470882332393 L0.0,-131.27136701706192 L0.0,-139.21395470980093 L0.0,-146.7517570523551 L0.0,-153.86285675944055 L0.0,-160.52657724736912 L0.0,-166.7235427543009 L0.0,-172.43573467816378 L0.0,-177.64654396842795 L0.0,-182.34081941939925 L0.0,-186.5049117246108 " />
			<path d="M20.0,-86.33229234291542 L0.0,-86.33229234291542 " />
			<path d="M20.0,-186.50491172461096 L20.0,-188.34564306242635 L20.0,-190.05521614376707 L20.0,-191.63244047321726 L20.0,-193.07621771906213 L20.0,-194.38554247813323 L20.0,-195.55950297594097 L20.0,-196.59728170160724 L20.0,-197.4981559771552 L20.0,-198.26149846076072 L20.0,-198.88677758361442 L20.0,-199.3735579200901 L20.0,-199.72150049096226 L20.0,-199.93036299946095 L20.0,-200.0 " />
			<path d="M20.0,-200.0 L0.0,-200.0 " />
			<path d="M0.0,-186.50491172461096 L0.0,-188.34564306242635 L0.0,-190.05521614376707 L0.0,-191.63244047321726 L0.0,-193.07621771906213 L0.0,-194.38554247813323 L0.0,-195.55950297594097 L0.0,-196.59728170160724 L0.0,-197.4981559771552 L0.0,-198.26149846076072 L0.0,-198.88677758361442 L0.0,-199.3735579200901 L0.0,-199.72150049096226 L0.0,-199.93036299946095 L0.0,-200.0 " />
			<path d="M20.0,-186.50491172461096 L0.0,-186.50491172461096 " />
			<path d="M20.0,-200.0 L0.0,-200.0 " />

       </g>
    </g>
    
</svg>
