<?xml version="1.0" encoding="UTF-8" standalone="no"?>
<svg
   xmlns:svg="http://www.w3.org/2000/svg"
   xmlns="http://www.w3.org/2000/svg"
   width="400.0"
   height="300.0"

>
    <g transform="scale(0.56249999971875, -0.56249999971875)   translate(8.888888993333333,-208.88888899333335)" stroke-width="0.5"  fill="none">
       <!-- hidden lines -->
       <g  stroke="rgb(160,160,160)" fill="none" stroke-dasharray="0.5,0.5" >
			<path d="M0.0,-200.0 L0.0,-194.98558243636472 L0.0,-180.19377358048382 L0.0,-156.36629649360597 L0.0,-124.69796037174672 L0.0,-86.77674782351164 L0.0,-44.5041867912629 L0.0,-2.4492935982947064e-14 L0.0,44.50418679126285 L0.0,86.7767478235116 L0.0,124.69796037174667 L0.0,156.36629649360594 L0.0,180.19377358048382 L0.0,194.98558243636472 L0.0,199.9999999999998 " />
			<path d="M20.0,-200.0 L20.0,-194.98558243636472 L20.0,-180.19377358048382 L20.0,-156.36629649360597 L20.0,-124.69796037174672 L20.0,-86.77674782351164 L20.0,-44.5041867912629 L20.0,-2.4492935982947064e-14 L20.0,44.50418679126285 L20.0,86.7767478235116 L20.0,124.69796037174667 L20.0,156.36629649360594 L20.0,180.19377358048382 L20.0,194.98558243636472 L20.0,199.9999999999998 " />
			<path d="M0.0,103.92304845410001 L0.0,102.80340369306694 L0.0,101.69783911453686 L0.0,100.62025783454834 L0.0,99.58421106292442 L0.0,98.60272768894664 L0.0,97.68815043551268 L0.0,96.85198064223454 L0.0,96.10473362941971 L0.0,95.45580646181716 L0.0,94.9133597750758 L0.0,94.48421515101633 L0.0,94.17376933228176 L0.0,93.98592635516758 L0.0,93.9230484541 " />
			<path d="M0.0,93.9230484541 L0.0,94.17376933228175 L0.0,94.9133597750758 L0.0,96.10473362941968 L0.0,97.68815043551265 L0.0,99.5842110629244 L0.0,101.69783911453683 L0.0,103.92304845409998 L0.0,106.14825779366313 L0.0,108.26188584527557 L0.0,110.15794647268731 L0.0,111.74136327878028 L0.0,112.93273713312418 L0.0,113.67232757591823 L0.0,113.92304845409998 " />
			<path d="M0.0,113.9230484541 L0.0,113.86017055303242 L0.0,113.67232757591825 L0.0,113.36188175718368 L0.0,112.93273713312419 L0.0,112.39029044638285 L0.0,111.74136327878031 L0.0,110.99411626596549 L0.0,110.15794647268734 L0.0,109.24336921925338 L0.0,108.2618858452756 L0.0,107.22583907365168 L0.0,106.14825779366316 L0.0,105.0426932151331 L0.0,103.9230484541001 " />
			<path d="M0.0,51.96152422706 L0.0,50.841879466026924 L0.0,49.73631488749686 L0.0,48.65873360750833 L0.0,47.62268683588442 L0.0,46.64120346190664 L0.0,45.726626208472666 L0.0,44.89045641519453 L0.0,44.1432094023797 L0.0,43.49428223477716 L0.0,42.95183554803581 L0.0,42.52269092397633 L0.0,42.21224510524176 L0.0,42.024402128127576 L0.0,41.96152422706 " />
			<path d="M0.0,41.96152422706 L0.0,42.21224510524176 L0.0,42.95183554803581 L0.0,44.1432094023797 L0.0,45.726626208472666 L0.0,47.62268683588442 L0.0,49.73631488749686 L0.0,51.96152422706 L0.0,54.18673356662315 L0.0,56.300361618235584 L0.0,58.19642224564734 L0.0,59.779839051740296 L0.0,60.97121290608419 L0.0,61.710803348878244 L0.0,61.961524227059996 " />
			<path d="M0.0,61.96152422706 L0.0,61.89864632599243 L0.0,61.710803348878244 L0.0,61.40035753014368 L0.0,60.9712129060842 L0.0,60.42876621934285 L0.0,59.7798390517403 L0.0,59.03259203892548 L0.0,58.19642224564734 L0.0,57.28184499221337 L0.0,56.300361618235584 L0.0,55.264314846611676 L0.0,54.18673356662315 L0.0,53.08116898809308 L0.0,51.96152422706009 " />
			<path d="M0.0,51.96152422706 L0.0,50.841879466026924 L0.0,49.73631488749686 L0.0,48.65873360750833 L0.0,47.62268683588442 L0.0,46.64120346190664 L0.0,45.726626208472666 L0.0,44.89045641519453 L0.0,44.1432094023797 L0.0,43.49428223477716 L0.0,42.95183554803581 L0.0,42.52269092397633 L0.0,42.21224510524176 L0.0,42.024402128127576 L0.0,41.96152422706 " />
			<path d="M0.0,41.96152422706 L0.0,42.21224510524176 L0.0,42.95183554803581 L0.0,44.1432094023797 L0.0,45.726626208472666 L0.0,47.62268683588442 L0.0,49.73631488749686 L0.0,51.96152422706 L0.0,54.18673356662315 L0.0,56.300361618235584 L0.0,58.19642224564734 L0.0,59.779839051740296 L0.0,60.97121290608419 L0.0,61.710803348878244 L0.0,61.961524227059996 " />
			<path d="M0.0,61.96152422706 L0.0,61.89864632599243 L0.0,61.710803348878244 L0.0,61.40035753014368 L0.0,60.9712129060842 L0.0,60.42876621934285 L0.0,59.7798390517403 L0.0,59.03259203892548 L0.0,58.19642224564734 L0.0,57.28184499221337 L0.0,56.300361618235584 L0.0,55.264314846611676 L0.0,54.18673356662315 L0.0,53.08116898809308 L0.0,51.96152422706009 " />
			<path d="M0.0,103.92304845410001 L0.0,102.80340369306694 L0.0,101.69783911453686 L0.0,100.62025783454834 L0.0,99.58421106292442 L0.0,98.60272768894664 L0.0,97.68815043551268 L0.0,96.85198064223454 L0.0,96.10473362941971 L0.0,95.45580646181716 L0.0,94.9133597750758 L0.0,94.48421515101633 L0.0,94.17376933228176 L0.0,93.98592635516758 L0.0,93.9230484541 " />
			<path d="M0.0,93.9230484541 L0.0,94.17376933228175 L0.0,94.9133597750758 L0.0,96.10473362941968 L0.0,97.68815043551265 L0.0,99.5842110629244 L0.0,101.69783911453683 L0.0,103.92304845409998 L0.0,106.14825779366313 L0.0,108.26188584527557 L0.0,110.15794647268731 L0.0,111.74136327878028 L0.0,112.93273713312418 L0.0,113.67232757591823 L0.0,113.92304845409998 " />
			<path d="M0.0,113.9230484541 L0.0,113.86017055303242 L0.0,113.67232757591825 L0.0,113.36188175718368 L0.0,112.93273713312419 L0.0,112.39029044638285 L0.0,111.74136327878031 L0.0,110.99411626596549 L0.0,110.15794647268734 L0.0,109.24336921925338 L0.0,108.2618858452756 L0.0,107.22583907365168 L0.0,106.14825779366316 L0.0,105.0426932151331 L0.0,103.9230484541001 " />
			<path d="M0.0,103.9230484541 L0.0,102.80340369306693 L0.0,101.69783911453685 L0.0,100.62025783454833 L0.0,99.58421106292441 L0.0,98.60272768894663 L0.0,97.68815043551267 L0.0,96.85198064223452 L0.0,96.1047336294197 L0.0,95.45580646181716 L0.0,94.9133597750758 L0.0,94.48421515101631 L0.0,94.17376933228176 L0.0,93.98592635516758 L0.0,93.9230484541 " />
			<path d="M0.0,93.9230484541 L0.0,94.17376933228176 L0.0,94.9133597750758 L0.0,96.1047336294197 L0.0,97.68815043551267 L0.0,99.58421106292441 L0.0,101.69783911453685 L0.0,103.9230484541 L0.0,106.14825779366313 L0.0,108.26188584527557 L0.0,110.15794647268733 L0.0,111.7413632787803 L0.0,112.93273713312419 L0.0,113.67232757591823 L0.0,113.92304845409998 " />
			<path d="M0.0,113.9230484541 L0.0,113.86017055303242 L0.0,113.67232757591823 L0.0,113.36188175718368 L0.0,112.93273713312419 L0.0,112.39029044638283 L0.0,111.7413632787803 L0.0,110.99411626596547 L0.0,110.15794647268734 L0.0,109.24336921925337 L0.0,108.26188584527559 L0.0,107.22583907365167 L0.0,106.14825779366315 L0.0,105.04269321513308 L0.0,103.92304845410008 " />
			<path d="M0.0,51.96152422706 L0.0,50.841879466026924 L0.0,49.73631488749686 L0.0,48.65873360750833 L0.0,47.62268683588442 L0.0,46.64120346190664 L0.0,45.726626208472666 L0.0,44.89045641519453 L0.0,44.1432094023797 L0.0,43.49428223477716 L0.0,42.95183554803581 L0.0,42.52269092397633 L0.0,42.21224510524176 L0.0,42.024402128127576 L0.0,41.96152422706 " />
			<path d="M0.0,41.96152422706 L0.0,42.21224510524176 L0.0,42.95183554803581 L0.0,44.1432094023797 L0.0,45.726626208472666 L0.0,47.62268683588442 L0.0,49.73631488749686 L0.0,51.96152422706 L0.0,54.18673356662315 L0.0,56.300361618235584 L0.0,58.19642224564734 L0.0,59.779839051740296 L0.0,60.97121290608419 L0.0,61.710803348878244 L0.0,61.961524227059996 " />
			<path d="M0.0,61.96152422706 L0.0,61.89864632599243 L0.0,61.710803348878244 L0.0,61.40035753014368 L0.0,60.9712129060842 L0.0,60.42876621934285 L0.0,59.7798390517403 L0.0,59.03259203892548 L0.0,58.19642224564734 L0.0,57.28184499221337 L0.0,56.300361618235584 L0.0,55.264314846611676 L0.0,54.18673356662315 L0.0,53.08116898809308 L0.0,51.96152422706009 " />
			<path d="M0.0,51.96152422706 L0.0,50.841879466026924 L0.0,49.73631488749686 L0.0,48.65873360750833 L0.0,47.62268683588442 L0.0,46.64120346190664 L0.0,45.726626208472666 L0.0,44.89045641519453 L0.0,44.1432094023797 L0.0,43.49428223477716 L0.0,42.95183554803581 L0.0,42.52269092397633 L0.0,42.21224510524176 L0.0,42.024402128127576 L0.0,41.96152422706 " />
			<path d="M0.0,41.96152422706 L0.0,42.21224510524176 L0.0,42.95183554803581 L0.0,44.1432094023797 L0.0,45.726626208472666 L0.0,47.62268683588442 L0.0,49.73631488749686 L0.0,51.96152422706 L0.0,54.18673356662315 L0.0,56.300361618235584 L0.0,58.19642224564734 L0.0,59.779839051740296 L0.0,60.97121290608419 L0.0,61.710803348878244 L0.0,61.961524227059996 " />
			<path d="M0.0,61.96152422706 L0.0,61.89864632599243 L0.0,61.710803348878244 L0.0,61.40035753014368 L0.0,60.9712129060842 L0.0,60.42876621934285 L0.0,59.7798390517403 L0.0,59.03259203892548 L0.0,58.19642224564734 L0.0,57.28184499221337 L0.0,56.300361618235584 L0.0,55.264314846611676 L0.0,54.18673356662315 L0.0,53.08116898809308 L0.0,51.96152422706009 " />
			<path d="M0.0,-2.4492935982950004e-15 L0.0,-1.119644761033081 L0.0,-2.2252093395631465 L0.0,-3.302790619551673 L0.0,-4.338837391175585 L0.0,-5.320320765153369 L0.0,-6.234898018587338 L0.0,-7.071067811865479 L0.0,-7.818314824680303 L0.0,-8.467241992282844 L0.0,-9.009688679024197 L0.0,-9.438833303083682 L0.0,-9.749279121818242 L0.0,-9.937122098932432 L0.0,-10.000000000000005 " />
			<path d="M0.0,-10.000000000000007 L0.0,-9.749279121818246 L0.0,-9.009688679024201 L0.0,-7.818314824680311 L0.0,-6.234898018587348 L0.0,-4.338837391175595 L0.0,-2.2252093395631576 L0.0,-1.3947689259246353e-14 L0.0,2.2252093395631305 L0.0,4.338837391175567 L0.0,6.234898018587321 L0.0,7.818314824680285 L0.0,9.009688679024181 L0.0,9.749279121818228 L0.0,9.999999999999982 " />
			<path d="M0.0,9.999999999999993 L0.0,9.937122098932418 L0.0,9.749279121818232 L0.0,9.43883330308367 L0.0,9.009688679024187 L0.0,8.467241992282839 L0.0,7.818314824680295 L0.0,7.071067811865473 L0.0,6.234898018587334 L0.0,5.320320765153364 L0.0,4.33883739117558 L0.0,3.3027906195516703 L0.0,2.225209339563144 L0.0,1.1196447610330784 L0.0,8.862984952801966e-14 " />
			<path d="M0.0,-51.961524227066 L0.0,-53.08116898809908 L0.0,-54.186733566629144 L0.0,-55.26431484661767 L0.0,-56.30036161824158 L0.0,-57.28184499221936 L0.0,-58.19642224565334 L0.0,-59.032592038931476 L0.0,-59.7798390517463 L0.0,-60.428766219348844 L0.0,-60.971212906090194 L0.0,-61.40035753014968 L0.0,-61.71080334888424 L0.0,-61.89864632599843 L0.0,-61.961524227066 " />
			<path d="M0.0,-61.961524227066 L0.0,-61.71080334888424 L0.0,-60.971212906090194 L0.0,-59.7798390517463 L0.0,-58.19642224565334 L0.0,-56.30036161824158 L0.0,-54.186733566629144 L0.0,-51.961524227066 L0.0,-49.73631488750286 L0.0,-47.62268683589042 L0.0,-45.72662620847866 L0.0,-44.14320940238571 L0.0,-42.951835548041814 L0.0,-42.21224510524776 L0.0,-41.96152422706601 " />
			<path d="M0.0,-41.961524227066 L0.0,-42.02440212813357 L0.0,-42.21224510524776 L0.0,-42.522690923982324 L0.0,-42.95183554804181 L0.0,-43.49428223478316 L0.0,-44.1432094023857 L0.0,-44.890456415200525 L0.0,-45.72662620847866 L0.0,-46.64120346191263 L0.0,-47.62268683589042 L0.0,-48.65873360751433 L0.0,-49.73631488750286 L0.0,-50.84187946603292 L0.0,-51.961524227065915 " />
			<path d="M0.0,-2.4492935982947002e-15 L0.0,-1.119644761033081 L0.0,-2.2252093395631465 L0.0,-3.302790619551673 L0.0,-4.338837391175583 L0.0,-5.320320765153367 L0.0,-6.234898018587336 L0.0,-7.071067811865476 L0.0,-7.8183148246803 L0.0,-8.467241992282842 L0.0,-9.009688679024194 L0.0,-9.438833303083676 L0.0,-9.749279121818237 L0.0,-9.937122098932425 L0.0,-9.999999999999998 " />
			<path d="M0.0,-10.0 L0.0,-9.749279121818237 L0.0,-9.00968867902419 L0.0,-7.818314824680297 L0.0,-6.234898018587334 L0.0,-4.338837391175581 L0.0,-2.2252093395631434 L0.0,6.296800734139466e-16 L0.0,2.2252093395631447 L0.0,4.3388373911755815 L0.0,6.2348980185873355 L0.0,7.818314824680298 L0.0,9.009688679024192 L0.0,9.749279121818237 L0.0,9.99999999999999 " />
			<path d="M0.0,10.0 L0.0,9.937122098932425 L0.0,9.749279121818237 L0.0,9.438833303083676 L0.0,9.00968867902419 L0.0,8.46724199228284 L0.0,7.818314824680297 L0.0,7.0710678118654755 L0.0,6.2348980185873355 L0.0,5.320320765153366 L0.0,4.3388373911755815 L0.0,3.3027906195516703 L0.0,2.225209339563144 L0.0,1.1196447610330784 L0.0,8.862984952801966e-14 " />
			<path d="M0.0,-51.961524227066 L0.0,-53.08116898809908 L0.0,-54.186733566629144 L0.0,-55.26431484661767 L0.0,-56.30036161824158 L0.0,-57.28184499221936 L0.0,-58.19642224565334 L0.0,-59.032592038931476 L0.0,-59.7798390517463 L0.0,-60.428766219348844 L0.0,-60.971212906090194 L0.0,-61.40035753014968 L0.0,-61.71080334888424 L0.0,-61.89864632599843 L0.0,-61.961524227066 " />
			<path d="M0.0,-61.961524227066 L0.0,-61.71080334888424 L0.0,-60.971212906090194 L0.0,-59.7798390517463 L0.0,-58.19642224565334 L0.0,-56.30036161824158 L0.0,-54.186733566629144 L0.0,-51.961524227066 L0.0,-49.73631488750286 L0.0,-47.62268683589042 L0.0,-45.72662620847866 L0.0,-44.14320940238571 L0.0,-42.951835548041814 L0.0,-42.21224510524776 L0.0,-41.96152422706601 " />
			<path d="M0.0,-41.961524227066 L0.0,-42.02440212813357 L0.0,-42.21224510524776 L0.0,-42.522690923982324 L0.0,-42.95183554804181 L0.0,-43.49428223478316 L0.0,-44.1432094023857 L0.0,-44.890456415200525 L0.0,-45.72662620847866 L0.0,-46.64120346191263 L0.0,-47.62268683589042 L0.0,-48.65873360751433 L0.0,-49.73631488750286 L0.0,-50.84187946603292 L0.0,-51.961524227065915 " />
			<path d="M0.0,-103.92304845412998 L0.0,-105.04269321516306 L0.0,-106.14825779369313 L0.0,-107.22583907368166 L0.0,-108.26188584530557 L0.0,-109.24336921928335 L0.0,-110.15794647271733 L0.0,-110.99411626599546 L0.0,-111.74136327881028 L0.0,-112.39029044641283 L0.0,-112.93273713315418 L0.0,-113.36188175721367 L0.0,-113.67232757594823 L0.0,-113.86017055306242 L0.0,-113.92304845413 " />
			<path d="M0.0,-113.92304845413 L0.0,-113.67232757594823 L0.0,-112.93273713315419 L0.0,-111.74136327881031 L0.0,-110.15794647271734 L0.0,-108.26188584530559 L0.0,-106.14825779369316 L0.0,-103.92304845413001 L0.0,-101.69783911456688 L0.0,-99.58421106295442 L0.0,-97.68815043554268 L0.0,-96.10473362944971 L0.0,-94.91335977510582 L0.0,-94.17376933231176 L0.0,-93.92304845413001 " />
			<path d="M0.0,-93.92304845413 L0.0,-93.98592635519756 L0.0,-94.17376933231176 L0.0,-94.48421515104631 L0.0,-94.9133597751058 L0.0,-95.45580646184715 L0.0,-96.10473362944968 L0.0,-96.85198064226451 L0.0,-97.68815043554265 L0.0,-98.60272768897661 L0.0,-99.5842110629544 L0.0,-100.62025783457831 L0.0,-101.69783911456683 L0.0,-102.8034036930969 L0.0,-103.9230484541299 " />
			<path d="M0.0,-2.449293598295e-15 L0.0,-1.119644761033081 L0.0,-2.225209339563146 L0.0,-3.3027906195516725 L0.0,-4.338837391175583 L0.0,-5.320320765153366 L0.0,-6.2348980185873355 L0.0,-7.071067811865475 L0.0,-7.818314824680298 L0.0,-8.46724199228284 L0.0,-9.00968867902419 L0.0,-9.438833303083674 L0.0,-9.749279121818235 L0.0,-9.937122098932422 L0.0,-9.999999999999995 " />
			<path d="M0.0,-9.999999999999996 L0.0,-9.749279121818232 L0.0,-9.009688679024187 L0.0,-7.818314824680292 L0.0,-6.2348980185873275 L0.0,-4.3388373911755735 L0.0,-2.2252093395631367 L0.0,7.515198660539648e-15 L0.0,2.2252093395631514 L0.0,4.338837391175589 L0.0,6.234898018587342 L0.0,7.818314824680304 L0.0,9.009688679024196 L0.0,9.749279121818242 L0.0,9.999999999999993 " />
			<path d="M0.0,10.000000000000004 L0.0,9.937122098932429 L0.0,9.749279121818239 L0.0,9.438833303083678 L0.0,9.009688679024194 L0.0,8.467241992282842 L0.0,7.818314824680299 L0.0,7.071067811865477 L0.0,6.234898018587336 L0.0,5.320320765153367 L0.0,4.3388373911755815 L0.0,3.3027906195516707 L0.0,2.2252093395631443 L0.0,1.1196447610330784 L0.0,8.862984952801966e-14 " />
			<path d="M0.0,-2.4492935982949996e-15 L0.0,-1.119644761033081 L0.0,-2.225209339563146 L0.0,-3.302790619551672 L0.0,-4.338837391175583 L0.0,-5.320320765153366 L0.0,-6.2348980185873355 L0.0,-7.071067811865475 L0.0,-7.818314824680298 L0.0,-8.46724199228284 L0.0,-9.009688679024192 L0.0,-9.438833303083674 L0.0,-9.749279121818235 L0.0,-9.937122098932422 L0.0,-9.999999999999995 " />
			<path d="M0.0,-9.999999999999996 L0.0,-9.749279121818232 L0.0,-9.009688679024185 L0.0,-7.81831482468029 L0.0,-6.234898018587326 L0.0,-4.338837391175572 L0.0,-2.225209339563134 L0.0,9.877978887873647e-15 L0.0,2.225209339563154 L0.0,4.33883739117559 L0.0,6.2348980185873435 L0.0,7.818314824680305 L0.0,9.009688679024197 L0.0,9.749279121818242 L0.0,9.999999999999993 " />
			<path d="M0.0,10.000000000000004 L0.0,9.937122098932429 L0.0,9.749279121818239 L0.0,9.438833303083678 L0.0,9.009688679024192 L0.0,8.467241992282842 L0.0,7.818314824680299 L0.0,7.071067811865477 L0.0,6.234898018587336 L0.0,5.320320765153367 L0.0,4.3388373911755815 L0.0,3.302790619551671 L0.0,2.2252093395631443 L0.0,1.1196447610330784 L0.0,8.862984952801966e-14 " />
			<path d="M0.0,-51.961524227066 L0.0,-53.08116898809908 L0.0,-54.186733566629144 L0.0,-55.26431484661767 L0.0,-56.30036161824158 L0.0,-57.28184499221936 L0.0,-58.19642224565334 L0.0,-59.032592038931476 L0.0,-59.7798390517463 L0.0,-60.428766219348844 L0.0,-60.971212906090194 L0.0,-61.40035753014968 L0.0,-61.71080334888424 L0.0,-61.89864632599843 L0.0,-61.961524227066 " />
			<path d="M0.0,-61.961524227066 L0.0,-61.71080334888424 L0.0,-60.971212906090194 L0.0,-59.7798390517463 L0.0,-58.19642224565334 L0.0,-56.30036161824158 L0.0,-54.186733566629144 L0.0,-51.961524227066 L0.0,-49.73631488750286 L0.0,-47.62268683589042 L0.0,-45.72662620847866 L0.0,-44.14320940238571 L0.0,-42.951835548041814 L0.0,-42.21224510524776 L0.0,-41.96152422706601 " />
			<path d="M0.0,-41.961524227066 L0.0,-42.02440212813357 L0.0,-42.21224510524776 L0.0,-42.522690923982324 L0.0,-42.95183554804181 L0.0,-43.49428223478316 L0.0,-44.1432094023857 L0.0,-44.890456415200525 L0.0,-45.72662620847866 L0.0,-46.64120346191263 L0.0,-47.62268683589042 L0.0,-48.65873360751433 L0.0,-49.73631488750286 L0.0,-50.84187946603292 L0.0,-51.961524227065915 " />
			<path d="M0.0,-2.4492935982950004e-15 L0.0,-1.119644761033081 L0.0,-2.2252093395631465 L0.0,-3.302790619551673 L0.0,-4.338837391175585 L0.0,-5.320320765153369 L0.0,-6.234898018587338 L0.0,-7.071067811865479 L0.0,-7.818314824680303 L0.0,-8.467241992282844 L0.0,-9.009688679024197 L0.0,-9.438833303083682 L0.0,-9.749279121818242 L0.0,-9.937122098932432 L0.0,-10.000000000000005 " />
			<path d="M0.0,-10.000000000000007 L0.0,-9.749279121818246 L0.0,-9.009688679024201 L0.0,-7.818314824680311 L0.0,-6.234898018587348 L0.0,-4.338837391175595 L0.0,-2.2252093395631576 L0.0,-1.3947689259246353e-14 L0.0,2.2252093395631305 L0.0,4.338837391175567 L0.0,6.234898018587321 L0.0,7.818314824680285 L0.0,9.009688679024181 L0.0,9.749279121818228 L0.0,9.999999999999982 " />
			<path d="M0.0,9.999999999999993 L0.0,9.937122098932418 L0.0,9.749279121818232 L0.0,9.43883330308367 L0.0,9.009688679024187 L0.0,8.467241992282839 L0.0,7.818314824680295 L0.0,7.071067811865473 L0.0,6.234898018587334 L0.0,5.320320765153364 L0.0,4.33883739117558 L0.0,3.3027906195516703 L0.0,2.225209339563144 L0.0,1.1196447610330784 L0.0,8.862984952801966e-14 " />
			<path d="M0.0,-51.961524227066 L0.0,-53.08116898809908 L0.0,-54.186733566629144 L0.0,-55.26431484661767 L0.0,-56.30036161824158 L0.0,-57.28184499221936 L0.0,-58.19642224565334 L0.0,-59.032592038931476 L0.0,-59.7798390517463 L0.0,-60.428766219348844 L0.0,-60.971212906090194 L0.0,-61.40035753014968 L0.0,-61.71080334888424 L0.0,-61.89864632599843 L0.0,-61.961524227066 " />
			<path d="M0.0,-61.961524227066 L0.0,-61.71080334888424 L0.0,-60.971212906090194 L0.0,-59.7798390517463 L0.0,-58.19642224565334 L0.0,-56.30036161824158 L0.0,-54.186733566629144 L0.0,-51.961524227066 L0.0,-49.73631488750286 L0.0,-47.62268683589042 L0.0,-45.72662620847866 L0.0,-44.14320940238571 L0.0,-42.951835548041814 L0.0,-42.21224510524776 L0.0,-41.96152422706601 " />
			<path d="M0.0,-41.961524227066 L0.0,-42.02440212813357 L0.0,-42.21224510524776 L0.0,-42.522690923982324 L0.0,-42.95183554804181 L0.0,-43.49428223478316 L0.0,-44.1432094023857 L0.0,-44.890456415200525 L0.0,-45.72662620847866 L0.0,-46.64120346191263 L0.0,-47.62268683589042 L0.0,-48.65873360751433 L0.0,-49.73631488750286 L0.0,-50.84187946603292 L0.0,-51.961524227065915 " />
			<path d="M0.0,-103.92304845412998 L0.0,-105.04269321516306 L0.0,-106.14825779369313 L0.0,-107.22583907368166 L0.0,-108.26188584530557 L0.0,-109.24336921928335 L0.0,-110.15794647271733 L0.0,-110.99411626599546 L0.0,-111.74136327881028 L0.0,-112.39029044641283 L0.0,-112.93273713315418 L0.0,-113.36188175721367 L0.0,-113.67232757594823 L0.0,-113.86017055306242 L0.0,-113.92304845413 " />
			<path d="M0.0,-113.92304845413 L0.0,-113.67232757594823 L0.0,-112.93273713315419 L0.0,-111.74136327881031 L0.0,-110.15794647271734 L0.0,-108.26188584530559 L0.0,-106.14825779369316 L0.0,-103.92304845413001 L0.0,-101.69783911456688 L0.0,-99.58421106295442 L0.0,-97.68815043554268 L0.0,-96.10473362944971 L0.0,-94.91335977510582 L0.0,-94.17376933231176 L0.0,-93.92304845413001 " />
			<path d="M0.0,-93.92304845413 L0.0,-93.98592635519756 L0.0,-94.17376933231176 L0.0,-94.48421515104631 L0.0,-94.9133597751058 L0.0,-95.45580646184715 L0.0,-96.10473362944968 L0.0,-96.85198064226451 L0.0,-97.68815043554265 L0.0,-98.60272768897661 L0.0,-99.5842110629544 L0.0,-100.62025783457831 L0.0,-101.69783911456683 L0.0,-102.8034036930969 L0.0,-103.9230484541299 " />
			<path d="M0.0,-103.92304845413 L0.0,-105.04269321516307 L0.0,-106.14825779369315 L0.0,-107.22583907368167 L0.0,-108.26188584530559 L0.0,-109.24336921928337 L0.0,-110.15794647271733 L0.0,-110.99411626599547 L0.0,-111.7413632788103 L0.0,-112.39029044641283 L0.0,-112.93273713315419 L0.0,-113.36188175721367 L0.0,-113.67232757594823 L0.0,-113.86017055306242 L0.0,-113.92304845413 " />
			<path d="M0.0,-113.92304845413 L0.0,-113.67232757594823 L0.0,-112.93273713315419 L0.0,-111.7413632788103 L0.0,-110.15794647271733 L0.0,-108.26188584530559 L0.0,-106.14825779369315 L0.0,-103.92304845413 L0.0,-101.69783911456686 L0.0,-99.58421106295442 L0.0,-97.68815043554267 L0.0,-96.1047336294497 L0.0,-94.9133597751058 L0.0,-94.17376933231176 L0.0,-93.92304845413001 " />
			<path d="M0.0,-93.92304845413 L0.0,-93.98592635519758 L0.0,-94.17376933231176 L0.0,-94.48421515104633 L0.0,-94.9133597751058 L0.0,-95.45580646184716 L0.0,-96.1047336294497 L0.0,-96.85198064226452 L0.0,-97.68815043554267 L0.0,-98.60272768897663 L0.0,-99.58421106295441 L0.0,-100.62025783457833 L0.0,-101.69783911456685 L0.0,-102.80340369309691 L0.0,-103.92304845412991 " />
			<path d="M20.0,103.9230484541 L20.0,105.04269321513337 L20.0,106.14825779366372 L20.0,107.22583907365251 L20.0,108.26188584527665 L20.0,109.24336921925462 L20.0,110.15794647268872 L20.0,110.99411626596694 L20.0,111.74136327878176 L20.0,112.39029044638426 L20.0,112.93273713312547 L20.0,113.36188175718475 L20.0,113.67232757591903 L20.0,113.86017055303286 L20.0,113.9230484541 " />
			<path d="M20.0,113.9230484541 L20.0,113.67232757591731 L20.0,112.9327371331224 L20.0,111.74136327877771 L20.0,110.1579464726841 L20.0,108.26188584527185 L20.0,106.14825779365911 L20.0,103.92304845409586 L20.0,101.69783911453283 L20.0,99.58421106292069 L20.0,97.68815043550943 L20.0,96.10473362941713 L20.0,94.91335977507401 L20.0,94.17376933228084 L20.0,93.92304845410001 " />
			<path d="M20.0,93.9230484541 L20.0,93.985926355168 L20.0,94.17376933228255 L20.0,94.4842151510174 L20.0,94.9133597750771 L20.0,95.45580646181858 L20.0,96.10473362942119 L20.0,96.851980642236 L20.0,97.68815043551406 L20.0,98.60272768894791 L20.0,99.5842110629255 L20.0,100.6202578345492 L20.0,101.69783911453746 L20.0,102.80340369306724 L20.0,103.92304845409991 " />
			<path d="M20.0,51.96152422706 L20.0,53.081168988093374 L20.0,54.18673356662372 L20.0,55.264314846612514 L20.0,56.30036161823665 L20.0,57.28184499221462 L20.0,58.196422245648726 L20.0,59.03259203892694 L20.0,59.779839051741774 L20.0,60.42876621934426 L20.0,60.971212906085476 L20.0,61.40035753014475 L20.0,61.710803348879026 L20.0,61.89864632599286 L20.0,61.96152422706 " />
			<path d="M20.0,61.96152422706 L20.0,61.71080334887732 L20.0,60.9712129060824 L20.0,59.779839051737724 L20.0,58.1964222456441 L20.0,56.300361618231854 L20.0,54.18673356661911 L20.0,51.96152422705587 L20.0,49.736314887492824 L20.0,47.62268683588069 L20.0,45.72662620846943 L20.0,44.143209402377124 L20.0,42.95183554803402 L20.0,42.21224510524085 L20.0,41.96152422706001 " />
			<path d="M20.0,41.96152422706 L20.0,42.02440212812801 L20.0,42.21224510524256 L20.0,42.52269092397741 L20.0,42.951835548037096 L20.0,43.49428223477858 L20.0,44.14320940238119 L20.0,44.890456415196 L20.0,45.726626208474066 L20.0,46.64120346190791 L20.0,47.62268683588551 L20.0,48.65873360750919 L20.0,49.736314887497464 L20.0,50.84187946602725 L20.0,51.96152422705992 " />
			<path d="M20.0,51.96152422706 L20.0,53.081168988093374 L20.0,54.18673356662372 L20.0,55.264314846612514 L20.0,56.30036161823665 L20.0,57.28184499221462 L20.0,58.196422245648726 L20.0,59.03259203892694 L20.0,59.779839051741774 L20.0,60.42876621934426 L20.0,60.971212906085476 L20.0,61.40035753014475 L20.0,61.710803348879026 L20.0,61.89864632599286 L20.0,61.96152422706 " />
			<path d="M20.0,61.96152422706 L20.0,61.71080334887732 L20.0,60.9712129060824 L20.0,59.779839051737724 L20.0,58.1964222456441 L20.0,56.300361618231854 L20.0,54.18673356661911 L20.0,51.96152422705587 L20.0,49.736314887492824 L20.0,47.62268683588069 L20.0,45.72662620846943 L20.0,44.143209402377124 L20.0,42.95183554803402 L20.0,42.21224510524085 L20.0,41.96152422706001 " />
			<path d="M20.0,41.96152422706 L20.0,42.02440212812801 L20.0,42.21224510524256 L20.0,42.52269092397741 L20.0,42.951835548037096 L20.0,43.49428223477858 L20.0,44.14320940238119 L20.0,44.890456415196 L20.0,45.726626208474066 L20.0,46.64120346190791 L20.0,47.62268683588551 L20.0,48.65873360750919 L20.0,49.736314887497464 L20.0,50.84187946602725 L20.0,51.96152422705992 " />
			<path d="M20.0,103.9230484541 L20.0,105.04269321513337 L20.0,106.14825779366372 L20.0,107.22583907365251 L20.0,108.26188584527665 L20.0,109.24336921925462 L20.0,110.15794647268872 L20.0,110.99411626596694 L20.0,111.74136327878176 L20.0,112.39029044638426 L20.0,112.93273713312547 L20.0,113.36188175718475 L20.0,113.67232757591903 L20.0,113.86017055303286 L20.0,113.9230484541 " />
			<path d="M20.0,113.9230484541 L20.0,113.67232757591731 L20.0,112.9327371331224 L20.0,111.74136327877771 L20.0,110.1579464726841 L20.0,108.26188584527185 L20.0,106.14825779365911 L20.0,103.92304845409586 L20.0,101.69783911453283 L20.0,99.58421106292069 L20.0,97.68815043550943 L20.0,96.10473362941713 L20.0,94.91335977507401 L20.0,94.17376933228084 L20.0,93.92304845410001 " />
			<path d="M20.0,93.9230484541 L20.0,93.985926355168 L20.0,94.17376933228255 L20.0,94.4842151510174 L20.0,94.9133597750771 L20.0,95.45580646181858 L20.0,96.10473362942119 L20.0,96.851980642236 L20.0,97.68815043551406 L20.0,98.60272768894791 L20.0,99.5842110629255 L20.0,100.6202578345492 L20.0,101.69783911453746 L20.0,102.80340369306724 L20.0,103.92304845409991 " />
			<path d="M20.0,103.9230484541 L20.0,105.04269321513337 L20.0,106.14825779366372 L20.0,107.22583907365251 L20.0,108.26188584527665 L20.0,109.24336921925462 L20.0,110.15794647268872 L20.0,110.99411626596694 L20.0,111.74136327878176 L20.0,112.39029044638426 L20.0,112.93273713312547 L20.0,113.36188175718475 L20.0,113.67232757591903 L20.0,113.86017055303286 L20.0,113.9230484541 " />
			<path d="M20.0,113.9230484541 L20.0,113.67232757591731 L20.0,112.9327371331224 L20.0,111.74136327877771 L20.0,110.1579464726841 L20.0,108.26188584527185 L20.0,106.14825779365911 L20.0,103.92304845409586 L20.0,101.69783911453283 L20.0,99.58421106292069 L20.0,97.68815043550943 L20.0,96.10473362941713 L20.0,94.91335977507401 L20.0,94.17376933228084 L20.0,93.92304845410001 " />
			<path d="M20.0,93.9230484541 L20.0,93.985926355168 L20.0,94.17376933228255 L20.0,94.4842151510174 L20.0,94.9133597750771 L20.0,95.45580646181858 L20.0,96.10473362942119 L20.0,96.851980642236 L20.0,97.68815043551406 L20.0,98.60272768894791 L20.0,99.5842110629255 L20.0,100.6202578345492 L20.0,101.69783911453746 L20.0,102.80340369306724 L20.0,103.92304845409991 " />
			<path d="M20.0,51.96152422706 L20.0,53.081168988093374 L20.0,54.18673356662372 L20.0,55.264314846612514 L20.0,56.30036161823665 L20.0,57.28184499221462 L20.0,58.196422245648726 L20.0,59.03259203892694 L20.0,59.779839051741774 L20.0,60.42876621934426 L20.0,60.971212906085476 L20.0,61.40035753014475 L20.0,61.710803348879026 L20.0,61.89864632599286 L20.0,61.96152422706 " />
			<path d="M20.0,61.96152422706 L20.0,61.71080334887732 L20.0,60.9712129060824 L20.0,59.779839051737724 L20.0,58.1964222456441 L20.0,56.300361618231854 L20.0,54.18673356661911 L20.0,51.96152422705587 L20.0,49.736314887492824 L20.0,47.62268683588069 L20.0,45.72662620846943 L20.0,44.143209402377124 L20.0,42.95183554803402 L20.0,42.21224510524085 L20.0,41.96152422706001 " />
			<path d="M20.0,41.96152422706 L20.0,42.02440212812801 L20.0,42.21224510524256 L20.0,42.52269092397741 L20.0,42.951835548037096 L20.0,43.49428223477858 L20.0,44.14320940238119 L20.0,44.890456415196 L20.0,45.726626208474066 L20.0,46.64120346190791 L20.0,47.62268683588551 L20.0,48.65873360750919 L20.0,49.736314887497464 L20.0,50.84187946602725 L20.0,51.96152422705992 " />
			<path d="M20.0,51.96152422706 L20.0,53.081168988093374 L20.0,54.18673356662372 L20.0,55.264314846612514 L20.0,56.30036161823665 L20.0,57.28184499221462 L20.0,58.196422245648726 L20.0,59.03259203892694 L20.0,59.779839051741774 L20.0,60.42876621934426 L20.0,60.971212906085476 L20.0,61.40035753014475 L20.0,61.710803348879026 L20.0,61.89864632599286 L20.0,61.96152422706 " />
			<path d="M20.0,61.96152422706 L20.0,61.71080334887732 L20.0,60.9712129060824 L20.0,59.779839051737724 L20.0,58.1964222456441 L20.0,56.300361618231854 L20.0,54.18673356661911 L20.0,51.96152422705587 L20.0,49.736314887492824 L20.0,47.62268683588069 L20.0,45.72662620846943 L20.0,44.143209402377124 L20.0,42.95183554803402 L20.0,42.21224510524085 L20.0,41.96152422706001 " />
			<path d="M20.0,41.96152422706 L20.0,42.02440212812801 L20.0,42.21224510524256 L20.0,42.52269092397741 L20.0,42.951835548037096 L20.0,43.49428223477858 L20.0,44.14320940238119 L20.0,44.890456415196 L20.0,45.726626208474066 L20.0,46.64120346190791 L20.0,47.62268683588551 L20.0,48.65873360750919 L20.0,49.736314887497464 L20.0,50.84187946602725 L20.0,51.96152422705992 " />
			<path d="M20.0,0.0 L20.0,1.1196447610333724 L20.0,2.2252093395637202 L20.0,3.302790619552508 L20.0,4.3388373911766465 L20.0,5.320320765154617 L20.0,6.234898018588721 L20.0,7.0710678118669374 L20.0,7.818314824681771 L20.0,8.467241992284256 L20.0,9.009688679025473 L20.0,9.438833303084749 L20.0,9.749279121819026 L20.0,9.937122098932855 L20.0,9.999999999999998 " />
			<path d="M20.0,10.0 L20.0,9.749279121817315 L20.0,9.009688679022396 L20.0,7.818314824677718 L20.0,6.2348980185841 L20.0,4.338837391171853 L20.0,2.22520933955911 L20.0,-4.1376867890034356e-12 L20.0,-2.225209339567178 L20.0,-4.338837391179309 L20.0,-6.23489801859057 L20.0,-7.818314824682878 L20.0,-9.009688679025986 L20.0,-9.749279121819157 L20.0,-9.99999999999999 " />
			<path d="M20.0,-10.0 L20.0,-9.937122098931995 L20.0,-9.749279121817446 L20.0,-9.4388333030826 L20.0,-9.009688679022904 L20.0,-8.46724199228142 L20.0,-7.818314824678815 L20.0,-7.071067811864001 L20.0,-6.234898018585935 L20.0,-5.320320765152097 L20.0,-4.338837391174495 L20.0,-3.3027906195508097 L20.0,-2.2252093395625403 L20.0,-1.1196447610327545 L20.0,-9.107234018216917e-14 " />
			<path d="M20.0,-51.961524227066 L20.0,-50.84187946603263 L20.0,-49.73631488750228 L20.0,-48.65873360751349 L20.0,-47.622686835889354 L20.0,-46.64120346191138 L20.0,-45.72662620847728 L20.0,-44.89045641519906 L20.0,-44.14320940238423 L20.0,-43.49428223478174 L20.0,-42.95183554804053 L20.0,-42.52269092398125 L20.0,-42.21224510524698 L20.0,-42.02440212813315 L20.0,-41.961524227066 " />
			<path d="M20.0,-41.961524227066 L20.0,-42.212245105248684 L20.0,-42.951835548043604 L20.0,-44.14320940238828 L20.0,-45.7266262084819 L20.0,-47.62268683589415 L20.0,-49.73631488750689 L20.0,-51.961524227070136 L20.0,-54.18673356663318 L20.0,-56.30036161824531 L20.0,-58.19642224565657 L20.0,-59.77983905174888 L20.0,-60.971212906091985 L20.0,-61.71080334888516 L20.0,-61.96152422706599 " />
			<path d="M20.0,-61.961524227066 L20.0,-61.898646325997994 L20.0,-61.710803348883445 L20.0,-61.4003575301486 L20.0,-60.97121290608891 L20.0,-60.42876621934742 L20.0,-59.779839051744815 L20.0,-59.032592038930005 L20.0,-58.19642224565194 L20.0,-57.2818449922181 L20.0,-56.300361618240494 L20.0,-55.26431484661681 L20.0,-54.18673356662854 L20.0,-53.08116898809875 L20.0,-51.961524227066086 " />
			<path d="M20.0,0.0 L20.0,1.1196447610333724 L20.0,2.2252093395637202 L20.0,3.302790619552508 L20.0,4.3388373911766465 L20.0,5.320320765154617 L20.0,6.234898018588721 L20.0,7.0710678118669374 L20.0,7.818314824681771 L20.0,8.467241992284256 L20.0,9.009688679025473 L20.0,9.438833303084749 L20.0,9.749279121819026 L20.0,9.937122098932855 L20.0,9.999999999999998 " />
			<path d="M20.0,10.0 L20.0,9.749279121817315 L20.0,9.009688679022396 L20.0,7.818314824677718 L20.0,6.2348980185841 L20.0,4.338837391171853 L20.0,2.22520933955911 L20.0,-4.1376867890034356e-12 L20.0,-2.225209339567178 L20.0,-4.338837391179309 L20.0,-6.23489801859057 L20.0,-7.818314824682878 L20.0,-9.009688679025986 L20.0,-9.749279121819157 L20.0,-9.99999999999999 " />
			<path d="M20.0,-10.0 L20.0,-9.937122098931995 L20.0,-9.749279121817446 L20.0,-9.4388333030826 L20.0,-9.009688679022904 L20.0,-8.46724199228142 L20.0,-7.818314824678815 L20.0,-7.071067811864001 L20.0,-6.234898018585935 L20.0,-5.320320765152097 L20.0,-4.338837391174495 L20.0,-3.3027906195508097 L20.0,-2.2252093395625403 L20.0,-1.1196447610327545 L20.0,-9.107234018216917e-14 " />
			<path d="M20.0,-51.961524227066 L20.0,-50.84187946603263 L20.0,-49.73631488750228 L20.0,-48.65873360751349 L20.0,-47.622686835889354 L20.0,-46.64120346191138 L20.0,-45.72662620847728 L20.0,-44.89045641519906 L20.0,-44.14320940238423 L20.0,-43.49428223478174 L20.0,-42.95183554804053 L20.0,-42.52269092398125 L20.0,-42.21224510524698 L20.0,-42.02440212813315 L20.0,-41.961524227066 " />
			<path d="M20.0,-41.961524227066 L20.0,-42.212245105248684 L20.0,-42.951835548043604 L20.0,-44.14320940238828 L20.0,-45.7266262084819 L20.0,-47.62268683589415 L20.0,-49.73631488750689 L20.0,-51.961524227070136 L20.0,-54.18673356663318 L20.0,-56.30036161824531 L20.0,-58.19642224565657 L20.0,-59.77983905174888 L20.0,-60.971212906091985 L20.0,-61.71080334888516 L20.0,-61.96152422706599 " />
			<path d="M20.0,-61.961524227066 L20.0,-61.898646325997994 L20.0,-61.710803348883445 L20.0,-61.4003575301486 L20.0,-60.97121290608891 L20.0,-60.42876621934742 L20.0,-59.779839051744815 L20.0,-59.032592038930005 L20.0,-58.19642224565194 L20.0,-57.2818449922181 L20.0,-56.300361618240494 L20.0,-55.26431484661681 L20.0,-54.18673356662854 L20.0,-53.08116898809875 L20.0,-51.961524227066086 " />
			<path d="M20.0,-103.92304845413 L20.0,-102.80340369309663 L20.0,-101.69783911456628 L20.0,-100.62025783457749 L20.0,-99.58421106295336 L20.0,-98.60272768897538 L20.0,-97.68815043554127 L20.0,-96.85198064226306 L20.0,-96.10473362944822 L20.0,-95.45580646184574 L20.0,-94.91335977510452 L20.0,-94.48421515104525 L20.0,-94.17376933231097 L20.0,-93.98592635519714 L20.0,-93.92304845413 " />
			<path d="M20.0,-93.92304845413 L20.0,-94.17376933231269 L20.0,-94.91335977510761 L20.0,-96.10473362945228 L20.0,-97.6881504355459 L20.0,-99.58421106295815 L20.0,-101.69783911457088 L20.0,-103.92304845413413 L20.0,-106.14825779369717 L20.0,-108.26188584530931 L20.0,-110.15794647272057 L20.0,-111.74136327881287 L20.0,-112.93273713315598 L20.0,-113.67232757594915 L20.0,-113.92304845412998 " />
			<path d="M20.0,-113.92304845413 L20.0,-113.86017055306199 L20.0,-113.67232757594745 L20.0,-113.3618817572126 L20.0,-112.9327371331529 L20.0,-112.39029044641141 L20.0,-111.74136327880882 L20.0,-110.994116265994 L20.0,-110.15794647271593 L20.0,-109.2433692192821 L20.0,-108.26188584530449 L20.0,-107.2258390736808 L20.0,-106.14825779369254 L20.0,-105.04269321516276 L20.0,-103.92304845413008 " />
			<path d="M20.0,0.0 L20.0,1.1196447610333724 L20.0,2.2252093395637202 L20.0,3.302790619552508 L20.0,4.3388373911766465 L20.0,5.320320765154617 L20.0,6.234898018588721 L20.0,7.0710678118669374 L20.0,7.818314824681771 L20.0,8.467241992284256 L20.0,9.009688679025473 L20.0,9.438833303084749 L20.0,9.749279121819026 L20.0,9.937122098932855 L20.0,9.999999999999998 " />
			<path d="M20.0,10.0 L20.0,9.749279121817315 L20.0,9.009688679022396 L20.0,7.818314824677718 L20.0,6.2348980185841 L20.0,4.338837391171853 L20.0,2.22520933955911 L20.0,-4.1376867890034356e-12 L20.0,-2.225209339567178 L20.0,-4.338837391179309 L20.0,-6.23489801859057 L20.0,-7.818314824682878 L20.0,-9.009688679025986 L20.0,-9.749279121819157 L20.0,-9.99999999999999 " />
			<path d="M20.0,-10.0 L20.0,-9.937122098931995 L20.0,-9.749279121817446 L20.0,-9.4388333030826 L20.0,-9.009688679022904 L20.0,-8.46724199228142 L20.0,-7.818314824678815 L20.0,-7.071067811864001 L20.0,-6.234898018585935 L20.0,-5.320320765152097 L20.0,-4.338837391174495 L20.0,-3.3027906195508097 L20.0,-2.2252093395625403 L20.0,-1.1196447610327545 L20.0,-9.107234018216917e-14 " />
			<path d="M20.0,0.0 L20.0,1.1196447610333724 L20.0,2.2252093395637202 L20.0,3.302790619552508 L20.0,4.3388373911766465 L20.0,5.320320765154617 L20.0,6.234898018588721 L20.0,7.0710678118669374 L20.0,7.818314824681771 L20.0,8.467241992284256 L20.0,9.009688679025473 L20.0,9.438833303084749 L20.0,9.749279121819026 L20.0,9.937122098932855 L20.0,9.999999999999998 " />
			<path d="M20.0,10.0 L20.0,9.749279121817315 L20.0,9.009688679022396 L20.0,7.818314824677718 L20.0,6.2348980185841 L20.0,4.338837391171853 L20.0,2.22520933955911 L20.0,-4.1376867890034356e-12 L20.0,-2.225209339567178 L20.0,-4.338837391179309 L20.0,-6.23489801859057 L20.0,-7.818314824682878 L20.0,-9.009688679025986 L20.0,-9.749279121819157 L20.0,-9.99999999999999 " />
			<path d="M20.0,-10.0 L20.0,-9.937122098931995 L20.0,-9.749279121817446 L20.0,-9.4388333030826 L20.0,-9.009688679022904 L20.0,-8.46724199228142 L20.0,-7.818314824678815 L20.0,-7.071067811864001 L20.0,-6.234898018585935 L20.0,-5.320320765152097 L20.0,-4.338837391174495 L20.0,-3.3027906195508097 L20.0,-2.2252093395625403 L20.0,-1.1196447610327545 L20.0,-9.107234018216917e-14 " />
			<path d="M20.0,-51.961524227066 L20.0,-50.84187946603263 L20.0,-49.73631488750228 L20.0,-48.65873360751349 L20.0,-47.622686835889354 L20.0,-46.64120346191138 L20.0,-45.72662620847728 L20.0,-44.89045641519906 L20.0,-44.14320940238423 L20.0,-43.49428223478174 L20.0,-42.95183554804053 L20.0,-42.52269092398125 L20.0,-42.21224510524698 L20.0,-42.02440212813315 L20.0,-41.961524227066 " />
			<path d="M20.0,-41.961524227066 L20.0,-42.212245105248684 L20.0,-42.951835548043604 L20.0,-44.14320940238828 L20.0,-45.7266262084819 L20.0,-47.62268683589415 L20.0,-49.73631488750689 L20.0,-51.961524227070136 L20.0,-54.18673356663318 L20.0,-56.30036161824531 L20.0,-58.19642224565657 L20.0,-59.77983905174888 L20.0,-60.971212906091985 L20.0,-61.71080334888516 L20.0,-61.96152422706599 " />
			<path d="M20.0,-61.961524227066 L20.0,-61.898646325997994 L20.0,-61.710803348883445 L20.0,-61.4003575301486 L20.0,-60.97121290608891 L20.0,-60.42876621934742 L20.0,-59.779839051744815 L20.0,-59.032592038930005 L20.0,-58.19642224565194 L20.0,-57.2818449922181 L20.0,-56.300361618240494 L20.0,-55.26431484661681 L20.0,-54.18673356662854 L20.0,-53.08116898809875 L20.0,-51.961524227066086 " />
			<path d="M20.0,0.0 L20.0,1.1196447610333724 L20.0,2.2252093395637202 L20.0,3.302790619552508 L20.0,4.3388373911766465 L20.0,5.320320765154617 L20.0,6.234898018588721 L20.0,7.0710678118669374 L20.0,7.818314824681771 L20.0,8.467241992284256 L20.0,9.009688679025473 L20.0,9.438833303084749 L20.0,9.749279121819026 L20.0,9.937122098932855 L20.0,9.999999999999998 " />
			<path d="M20.0,10.0 L20.0,9.749279121817315 L20.0,9.009688679022396 L20.0,7.818314824677718 L20.0,6.2348980185841 L20.0,4.338837391171853 L20.0,2.22520933955911 L20.0,-4.1376867890034356e-12 L20.0,-2.225209339567178 L20.0,-4.338837391179309 L20.0,-6.23489801859057 L20.0,-7.818314824682878 L20.0,-9.009688679025986 L20.0,-9.749279121819157 L20.0,-9.99999999999999 " />
			<path d="M20.0,-10.0 L20.0,-9.937122098931995 L20.0,-9.749279121817446 L20.0,-9.4388333030826 L20.0,-9.009688679022904 L20.0,-8.46724199228142 L20.0,-7.818314824678815 L20.0,-7.071067811864001 L20.0,-6.234898018585935 L20.0,-5.320320765152097 L20.0,-4.338837391174495 L20.0,-3.3027906195508097 L20.0,-2.2252093395625403 L20.0,-1.1196447610327545 L20.0,-9.107234018216917e-14 " />
			<path d="M20.0,-51.961524227066 L20.0,-50.84187946603263 L20.0,-49.73631488750228 L20.0,-48.65873360751349 L20.0,-47.622686835889354 L20.0,-46.64120346191138 L20.0,-45.72662620847728 L20.0,-44.89045641519906 L20.0,-44.14320940238423 L20.0,-43.49428223478174 L20.0,-42.95183554804053 L20.0,-42.52269092398125 L20.0,-42.21224510524698 L20.0,-42.02440212813315 L20.0,-41.961524227066 " />
			<path d="M20.0,-41.961524227066 L20.0,-42.212245105248684 L20.0,-42.951835548043604 L20.0,-44.14320940238828 L20.0,-45.7266262084819 L20.0,-47.62268683589415 L20.0,-49.73631488750689 L20.0,-51.961524227070136 L20.0,-54.18673356663318 L20.0,-56.30036161824531 L20.0,-58.19642224565657 L20.0,-59.77983905174888 L20.0,-60.971212906091985 L20.0,-61.71080334888516 L20.0,-61.96152422706599 " />
			<path d="M20.0,-61.961524227066 L20.0,-61.898646325997994 L20.0,-61.710803348883445 L20.0,-61.4003575301486 L20.0,-60.97121290608891 L20.0,-60.42876621934742 L20.0,-59.779839051744815 L20.0,-59.032592038930005 L20.0,-58.19642224565194 L20.0,-57.2818449922181 L20.0,-56.300361618240494 L20.0,-55.26431484661681 L20.0,-54.18673356662854 L20.0,-53.08116898809875 L20.0,-51.961524227066086 " />
			<path d="M20.0,-103.92304845413 L20.0,-102.80340369309663 L20.0,-101.69783911456628 L20.0,-100.62025783457749 L20.0,-99.58421106295336 L20.0,-98.60272768897538 L20.0,-97.68815043554127 L20.0,-96.85198064226306 L20.0,-96.10473362944822 L20.0,-95.45580646184574 L20.0,-94.91335977510452 L20.0,-94.48421515104525 L20.0,-94.17376933231097 L20.0,-93.98592635519714 L20.0,-93.92304845413 " />
			<path d="M20.0,-93.92304845413 L20.0,-94.17376933231269 L20.0,-94.91335977510761 L20.0,-96.10473362945228 L20.0,-97.6881504355459 L20.0,-99.58421106295815 L20.0,-101.69783911457088 L20.0,-103.92304845413413 L20.0,-106.14825779369717 L20.0,-108.26188584530931 L20.0,-110.15794647272057 L20.0,-111.74136327881287 L20.0,-112.93273713315598 L20.0,-113.67232757594915 L20.0,-113.92304845412998 " />
			<path d="M20.0,-113.92304845413 L20.0,-113.86017055306199 L20.0,-113.67232757594745 L20.0,-113.3618817572126 L20.0,-112.9327371331529 L20.0,-112.39029044641141 L20.0,-111.74136327880882 L20.0,-110.994116265994 L20.0,-110.15794647271593 L20.0,-109.2433692192821 L20.0,-108.26188584530449 L20.0,-107.2258390736808 L20.0,-106.14825779369254 L20.0,-105.04269321516276 L20.0,-103.92304845413008 " />
			<path d="M20.0,-103.92304845413 L20.0,-102.80340369309663 L20.0,-101.69783911456628 L20.0,-100.62025783457749 L20.0,-99.58421106295336 L20.0,-98.60272768897538 L20.0,-97.68815043554127 L20.0,-96.85198064226306 L20.0,-96.10473362944822 L20.0,-95.45580646184574 L20.0,-94.91335977510452 L20.0,-94.48421515104525 L20.0,-94.17376933231097 L20.0,-93.98592635519714 L20.0,-93.92304845413 " />
			<path d="M20.0,-93.92304845413 L20.0,-94.17376933231269 L20.0,-94.91335977510761 L20.0,-96.10473362945228 L20.0,-97.6881504355459 L20.0,-99.58421106295815 L20.0,-101.69783911457088 L20.0,-103.92304845413413 L20.0,-106.14825779369717 L20.0,-108.26188584530931 L20.0,-110.15794647272057 L20.0,-111.74136327881287 L20.0,-112.93273713315598 L20.0,-113.67232757594915 L20.0,-113.92304845412998 " />
			<path d="M20.0,-113.92304845413 L20.0,-113.86017055306199 L20.0,-113.67232757594745 L20.0,-113.3618817572126 L20.0,-112.9327371331529 L20.0,-112.39029044641141 L20.0,-111.74136327880882 L20.0,-110.994116265994 L20.0,-110.15794647271593 L20.0,-109.2433692192821 L20.0,-108.26188584530449 L20.0,-107.2258390736808 L20.0,-106.14825779369254 L20.0,-105.04269321516276 L20.0,-103.92304845413008 " />
			<path d="M20.0,113.9230484541 L0.0,113.9230484541 " />
			<path d="M20.0,93.9230484541 L0.0,93.9230484541 " />
			<path d="M20.0,61.96152422706 L0.0,61.96152422706 " />
			<path d="M20.0,41.96152422706 L0.0,41.96152422706 " />
			<path d="M20.0,61.96152422706 L0.0,61.96152422706 " />
			<path d="M20.0,41.96152422706 L0.0,41.96152422706 " />
			<path d="M20.0,113.9230484541 L0.0,113.9230484541 " />
			<path d="M20.0,93.9230484541 L0.0,93.9230484541 " />
			<path d="M20.0,113.9230484541 L0.0,113.9230484541 " />
			<path d="M20.0,93.9230484541 L0.0,93.9230484541 " />
			<path d="M20.0,61.96152422706 L0.0,61.96152422706 " />
			<path d="M20.0,41.96152422706 L0.0,41.96152422706 " />
			<path d="M20.0,61.96152422706 L0.0,61.96152422706 " />
			<path d="M20.0,41.96152422706 L0.0,41.96152422706 " />
			<path d="M20.0,10.0 L0.0,10.0 " />
			<path d="M20.0,-10.0 L0.0,-10.0 " />
			<path d="M20.0,-41.961524227066 L0.0,-41.961524227066 " />
			<path d="M20.0,-61.961524227066 L0.0,-61.961524227066 " />
			<path d="M20.0,10.0 L0.0,10.0 " />
			<path d="M20.0,-10.0 L0.0,-10.0 " />
			<path d="M20.0,-41.961524227066 L0.0,-41.961524227066 " />
			<path d="M20.0,-61.961524227066 L0.0,-61.961524227066 " />
			<path d="M20.0,-93.92304845413 L0.0,-93.92304845413 " />
			<path d="M20.0,-113.92304845413 L0.0,-113.92304845413 " />
			<path d="M20.0,10.0 L0.0,10.0 " />
			<path d="M20.0,-10.0 L0.0,-10.0 " />
			<path d="M20.0,10.0 L0.0,10.0 " />
			<path d="M20.0,-10.0 L0.0,-10.0 " />
			<path d="M20.0,-41.961524227066 L0.0,-41.961524227066 " />
			<path d="M20.0,-61.961524227066 L0.0,-61.961524227066 " />
			<path d="M20.0,10.0 L0.0,10.0 " />
			<path d="M20.0,-10.0 L0.0,-10.0 " />
			<path d="M20.0,-41.961524227066 L0.0,-41.961524227066 " />
			<path d="M20.0,-61.961524227066 L0.0,-61.961524227066 " />
			<path d="M20.0,-93.92304845413 L0.0,-93.92304845413 " />
			<path d="M20.0,-113.92304845413 L0.0,-113.92304845413 " />
			<path d="M20.0,-93.92304845413 L0.0,-93.92304845413 " />
			<path d="M20.0,-113.92304845413 L0.0,-113.92304845413 " />

       </g>

       <!-- solid lines -->
       <g  stroke="rgb(148,163,184)" fill="none">
			<path d="M0.0,0.0 L0.0,-22.392895220661572 L0.0,-44.50418679126288 L0.0,-66.05581239103341 L0.0,-86.77674782351163 L0.0,-106.40641530306732 L0.0,-124.6979603717467 L0.0,-141.42135623730948 L0.0,-156.36629649360597 L0.0,-169.34483984565682 L0.0,-180.19377358048382 L0.0,-188.77666606167352 L0.0,-194.98558243636472 L0.0,-198.74244197864851 L0.0,-199.99999999999997 " />
			<path d="M0.0,200.0 L0.0,198.74244197864851 L0.0,194.98558243636472 L0.0,188.77666606167352 L0.0,180.19377358048385 L0.0,169.34483984565685 L0.0,156.36629649360597 L0.0,141.42135623730954 L0.0,124.69796037174675 L0.0,106.40641530306736 L0.0,86.77674782351167 L0.0,66.05581239103347 L0.0,44.50418679126293 L0.0,22.392895220661618 L0.0,1.8187822683848e-12 " />
			<path d="M20.0,0.0 L20.0,-22.392895220661572 L20.0,-44.50418679126288 L20.0,-66.05581239103341 L20.0,-86.77674782351163 L20.0,-106.40641530306732 L20.0,-124.6979603717467 L20.0,-141.42135623730948 L20.0,-156.36629649360597 L20.0,-169.34483984565682 L20.0,-180.19377358048382 L20.0,-188.77666606167352 L20.0,-194.98558243636472 L20.0,-198.74244197864851 L20.0,-199.99999999999997 " />
			<path d="M20.0,200.0 L20.0,198.74244197864851 L20.0,194.98558243636472 L20.0,188.77666606167352 L20.0,180.19377358048385 L20.0,169.34483984565685 L20.0,156.36629649360597 L20.0,141.42135623730954 L20.0,124.69796037174675 L20.0,106.40641530306736 L20.0,86.77674782351167 L20.0,66.05581239103347 L20.0,44.50418679126293 L20.0,22.392895220661618 L20.0,1.8187822683848e-12 " />
			<path d="M20.0,200.0 L0.0,200.0 " />
			<path d="M20.0,-200.0 L0.0,-200.0 " />

       </g>
    </g>
    
</svg>
