<?xml version="1.0" encoding="UTF-8" standalone="no"?>
<svg
   xmlns:svg="http://www.w3.org/2000/svg"
   xmlns="http://www.w3.org/2000/svg"
   width="400.0"
   height="300.0"

>
    <g transform="scale(2.8124999929687493, -2.8124999929687493)   translate(11.777777782222223,-41.77777788222223)" stroke-width="0.5"  fill="none">
       <!-- hidden lines -->
       <g  stroke="rgb(160,160,160)" fill="none" stroke-dasharray="0.5,0.5" >
			<path d="M26.382875525343113,0.0 L26.382875525343113,5.0 " />
			<path d="M30.0,5.0 L26.382875525343113,5.0 " />
			<path d="M30.0,0.0 L30.0,5.0 " />
			<path d="M26.382875525343113,0.0 L30.0,0.0 " />
			<path d="M22.765751050686237,0.0 L22.765751050686237,5.0 " />
			<path d="M26.382875525343113,5.0 L22.765751050686237,5.0 " />
			<path d="M26.382875525343113,0.0 L26.382875525343113,5.0 " />
			<path d="M22.765751050686237,0.0 L26.382875525343113,0.0 " />
			<path d="M19.148626576029358,0.0 L19.148626576029358,5.0 " />
			<path d="M22.765751050686237,5.0 L19.148626576029358,5.0 " />
			<path d="M22.765751050686237,0.0 L22.765751050686237,5.0 " />
			<path d="M19.148626576029358,0.0 L22.765751050686237,0.0 " />
			<path d="M15.531502101372467,0.0 L15.531502101372467,5.0 " />
			<path d="M19.148626576029358,5.0 L15.531502101372467,5.0 " />
			<path d="M19.148626576029358,0.0 L19.148626576029358,5.0 " />
			<path d="M15.531502101372467,0.0 L19.148626576029358,0.0 " />
			<path d="M48.88287552534322,20.0 L48.88287552534322,19.498558243636474 L48.88287552534322,18.019377358048384 L48.88287552534322,15.636629649360598 L48.88287552534322,12.469796037174671 L48.88287552534322,8.677674782351165 L48.88287552534322,4.45041867912629 L48.88287552534322,2.4492935982947065e-15 L48.88287552534322,-4.450418679126286 L48.88287552534322,-8.67767478235116 L48.88287552534322,-12.469796037174667 L48.88287552534322,-15.636629649360593 L48.88287552534322,-18.01937735804838 L48.88287552534322,-19.498558243636474 L48.88287552534322,-19.99999999999998 " />
			<path d="M60.0,-20.0 L60.0,-19.498558243636474 L60.0,-18.019377358048384 L60.0,-15.636629649360598 L60.0,-12.469796037174671 L60.0,-8.677674782351165 L60.0,-4.45041867912629 L60.0,-2.4492935982947065e-15 L60.0,4.450418679126286 L60.0,8.67767478235116 L60.0,12.469796037174667 L60.0,15.636629649360593 L60.0,18.01937735804838 L60.0,19.498558243636474 L60.0,19.99999999999998 " />
			<path d="M48.88287552534322,0.0 L48.88287552534322,-1.6794671415496178 L48.88287552534322,-3.337814009344716 L48.88287552534322,-4.9541859293275055 L48.88287552534322,-6.508256086763372 L48.88287552534322,-7.980481147730049 L48.88287552534322,-9.352347027881002 L48.88287552534322,-10.606601717798211 L48.88287552534322,-11.727472237020446 L48.88287552534322,-12.700862988424262 L48.88287552534322,-13.514533018536287 L48.88287552534322,-14.158249954625514 L48.88287552534322,-14.623918682727354 L48.88287552534322,-14.905683148398639 L48.88287552534322,-14.999999999999998 " />
			<path d="M48.88287552534322,-15.0 L48.88287552534322,-14.623918682727354 L48.88287552534322,-13.514533018536287 L48.88287552534322,-11.727472237020448 L48.88287552534322,-9.352347027881004 L48.88287552534322,-6.508256086763374 L48.88287552534322,-3.3378140093447177 L48.88287552534322,-1.83697019872103e-15 L48.88287552534322,3.337814009344714 L48.88287552534322,6.50825608676337 L48.88287552534322,9.352347027881 L48.88287552534322,11.727472237020445 L48.88287552534322,13.514533018536286 L48.88287552534322,14.623918682727354 L48.88287552534322,14.999999999999986 " />
			<path d="M48.88287552534322,15.0 L48.88287552534322,14.905683148398639 L48.88287552534322,14.623918682727354 L48.88287552534322,14.158249954625516 L48.88287552534322,13.514533018536289 L48.88287552534322,12.700862988424264 L48.88287552534322,11.727472237020448 L48.88287552534322,10.606601717798215 L48.88287552534322,9.352347027881006 L48.88287552534322,7.9804811477300515 L48.88287552534322,6.508256086763375 L48.88287552534322,4.95418592932751 L48.88287552534322,3.3378140093447195 L48.88287552534322,1.6794671415496214 L48.88287552534322,1.3671953257575502e-13 " />
			<path d="M60.0,0.0 L60.0,-1.6794671415496178 L60.0,-3.337814009344716 L60.0,-4.9541859293275055 L60.0,-6.508256086763372 L60.0,-7.980481147730049 L60.0,-9.352347027881002 L60.0,-10.606601717798211 L60.0,-11.727472237020446 L60.0,-12.700862988424262 L60.0,-13.514533018536287 L60.0,-14.158249954625514 L60.0,-14.623918682727354 L60.0,-14.905683148398639 L60.0,-14.999999999999998 " />
			<path d="M60.0,-15.0 L60.0,-14.623918682727354 L60.0,-13.514533018536287 L60.0,-11.727472237020448 L60.0,-9.352347027881004 L60.0,-6.508256086763374 L60.0,-3.3378140093447177 L60.0,-1.83697019872103e-15 L60.0,3.337814009344714 L60.0,6.50825608676337 L60.0,9.352347027881 L60.0,11.727472237020445 L60.0,13.514533018536286 L60.0,14.623918682727354 L60.0,14.999999999999986 " />
			<path d="M60.0,15.0 L60.0,14.905683148398639 L60.0,14.623918682727354 L60.0,14.158249954625516 L60.0,13.514533018536289 L60.0,12.700862988424264 L60.0,11.727472237020448 L60.0,10.606601717798215 L60.0,9.352347027881006 L60.0,7.9804811477300515 L60.0,6.508256086763375 L60.0,4.95418592932751 L60.0,3.3378140093447195 L60.0,1.6794671415496214 L60.0,1.3671953257575502e-13 " />
			<path d="M48.88287552534322,20.0 L48.88287552534322,19.498558243636474 L48.88287552534322,18.019377358048384 L48.88287552534322,15.636629649360598 L48.88287552534322,12.469796037174671 L48.88287552534322,8.677674782351165 L48.88287552534322,4.45041867912629 L48.88287552534322,2.4492935982947065e-15 L48.88287552534322,-4.450418679126286 L48.88287552534322,-8.67767478235116 L48.88287552534322,-12.469796037174667 L48.88287552534322,-15.636629649360593 L48.88287552534322,-18.01937735804838 L48.88287552534322,-19.498558243636474 L48.88287552534322,-19.99999999999998 " />
			<path d="M37.76575105068649,20.0 L37.76575105068649,19.498558243636474 L37.76575105068649,18.019377358048384 L37.76575105068649,15.636629649360598 L37.76575105068649,12.469796037174671 L37.76575105068649,8.677674782351165 L37.76575105068649,4.45041867912629 L37.76575105068649,2.4492935982947065e-15 L37.76575105068649,-4.450418679126286 L37.76575105068649,-8.67767478235116 L37.76575105068649,-12.469796037174667 L37.76575105068649,-15.636629649360593 L37.76575105068649,-18.01937735804838 L37.76575105068649,-19.498558243636474 L37.76575105068649,-19.99999999999998 " />
			<path d="M48.88287552534322,0.0 L48.88287552534322,-1.6794671415496178 L48.88287552534322,-3.337814009344716 L48.88287552534322,-4.9541859293275055 L48.88287552534322,-6.508256086763372 L48.88287552534322,-7.980481147730049 L48.88287552534322,-9.352347027881002 L48.88287552534322,-10.606601717798211 L48.88287552534322,-11.727472237020446 L48.88287552534322,-12.700862988424262 L48.88287552534322,-13.514533018536287 L48.88287552534322,-14.158249954625514 L48.88287552534322,-14.623918682727354 L48.88287552534322,-14.905683148398639 L48.88287552534322,-14.999999999999998 " />
			<path d="M48.88287552534322,-15.0 L48.88287552534322,-14.623918682727354 L48.88287552534322,-13.514533018536287 L48.88287552534322,-11.727472237020448 L48.88287552534322,-9.352347027881004 L48.88287552534322,-6.508256086763374 L48.88287552534322,-3.3378140093447177 L48.88287552534322,-1.83697019872103e-15 L48.88287552534322,3.337814009344714 L48.88287552534322,6.50825608676337 L48.88287552534322,9.352347027881 L48.88287552534322,11.727472237020445 L48.88287552534322,13.514533018536286 L48.88287552534322,14.623918682727354 L48.88287552534322,14.999999999999986 " />
			<path d="M48.88287552534322,15.0 L48.88287552534322,14.905683148398639 L48.88287552534322,14.623918682727354 L48.88287552534322,14.158249954625516 L48.88287552534322,13.514533018536289 L48.88287552534322,12.700862988424264 L48.88287552534322,11.727472237020448 L48.88287552534322,10.606601717798215 L48.88287552534322,9.352347027881006 L48.88287552534322,7.9804811477300515 L48.88287552534322,6.508256086763375 L48.88287552534322,4.95418592932751 L48.88287552534322,3.3378140093447195 L48.88287552534322,1.6794671415496214 L48.88287552534322,1.3671953257575502e-13 " />
			<path d="M37.76575105068649,0.0 L37.76575105068649,-1.6794671415496178 L37.76575105068649,-3.337814009344716 L37.76575105068649,-4.9541859293275055 L37.76575105068649,-6.508256086763372 L37.76575105068649,-7.980481147730049 L37.76575105068649,-9.352347027881002 L37.76575105068649,-10.606601717798211 L37.76575105068649,-11.727472237020446 L37.76575105068649,-12.700862988424262 L37.76575105068649,-13.514533018536287 L37.76575105068649,-14.158249954625514 L37.76575105068649,-14.623918682727354 L37.76575105068649,-14.905683148398639 L37.76575105068649,-14.999999999999998 " />
			<path d="M37.76575105068649,-15.0 L37.76575105068649,-14.623918682727354 L37.76575105068649,-13.514533018536287 L37.76575105068649,-11.727472237020448 L37.76575105068649,-9.352347027881004 L37.76575105068649,-6.508256086763374 L37.76575105068649,-3.3378140093447177 L37.76575105068649,-1.83697019872103e-15 L37.76575105068649,3.337814009344714 L37.76575105068649,6.50825608676337 L37.76575105068649,9.352347027881 L37.76575105068649,11.727472237020445 L37.76575105068649,13.514533018536286 L37.76575105068649,14.623918682727354 L37.76575105068649,14.999999999999986 " />
			<path d="M37.76575105068649,15.0 L37.76575105068649,14.905683148398639 L37.76575105068649,14.623918682727354 L37.76575105068649,14.158249954625516 L37.76575105068649,13.514533018536289 L37.76575105068649,12.700862988424264 L37.76575105068649,11.727472237020448 L37.76575105068649,10.606601717798215 L37.76575105068649,9.352347027881006 L37.76575105068649,7.9804811477300515 L37.76575105068649,6.508256086763375 L37.76575105068649,4.95418592932751 L37.76575105068649,3.3378140093447195 L37.76575105068649,1.6794671415496214 L37.76575105068649,1.3671953257575502e-13 " />
			<path d="M26.64862657602962,0.0 L26.64862657602962,0.36095219552348157 L26.64862657602962,0.7217868134877208 L26.64862657602962,1.082386314633512 L26.64862657602962,1.4426332362892478 L26.64862657602962,1.8024102306335321 L26.64862657602962,2.1616001029203815 L26.64862657602962,2.5200858496545626 L26.64862657602962,2.8777506967046347 L26.64862657602962,3.2344781373412723 L26.64862657602962,3.5901519701884905 L26.64862657602962,3.944656337075398 L26.64862657602962,4.297875760776155 L26.64862657602962,4.649695182625846 L26.64862657602962,4.999999999999989 " />
			<path d="M26.64862657602962,20.0 L26.64862657602962,19.498558243636474 L26.64862657602962,18.019377358048384 L26.64862657602962,15.636629649360598 L26.64862657602962,12.469796037174671 L26.64862657602962,8.677674782351165 L26.64862657602962,4.45041867912629 L26.64862657602962,2.4492935982947065e-15 L26.64862657602962,-4.450418679126286 L26.64862657602962,-8.67767478235116 L26.64862657602962,-12.469796037174667 L26.64862657602962,-15.636629649360593 L26.64862657602962,-18.01937735804838 L26.64862657602962,-19.498558243636474 L26.64862657602962,-19.99999999999998 " />
			<path d="M26.64862657602962,0.0 L30.0,0.0 " />
			<path d="M37.76575105068649,20.0 L37.76575105068649,19.498558243636474 L37.76575105068649,18.019377358048384 L37.76575105068649,15.636629649360598 L37.76575105068649,12.469796037174671 L37.76575105068649,8.677674782351165 L37.76575105068649,4.45041867912629 L37.76575105068649,2.4492935982947065e-15 L37.76575105068649,-4.450418679126286 L37.76575105068649,-8.67767478235116 L37.76575105068649,-12.469796037174667 L37.76575105068649,-15.636629649360593 L37.76575105068649,-18.01937735804838 L37.76575105068649,-19.498558243636474 L37.76575105068649,-19.99999999999998 " />
			<path d="M26.64862657602962,0.0 L26.64862657602962,-1.6794671415496178 L26.64862657602962,-3.337814009344716 L26.64862657602962,-4.9541859293275055 L26.64862657602962,-6.508256086763372 L26.64862657602962,-7.980481147730049 L26.64862657602962,-9.352347027881002 L26.64862657602962,-10.606601717798211 L26.64862657602962,-11.727472237020446 L26.64862657602962,-12.700862988424262 L26.64862657602962,-13.514533018536287 L26.64862657602962,-14.158249954625514 L26.64862657602962,-14.623918682727354 L26.64862657602962,-14.905683148398639 L26.64862657602962,-14.999999999999998 " />
			<path d="M26.64862657602962,-15.0 L26.64862657602962,-14.623918682727354 L26.64862657602962,-13.514533018536287 L26.64862657602962,-11.727472237020448 L26.64862657602962,-9.352347027881004 L26.64862657602962,-6.508256086763374 L26.64862657602962,-3.3378140093447177 L26.64862657602962,-1.83697019872103e-15 L26.64862657602962,3.337814009344714 L26.64862657602962,6.50825608676337 L26.64862657602962,9.352347027881 L26.64862657602962,11.727472237020445 L26.64862657602962,13.514533018536286 L26.64862657602962,14.623918682727354 L26.64862657602962,14.999999999999986 " />
			<path d="M26.64862657602962,15.0 L26.64862657602962,14.905683148398639 L26.64862657602962,14.623918682727354 L26.64862657602962,14.158249954625516 L26.64862657602962,13.514533018536289 L26.64862657602962,12.700862988424264 L26.64862657602962,11.727472237020448 L26.64862657602962,10.606601717798215 L26.64862657602962,9.352347027881006 L26.64862657602962,7.9804811477300515 L26.64862657602962,6.508256086763375 L26.64862657602962,4.95418592932751 L26.64862657602962,3.3378140093447195 L26.64862657602962,1.6794671415496214 L26.64862657602962,1.3671953257575502e-13 " />
			<path d="M37.76575105068649,0.0 L37.76575105068649,-1.6794671415496178 L37.76575105068649,-3.337814009344716 L37.76575105068649,-4.9541859293275055 L37.76575105068649,-6.508256086763372 L37.76575105068649,-7.980481147730049 L37.76575105068649,-9.352347027881002 L37.76575105068649,-10.606601717798211 L37.76575105068649,-11.727472237020446 L37.76575105068649,-12.700862988424262 L37.76575105068649,-13.514533018536287 L37.76575105068649,-14.158249954625514 L37.76575105068649,-14.623918682727354 L37.76575105068649,-14.905683148398639 L37.76575105068649,-14.999999999999998 " />
			<path d="M37.76575105068649,-15.0 L37.76575105068649,-14.623918682727354 L37.76575105068649,-13.514533018536287 L37.76575105068649,-11.727472237020448 L37.76575105068649,-9.352347027881004 L37.76575105068649,-6.508256086763374 L37.76575105068649,-3.3378140093447177 L37.76575105068649,-1.83697019872103e-15 L37.76575105068649,3.337814009344714 L37.76575105068649,6.50825608676337 L37.76575105068649,9.352347027881 L37.76575105068649,11.727472237020445 L37.76575105068649,13.514533018536286 L37.76575105068649,14.623918682727354 L37.76575105068649,14.999999999999986 " />
			<path d="M37.76575105068649,15.0 L37.76575105068649,14.905683148398639 L37.76575105068649,14.623918682727354 L37.76575105068649,14.158249954625516 L37.76575105068649,13.514533018536289 L37.76575105068649,12.700862988424264 L37.76575105068649,11.727472237020448 L37.76575105068649,10.606601717798215 L37.76575105068649,9.352347027881006 L37.76575105068649,7.9804811477300515 L37.76575105068649,6.508256086763375 L37.76575105068649,4.95418592932751 L37.76575105068649,3.3378140093447195 L37.76575105068649,1.6794671415496214 L37.76575105068649,1.3671953257575502e-13 " />
			<path d="M15.531502101372467,0.0 L26.64862657602962,0.0 " />
			<path d="M26.64862657602962,0.0 L26.64862657602962,0.36095219552348157 L26.64862657602962,0.7217868134877208 L26.64862657602962,1.082386314633512 L26.64862657602962,1.4426332362892478 L26.64862657602962,1.8024102306335321 L26.64862657602962,2.1616001029203815 L26.64862657602962,2.5200858496545626 L26.64862657602962,2.8777506967046347 L26.64862657602962,3.2344781373412723 L26.64862657602962,3.5901519701884905 L26.64862657602962,3.944656337075398 L26.64862657602962,4.297875760776155 L26.64862657602962,4.649695182625846 L26.64862657602962,4.999999999999989 " />
			<path d="M26.64862657602962,20.0 L26.64862657602962,19.498558243636474 L26.64862657602962,18.019377358048384 L26.64862657602962,15.636629649360598 L26.64862657602962,12.469796037174671 L26.64862657602962,8.677674782351165 L26.64862657602962,4.45041867912629 L26.64862657602962,2.4492935982947065e-15 L26.64862657602962,-4.450418679126286 L26.64862657602962,-8.67767478235116 L26.64862657602962,-12.469796037174667 L26.64862657602962,-15.636629649360593 L26.64862657602962,-18.01937735804838 L26.64862657602962,-19.498558243636474 L26.64862657602962,-19.99999999999998 " />
			<path d="M15.531502101372467,0.0 L15.531502101372467,0.36095219552348157 L15.531502101372467,0.7217868134877208 L15.531502101372467,1.082386314633512 L15.531502101372467,1.4426332362892478 L15.531502101372467,1.8024102306335321 L15.531502101372467,2.1616001029203815 L15.531502101372467,2.5200858496545626 L15.531502101372467,2.8777506967046347 L15.531502101372467,3.2344781373412723 L15.531502101372467,3.5901519701884905 L15.531502101372467,3.944656337075398 L15.531502101372467,4.297875760776155 L15.531502101372467,4.649695182625846 L15.531502101372467,4.999999999999989 " />
			<path d="M15.531502101372467,20.0 L15.531502101372467,19.498558243636474 L15.531502101372467,18.019377358048384 L15.531502101372467,15.636629649360598 L15.531502101372467,12.469796037174671 L15.531502101372467,8.677674782351165 L15.531502101372467,4.45041867912629 L15.531502101372467,2.4492935982947065e-15 L15.531502101372467,-4.450418679126286 L15.531502101372467,-8.67767478235116 L15.531502101372467,-12.469796037174667 L15.531502101372467,-15.636629649360593 L15.531502101372467,-18.01937735804838 L15.531502101372467,-19.498558243636474 L15.531502101372467,-19.99999999999998 " />
			<path d="M26.64862657602962,0.0 L26.64862657602962,-1.6794671415496178 L26.64862657602962,-3.337814009344716 L26.64862657602962,-4.9541859293275055 L26.64862657602962,-6.508256086763372 L26.64862657602962,-7.980481147730049 L26.64862657602962,-9.352347027881002 L26.64862657602962,-10.606601717798211 L26.64862657602962,-11.727472237020446 L26.64862657602962,-12.700862988424262 L26.64862657602962,-13.514533018536287 L26.64862657602962,-14.158249954625514 L26.64862657602962,-14.623918682727354 L26.64862657602962,-14.905683148398639 L26.64862657602962,-14.999999999999998 " />
			<path d="M26.64862657602962,-15.0 L26.64862657602962,-14.623918682727354 L26.64862657602962,-13.514533018536287 L26.64862657602962,-11.727472237020448 L26.64862657602962,-9.352347027881004 L26.64862657602962,-6.508256086763374 L26.64862657602962,-3.3378140093447177 L26.64862657602962,-1.83697019872103e-15 L26.64862657602962,3.337814009344714 L26.64862657602962,6.50825608676337 L26.64862657602962,9.352347027881 L26.64862657602962,11.727472237020445 L26.64862657602962,13.514533018536286 L26.64862657602962,14.623918682727354 L26.64862657602962,14.999999999999986 " />
			<path d="M26.64862657602962,15.0 L26.64862657602962,14.905683148398639 L26.64862657602962,14.623918682727354 L26.64862657602962,14.158249954625516 L26.64862657602962,13.514533018536289 L26.64862657602962,12.700862988424264 L26.64862657602962,11.727472237020448 L26.64862657602962,10.606601717798215 L26.64862657602962,9.352347027881006 L26.64862657602962,7.9804811477300515 L26.64862657602962,6.508256086763375 L26.64862657602962,4.95418592932751 L26.64862657602962,3.3378140093447195 L26.64862657602962,1.6794671415496214 L26.64862657602962,1.3671953257575502e-13 " />
			<path d="M15.531502101372467,0.0 L15.531502101372467,-1.6794671415496178 L15.531502101372467,-3.337814009344716 L15.531502101372467,-4.9541859293275055 L15.531502101372467,-6.508256086763372 L15.531502101372467,-7.980481147730049 L15.531502101372467,-9.352347027881002 L15.531502101372467,-10.606601717798211 L15.531502101372467,-11.727472237020446 L15.531502101372467,-12.700862988424262 L15.531502101372467,-13.514533018536287 L15.531502101372467,-14.158249954625514 L15.531502101372467,-14.623918682727354 L15.531502101372467,-14.905683148398639 L15.531502101372467,-14.999999999999998 " />
			<path d="M15.531502101372467,-15.0 L15.531502101372467,-14.623918682727354 L15.531502101372467,-13.514533018536287 L15.531502101372467,-11.727472237020448 L15.531502101372467,-9.352347027881004 L15.531502101372467,-6.508256086763374 L15.531502101372467,-3.3378140093447177 L15.531502101372467,-1.83697019872103e-15 L15.531502101372467,3.337814009344714 L15.531502101372467,6.50825608676337 L15.531502101372467,9.352347027881 L15.531502101372467,11.727472237020445 L15.531502101372467,13.514533018536286 L15.531502101372467,14.623918682727354 L15.531502101372467,14.999999999999986 " />
			<path d="M15.531502101372467,15.0 L15.531502101372467,14.905683148398639 L15.531502101372467,14.623918682727354 L15.531502101372467,14.158249954625516 L15.531502101372467,13.514533018536289 L15.531502101372467,12.700862988424264 L15.531502101372467,11.727472237020448 L15.531502101372467,10.606601717798215 L15.531502101372467,9.352347027881006 L15.531502101372467,7.9804811477300515 L15.531502101372467,6.508256086763375 L15.531502101372467,4.95418592932751 L15.531502101372467,3.3378140093447195 L15.531502101372467,1.6794671415496214 L15.531502101372467,1.3671953257575502e-13 " />
			<path d="M8.32668779155872,40.0 L8.32668779155872,38.99711648727295 L8.32668779155872,36.03875471609677 L8.32668779155872,31.273259298721197 L8.32668779155872,24.939592074349342 L8.32668779155872,17.35534956470233 L8.32668779155872,8.90083735825258 L8.32668779155872,4.898587196589413e-15 L8.32668779155872,-8.900837358252572 L8.32668779155872,-17.35534956470232 L8.32668779155872,-24.939592074349335 L8.32668779155872,-31.273259298721186 L8.32668779155872,-36.03875471609676 L8.32668779155872,-38.99711648727295 L8.32668779155872,-39.99999999999996 " />
			<path d="M10.0,-40.0 L10.0,-38.99711648727295 L10.0,-36.03875471609677 L10.0,-31.273259298721197 L10.0,-24.939592074349342 L10.0,-17.35534956470233 L10.0,-8.90083735825258 L10.0,-4.898587196589413e-15 L10.0,8.900837358252572 L10.0,17.35534956470232 L10.0,24.939592074349335 L10.0,31.273259298721186 L10.0,36.03875471609676 L10.0,38.99711648727295 L10.0,39.99999999999996 " />
			<path d="M10.0,5.0 L10.0,0.0 " />
			<path d="M10.0,0.0 L10.0,5.0 " />
			<path d="M10.0,0.0 L10.0,2.239289522066745 L10.0,4.4504186791274405 L10.0,6.605581239105016 L10.0,8.677674782353293 L10.0,10.640641530309233 L10.0,12.469796037177442 L10.0,14.142135623733875 L10.0,15.636629649363542 L10.0,16.934483984568512 L10.0,18.019377358050946 L10.0,18.877666606169498 L10.0,19.49855824363805 L10.0,19.87424419786571 L10.0,19.999999999999996 " />
			<path d="M10.0,20.0 L10.0,19.49855824363463 L10.0,18.019377358044792 L10.0,15.636629649355436 L10.0,12.4697960371682 L10.0,8.677674782343706 L10.0,4.45041867911822 L10.0,-8.275373578006871e-12 L10.0,-4.450418679134356 L10.0,-8.677674782358618 L10.0,-12.46979603718114 L10.0,-15.636629649365757 L10.0,-18.019377358051972 L10.0,-19.498558243638314 L10.0,-19.99999999999998 " />
			<path d="M10.0,-20.0 L10.0,-19.87424419786399 L10.0,-19.498558243634893 L10.0,-18.8776666061652 L10.0,-18.01937735804581 L10.0,-16.93448398456284 L10.0,-15.63662964935763 L10.0,-14.142135623728002 L10.0,-12.46979603717187 L10.0,-10.640641530304194 L10.0,-8.67767478234899 L10.0,-6.605581239101619 L10.0,-4.450418679125081 L10.0,-2.239289522065509 L10.0,-1.8214468036433833e-13 " />
			<path d="M15.531502101372467,5.0 L10.0,5.0 " />
			<path d="M15.531502101372467,0.0 L15.531502101372467,5.0 " />
			<path d="M10.0,0.0 L15.531502101372467,0.0 " />
			<path d="M15.531502101372467,0.0 L15.531502101372467,0.36095219552348157 L15.531502101372467,0.7217868134877208 L15.531502101372467,1.082386314633512 L15.531502101372467,1.4426332362892478 L15.531502101372467,1.8024102306335321 L15.531502101372467,2.1616001029203815 L15.531502101372467,2.5200858496545626 L15.531502101372467,2.8777506967046347 L15.531502101372467,3.2344781373412723 L15.531502101372467,3.5901519701884905 L15.531502101372467,3.944656337075398 L15.531502101372467,4.297875760776155 L15.531502101372467,4.649695182625846 L15.531502101372467,4.999999999999989 " />
			<path d="M15.531502101372467,20.0 L15.531502101372467,19.498558243636474 L15.531502101372467,18.019377358048384 L15.531502101372467,15.636629649360598 L15.531502101372467,12.469796037174671 L15.531502101372467,8.677674782351165 L15.531502101372467,4.45041867912629 L15.531502101372467,2.4492935982947065e-15 L15.531502101372467,-4.450418679126286 L15.531502101372467,-8.67767478235116 L15.531502101372467,-12.469796037174667 L15.531502101372467,-15.636629649360593 L15.531502101372467,-18.01937735804838 L15.531502101372467,-19.498558243636474 L15.531502101372467,-19.99999999999998 " />
			<path d="M15.531502101372467,0.0 L15.531502101372467,-1.6794671415496178 L15.531502101372467,-3.337814009344716 L15.531502101372467,-4.9541859293275055 L15.531502101372467,-6.508256086763372 L15.531502101372467,-7.980481147730049 L15.531502101372467,-9.352347027881002 L15.531502101372467,-10.606601717798211 L15.531502101372467,-11.727472237020446 L15.531502101372467,-12.700862988424262 L15.531502101372467,-13.514533018536287 L15.531502101372467,-14.158249954625514 L15.531502101372467,-14.623918682727354 L15.531502101372467,-14.905683148398639 L15.531502101372467,-14.999999999999998 " />
			<path d="M15.531502101372467,-15.0 L15.531502101372467,-14.623918682727354 L15.531502101372467,-13.514533018536287 L15.531502101372467,-11.727472237020448 L15.531502101372467,-9.352347027881004 L15.531502101372467,-6.508256086763374 L15.531502101372467,-3.3378140093447177 L15.531502101372467,-1.83697019872103e-15 L15.531502101372467,3.337814009344714 L15.531502101372467,6.50825608676337 L15.531502101372467,9.352347027881 L15.531502101372467,11.727472237020445 L15.531502101372467,13.514533018536286 L15.531502101372467,14.623918682727354 L15.531502101372467,14.999999999999986 " />
			<path d="M15.531502101372467,15.0 L15.531502101372467,14.905683148398639 L15.531502101372467,14.623918682727354 L15.531502101372467,14.158249954625516 L15.531502101372467,13.514533018536289 L15.531502101372467,12.700862988424264 L15.531502101372467,11.727472237020448 L15.531502101372467,10.606601717798215 L15.531502101372467,9.352347027881006 L15.531502101372467,7.9804811477300515 L15.531502101372467,6.508256086763375 L15.531502101372467,4.95418592932751 L15.531502101372467,3.3378140093447195 L15.531502101372467,1.6794671415496214 L15.531502101372467,1.3671953257575502e-13 " />
			<path d="M10.0,0.0 L10.0,-1.6794671415496178 L10.0,-3.337814009344716 L10.0,-4.9541859293275055 L10.0,-6.508256086763372 L10.0,-7.980481147730049 L10.0,-9.352347027881002 L10.0,-10.606601717798211 L10.0,-11.727472237020446 L10.0,-12.700862988424262 L10.0,-13.514533018536287 L10.0,-14.158249954625514 L10.0,-14.623918682727354 L10.0,-14.905683148398639 L10.0,-14.999999999999998 " />
			<path d="M10.0,-15.0 L10.0,-14.623918682727354 L10.0,-13.514533018536287 L10.0,-11.727472237020448 L10.0,-9.352347027881004 L10.0,-6.508256086763374 L10.0,-3.3378140093447177 L10.0,-1.83697019872103e-15 L10.0,3.337814009344714 L10.0,6.50825608676337 L10.0,9.352347027881 L10.0,11.727472237020445 L10.0,13.514533018536286 L10.0,14.623918682727354 L10.0,14.999999999999986 " />
			<path d="M10.0,15.0 L10.0,14.905683148398639 L10.0,14.623918682727354 L10.0,14.158249954625516 L10.0,13.514533018536289 L10.0,12.700862988424264 L10.0,11.727472237020448 L10.0,10.606601717798215 L10.0,9.352347027881006 L10.0,7.9804811477300515 L10.0,6.508256086763375 L10.0,4.95418592932751 L10.0,3.3378140093447195 L10.0,1.6794671415496214 L10.0,1.3671953257575502e-13 " />
			<path d="M8.32668779155872,40.0 L8.32668779155872,38.99711648727295 L8.32668779155872,36.03875471609677 L8.32668779155872,31.273259298721197 L8.32668779155872,24.939592074349342 L8.32668779155872,17.35534956470233 L8.32668779155872,8.90083735825258 L8.32668779155872,4.898587196589413e-15 L8.32668779155872,-8.900837358252572 L8.32668779155872,-17.35534956470232 L8.32668779155872,-24.939592074349335 L8.32668779155872,-31.273259298721186 L8.32668779155872,-36.03875471609676 L8.32668779155872,-38.99711648727295 L8.32668779155872,-39.99999999999996 " />
			<path d="M5.3839319942303545,40.0 L5.3839319942303545,38.99711648727295 L5.3839319942303545,36.03875471609677 L5.3839319942303545,31.273259298721197 L5.3839319942303545,24.939592074349342 L5.3839319942303545,17.35534956470233 L5.3839319942303545,8.90083735825258 L5.3839319942303545,4.898587196589413e-15 L5.3839319942303545,-8.900837358252572 L5.3839319942303545,-17.35534956470232 L5.3839319942303545,-24.939592074349335 L5.3839319942303545,-31.273259298721186 L5.3839319942303545,-36.03875471609676 L5.3839319942303545,-38.99711648727295 L5.3839319942303545,-39.99999999999996 " />
			<path d="M2.5524296744595842,40.0 L2.5524296744595842,38.99711648727295 L2.5524296744595842,36.03875471609677 L2.5524296744595842,31.273259298721197 L2.5524296744595842,24.939592074349342 L2.5524296744595842,17.35534956470233 L2.5524296744595842,8.90083735825258 L2.5524296744595842,4.898587196589413e-15 L2.5524296744595842,-8.900837358252572 L2.5524296744595842,-17.35534956470232 L2.5524296744595842,-24.939592074349335 L2.5524296744595842,-31.273259298721186 L2.5524296744595842,-36.03875471609676 L2.5524296744595842,-38.99711648727295 L2.5524296744595842,-39.99999999999996 " />
			<path d="M5.3839319942303545,40.0 L5.3839319942303545,38.99711648727295 L5.3839319942303545,36.03875471609677 L5.3839319942303545,31.273259298721197 L5.3839319942303545,24.939592074349342 L5.3839319942303545,17.35534956470233 L5.3839319942303545,8.90083735825258 L5.3839319942303545,4.898587196589413e-15 L5.3839319942303545,-8.900837358252572 L5.3839319942303545,-17.35534956470232 L5.3839319942303545,-24.939592074349335 L5.3839319942303545,-31.273259298721186 L5.3839319942303545,-36.03875471609676 L5.3839319942303545,-38.99711648727295 L5.3839319942303545,-39.99999999999996 " />
			<path d="M0.0,-40.0 L0.0,-38.99711648727295 L0.0,-36.03875471609677 L0.0,-31.273259298721197 L0.0,-24.939592074349342 L0.0,-17.35534956470233 L0.0,-8.90083735825258 L0.0,-4.898587196589413e-15 L0.0,8.900837358252572 L0.0,17.35534956470232 L0.0,24.939592074349335 L0.0,31.273259298721186 L0.0,36.03875471609676 L0.0,38.99711648727295 L0.0,39.99999999999996 " />
			<path d="M0.0,0.0 L0.0,5.0 " />
			<path d="M0.0,5.0 L0.0,0.0 " />
			<path d="M2.5524296744595842,40.0 L2.5524296744595842,38.99711648727295 L2.5524296744595842,36.03875471609677 L2.5524296744595842,31.273259298721197 L2.5524296744595842,24.939592074349342 L2.5524296744595842,17.35534956470233 L2.5524296744595842,8.90083735825258 L2.5524296744595842,4.898587196589413e-15 L2.5524296744595842,-8.900837358252572 L2.5524296744595842,-17.35534956470232 L2.5524296744595842,-24.939592074349335 L2.5524296744595842,-31.273259298721186 L2.5524296744595842,-36.03875471609676 L2.5524296744595842,-38.99711648727295 L2.5524296744595842,-39.99999999999996 " />
			<path d="M0.0,0.0 L-10.0,0.0 " />
			<path d="M0.0,5.0 L-10.0,5.0 " />
			<path d="M-10.0,0.0 L-10.0,5.0 " />
			<path d="M60.0,15.0 L48.88287552534322,15.0 " />
			<path d="M60.0,-15.0 L48.88287552534322,-15.0 " />
			<path d="M48.88287552534322,15.0 L37.76575105068649,15.0 " />
			<path d="M48.88287552534322,-15.0 L37.76575105068649,-15.0 " />
			<path d="M37.76575105068649,15.0 L26.64862657602962,15.0 " />
			<path d="M37.76575105068649,-15.0 L26.64862657602962,-15.0 " />
			<path d="M26.64862657602962,15.0 L15.531502101372467,15.0 " />
			<path d="M26.64862657602962,-15.0 L15.531502101372467,-15.0 " />
			<path d="M15.531502101372467,15.0 L10.0,15.0 " />
			<path d="M15.531502101372467,-15.0 L10.0,-15.0 " />

       </g>

       <!-- solid lines -->
       <g  stroke="rgb(56,189,248)" fill="none">
			<path d="M26.38287552534311,5.0 L26.38287552534311,0.0 " />
			<path d="M26.38287552534311,5.0 L30.0,5.0 " />
			<path d="M30.0,0.0 L30.0,5.0 " />
			<path d="M26.38287552534311,0.0 L30.0,0.0 " />
			<path d="M22.765751050686234,5.0 L22.765751050686234,0.0 " />
			<path d="M22.765751050686234,5.0 L26.38287552534311,5.0 " />
			<path d="M26.38287552534311,5.0 L26.38287552534311,0.0 " />
			<path d="M22.765751050686234,0.0 L26.38287552534311,0.0 " />
			<path d="M19.148626576029358,5.0 L19.148626576029358,0.0 " />
			<path d="M19.148626576029358,5.0 L22.765751050686234,5.0 " />
			<path d="M22.765751050686234,5.0 L22.765751050686234,0.0 " />
			<path d="M19.148626576029358,0.0 L22.765751050686234,0.0 " />
			<path d="M15.531502101372467,5.0 L15.531502101372467,0.0 " />
			<path d="M15.531502101372467,5.0 L19.148626576029358,5.0 " />
			<path d="M19.148626576029358,5.0 L19.148626576029358,0.0 " />
			<path d="M15.531502101372467,0.0 L19.148626576029358,0.0 " />
			<path d="M48.88287552534322,0.0 L48.88287552534322,2.2392895220661573 L48.88287552534322,4.450418679126288 L48.88287552534322,6.605581239103341 L48.88287552534322,8.677674782351163 L48.88287552534322,10.64064153030673 L48.88287552534322,12.46979603717467 L48.88287552534322,14.14213562373095 L48.88287552534322,15.636629649360597 L48.88287552534322,16.93448398456568 L48.88287552534322,18.019377358048384 L48.88287552534322,18.877666606167352 L48.88287552534322,19.498558243636474 L48.88287552534322,19.87424419786485 L48.88287552534322,19.999999999999996 " />
			<path d="M48.88287552534322,-20.0 L48.88287552534322,-19.87424419786485 L48.88287552534322,-19.498558243636474 L48.88287552534322,-18.877666606167352 L48.88287552534322,-18.019377358048384 L48.88287552534322,-16.934483984565684 L48.88287552534322,-15.636629649360598 L48.88287552534322,-14.142135623730955 L48.88287552534322,-12.469796037174675 L48.88287552534322,-10.640641530306736 L48.88287552534322,-8.677674782351167 L48.88287552534322,-6.605581239103346 L48.88287552534322,-4.450418679126293 L48.88287552534322,-2.2392895220661617 L48.88287552534322,-1.8214468036439e-13 " />
			<path d="M60.0,0.0 L60.0,-2.2392895220661573 L60.0,-4.450418679126288 L60.0,-6.605581239103341 L60.0,-8.677674782351163 L60.0,-10.64064153030673 L60.0,-12.46979603717467 L60.0,-14.14213562373095 L60.0,-15.636629649360597 L60.0,-16.93448398456568 L60.0,-18.019377358048384 L60.0,-18.877666606167352 L60.0,-19.498558243636474 L60.0,-19.87424419786485 L60.0,-19.999999999999996 " />
			<path d="M60.0,20.0 L60.0,19.87424419786485 L60.0,19.498558243636474 L60.0,18.877666606167352 L60.0,18.019377358048384 L60.0,16.934483984565684 L60.0,15.636629649360598 L60.0,14.142135623730955 L60.0,12.469796037174675 L60.0,10.640641530306736 L60.0,8.677674782351167 L60.0,6.605581239103346 L60.0,4.450418679126293 L60.0,2.2392895220661617 L60.0,1.8214468036439e-13 " />
			<path d="M48.88287552534322,0.0 L48.88287552534322,2.2392895220661573 L48.88287552534322,4.450418679126288 L48.88287552534322,6.605581239103341 L48.88287552534322,8.677674782351163 L48.88287552534322,10.64064153030673 L48.88287552534322,12.46979603717467 L48.88287552534322,14.14213562373095 L48.88287552534322,15.636629649360597 L48.88287552534322,16.93448398456568 L48.88287552534322,18.019377358048384 L48.88287552534322,18.877666606167352 L48.88287552534322,19.498558243636474 L48.88287552534322,19.87424419786485 L48.88287552534322,19.999999999999996 " />
			<path d="M48.88287552534322,-20.0 L48.88287552534322,-19.87424419786485 L48.88287552534322,-19.498558243636474 L48.88287552534322,-18.877666606167352 L48.88287552534322,-18.019377358048384 L48.88287552534322,-16.934483984565684 L48.88287552534322,-15.636629649360598 L48.88287552534322,-14.142135623730955 L48.88287552534322,-12.469796037174675 L48.88287552534322,-10.640641530306736 L48.88287552534322,-8.677674782351167 L48.88287552534322,-6.605581239103346 L48.88287552534322,-4.450418679126293 L48.88287552534322,-2.2392895220661617 L48.88287552534322,-1.8214468036439e-13 " />
			<path d="M37.76575105068649,0.0 L37.76575105068649,2.2392895220661573 L37.76575105068649,4.450418679126288 L37.76575105068649,6.605581239103341 L37.76575105068649,8.677674782351163 L37.76575105068649,10.64064153030673 L37.76575105068649,12.46979603717467 L37.76575105068649,14.14213562373095 L37.76575105068649,15.636629649360597 L37.76575105068649,16.93448398456568 L37.76575105068649,18.019377358048384 L37.76575105068649,18.877666606167352 L37.76575105068649,19.498558243636474 L37.76575105068649,19.87424419786485 L37.76575105068649,19.999999999999996 " />
			<path d="M37.76575105068649,-20.0 L37.76575105068649,-19.87424419786485 L37.76575105068649,-19.498558243636474 L37.76575105068649,-18.877666606167352 L37.76575105068649,-18.019377358048384 L37.76575105068649,-16.934483984565684 L37.76575105068649,-15.636629649360598 L37.76575105068649,-14.142135623730955 L37.76575105068649,-12.469796037174675 L37.76575105068649,-10.640641530306736 L37.76575105068649,-8.677674782351167 L37.76575105068649,-6.605581239103346 L37.76575105068649,-4.450418679126293 L37.76575105068649,-2.2392895220661617 L37.76575105068649,-1.8214468036439e-13 " />
			<path d="M26.64862657602962,5.0 L26.64862657602962,6.7983919527972 L26.64862657602962,8.536564481114118 L26.64862657602962,10.199121039704542 L26.64862657602962,11.771334881446599 L26.64862657602962,13.239279505284303 L26.64862657602962,14.589952015675557 L26.64862657602962,15.811388300841898 L26.64862657602962,16.892769009583397 L26.64862657602962,17.82451538792755 L26.64862657602962,18.598374126701387 L26.64862657602962,19.207490468456154 L26.64862657602962,19.646468926171284 L26.64862657602962,19.911421075897945 L26.64862657602962,19.999999999999996 " />
			<path d="M26.64862657602962,-20.0 L26.64862657602962,-19.87424419786485 L26.64862657602962,-19.498558243636474 L26.64862657602962,-18.877666606167352 L26.64862657602962,-18.019377358048384 L26.64862657602962,-16.934483984565684 L26.64862657602962,-15.636629649360598 L26.64862657602962,-14.142135623730955 L26.64862657602962,-12.469796037174675 L26.64862657602962,-10.640641530306736 L26.64862657602962,-8.677674782351167 L26.64862657602962,-6.605581239103346 L26.64862657602962,-4.450418679126293 L26.64862657602962,-2.2392895220661617 L26.64862657602962,-1.8214468036439e-13 " />
			<path d="M37.76575105068649,0.0 L37.76575105068649,2.2392895220661573 L37.76575105068649,4.450418679126288 L37.76575105068649,6.605581239103341 L37.76575105068649,8.677674782351163 L37.76575105068649,10.64064153030673 L37.76575105068649,12.46979603717467 L37.76575105068649,14.14213562373095 L37.76575105068649,15.636629649360597 L37.76575105068649,16.93448398456568 L37.76575105068649,18.019377358048384 L37.76575105068649,18.877666606167352 L37.76575105068649,19.498558243636474 L37.76575105068649,19.87424419786485 L37.76575105068649,19.999999999999996 " />
			<path d="M37.76575105068649,-20.0 L37.76575105068649,-19.87424419786485 L37.76575105068649,-19.498558243636474 L37.76575105068649,-18.877666606167352 L37.76575105068649,-18.019377358048384 L37.76575105068649,-16.934483984565684 L37.76575105068649,-15.636629649360598 L37.76575105068649,-14.142135623730955 L37.76575105068649,-12.469796037174675 L37.76575105068649,-10.640641530306736 L37.76575105068649,-8.677674782351167 L37.76575105068649,-6.605581239103346 L37.76575105068649,-4.450418679126293 L37.76575105068649,-2.2392895220661617 L37.76575105068649,-1.8214468036439e-13 " />
			<path d="M26.64862657602962,5.0 L26.64862657602962,6.7983919527972 L26.64862657602962,8.536564481114118 L26.64862657602962,10.199121039704542 L26.64862657602962,11.771334881446599 L26.64862657602962,13.239279505284303 L26.64862657602962,14.589952015675557 L26.64862657602962,15.811388300841898 L26.64862657602962,16.892769009583397 L26.64862657602962,17.82451538792755 L26.64862657602962,18.598374126701387 L26.64862657602962,19.207490468456154 L26.64862657602962,19.646468926171284 L26.64862657602962,19.911421075897945 L26.64862657602962,19.999999999999996 " />
			<path d="M26.64862657602962,-20.0 L26.64862657602962,-19.87424419786485 L26.64862657602962,-19.498558243636474 L26.64862657602962,-18.877666606167352 L26.64862657602962,-18.019377358048384 L26.64862657602962,-16.934483984565684 L26.64862657602962,-15.636629649360598 L26.64862657602962,-14.142135623730955 L26.64862657602962,-12.469796037174675 L26.64862657602962,-10.640641530306736 L26.64862657602962,-8.677674782351167 L26.64862657602962,-6.605581239103346 L26.64862657602962,-4.450418679126293 L26.64862657602962,-2.2392895220661617 L26.64862657602962,-1.8214468036439e-13 " />
			<path d="M15.531502101372467,5.0 L15.531502101372467,6.7983919527972 L15.531502101372467,8.536564481114118 L15.531502101372467,10.199121039704542 L15.531502101372467,11.771334881446599 L15.531502101372467,13.239279505284303 L15.531502101372467,14.589952015675557 L15.531502101372467,15.811388300841898 L15.531502101372467,16.892769009583397 L15.531502101372467,17.82451538792755 L15.531502101372467,18.598374126701387 L15.531502101372467,19.207490468456154 L15.531502101372467,19.646468926171284 L15.531502101372467,19.911421075897945 L15.531502101372467,19.999999999999996 " />
			<path d="M15.531502101372467,-20.0 L15.531502101372467,-19.87424419786485 L15.531502101372467,-19.498558243636474 L15.531502101372467,-18.877666606167352 L15.531502101372467,-18.019377358048384 L15.531502101372467,-16.934483984565684 L15.531502101372467,-15.636629649360598 L15.531502101372467,-14.142135623730955 L15.531502101372467,-12.469796037174675 L15.531502101372467,-10.640641530306736 L15.531502101372467,-8.677674782351167 L15.531502101372467,-6.605581239103346 L15.531502101372467,-4.450418679126293 L15.531502101372467,-2.2392895220661617 L15.531502101372467,-1.8214468036439e-13 " />
			<path d="M8.32668779155872,0.0 L8.32668779155872,4.478579044132315 L8.32668779155872,8.900837358252575 L8.32668779155872,13.211162478206681 L8.32668779155872,17.355349564702326 L8.32668779155872,21.28128306061346 L8.32668779155872,24.93959207434934 L8.32668779155872,28.2842712474619 L8.32668779155872,31.273259298721193 L8.32668779155872,33.86896796913136 L8.32668779155872,36.03875471609677 L8.32668779155872,37.755333212334705 L8.32668779155872,38.99711648727295 L8.32668779155872,39.7484883957297 L8.32668779155872,39.99999999999999 " />
			<path d="M8.32668779155872,-40.0 L8.32668779155872,-39.7484883957297 L8.32668779155872,-38.99711648727295 L8.32668779155872,-37.755333212334705 L8.32668779155872,-36.03875471609677 L8.32668779155872,-33.86896796913137 L8.32668779155872,-31.273259298721197 L8.32668779155872,-28.28427124746191 L8.32668779155872,-24.93959207434935 L8.32668779155872,-21.28128306061347 L8.32668779155872,-17.355349564702333 L8.32668779155872,-13.211162478206692 L8.32668779155872,-8.900837358252586 L8.32668779155872,-4.478579044132323 L8.32668779155872,-3.6428936072878e-13 " />
			<path d="M10.0,0.0 L10.0,-4.478579044132315 L10.0,-8.900837358252575 L10.0,-13.211162478206681 L10.0,-17.355349564702326 L10.0,-21.28128306061346 L10.0,-24.93959207434934 L10.0,-28.2842712474619 L10.0,-31.273259298721193 L10.0,-33.86896796913136 L10.0,-36.03875471609677 L10.0,-37.755333212334705 L10.0,-38.99711648727295 L10.0,-39.7484883957297 L10.0,-39.99999999999999 " />
			<path d="M10.0,40.0 L10.0,39.7484883957297 L10.0,38.99711648727295 L10.0,37.755333212334705 L10.0,36.03875471609677 L10.0,33.86896796913137 L10.0,31.273259298721197 L10.0,28.28427124746191 L10.0,24.93959207434935 L10.0,21.28128306061347 L10.0,17.355349564702333 L10.0,13.211162478206692 L10.0,8.900837358252586 L10.0,4.478579044132323 L10.0,3.6428936072878e-13 " />
			<path d="M10.0,0.0 L15.531502101372467,0.0 " />
			<path d="M15.531502101372467,5.0 L15.531502101372467,0.0 " />
			<path d="M10.0,5.0 L15.531502101372467,5.0 " />
			<path d="M15.531502101372467,5.0 L15.531502101372467,6.7983919527972 L15.531502101372467,8.536564481114118 L15.531502101372467,10.199121039704542 L15.531502101372467,11.771334881446599 L15.531502101372467,13.239279505284303 L15.531502101372467,14.589952015675557 L15.531502101372467,15.811388300841898 L15.531502101372467,16.892769009583397 L15.531502101372467,17.82451538792755 L15.531502101372467,18.598374126701387 L15.531502101372467,19.207490468456154 L15.531502101372467,19.646468926171284 L15.531502101372467,19.911421075897945 L15.531502101372467,19.999999999999996 " />
			<path d="M15.531502101372467,-20.0 L15.531502101372467,-19.87424419786485 L15.531502101372467,-19.498558243636474 L15.531502101372467,-18.877666606167352 L15.531502101372467,-18.019377358048384 L15.531502101372467,-16.934483984565684 L15.531502101372467,-15.636629649360598 L15.531502101372467,-14.142135623730955 L15.531502101372467,-12.469796037174675 L15.531502101372467,-10.640641530306736 L15.531502101372467,-8.677674782351167 L15.531502101372467,-6.605581239103346 L15.531502101372467,-4.450418679126293 L15.531502101372467,-2.2392895220661617 L15.531502101372467,-1.8214468036439e-13 " />
			<path d="M8.32668779155872,0.0 L8.32668779155872,4.478579044132315 L8.32668779155872,8.900837358252575 L8.32668779155872,13.211162478206681 L8.32668779155872,17.355349564702326 L8.32668779155872,21.28128306061346 L8.32668779155872,24.93959207434934 L8.32668779155872,28.2842712474619 L8.32668779155872,31.273259298721193 L8.32668779155872,33.86896796913136 L8.32668779155872,36.03875471609677 L8.32668779155872,37.755333212334705 L8.32668779155872,38.99711648727295 L8.32668779155872,39.7484883957297 L8.32668779155872,39.99999999999999 " />
			<path d="M8.32668779155872,-40.0 L8.32668779155872,-39.7484883957297 L8.32668779155872,-38.99711648727295 L8.32668779155872,-37.755333212334705 L8.32668779155872,-36.03875471609677 L8.32668779155872,-33.86896796913137 L8.32668779155872,-31.273259298721197 L8.32668779155872,-28.28427124746191 L8.32668779155872,-24.93959207434935 L8.32668779155872,-21.28128306061347 L8.32668779155872,-17.355349564702333 L8.32668779155872,-13.211162478206692 L8.32668779155872,-8.900837358252586 L8.32668779155872,-4.478579044132323 L8.32668779155872,-3.6428936072878e-13 " />
			<path d="M5.3839319942303545,0.0 L5.3839319942303545,4.478579044132315 L5.3839319942303545,8.900837358252575 L5.3839319942303545,13.211162478206681 L5.3839319942303545,17.355349564702326 L5.3839319942303545,21.28128306061346 L5.3839319942303545,24.93959207434934 L5.3839319942303545,28.2842712474619 L5.3839319942303545,31.273259298721193 L5.3839319942303545,33.86896796913136 L5.3839319942303545,36.03875471609677 L5.3839319942303545,37.755333212334705 L5.3839319942303545,38.99711648727295 L5.3839319942303545,39.7484883957297 L5.3839319942303545,39.99999999999999 " />
			<path d="M5.3839319942303545,-40.0 L5.3839319942303545,-39.7484883957297 L5.3839319942303545,-38.99711648727295 L5.3839319942303545,-37.755333212334705 L5.3839319942303545,-36.03875471609677 L5.3839319942303545,-33.86896796913137 L5.3839319942303545,-31.273259298721197 L5.3839319942303545,-28.28427124746191 L5.3839319942303545,-24.93959207434935 L5.3839319942303545,-21.28128306061347 L5.3839319942303545,-17.355349564702333 L5.3839319942303545,-13.211162478206692 L5.3839319942303545,-8.900837358252586 L5.3839319942303545,-4.478579044132323 L5.3839319942303545,-3.6428936072878e-13 " />
			<path d="M2.5524296744595842,0.0 L2.5524296744595842,4.478579044132315 L2.5524296744595842,8.900837358252575 L2.5524296744595842,13.211162478206681 L2.5524296744595842,17.355349564702326 L2.5524296744595842,21.28128306061346 L2.5524296744595842,24.93959207434934 L2.5524296744595842,28.2842712474619 L2.5524296744595842,31.273259298721193 L2.5524296744595842,33.86896796913136 L2.5524296744595842,36.03875471609677 L2.5524296744595842,37.755333212334705 L2.5524296744595842,38.99711648727295 L2.5524296744595842,39.7484883957297 L2.5524296744595842,39.99999999999999 " />
			<path d="M2.5524296744595842,-40.0 L2.5524296744595842,-39.7484883957297 L2.5524296744595842,-38.99711648727295 L2.5524296744595842,-37.755333212334705 L2.5524296744595842,-36.03875471609677 L2.5524296744595842,-33.86896796913137 L2.5524296744595842,-31.273259298721197 L2.5524296744595842,-28.28427124746191 L2.5524296744595842,-24.93959207434935 L2.5524296744595842,-21.28128306061347 L2.5524296744595842,-17.355349564702333 L2.5524296744595842,-13.211162478206692 L2.5524296744595842,-8.900837358252586 L2.5524296744595842,-4.478579044132323 L2.5524296744595842,-3.6428936072878e-13 " />
			<path d="M5.3839319942303545,0.0 L5.3839319942303545,4.478579044132315 L5.3839319942303545,8.900837358252575 L5.3839319942303545,13.211162478206681 L5.3839319942303545,17.355349564702326 L5.3839319942303545,21.28128306061346 L5.3839319942303545,24.93959207434934 L5.3839319942303545,28.2842712474619 L5.3839319942303545,31.273259298721193 L5.3839319942303545,33.86896796913136 L5.3839319942303545,36.03875471609677 L5.3839319942303545,37.755333212334705 L5.3839319942303545,38.99711648727295 L5.3839319942303545,39.7484883957297 L5.3839319942303545,39.99999999999999 " />
			<path d="M5.3839319942303545,-40.0 L5.3839319942303545,-39.7484883957297 L5.3839319942303545,-38.99711648727295 L5.3839319942303545,-37.755333212334705 L5.3839319942303545,-36.03875471609677 L5.3839319942303545,-33.86896796913137 L5.3839319942303545,-31.273259298721197 L5.3839319942303545,-28.28427124746191 L5.3839319942303545,-24.93959207434935 L5.3839319942303545,-21.28128306061347 L5.3839319942303545,-17.355349564702333 L5.3839319942303545,-13.211162478206692 L5.3839319942303545,-8.900837358252586 L5.3839319942303545,-4.478579044132323 L5.3839319942303545,-3.6428936072878e-13 " />
			<path d="M0.0,0.0 L0.0,-4.478579044132315 L0.0,-8.900837358252575 L0.0,-13.211162478206681 L0.0,-17.355349564702326 L0.0,-21.28128306061346 L0.0,-24.93959207434934 L0.0,-28.2842712474619 L0.0,-31.273259298721193 L0.0,-33.86896796913136 L0.0,-36.03875471609677 L0.0,-37.755333212334705 L0.0,-38.99711648727295 L0.0,-39.7484883957297 L0.0,-39.99999999999999 " />
			<path d="M0.0,40.0 L0.0,39.7484883957297 L0.0,38.99711648727295 L0.0,37.755333212334705 L0.0,36.03875471609677 L0.0,33.86896796913137 L0.0,31.273259298721197 L0.0,28.28427124746191 L0.0,24.93959207434935 L0.0,21.28128306061347 L0.0,17.355349564702333 L0.0,13.211162478206692 L0.0,8.900837358252586 L0.0,4.478579044132323 L0.0,3.6428936072878e-13 " />
			<path d="M2.5524296744595842,0.0 L2.5524296744595842,4.478579044132315 L2.5524296744595842,8.900837358252575 L2.5524296744595842,13.211162478206681 L2.5524296744595842,17.355349564702326 L2.5524296744595842,21.28128306061346 L2.5524296744595842,24.93959207434934 L2.5524296744595842,28.2842712474619 L2.5524296744595842,31.273259298721193 L2.5524296744595842,33.86896796913136 L2.5524296744595842,36.03875471609677 L2.5524296744595842,37.755333212334705 L2.5524296744595842,38.99711648727295 L2.5524296744595842,39.7484883957297 L2.5524296744595842,39.99999999999999 " />
			<path d="M2.5524296744595842,-40.0 L2.5524296744595842,-39.7484883957297 L2.5524296744595842,-38.99711648727295 L2.5524296744595842,-37.755333212334705 L2.5524296744595842,-36.03875471609677 L2.5524296744595842,-33.86896796913137 L2.5524296744595842,-31.273259298721197 L2.5524296744595842,-28.28427124746191 L2.5524296744595842,-24.93959207434935 L2.5524296744595842,-21.28128306061347 L2.5524296744595842,-17.355349564702333 L2.5524296744595842,-13.211162478206692 L2.5524296744595842,-8.900837358252586 L2.5524296744595842,-4.478579044132323 L2.5524296744595842,-3.6428936072878e-13 " />
			<path d="M-10.0,0.0 L0.0,0.0 " />
			<path d="M-10.0,0.0 L-10.0,5.0 " />
			<path d="M-10.0,5.0 L0.0,5.0 " />
			<path d="M60.0,20.0 L48.88287552534322,20.0 " />
			<path d="M60.0,-20.0 L48.88287552534322,-20.0 " />
			<path d="M48.88287552534322,20.0 L37.76575105068649,20.0 " />
			<path d="M48.88287552534322,-20.0 L37.76575105068649,-20.0 " />
			<path d="M37.76575105068649,20.0 L26.64862657602962,20.0 " />
			<path d="M37.76575105068649,-20.0 L26.64862657602962,-20.0 " />
			<path d="M26.64862657602962,20.0 L15.531502101372467,20.0 " />
			<path d="M26.64862657602962,-20.0 L15.531502101372467,-20.0 " />
			<path d="M10.0,40.0 L8.32668779155872,40.0 " />
			<path d="M10.0,-40.0 L8.32668779155872,-40.0 " />
			<path d="M15.531502101372467,20.0 L10.0,20.0 " />
			<path d="M15.531502101372467,-20.0 L10.0,-20.0 " />
			<path d="M8.32668779155872,40.0 L5.3839319942303545,40.0 " />
			<path d="M8.32668779155872,-40.0 L5.3839319942303545,-40.0 " />
			<path d="M5.3839319942303545,40.0 L2.5524296744595842,40.0 " />
			<path d="M5.3839319942303545,-40.0 L2.5524296744595842,-40.0 " />
			<path d="M2.5524296744595842,40.0 L0.0,40.0 " />
			<path d="M2.5524296744595842,-40.0 L0.0,-40.0 " />

       </g>
    </g>
    
</svg>
