<?xml version="1.0" encoding="UTF-8" standalone="no"?>
<svg
   xmlns:svg="http://www.w3.org/2000/svg"
   xmlns="http://www.w3.org/2000/svg"
   width="400.0"
   height="300.0"

>
    <g transform="scale(2.8124999929687493, -2.8124999929687493)   translate(11.777777782222223,-41.77777788222223)" stroke-width="0.5"  fill="none">
       <!-- hidden lines -->
       <g  stroke="rgb(160,160,160)" fill="none" stroke-dasharray="0.5,0.5" >
			<path d="M0.0,-40.0 L0.0,-38.99711648727295 L0.0,-36.03875471609677 L0.0,-31.273259298721197 L0.0,-24.939592074349342 L0.0,-17.35534956470233 L0.0,-8.90083735825258 L0.0,-4.898587196589413e-15 L0.0,8.900837358252572 L0.0,17.35534956470232 L0.0,24.939592074349335 L0.0,31.273259298721186 L0.0,36.03875471609676 L0.0,38.99711648727295 L0.0,39.99999999999996 " />
			<path d="M0.0,0.0 L0.0,5.0 " />
			<path d="M0.0,5.0 L0.0,0.0 " />
			<path d="M10.0,-40.0 L10.0,-38.99711648727295 L10.0,-36.03875471609677 L10.0,-31.273259298721197 L10.0,-24.939592074349342 L10.0,-17.35534956470233 L10.0,-8.90083735825258 L10.0,-4.898587196589413e-15 L10.0,8.900837358252572 L10.0,17.35534956470232 L10.0,24.939592074349335 L10.0,31.273259298721186 L10.0,36.03875471609676 L10.0,38.99711648727295 L10.0,39.99999999999996 " />
			<path d="M0.0,0.0 L-10.0,0.0 " />
			<path d="M0.0,5.0 L-10.0,5.0 " />
			<path d="M-10.0,0.0 L-10.0,5.0 " />
			<path d="M10.0,5.0 L10.0,0.0 " />
			<path d="M10.0,0.0 L10.0,5.0 " />
			<path d="M10.0,0.0 L10.0,2.239289522066745 L10.0,4.4504186791274405 L10.0,6.605581239105016 L10.0,8.677674782353293 L10.0,10.640641530309233 L10.0,12.469796037177442 L10.0,14.142135623733875 L10.0,15.636629649363542 L10.0,16.934483984568512 L10.0,18.019377358050946 L10.0,18.877666606169498 L10.0,19.49855824363805 L10.0,19.87424419786571 L10.0,19.999999999999996 " />
			<path d="M10.0,20.0 L10.0,19.49855824363463 L10.0,18.019377358044792 L10.0,15.636629649355436 L10.0,12.4697960371682 L10.0,8.677674782343706 L10.0,4.45041867911822 L10.0,-8.275373578006871e-12 L10.0,-4.450418679134356 L10.0,-8.677674782358618 L10.0,-12.46979603718114 L10.0,-15.636629649365757 L10.0,-18.019377358051972 L10.0,-19.498558243638314 L10.0,-19.99999999999998 " />
			<path d="M10.0,-20.0 L10.0,-19.87424419786399 L10.0,-19.498558243634893 L10.0,-18.8776666061652 L10.0,-18.01937735804581 L10.0,-16.93448398456284 L10.0,-15.63662964935763 L10.0,-14.142135623728002 L10.0,-12.46979603717187 L10.0,-10.640641530304194 L10.0,-8.67767478234899 L10.0,-6.605581239101619 L10.0,-4.450418679125081 L10.0,-2.239289522065509 L10.0,-1.8214468036433833e-13 " />
			<path d="M10.0,0.0 L30.0,0.0 " />
			<path d="M30.0,0.0 L30.0,5.0 " />
			<path d="M30.0,5.0 L10.0,5.0 " />
			<path d="M60.0,-20.0 L60.0,-19.498558243636474 L60.0,-18.019377358048384 L60.0,-15.636629649360598 L60.0,-12.469796037174671 L60.0,-8.677674782351165 L60.0,-4.45041867912629 L60.0,-2.4492935982947065e-15 L60.0,4.450418679126286 L60.0,8.67767478235116 L60.0,12.469796037174667 L60.0,15.636629649360593 L60.0,18.01937735804838 L60.0,19.498558243636474 L60.0,19.99999999999998 " />
			<path d="M60.0,0.0 L60.0,-1.6794671415496178 L60.0,-3.337814009344716 L60.0,-4.9541859293275055 L60.0,-6.508256086763372 L60.0,-7.980481147730049 L60.0,-9.352347027881002 L60.0,-10.606601717798211 L60.0,-11.727472237020446 L60.0,-12.700862988424262 L60.0,-13.514533018536287 L60.0,-14.158249954625514 L60.0,-14.623918682727354 L60.0,-14.905683148398639 L60.0,-14.999999999999998 " />
			<path d="M60.0,-15.0 L60.0,-14.623918682727354 L60.0,-13.514533018536287 L60.0,-11.727472237020448 L60.0,-9.352347027881004 L60.0,-6.508256086763374 L60.0,-3.3378140093447177 L60.0,-1.83697019872103e-15 L60.0,3.337814009344714 L60.0,6.50825608676337 L60.0,9.352347027881 L60.0,11.727472237020445 L60.0,13.514533018536286 L60.0,14.623918682727354 L60.0,14.999999999999986 " />
			<path d="M60.0,15.0 L60.0,14.905683148398639 L60.0,14.623918682727354 L60.0,14.158249954625516 L60.0,13.514533018536289 L60.0,12.700862988424264 L60.0,11.727472237020448 L60.0,10.606601717798215 L60.0,9.352347027881006 L60.0,7.9804811477300515 L60.0,6.508256086763375 L60.0,4.95418592932751 L60.0,3.3378140093447195 L60.0,1.6794671415496214 L60.0,1.3671953257575502e-13 " />
			<path d="M10.0,0.0 L10.0,-1.6794671415496178 L10.0,-3.337814009344716 L10.0,-4.9541859293275055 L10.0,-6.508256086763372 L10.0,-7.980481147730049 L10.0,-9.352347027881002 L10.0,-10.606601717798211 L10.0,-11.727472237020446 L10.0,-12.700862988424262 L10.0,-13.514533018536287 L10.0,-14.158249954625514 L10.0,-14.623918682727354 L10.0,-14.905683148398639 L10.0,-14.999999999999998 " />
			<path d="M10.0,-15.0 L10.0,-14.623918682727354 L10.0,-13.514533018536287 L10.0,-11.727472237020448 L10.0,-9.352347027881004 L10.0,-6.508256086763374 L10.0,-3.3378140093447177 L10.0,-1.83697019872103e-15 L10.0,3.337814009344714 L10.0,6.50825608676337 L10.0,9.352347027881 L10.0,11.727472237020445 L10.0,13.514533018536286 L10.0,14.623918682727354 L10.0,14.999999999999986 " />
			<path d="M10.0,15.0 L10.0,14.905683148398639 L10.0,14.623918682727354 L10.0,14.158249954625516 L10.0,13.514533018536289 L10.0,12.700862988424264 L10.0,11.727472237020448 L10.0,10.606601717798215 L10.0,9.352347027881006 L10.0,7.9804811477300515 L10.0,6.508256086763375 L10.0,4.95418592932751 L10.0,3.3378140093447195 L10.0,1.6794671415496214 L10.0,1.3671953257575502e-13 " />
			<path d="M60.0,15.0 L10.0,15.0 " />
			<path d="M60.0,-15.0 L10.0,-15.0 " />

       </g>

       <!-- solid lines -->
       <g  stroke="rgb(148,163,184)" fill="none">
			<path d="M0.0,0.0 L0.0,-4.478579044132315 L0.0,-8.900837358252575 L0.0,-13.211162478206681 L0.0,-17.355349564702326 L0.0,-21.28128306061346 L0.0,-24.93959207434934 L0.0,-28.2842712474619 L0.0,-31.273259298721193 L0.0,-33.86896796913136 L0.0,-36.03875471609677 L0.0,-37.755333212334705 L0.0,-38.99711648727295 L0.0,-39.7484883957297 L0.0,-39.99999999999999 " />
			<path d="M0.0,40.0 L0.0,39.7484883957297 L0.0,38.99711648727295 L0.0,37.755333212334705 L0.0,36.03875471609677 L0.0,33.86896796913137 L0.0,31.273259298721197 L0.0,28.28427124746191 L0.0,24.93959207434935 L0.0,21.28128306061347 L0.0,17.355349564702333 L0.0,13.211162478206692 L0.0,8.900837358252586 L0.0,4.478579044132323 L0.0,3.6428936072878e-13 " />
			<path d="M10.0,0.0 L10.0,-4.478579044132315 L10.0,-8.900837358252575 L10.0,-13.211162478206681 L10.0,-17.355349564702326 L10.0,-21.28128306061346 L10.0,-24.93959207434934 L10.0,-28.2842712474619 L10.0,-31.273259298721193 L10.0,-33.86896796913136 L10.0,-36.03875471609677 L10.0,-37.755333212334705 L10.0,-38.99711648727295 L10.0,-39.7484883957297 L10.0,-39.99999999999999 " />
			<path d="M10.0,40.0 L10.0,39.7484883957297 L10.0,38.99711648727295 L10.0,37.755333212334705 L10.0,36.03875471609677 L10.0,33.86896796913137 L10.0,31.273259298721197 L10.0,28.28427124746191 L10.0,24.93959207434935 L10.0,21.28128306061347 L10.0,17.355349564702333 L10.0,13.211162478206692 L10.0,8.900837358252586 L10.0,4.478579044132323 L10.0,3.6428936072878e-13 " />
			<path d="M-10.0,0.0 L0.0,0.0 " />
			<path d="M-10.0,5.0 L0.0,5.0 " />
			<path d="M-10.0,0.0 L-10.0,5.0 " />
			<path d="M10.0,5.0 L30.0,5.0 " />
			<path d="M10.0,0.0 L30.0,0.0 " />
			<path d="M30.0,0.0 L30.0,5.0 " />
			<path d="M60.0,0.0 L60.0,-2.2392895220661573 L60.0,-4.450418679126288 L60.0,-6.605581239103341 L60.0,-8.677674782351163 L60.0,-10.64064153030673 L60.0,-12.46979603717467 L60.0,-14.14213562373095 L60.0,-15.636629649360597 L60.0,-16.93448398456568 L60.0,-18.019377358048384 L60.0,-18.877666606167352 L60.0,-19.498558243636474 L60.0,-19.87424419786485 L60.0,-19.999999999999996 " />
			<path d="M60.0,20.0 L60.0,19.87424419786485 L60.0,19.498558243636474 L60.0,18.877666606167352 L60.0,18.019377358048384 L60.0,16.934483984565684 L60.0,15.636629649360598 L60.0,14.142135623730955 L60.0,12.469796037174675 L60.0,10.640641530306736 L60.0,8.677674782351167 L60.0,6.605581239103346 L60.0,4.450418679126293 L60.0,2.2392895220661617 L60.0,1.8214468036439e-13 " />
			<path d="M10.0,40.0 L0.0,40.0 " />
			<path d="M10.0,-40.0 L0.0,-40.0 " />
			<path d="M60.0,20.0 L10.0,20.0 " />
			<path d="M60.0,-20.0 L10.0,-20.0 " />

       </g>
    </g>
    
</svg>
